<svg width="161" height="81" viewBox="0 0 161 81" fill="none" xmlns="http://www.w3.org/2000/svg">
<path d="M114.994 56.9459V39.8234C114.994 36.4394 117.746 33.6689 121.111 33.6689H138.667V15.4244C138.667 15.0569 138.691 14.6954 138.73 14.3384H121.831C107.663 14.3384 96.0723 26.0024 96.0723 40.2569V56.9459H114.996H114.994Z" fill="#64C8CC"/>
<path d="M138.669 33.6704V50.7929C138.669 54.1769 135.917 56.9474 132.553 56.9474H114.996V75.1919C114.996 75.5594 114.972 75.9209 114.934 76.2779H131.833C146.001 76.2779 157.591 64.6139 157.591 50.3594V33.6704H138.668H138.669Z" fill="#30A1DB"/>
<path d="M41.4524 14.7075V33.873C41.4524 35.2845 40.2493 36.1425 39.2476 36.1425H37.1426V19.197C18.0462 19.197 34.9378 43.4055 16.6927 43.4055C6.96855 43.4055 3.41016 38.0085 3.41016 30.5955C3.41016 25.854 5.21395 22.425 9.57586 22.425L11.3797 22.6275V22.779C9.12417 23.838 7.36956 27.4695 7.36956 30.1935C7.36956 35.085 8.17158 39.2205 16.9938 39.3225C28.7229 39.3225 13.6858 14.7105 37.1426 14.7105H41.4539L41.4524 14.7075Z" fill="#252158"/>
<path d="M65.5597 28.5782C65.5597 32.3102 64.959 35.5382 64.6578 36.5462C63.2044 41.3372 58.8439 44.9687 52.6782 44.9687C50.4227 44.9687 48.5683 44.4137 48.5683 42.6482V40.9832C49.3703 41.1842 50.3229 41.2862 51.3246 41.2862C56.2873 41.2862 59.3448 39.1172 60.5479 36.1412C54.4328 35.9897 46.2129 34.4762 46.2129 25.7522C46.2129 18.8927 49.9219 14.7077 55.7357 14.7077C63.8051 14.7077 65.5597 22.2722 65.5597 28.5767V28.5782ZM61.0487 31.9067C61.0487 24.5432 61.4498 18.5927 55.284 18.5927C52.2265 18.5927 50.2215 21.1142 50.2215 25.0487C50.2215 31.3022 54.9337 31.9082 61.0487 31.9082V31.9067ZM52.8795 11.8337C52.2772 11.8337 51.8777 11.3297 51.8777 10.8752V10.0682H53.6815L53.5309 9.76517C53.3297 9.36167 53.3297 8.90717 53.3297 8.35367C53.3297 6.23567 54.6326 4.72217 56.6376 4.72217C57.9912 4.72217 59.1436 5.47817 59.4447 6.73967C59.4447 7.34567 59.3448 7.84967 58.9438 8.35367C58.1418 6.33617 56.7882 6.23567 56.4871 6.23567C55.9862 6.23567 55.1335 6.48767 55.1335 8.20217C55.1335 8.95817 55.1842 9.66467 55.7357 10.0682H59.9963V10.8752C59.9963 11.3297 59.5953 11.8337 58.9438 11.8337H52.8795Z" fill="#252158"/>
<path d="M76.9381 36.3945C76.9381 37.05 76.9381 35.0835 76.9381 38.5635C76.9381 42.0435 74.0312 44.9685 70.0718 44.9685C68.0161 44.9685 66.6133 44.1105 66.6133 42.648V41.4885C67.0143 41.5395 67.4153 41.589 67.8163 41.589C73.4796 41.589 72.6284 38.3115 72.6284 31.704V18.894H73.982C76.2375 18.894 76.9396 19.8525 76.9396 22.2735V36.3945H76.9381Z" fill="#252158"/>
<path d="M15.1856 57.3315C14.4835 56.7255 13.2313 56.172 11.6764 56.172C8.66961 56.172 7.51578 57.6855 7.51578 62.577V75.438H5.86106C4.45827 75.438 3.65625 74.328 3.65625 72.816V62.2755C3.65625 55.92 6.71376 52.542 11.1249 52.542C14.2331 52.542 15.3854 53.904 15.3854 55.467V57.333H15.1856V57.3315Z" fill="#252158"/>
<path d="M25.6632 75.8907C19.5989 75.8907 15.0879 71.2002 15.0879 64.3917C15.0879 56.7762 19.1979 52.1367 25.6632 52.1367C31.6783 52.1367 35.8882 56.7267 35.8882 63.5352C35.8882 71.2512 31.8289 75.8922 25.6632 75.8922V75.8907ZM25.0609 55.8177C21.4027 55.8177 18.9966 58.7937 18.9966 63.5847C18.9966 68.8302 21.5532 72.1587 26.0135 72.1587C29.8731 72.1587 31.9288 68.9307 31.9288 64.4427C31.9288 58.7442 29.5734 55.8192 25.0624 55.8192L25.0609 55.8177Z" fill="#252158"/>
<path d="M47.1642 75.8909C42.5026 75.8909 38.4434 73.1669 38.4434 69.0824C38.4434 64.1399 42.2522 61.4669 49.0694 61.4669H52.1269V60.4079C52.1269 57.0284 50.4721 55.6664 46.7632 55.6664C43.3553 55.6664 40.8479 56.9774 39.545 58.7939H39.2946V56.9279C39.2946 54.8099 42.051 52.0859 47.1642 52.0859C52.9289 52.0859 56.0356 55.1114 56.0356 60.7094V67.8704C56.0356 72.5099 53.5297 75.8894 47.1642 75.8894V75.8909ZM52.1761 64.7444H49.0679C44.5062 64.7444 42.4013 66.1559 42.4013 68.6774C42.4013 70.6949 44.4063 72.2579 47.3133 72.2579C50.7718 72.2579 52.1746 70.8959 52.1746 67.5674V64.7429L52.1761 64.7444Z" fill="#252158"/>
<path d="M67.8654 75.8909C63.2038 75.8909 59.1445 73.1669 59.1445 69.0824C59.1445 64.1399 62.9534 61.4669 69.7705 61.4669H72.828V60.4079C72.828 57.0284 71.1733 55.6664 67.4644 55.6664C64.0565 55.6664 61.5491 56.9774 60.2462 58.7939H59.9957V56.9279C59.9957 54.8099 62.7521 52.0859 67.8654 52.0859C73.6301 52.0859 76.7368 55.1114 76.7368 60.7094V67.8704C76.7368 72.5099 74.2308 75.8894 67.8654 75.8894V75.8909ZM72.8772 64.7444H69.769C65.2074 64.7444 63.1024 66.1559 63.1024 68.6774C63.1024 70.6949 65.1075 72.2579 68.0144 72.2579C71.473 72.2579 72.8757 70.8959 72.8757 67.5674V64.7429L72.8772 64.7444Z" fill="#252158"/>
</svg>
