<svg width="634" height="601" viewBox="0 0 634 601" fill="none" xmlns="http://www.w3.org/2000/svg">
<path opacity="0.32" d="M305.69 600.69C466.786 600.69 597.38 470.096 597.38 309C597.38 147.904 466.786 17.3101 305.69 17.3101C144.594 17.3101 14 147.904 14 309C14 470.096 144.594 600.69 305.69 600.69Z" fill="#B3D1E2"/>
<path d="M435 569V568H436V569H435Z" fill="black"/>
<path fill-rule="evenodd" clip-rule="evenodd" d="M175.361 509.967C174.905 509.712 174.372 509.632 173.861 509.743C173.35 509.854 172.898 510.147 172.587 510.569C172.277 510.99 172.131 511.511 172.176 512.033C172.221 512.555 172.455 513.042 172.833 513.404L175.962 516.403C176.266 516.695 176.649 516.89 177.062 516.965C177.476 517.041 177.903 516.992 178.289 516.827C178.676 516.661 179.006 516.385 179.237 516.033C179.469 515.681 179.592 515.269 179.592 514.847V510.482C179.587 509.96 179.392 509.458 179.045 509.07C178.698 508.681 178.221 508.432 177.705 508.369C177.188 508.306 176.666 508.433 176.236 508.727C175.806 509.021 175.498 509.462 175.367 509.967H175.361ZM607.231 254.968C607.795 255.046 608.367 254.897 608.821 254.552C609.275 254.208 609.574 253.697 609.652 253.131C609.73 252.566 609.581 251.992 609.238 251.537C608.894 251.082 608.384 250.782 607.821 250.704C606.285 250.488 604.737 250.379 603.186 250.378C601.778 250.378 600.384 250.331 599.004 250.238C598.439 250.205 597.885 250.398 597.461 250.774C597.037 251.149 596.778 251.677 596.74 252.243C596.703 252.809 596.889 253.367 597.26 253.796C597.63 254.224 598.154 254.489 598.718 254.532C600.193 254.631 601.683 254.681 603.186 254.681C604.539 254.683 605.891 254.779 607.231 254.968ZM589.854 253.338C590.412 253.453 590.992 253.342 591.468 253.028C591.943 252.714 592.275 252.223 592.39 251.664C592.505 251.105 592.393 250.523 592.08 250.046C591.767 249.569 591.278 249.237 590.72 249.122C587.99 248.559 585.302 247.806 582.675 246.868C582.143 246.691 581.562 246.729 581.057 246.976C580.553 247.223 580.165 247.658 579.977 248.188C579.788 248.718 579.814 249.301 580.049 249.812C580.284 250.323 580.71 250.722 581.234 250.922C584.048 251.927 586.928 252.734 589.854 253.338ZM573.033 247.31C573.283 247.441 573.556 247.523 573.836 247.549C574.117 247.574 574.4 247.545 574.669 247.461C574.939 247.377 575.189 247.241 575.406 247.06C575.622 246.88 575.802 246.658 575.933 246.408C576.064 246.158 576.145 245.884 576.171 245.603C576.197 245.321 576.167 245.037 576.084 244.767C576 244.497 575.865 244.247 575.684 244.029C575.504 243.812 575.283 243.632 575.034 243.5C572.57 242.202 570.205 240.724 567.957 239.078C567.729 238.912 567.471 238.792 567.197 238.725C566.923 238.658 566.639 238.647 566.36 238.69C566.082 238.734 565.815 238.832 565.574 238.979C565.333 239.126 565.124 239.319 564.958 239.548C564.622 240.009 564.483 240.585 564.57 241.149C564.658 241.713 564.966 242.219 565.426 242.555C567.843 244.324 570.385 245.913 573.033 247.31ZM558.595 236.719C558.793 236.927 559.03 237.093 559.293 237.207C559.556 237.321 559.84 237.382 560.126 237.384C560.413 237.387 560.697 237.332 560.962 237.223C561.228 237.113 561.468 236.952 561.67 236.748C561.872 236.544 562.031 236.301 562.138 236.034C562.245 235.768 562.297 235.482 562.292 235.195C562.287 234.907 562.225 234.624 562.109 234.361C561.993 234.098 561.826 233.861 561.617 233.664C559.646 231.705 557.831 229.594 556.19 227.351C556.025 227.117 555.816 226.918 555.575 226.767C555.333 226.615 555.063 226.513 554.782 226.467C554.501 226.421 554.213 226.431 553.936 226.498C553.658 226.564 553.397 226.686 553.167 226.855C552.937 227.023 552.743 227.237 552.596 227.482C552.449 227.727 552.352 227.999 552.311 228.282C552.27 228.565 552.286 228.853 552.357 229.13C552.429 229.407 552.554 229.666 552.727 229.894C554.501 232.32 556.463 234.602 558.595 236.719ZM548.016 222.205C548.278 222.706 548.726 223.083 549.263 223.255C549.8 223.428 550.384 223.381 550.887 223.126C551.39 222.87 551.773 222.427 551.952 221.891C552.132 221.355 552.094 220.77 551.846 220.261C550.597 217.787 549.56 215.211 548.746 212.561C548.569 212.028 548.191 211.585 547.693 211.328C547.194 211.071 546.616 211.019 546.08 211.184C545.544 211.349 545.094 211.717 544.825 212.21C544.557 212.704 544.491 213.283 544.643 213.824C545.527 216.709 546.656 219.513 548.016 222.205ZM542.753 204.98C542.835 205.536 543.131 206.038 543.578 206.379C544.024 206.719 544.586 206.871 545.143 206.801C545.699 206.731 546.206 206.446 546.556 206.006C546.905 205.566 547.069 205.007 547.012 204.447C546.767 202.474 546.644 200.487 546.645 198.499V196.055C546.645 195.484 546.419 194.936 546.016 194.533C545.614 194.129 545.068 193.902 544.499 193.902C543.929 193.902 543.383 194.129 542.981 194.533C542.578 194.936 542.352 195.484 542.352 196.055V198.499C542.352 200.665 542.486 202.83 542.753 204.98ZM542.352 187.365C542.352 187.936 542.578 188.484 542.981 188.887C543.383 189.291 543.929 189.518 544.499 189.518C545.068 189.518 545.614 189.291 546.016 188.887C546.419 188.484 546.645 187.936 546.645 187.365V179.453C546.645 179.186 546.645 178.919 546.645 178.653C546.648 178.367 546.593 178.082 546.484 177.817C546.376 177.551 546.215 177.31 546.012 177.108C545.81 176.906 545.568 176.746 545.303 176.639C545.038 176.531 544.754 176.478 544.468 176.482C544.182 176.486 543.899 176.547 543.637 176.663C543.375 176.778 543.139 176.944 542.942 177.152C542.745 177.36 542.591 177.606 542.49 177.874C542.389 178.143 542.343 178.429 542.354 178.715C542.354 178.96 542.354 179.206 542.354 179.453V187.365H542.352ZM541.561 170.421C541.676 170.967 541.999 171.447 542.461 171.759C542.922 172.072 543.487 172.192 544.035 172.094C544.584 171.997 545.073 171.689 545.4 171.237C545.726 170.784 545.865 170.222 545.786 169.669C545.26 166.705 544.5 163.788 543.511 160.946C543.324 160.407 542.931 159.965 542.419 159.716C541.906 159.468 541.317 159.434 540.779 159.621C540.242 159.809 539.801 160.203 539.553 160.716C539.305 161.23 539.271 161.821 539.458 162.36C540.371 164.987 541.072 167.682 541.556 170.421H541.561ZM536.122 154.725C536.395 155.221 536.851 155.589 537.392 155.749C537.933 155.91 538.516 155.851 539.013 155.584C539.511 155.317 539.884 154.865 540.052 154.325C540.219 153.784 540.168 153.199 539.908 152.697C538.496 150.048 536.886 147.51 535.092 145.104C534.751 144.647 534.243 144.344 533.68 144.262C533.117 144.18 532.544 144.326 532.088 144.667C531.631 145.009 531.329 145.518 531.248 146.083C531.166 146.648 531.312 147.223 531.652 147.68C533.317 149.912 534.811 152.267 536.122 154.725ZM526.188 141.365C526.385 141.573 526.622 141.74 526.885 141.855C527.148 141.97 527.431 142.031 527.718 142.034C528.005 142.038 528.289 141.984 528.554 141.875C528.82 141.767 529.061 141.606 529.264 141.402C529.466 141.199 529.626 140.956 529.733 140.69C529.841 140.423 529.894 140.138 529.89 139.85C529.886 139.563 529.824 139.279 529.709 139.016C529.593 138.753 529.427 138.516 529.218 138.318C527.102 136.203 524.84 134.24 522.449 132.443C522.223 132.273 521.967 132.15 521.694 132.08C521.42 132.01 521.136 131.994 520.857 132.034C520.578 132.074 520.31 132.169 520.067 132.313C519.825 132.457 519.613 132.647 519.444 132.874C519.274 133.1 519.151 133.357 519.082 133.631C519.012 133.905 518.996 134.19 519.036 134.47C519.076 134.749 519.171 135.019 519.314 135.262C519.458 135.505 519.648 135.718 519.873 135.887C522.104 137.562 524.214 139.392 526.188 141.365ZM512.864 131.328C513.11 131.496 513.389 131.611 513.683 131.665C513.976 131.719 514.277 131.711 514.568 131.642C514.858 131.573 515.13 131.444 515.368 131.263C515.606 131.082 515.803 130.854 515.948 130.592C516.092 130.331 516.181 130.042 516.208 129.744C516.235 129.446 516.2 129.146 516.105 128.862C516.01 128.579 515.857 128.318 515.656 128.097C515.455 127.876 515.21 127.7 514.937 127.579C512.331 126.128 509.632 124.851 506.858 123.755C506.594 123.643 506.311 123.585 506.025 123.585C505.738 123.584 505.454 123.641 505.19 123.752C504.926 123.863 504.687 124.026 504.487 124.232C504.286 124.437 504.129 124.68 504.024 124.947C503.919 125.215 503.868 125.5 503.875 125.787C503.882 126.074 503.946 126.357 504.063 126.619C504.18 126.881 504.349 127.117 504.558 127.312C504.768 127.508 505.014 127.66 505.283 127.758C507.882 128.786 510.41 129.983 512.852 131.343L512.864 131.328ZM497.221 124.954C497.759 125.126 498.342 125.078 498.845 124.821C499.348 124.564 499.73 124.119 499.908 123.582C500.085 123.045 500.045 122.459 499.796 121.951C499.546 121.444 499.107 121.055 498.574 120.87L490.357 118.136C489.819 117.964 489.236 118.012 488.733 118.269C488.23 118.526 487.848 118.971 487.671 119.508C487.493 120.045 487.533 120.631 487.782 121.139C488.032 121.646 488.471 122.035 489.004 122.22L497.221 124.954ZM480.782 119.498C481.05 119.591 481.335 119.63 481.618 119.613C481.902 119.595 482.18 119.521 482.435 119.395C482.69 119.269 482.917 119.093 483.104 118.878C483.291 118.664 483.433 118.414 483.523 118.143C483.612 117.873 483.647 117.587 483.626 117.303C483.605 117.018 483.527 116.741 483.398 116.487C483.269 116.233 483.091 116.008 482.874 115.823C482.657 115.639 482.406 115.499 482.135 115.413L473.918 112.677C473.38 112.506 472.797 112.554 472.294 112.811C471.791 113.068 471.409 113.513 471.232 114.05C471.054 114.587 471.094 115.173 471.343 115.68C471.593 116.188 472.032 116.577 472.565 116.762L480.782 119.498ZM464.348 114.031C464.615 114.121 464.898 114.156 465.18 114.136C465.461 114.115 465.736 114.04 465.988 113.913C466.24 113.786 466.465 113.611 466.65 113.397C466.835 113.183 466.975 112.935 467.064 112.666C467.153 112.397 467.189 112.114 467.169 111.832C467.148 111.55 467.073 111.274 466.946 111.021C466.82 110.768 466.645 110.543 466.432 110.357C466.218 110.172 465.971 110.031 465.703 109.942L457.486 107.206C456.945 107.026 456.356 107.069 455.847 107.325C455.338 107.581 454.951 108.03 454.772 108.572C454.593 109.113 454.636 109.705 454.891 110.215C455.146 110.725 455.593 111.113 456.134 111.293L464.348 114.031ZM447.913 108.557C448.183 108.653 448.468 108.693 448.753 108.677C449.038 108.661 449.317 108.588 449.574 108.462C449.83 108.336 450.059 108.16 450.247 107.945C450.435 107.729 450.578 107.478 450.668 107.206C450.758 106.935 450.793 106.647 450.771 106.362C450.749 106.077 450.67 105.798 450.54 105.544C450.409 105.289 450.229 105.063 450.01 104.879C449.791 104.695 449.538 104.557 449.265 104.472L441.048 101.737C440.779 101.641 440.494 101.6 440.209 101.616C439.924 101.633 439.645 101.706 439.388 101.832C439.132 101.957 438.903 102.133 438.715 102.349C438.527 102.564 438.384 102.815 438.294 103.087C438.204 103.359 438.169 103.646 438.191 103.931C438.213 104.217 438.292 104.495 438.422 104.75C438.553 105.004 438.733 105.23 438.952 105.414C439.17 105.598 439.424 105.737 439.696 105.821L447.913 108.557ZM431.478 103.086C431.746 103.179 432.031 103.218 432.314 103.2C432.598 103.183 432.876 103.109 433.131 102.983C433.386 102.857 433.613 102.681 433.8 102.466C433.986 102.251 434.129 102.001 434.218 101.731C434.308 101.46 434.343 101.175 434.322 100.891C434.301 100.606 434.223 100.329 434.094 100.075C433.965 99.8212 433.787 99.5954 433.57 99.411C433.353 99.2266 433.102 99.0872 432.831 99.0009L424.614 96.2718C424.088 96.1375 423.532 96.2078 423.055 96.4685C422.579 96.7292 422.219 97.161 422.048 97.6771C421.876 98.1932 421.906 98.7553 422.131 99.2502C422.356 99.7452 422.76 100.136 423.261 100.345L431.478 103.081V103.086ZM415.044 97.616C415.311 97.705 415.594 97.7403 415.875 97.7198C416.156 97.6994 416.43 97.6236 416.682 97.4968C416.934 97.3701 417.159 97.1947 417.343 96.9809C417.528 96.7671 417.668 96.5189 417.757 96.2506C417.846 95.9823 417.881 95.6991 417.861 95.4172C417.84 95.1352 417.765 94.86 417.638 94.6074C417.512 94.3547 417.337 94.1295 417.124 93.9446C416.911 93.7597 416.663 93.6187 416.396 93.5297L408.182 90.7957C407.913 90.7 407.627 90.6591 407.342 90.6754C407.057 90.6917 406.778 90.7649 406.521 90.8907C406.265 91.0164 406.036 91.1923 405.848 91.4079C405.66 91.6235 405.517 91.8745 405.427 92.1463C405.337 92.418 405.302 92.7051 405.324 92.9905C405.346 93.276 405.425 93.5542 405.556 93.8088C405.686 94.0635 405.866 94.2894 406.085 94.4734C406.304 94.6574 406.557 94.7957 406.83 94.8804L415.047 97.616H415.044ZM398.609 92.1447C398.879 92.2404 399.164 92.2813 399.449 92.265C399.734 92.2487 400.013 92.1755 400.27 92.0497C400.526 91.924 400.755 91.7481 400.943 91.5325C401.131 91.3169 401.274 91.0659 401.364 90.7941C401.454 90.5224 401.489 90.2353 401.467 89.9499C401.445 89.6644 401.366 89.3862 401.236 89.1316C401.105 88.877 400.925 88.651 400.706 88.467C400.487 88.2831 400.234 88.1447 399.961 88.06L391.744 85.3244C391.475 85.2287 391.19 85.1878 390.905 85.2041C390.62 85.2204 390.341 85.2936 390.084 85.4194C389.827 85.5452 389.599 85.721 389.411 85.9366C389.223 86.1522 389.08 86.4033 388.99 86.675C388.9 86.9468 388.865 87.2338 388.887 87.5193C388.909 87.8048 388.988 88.083 389.118 88.3376C389.249 88.5922 389.429 88.8181 389.648 89.0021C389.866 89.1861 390.12 89.3245 390.392 89.4091L398.609 92.1447ZM382.174 86.6735C382.442 86.767 382.727 86.806 383.01 86.7883C383.294 86.7707 383.572 86.6967 383.827 86.5707C384.081 86.4446 384.309 86.2691 384.496 86.0542C384.682 85.8393 384.825 85.5893 384.914 85.3188C385.004 85.0483 385.039 84.7626 385.018 84.4784C384.997 84.1941 384.919 83.917 384.79 83.663C384.661 83.409 384.483 83.1833 384.266 82.9989C384.049 82.8145 383.798 82.6751 383.527 82.5888L375.309 79.8531C374.768 79.6734 374.179 79.7162 373.67 79.9723C373.161 80.2284 372.774 80.6766 372.595 81.2185C372.416 81.7604 372.458 82.3515 372.714 82.8618C372.969 83.3721 373.416 83.7597 373.957 83.9395L382.174 86.6735ZM365.74 81.2039C366.277 81.3752 366.861 81.3272 367.364 81.0703C367.867 80.8134 368.248 80.3682 368.426 79.8312C368.604 79.2942 368.564 78.7085 368.315 78.2009C368.065 77.6933 367.626 77.3047 367.093 77.1192L358.876 74.3835C358.338 74.2122 357.755 74.2602 357.252 74.5171C356.749 74.774 356.367 75.2192 356.189 75.7562C356.011 76.2932 356.051 76.8789 356.301 77.3865C356.55 77.8941 356.989 78.2827 357.522 78.4682L365.74 81.2039ZM349.305 75.7326C349.575 75.8283 349.86 75.8692 350.145 75.8529C350.43 75.8366 350.709 75.7634 350.966 75.6376C351.222 75.5118 351.451 75.336 351.639 75.1204C351.827 74.9048 351.97 74.6537 352.06 74.382C352.15 74.1102 352.185 73.8232 352.163 73.5377C352.141 73.2523 352.062 72.9741 351.932 72.7194C351.801 72.4648 351.621 72.2389 351.402 72.0549C351.183 71.8709 350.93 71.7325 350.657 71.6479L342.44 68.9123C342.171 68.8166 341.886 68.7757 341.601 68.792C341.315 68.8083 341.036 68.8815 340.78 69.0073C340.523 69.1331 340.295 69.3089 340.107 69.5245C339.919 69.7401 339.776 69.9911 339.686 70.2629C339.596 70.5347 339.561 70.8217 339.583 71.1072C339.605 71.3926 339.684 71.6708 339.814 71.9254C339.945 72.1801 340.125 72.406 340.344 72.59C340.562 72.774 340.816 72.9123 341.088 72.997L349.305 75.7326ZM332.87 70.2613C333.138 70.3548 333.423 70.3938 333.706 70.3762C333.99 70.3585 334.267 70.2846 334.522 70.1585C334.777 70.0325 335.005 69.8569 335.192 69.642C335.378 69.4271 335.521 69.1772 335.61 68.9067C335.7 68.6362 335.735 68.3505 335.714 68.0663C335.692 67.782 335.615 67.5048 335.486 67.2509C335.357 66.9969 335.179 66.7711 334.962 66.5867C334.745 66.4023 334.494 66.2629 334.223 66.1766L326.004 63.441C325.464 63.2613 324.875 63.3041 324.366 63.5602C323.857 63.8162 323.47 64.2645 323.291 64.8064C323.112 65.3483 323.154 65.9394 323.41 66.4497C323.665 66.9599 324.112 67.3476 324.653 67.5274L332.87 70.2613ZM316.436 64.7917C316.704 64.8852 316.988 64.9242 317.272 64.9066C317.556 64.8889 317.833 64.8149 318.088 64.6889C318.343 64.5629 318.571 64.3873 318.758 64.1724C318.944 63.9575 319.087 63.7076 319.176 63.437C319.266 63.1665 319.301 62.8809 319.28 62.5966C319.258 62.3124 319.181 62.0352 319.052 61.7812C318.923 61.5273 318.745 61.3015 318.528 61.1171C318.311 60.9327 318.06 60.7933 317.789 60.707L309.57 57.9714C309.034 57.8049 308.453 57.856 307.954 58.1136C307.454 58.3713 307.076 58.815 306.899 59.3496C306.722 59.8842 306.761 60.467 307.008 60.973C307.254 61.479 307.689 61.8678 308.218 62.0561L316.436 64.7917ZM300.001 59.3205C300.271 59.4162 300.556 59.4571 300.841 59.4408C301.126 59.4244 301.405 59.3513 301.662 59.2255C301.918 59.0997 302.147 58.9239 302.335 58.7082C302.523 58.4926 302.666 58.2416 302.756 57.9699C302.846 57.6981 302.881 57.4111 302.859 57.1256C302.837 56.8401 302.758 56.5619 302.628 56.3073C302.497 56.0527 302.317 55.8268 302.098 55.6428C301.879 55.4588 301.626 55.3204 301.353 55.2358L293.139 52.5001C292.87 52.4044 292.585 52.3635 292.3 52.3799C292.015 52.3962 291.736 52.4694 291.479 52.5951C291.223 52.7209 290.994 52.8968 290.806 53.1124C290.618 53.328 290.475 53.579 290.385 53.8508C290.295 54.1225 290.26 54.4095 290.282 54.695C290.304 54.9805 290.383 55.2587 290.513 55.5133C290.644 55.7679 290.824 55.9938 291.043 56.1778C291.262 56.3618 291.515 56.5002 291.788 56.5848L300.005 59.3205H300.001ZM283.567 53.8508C284.104 54.0173 284.684 53.9663 285.184 53.7086C285.683 53.4509 286.062 53.0072 286.239 52.4726C286.416 51.9381 286.377 51.3552 286.13 50.8492C285.883 50.3432 285.449 49.9544 284.919 49.7661L276.702 47.0305C276.433 46.9348 276.147 46.8939 275.862 46.9102C275.577 46.9265 275.298 46.9997 275.042 47.1255C274.785 47.2513 274.556 47.4271 274.368 47.6427C274.181 47.8583 274.037 48.1094 273.947 48.3811C273.857 48.6529 273.823 48.9399 273.845 49.2254C273.867 49.5109 273.945 49.7891 274.076 50.0437C274.207 50.2983 274.387 50.5242 274.605 50.7082C274.824 50.8922 275.077 51.0306 275.35 51.1152L283.567 53.8508ZM267.131 48.3796C267.401 48.4753 267.686 48.5162 267.971 48.4999C268.256 48.4836 268.535 48.4104 268.792 48.2846C269.048 48.1588 269.277 47.983 269.465 47.7674C269.653 47.5518 269.796 47.3007 269.886 47.029C269.976 46.7572 270.011 46.4702 269.989 46.1847C269.967 45.8992 269.888 45.621 269.758 45.3664C269.627 45.1118 269.447 44.8859 269.228 44.7019C269.009 44.5179 268.756 44.3795 268.483 44.2949L260.266 41.5593C259.73 41.3928 259.149 41.4438 258.65 41.7015C258.15 41.9592 257.772 42.4029 257.595 42.9375C257.418 43.472 257.457 44.0549 257.704 44.5609C257.95 45.0669 258.385 45.4557 258.914 45.644L267.131 48.3796ZM250.697 42.91C251.238 43.0897 251.827 43.0469 252.336 42.7908C252.845 42.5348 253.232 42.0865 253.411 41.5446C253.59 41.0027 253.547 40.4116 253.292 39.9013C253.037 39.3911 252.59 39.0034 252.049 38.8236L243.832 36.0896C243.563 35.9939 243.278 35.953 242.992 35.9694C242.707 35.9857 242.428 36.0589 242.172 36.1846C241.915 36.3104 241.686 36.4863 241.499 36.7019C241.311 36.9175 241.167 37.1685 241.078 37.4403C240.988 37.712 240.953 37.999 240.975 38.2845C240.997 38.57 241.075 38.8482 241.206 39.1028C241.337 39.3574 241.517 39.5833 241.735 39.7673C241.954 39.9513 242.207 40.0897 242.48 40.1743L250.697 42.91ZM234.263 37.4387C234.532 37.5344 234.818 37.5753 235.103 37.559C235.388 37.5427 235.667 37.4695 235.924 37.3437C236.18 37.2179 236.409 37.0421 236.597 36.8265C236.785 36.6109 236.928 36.3599 237.018 36.0881C237.108 35.8163 237.143 35.5293 237.121 35.2438C237.099 34.9584 237.02 34.6802 236.889 34.4255C236.759 34.1709 236.579 33.945 236.36 33.761C236.141 33.577 235.888 33.4386 235.615 33.354L227.398 30.6184C227.129 30.5227 226.843 30.4818 226.558 30.4981C226.273 30.5144 225.994 30.5876 225.738 30.7134C225.481 30.8392 225.252 31.015 225.064 31.2306C224.876 31.4462 224.733 31.6972 224.643 31.969C224.553 32.2408 224.519 32.5278 224.541 32.8133C224.563 33.0987 224.641 33.3769 224.772 33.6316C224.903 33.8862 225.083 34.1121 225.301 34.2961C225.52 34.4801 225.773 34.6184 226.046 34.7031L234.263 37.4387ZM217.829 31.9675C218.366 32.1339 218.946 32.0829 219.446 31.8252C219.945 31.5676 220.324 31.1238 220.501 30.5892C220.678 30.0547 220.639 29.4718 220.392 28.9659C220.145 28.4599 219.71 28.071 219.181 27.8828L210.964 25.1471C210.426 24.9758 209.842 25.0238 209.34 25.2807C208.837 25.5376 208.455 25.9828 208.277 26.5198C208.099 27.0568 208.139 27.6425 208.389 28.1501C208.638 28.6577 209.077 29.0463 209.61 29.2318L217.829 31.9675ZM201.393 26.4978C201.931 26.6691 202.515 26.6211 203.018 26.3642C203.52 26.1073 203.902 25.6622 204.08 25.1252C204.258 24.5881 204.218 24.0024 203.968 23.4949C203.719 22.9873 203.28 22.5987 202.747 22.4131L194.528 19.6775C193.987 19.4977 193.397 19.5408 192.888 19.7971C192.379 20.0535 191.992 20.5022 191.813 21.0445C191.634 21.5868 191.677 22.1783 191.932 22.6889C192.188 23.1995 192.635 23.5873 193.176 23.7671L201.393 26.5027V26.4978ZM184.959 21.0266C185.496 21.1931 186.076 21.142 186.576 20.8843C187.075 20.6267 187.454 20.1829 187.631 19.6484C187.808 19.1138 187.769 18.531 187.522 18.025C187.275 17.519 186.84 17.1301 186.311 16.9419L178.097 14.2063C177.559 14.0349 176.976 14.0829 176.473 14.3398C175.97 14.5968 175.588 15.0419 175.411 15.5789C175.233 16.1159 175.273 16.7016 175.522 17.2092C175.772 17.7168 176.211 18.1054 176.744 18.291L184.962 21.0266H184.959ZM168.525 15.5553C169.062 15.7218 169.642 15.6708 170.141 15.4131C170.641 15.1554 171.02 14.7117 171.197 14.1771C171.374 13.6425 171.335 13.0597 171.088 12.5537C170.841 12.0477 170.406 11.6589 169.877 11.4706L161.66 8.73662C161.122 8.56532 160.538 8.61332 160.036 8.87022C159.533 9.12713 159.151 9.57227 158.973 10.1093C158.795 10.6463 158.835 11.232 159.085 11.7396C159.334 12.2472 159.773 12.6358 160.306 12.8213L168.525 15.5553ZM152.089 10.0808C152.358 10.1765 152.644 10.2174 152.929 10.2011C153.214 10.1848 153.493 10.1116 153.75 9.98581C154.006 9.86003 154.235 9.68419 154.423 9.46859C154.611 9.25299 154.754 9.00195 154.844 8.7302C154.934 8.45844 154.969 8.17141 154.947 7.88593C154.925 7.60046 154.846 7.32226 154.715 7.06764C154.585 6.81303 154.405 6.58711 154.186 6.40311C153.967 6.21912 153.714 6.08075 153.441 5.99611L145.897 3.4837C145.666 3.40712 145.434 3.33054 145.201 3.25722C144.66 3.08717 144.074 3.13864 143.571 3.40041C143.068 3.66218 142.688 4.11297 142.515 4.65438C142.342 5.19578 142.39 5.78381 142.648 6.29009C142.906 6.79637 143.353 7.17978 143.892 7.35659L144.542 7.5684L152.089 10.0808ZM135.766 5.30854C136.326 5.41225 136.904 5.28855 137.374 4.96466C137.843 4.64077 138.165 4.14322 138.268 3.58146C138.371 3.0197 138.248 2.43975 137.925 1.96919C137.602 1.49863 137.106 1.17602 136.546 1.07231C133.618 0.530043 130.659 0.173057 127.687 0.00347142C127.405 -0.012576 127.123 0.0271227 126.857 0.120298C126.591 0.213473 126.346 0.3583 126.135 0.546512C125.925 0.734725 125.754 0.962638 125.631 1.21723C125.509 1.47183 125.438 1.74812 125.422 2.03035C125.406 2.31257 125.445 2.59518 125.538 2.86206C125.631 3.12894 125.775 3.37485 125.963 3.58576C126.151 3.79667 126.378 3.96844 126.632 4.09126C126.886 4.21409 127.161 4.28557 127.443 4.30162C130.235 4.46003 133.015 4.79525 135.766 5.30528V5.30854ZM119.06 4.35376C119.628 4.31465 120.157 4.05089 120.531 3.62052C120.905 3.19014 121.094 2.6284 121.055 2.05886C121.016 1.48932 120.753 0.958647 120.323 0.583576C119.894 0.208505 119.334 0.0197631 118.766 0.0588702C115.796 0.262169 112.841 0.652892 109.92 1.22872C109.369 1.34622 108.886 1.67646 108.575 2.14811C108.265 2.61977 108.151 3.19499 108.26 3.74955C108.369 4.30411 108.691 4.79349 109.157 5.11201C109.622 5.43053 110.194 5.55262 110.749 5.45192C113.494 4.91127 116.269 4.54449 119.06 4.35376ZM102.649 7.59447C103.182 7.40828 103.62 7.01913 103.869 6.51126C104.118 6.00339 104.157 5.41767 103.979 4.88087C103.8 4.34407 103.418 3.89939 102.915 3.64308C102.412 3.38678 101.828 3.33947 101.29 3.5114C98.4628 4.45562 95.6995 5.58332 93.018 6.88735C92.5058 7.13668 92.1134 7.57982 91.9271 8.11928C91.7407 8.65874 91.7757 9.25033 92.0244 9.76391C92.273 10.2775 92.715 10.671 93.253 10.8578C93.791 11.0447 94.3809 11.0096 94.8931 10.7602C97.4068 9.53672 99.9975 8.47921 102.649 7.59447ZM87.6282 14.9264C87.8738 14.7751 88.0865 14.5758 88.2536 14.3404C88.4207 14.1049 88.5388 13.8381 88.6009 13.5559C88.6629 13.2737 88.6677 12.9818 88.6148 12.6977C88.5619 12.4136 88.4526 12.1431 88.2932 11.9023C88.1338 11.6615 87.9277 11.4554 87.6872 11.2962C87.4467 11.137 87.1766 11.028 86.8932 10.9757C86.6097 10.9234 86.3187 10.9289 86.0374 10.9918C85.7561 11.0547 85.4903 11.1738 85.2559 11.3419C82.7664 12.9961 80.3943 14.8215 78.1567 16.805C77.9266 16.9863 77.7358 17.2128 77.5962 17.4708C77.4565 17.7287 77.3709 18.0125 77.3447 18.3048C77.3185 18.5971 77.3521 18.8917 77.4436 19.1705C77.5351 19.4493 77.6825 19.7063 77.8767 19.9259C78.071 20.1455 78.3079 20.3229 78.573 20.4472C78.8381 20.5716 79.1258 20.6403 79.4183 20.6491C79.7109 20.6578 80.0022 20.6065 80.2742 20.4983C80.5463 20.3901 80.7933 20.2272 81.0003 20.0197C83.0893 18.1688 85.3034 16.4648 87.6266 14.9199L87.6282 14.9264ZM75.1637 26.0058C75.5317 25.5702 75.7121 25.0059 75.6652 24.4369C75.6183 23.868 75.3479 23.341 74.9135 22.972C74.4791 22.603 73.9163 22.4221 73.3489 22.4691C72.7815 22.5162 72.256 22.7873 71.8879 23.2229C69.9519 25.5128 68.1884 27.944 66.6119 30.4962C66.456 30.7365 66.3495 31.0057 66.2988 31.2879C66.248 31.5701 66.254 31.8596 66.3164 32.1394C66.3788 32.4192 66.4963 32.6837 66.6621 32.9174C66.8278 33.151 67.0385 33.3491 67.2816 33.5C67.5248 33.6509 67.7955 33.7516 68.078 33.7961C68.3605 33.8406 68.649 33.828 68.9266 33.7592C69.2042 33.6903 69.4653 33.5666 69.6945 33.3951C69.9237 33.2237 70.1165 33.0081 70.2614 32.7609C71.7264 30.3906 73.365 28.1326 75.1637 26.0058ZM66.4364 40.1695C66.6584 39.6438 66.663 39.0512 66.4492 38.5222C66.2354 37.9931 65.8208 37.5708 65.2966 37.3483C64.7723 37.1257 64.1814 37.1211 63.6538 37.3355C63.1261 37.5498 62.705 37.9656 62.4831 38.4913C61.313 41.2623 60.3622 44.1213 59.6395 47.0419C59.5029 47.5961 59.5914 48.182 59.8857 48.6708C60.1799 49.1595 60.6557 49.511 61.2083 49.648C61.761 49.785 62.3453 49.6962 62.8328 49.4012C63.3202 49.1062 63.6707 48.6291 63.8074 48.0749C64.4749 45.3745 65.354 42.7311 66.4364 40.1695ZM62.4652 56.2997C62.4915 56.0163 62.4614 55.7305 62.3768 55.4589C62.2922 55.1872 62.1547 54.935 61.9722 54.717C61.7898 54.499 61.566 54.3194 61.3139 54.1887C61.0618 54.058 60.7863 53.9787 60.5034 53.9554C60.2205 53.9321 59.9359 53.9653 59.6659 54.0531C59.3959 54.1409 59.1459 54.2815 58.9305 54.4668C58.715 54.6521 58.5384 54.8784 58.4107 55.1326C58.2831 55.3868 58.207 55.6639 58.1869 55.9478C58.0634 57.462 58.0011 58.9827 58 60.5099V64.795C58 65.3658 58.2261 65.9133 58.6287 66.3169C59.0312 66.7206 59.5772 66.9473 60.1465 66.9473C60.7158 66.9473 61.2617 66.7206 61.6643 66.3169C62.0668 65.9133 62.293 65.3658 62.293 64.795V60.5099C62.293 59.0978 62.3504 57.6928 62.4652 56.2948V56.2997ZM62.293 73.4825C62.293 72.9117 62.0668 72.3642 61.6643 71.9606C61.2617 71.5569 60.7158 71.3302 60.1465 71.3302C59.5772 71.3302 59.0312 71.5569 58.6287 71.9606C58.2261 72.3642 58 72.9117 58 73.4825V82.1635C58 82.7344 58.2261 83.2818 58.6287 83.6855C59.0312 84.0891 59.5772 84.3159 60.1465 84.3159C60.7158 84.3159 61.2617 84.0891 61.6643 83.6855C62.0668 83.2818 62.293 82.7344 62.293 82.1635V73.4695V73.4825ZM62.293 90.8462C62.293 90.2753 62.0668 89.7279 61.6643 89.3242C61.2617 88.9206 60.7158 88.6938 60.1465 88.6938C59.5772 88.6938 59.0312 88.9206 58.6287 89.3242C58.2261 89.7279 58 90.2753 58 90.8462V99.5142C58 100.085 58.2261 100.632 58.6287 101.036C59.0312 101.44 59.5772 101.666 60.1465 101.666C60.7158 101.666 61.2617 101.44 61.6643 101.036C62.0668 100.632 62.293 100.085 62.293 99.5142V90.8331V90.8462ZM62.293 108.21C62.293 107.639 62.0668 107.092 61.6643 106.688C61.2617 106.284 60.7158 106.058 60.1465 106.058C59.5772 106.058 59.0312 106.284 58.6287 106.688C58.2261 107.092 58 107.639 58 108.21V116.892C58 117.463 58.2261 118.011 58.6287 118.414C59.0312 118.818 59.5772 119.045 60.1465 119.045C60.7158 119.045 61.2617 118.818 61.6643 118.414C62.0668 118.011 62.293 117.463 62.293 116.892V108.197V108.21ZM62.293 125.573C62.293 125.003 62.0668 124.455 61.6643 124.052C61.2617 123.648 60.7158 123.421 60.1465 123.421C59.5772 123.421 59.0312 123.648 58.6287 124.052C58.2261 124.455 58 125.003 58 125.573V134.256C58 134.827 58.2261 135.374 58.6287 135.778C59.0312 136.182 59.5772 136.408 60.1465 136.408C60.7158 136.408 61.2617 136.182 61.6643 135.778C62.0668 135.374 62.293 134.827 62.293 134.256V125.56V125.573ZM62.293 142.937C62.293 142.366 62.0668 141.819 61.6643 141.415C61.2617 141.012 60.7158 140.785 60.1465 140.785C59.5772 140.785 59.0312 141.012 58.6287 141.415C58.2261 141.819 58 142.366 58 142.937V151.618C58 152.189 58.2261 152.736 58.6287 153.14C59.0312 153.544 59.5772 153.77 60.1465 153.77C60.7158 153.77 61.2617 153.544 61.6643 153.14C62.0668 152.736 62.293 152.189 62.293 151.618V142.937ZM62.293 160.301C62.293 159.73 62.0668 159.183 61.6643 158.779C61.2617 158.375 60.7158 158.148 60.1465 158.148C59.5772 158.148 59.0312 158.375 58.6287 158.779C58.2261 159.183 58 159.73 58 160.301V168.983C58 169.554 58.2261 170.102 58.6287 170.505C59.0312 170.909 59.5772 171.136 60.1465 171.136C60.7158 171.136 61.2617 170.909 61.6643 170.505C62.0668 170.102 62.293 169.554 62.293 168.983V160.288V160.301ZM62.293 177.664C62.293 177.094 62.0668 176.546 61.6643 176.143C61.2617 175.739 60.7158 175.512 60.1465 175.512C59.5772 175.512 59.0312 175.739 58.6287 176.143C58.2261 176.546 58 177.094 58 177.664V186.347C58 186.918 58.2261 187.465 58.6287 187.869C59.0312 188.273 59.5772 188.499 60.1465 188.499C60.7158 188.499 61.2617 188.273 61.6643 187.869C62.0668 187.465 62.293 186.918 62.293 186.347V177.664ZM62.293 195.028C62.293 194.457 62.0668 193.91 61.6643 193.506C61.2617 193.103 60.7158 192.876 60.1465 192.876C59.5772 192.876 59.0312 193.103 58.6287 193.506C58.2261 193.91 58 194.457 58 195.028V203.711C58 204.282 58.2261 204.829 58.6287 205.233C59.0312 205.636 59.5772 205.863 60.1465 205.863C60.7158 205.863 61.2617 205.636 61.6643 205.233C62.0668 204.829 62.293 204.282 62.293 203.711V195.009V195.028ZM62.293 212.392C62.293 211.821 62.0668 211.273 61.6643 210.87C61.2617 210.466 60.7158 210.239 60.1465 210.239C59.5772 210.239 59.0312 210.466 58.6287 210.87C58.2261 211.273 58 211.821 58 212.392V221.074C58 221.645 58.2261 222.193 58.6287 222.596C59.0312 223 59.5772 223.227 60.1465 223.227C60.7158 223.227 61.2617 223 61.6643 222.596C62.0668 222.193 62.293 221.645 62.293 221.074V212.392ZM62.293 229.755C62.293 229.185 62.0668 228.637 61.6643 228.233C61.2617 227.83 60.7158 227.603 60.1465 227.603C59.5772 227.603 59.0312 227.83 58.6287 228.233C58.2261 228.637 58 229.185 58 229.755V230.79C58.0025 233.62 58.5413 236.423 59.5875 239.051C59.6873 239.319 59.8396 239.565 60.0355 239.774C60.2314 239.983 60.4669 240.151 60.7283 240.267C60.9896 240.383 61.2715 240.446 61.5574 240.452C61.8433 240.457 62.1274 240.405 62.393 240.299C62.6587 240.193 62.9005 240.035 63.1044 239.834C63.3082 239.633 63.4699 239.393 63.58 239.128C63.6902 238.864 63.7464 238.58 63.7455 238.293C63.7447 238.006 63.6867 237.723 63.575 237.459C62.7297 235.338 62.2947 233.074 62.293 230.79V229.755ZM67.8403 243.931C67.6417 243.73 67.4056 243.571 67.1455 243.461C66.8854 243.352 66.6064 243.296 66.3245 243.295C66.0425 243.294 65.7632 243.348 65.5023 243.456C65.2415 243.563 65.0043 243.721 64.8042 243.92C64.6042 244.119 64.4452 244.356 64.3364 244.617C64.2276 244.877 64.1711 245.157 64.1701 245.44C64.1692 245.723 64.2237 246.003 64.3307 246.264C64.4377 246.526 64.595 246.764 64.7937 246.964C65.0618 247.235 65.3364 247.499 65.6191 247.759C67.6659 249.636 70.0003 251.17 72.533 252.304C72.7912 252.427 73.0713 252.497 73.357 252.51C73.6426 252.523 73.928 252.479 74.1963 252.38C74.4646 252.281 74.7106 252.129 74.9196 251.934C75.1286 251.738 75.2966 251.502 75.4136 251.241C75.5306 250.979 75.5944 250.697 75.601 250.41C75.6077 250.124 75.5572 249.839 75.4525 249.572C75.3478 249.305 75.191 249.062 74.9912 248.857C74.7915 248.651 74.553 248.488 74.2895 248.377C72.1769 247.432 70.2294 246.153 68.5212 244.589C68.2893 244.372 68.0624 244.154 67.8403 243.937V243.931ZM81.9298 250.322C81.6448 250.292 81.3567 250.32 81.0826 250.404C80.8084 250.487 80.5537 250.625 80.3335 250.809C80.1132 250.992 79.9319 251.219 79.8002 251.474C79.6685 251.729 79.5891 252.008 79.5666 252.294C79.5442 252.581 79.5791 252.869 79.6694 253.141C79.7598 253.414 79.9036 253.666 80.0925 253.882C80.2814 254.098 80.5115 254.274 80.7693 254.399C81.0271 254.525 81.3073 254.597 81.5934 254.612C82.3192 254.671 83.0493 254.7 83.7837 254.699C85.9138 254.698 88.0422 254.821 90.1582 255.065C90.442 255.105 90.7309 255.088 91.008 255.014C91.285 254.941 91.5445 254.812 91.7712 254.636C91.9979 254.46 92.1872 254.241 92.3279 253.991C92.4686 253.74 92.5578 253.464 92.5904 253.178C92.6229 252.893 92.5981 252.604 92.5174 252.328C92.4367 252.052 92.3018 251.795 92.1205 251.573C91.9393 251.35 91.7154 251.166 91.4621 251.032C91.2088 250.897 90.9312 250.815 90.6457 250.79C88.3667 250.527 86.0745 250.395 83.7805 250.396C83.1598 250.396 82.5407 250.371 81.9265 250.322H81.9298ZM99.4623 252.493C99.1905 252.418 98.9066 252.397 98.6268 252.432C98.3471 252.467 98.077 252.558 97.832 252.697C97.5869 252.837 97.3717 253.024 97.1987 253.247C97.0257 253.47 96.8982 253.725 96.8235 253.998C96.7488 254.271 96.7284 254.555 96.7634 254.836C96.7985 255.116 96.8883 255.387 97.0277 255.633C97.1671 255.879 97.3534 256.094 97.576 256.268C97.7986 256.441 98.0531 256.569 98.3249 256.644C101.004 257.376 103.622 258.315 106.157 259.451C106.675 259.677 107.261 259.689 107.788 259.484C108.315 259.28 108.741 258.875 108.972 258.357C109.203 257.84 109.221 257.253 109.023 256.722C108.824 256.191 108.425 255.76 107.912 255.523C105.178 254.296 102.353 253.283 99.4623 252.493ZM115.809 259.847C115.573 259.685 115.308 259.571 115.027 259.512C114.747 259.454 114.458 259.452 114.178 259.507C113.897 259.562 113.63 259.673 113.393 259.833C113.155 259.994 112.952 260.2 112.795 260.44C112.639 260.679 112.531 260.948 112.479 261.23C112.428 261.513 112.433 261.802 112.494 262.082C112.556 262.363 112.673 262.628 112.838 262.862C113.003 263.096 113.213 263.295 113.456 263.447C115.772 264.967 117.959 266.678 119.993 268.561C120.411 268.949 120.965 269.154 121.534 269.131C122.103 269.109 122.64 268.861 123.026 268.442C123.413 268.023 123.618 267.467 123.595 266.896C123.573 266.326 123.326 265.788 122.908 265.4C120.699 263.355 118.324 261.498 115.809 259.847ZM128.98 272.088C128.627 271.659 128.122 271.383 127.57 271.319C127.019 271.255 126.464 271.408 126.023 271.745C125.581 272.082 125.287 272.578 125.202 273.128C125.117 273.678 125.248 274.24 125.568 274.695C127.242 276.893 128.714 279.238 129.966 281.701C130.225 282.21 130.674 282.595 131.216 282.771C131.757 282.947 132.347 282.901 132.854 282.642C133.361 282.382 133.745 281.932 133.921 281.389C134.096 280.846 134.05 280.255 133.791 279.746C132.422 277.05 130.813 274.484 128.983 272.079L128.98 272.088ZM137.124 288.188C137.05 287.911 136.921 287.653 136.746 287.427C136.57 287.201 136.352 287.012 136.103 286.872C135.854 286.732 135.58 286.643 135.296 286.61C135.013 286.578 134.725 286.602 134.451 286.682C134.177 286.762 133.922 286.897 133.7 287.077C133.478 287.257 133.295 287.48 133.16 287.732C133.025 287.984 132.942 288.261 132.915 288.546C132.888 288.831 132.918 289.119 133.003 289.392C133.775 292.04 134.289 294.756 134.54 297.503C134.592 298.071 134.867 298.595 135.305 298.961C135.743 299.326 136.307 299.502 136.874 299.45C137.441 299.397 137.964 299.122 138.328 298.683C138.692 298.244 138.867 297.678 138.816 297.11C138.539 294.088 137.972 291.1 137.124 288.188ZM138.768 306.192C138.802 305.908 138.779 305.62 138.701 305.346C138.622 305.071 138.49 304.815 138.312 304.592C138.134 304.369 137.913 304.184 137.663 304.047C137.413 303.911 137.138 303.825 136.855 303.796C136.571 303.767 136.285 303.795 136.012 303.878C135.74 303.961 135.486 304.098 135.267 304.28C135.048 304.463 134.867 304.687 134.735 304.94C134.603 305.193 134.522 305.47 134.498 305.755C134.216 308.5 133.672 311.212 132.873 313.853C132.792 314.124 132.765 314.408 132.794 314.689C132.822 314.971 132.906 315.243 133.04 315.492C133.174 315.741 133.355 315.961 133.573 316.14C133.792 316.319 134.044 316.453 134.314 316.534C134.584 316.615 134.867 316.642 135.148 316.613C135.428 316.585 135.701 316.501 135.949 316.367C136.197 316.233 136.417 316.051 136.595 315.832C136.773 315.613 136.907 315.36 136.988 315.089C137.862 312.185 138.458 309.203 138.765 306.185L138.768 306.192ZM133.569 323.495C133.82 322.99 133.863 322.406 133.689 321.87C133.516 321.333 133.138 320.886 132.639 320.625C132.14 320.365 131.559 320.311 131.021 320.476C130.482 320.641 130.03 321.011 129.762 321.507C128.486 323.96 126.992 326.293 125.298 328.476C124.949 328.926 124.792 329.498 124.863 330.064C124.934 330.63 125.226 331.145 125.675 331.495C126.124 331.845 126.694 332.002 127.259 331.931C127.823 331.86 128.337 331.568 128.686 331.117C130.538 328.73 132.169 326.178 133.561 323.495H133.569ZM122.827 337.737C123.019 337.53 123.168 337.286 123.266 337.021C123.365 336.756 123.41 336.474 123.4 336.191C123.389 335.908 123.323 335.63 123.206 335.373C123.088 335.116 122.921 334.884 122.715 334.692C122.508 334.499 122.265 334.349 122.001 334.251C121.736 334.152 121.455 334.107 121.173 334.117C120.891 334.128 120.614 334.194 120.357 334.312C120.101 334.429 119.87 334.597 119.678 334.804L113.794 341.173C113.602 341.381 113.453 341.624 113.356 341.889C113.258 342.154 113.213 342.436 113.224 342.718C113.235 343.001 113.301 343.278 113.419 343.535C113.537 343.792 113.704 344.023 113.911 344.215C114.118 344.407 114.36 344.556 114.625 344.654C114.889 344.753 115.17 344.797 115.452 344.786C115.734 344.776 116.01 344.709 116.267 344.591C116.523 344.473 116.753 344.305 116.945 344.098L122.827 337.729V337.737ZM111.061 350.477C111.258 350.27 111.413 350.027 111.515 349.76C111.618 349.493 111.667 349.209 111.658 348.923C111.65 348.637 111.585 348.356 111.467 348.095C111.349 347.835 111.181 347.601 110.971 347.407C110.762 347.212 110.516 347.062 110.248 346.964C109.981 346.866 109.696 346.822 109.411 346.836C109.126 346.849 108.847 346.92 108.59 347.043C108.332 347.166 108.102 347.339 107.912 347.552L102.028 353.921C101.83 354.127 101.676 354.371 101.573 354.638C101.471 354.904 101.422 355.189 101.431 355.475C101.439 355.761 101.504 356.042 101.622 356.302C101.74 356.563 101.908 356.797 102.118 356.991C102.327 357.185 102.572 357.336 102.84 357.434C103.108 357.532 103.393 357.575 103.678 357.562C103.963 357.548 104.242 357.478 104.499 357.355C104.757 357.232 104.987 357.059 105.177 356.846L111.061 350.477ZM99.2901 363.221C99.4821 363.014 99.6315 362.77 99.7298 362.505C99.8281 362.24 99.8732 361.957 99.8628 361.675C99.8523 361.392 99.7863 361.114 99.6687 360.857C99.5511 360.599 99.384 360.368 99.1772 360.175C98.9703 359.983 98.7276 359.833 98.463 359.734C98.1984 359.636 97.917 359.59 97.6349 359.601C97.3528 359.611 97.0756 359.678 96.819 359.795C96.5624 359.913 96.3315 360.081 96.1394 360.288L95.7478 360.715C93.8491 362.765 92.0923 364.943 90.4897 367.233C90.1748 367.7 90.0558 368.274 90.1583 368.829C90.2608 369.384 90.5767 369.876 91.0378 370.2C91.499 370.523 92.0685 370.653 92.6237 370.559C93.1788 370.466 93.6753 370.158 94.0059 369.701C95.497 367.569 97.1311 365.541 98.8969 363.632L99.2901 363.206V363.221ZM89.7617 376.894C90.004 376.384 90.0361 375.798 89.8511 375.264C89.6661 374.73 89.279 374.29 88.7732 374.04C88.2675 373.789 87.6839 373.749 87.1486 373.927C86.6132 374.104 86.1692 374.486 85.9124 374.99C84.5843 377.688 83.47 380.486 82.5797 383.359C82.4207 383.902 82.4807 384.485 82.747 384.983C83.0133 385.482 83.4643 385.855 84.0028 386.022C84.5412 386.19 85.1237 386.138 85.6245 385.879C86.1254 385.619 86.5042 385.173 86.6793 384.635C87.5047 381.978 88.537 379.39 89.7666 376.894H89.7617ZM84.8578 392.761C84.9051 392.477 84.8953 392.188 84.8292 391.908C84.763 391.629 84.6417 391.366 84.4726 391.134C84.3034 390.902 84.0897 390.707 83.844 390.559C83.5984 390.412 83.3258 390.315 83.0422 390.275C82.7587 390.234 82.47 390.251 82.1931 390.324C81.9162 390.398 81.6568 390.526 81.43 390.701C81.2032 390.876 81.0138 391.096 80.8727 391.345C80.7317 391.595 80.6419 391.871 80.6087 392.156C80.1858 395.137 80.0037 398.148 80.0644 401.158C80.0863 401.722 80.3277 402.254 80.7368 402.641C81.146 403.027 81.6901 403.238 82.2523 403.226C82.8145 403.215 83.3498 402.983 83.7431 402.58C84.1364 402.177 84.3564 401.636 84.3557 401.072C84.3006 398.293 84.4685 395.514 84.8578 392.762V392.761ZM85.1828 409.357C85.1322 409.079 85.0275 408.813 84.8746 408.576C84.7217 408.338 84.5237 408.133 84.2918 407.972C84.0599 407.811 83.7986 407.698 83.523 407.638C83.2474 407.579 82.9627 407.574 82.6853 407.625C82.4079 407.676 82.1432 407.781 81.9063 407.934C81.6693 408.087 81.4648 408.286 81.3045 408.518C81.1441 408.751 81.0309 409.013 80.9715 409.289C80.9121 409.566 80.9075 409.851 80.9581 410.129C81.4972 413.09 82.2709 416.003 83.2719 418.841C83.4656 419.374 83.8612 419.809 84.3727 420.051C84.8842 420.293 85.4703 420.323 86.0036 420.134C86.5369 419.945 86.9743 419.552 87.2207 419.042C87.4671 418.531 87.5026 417.944 87.3195 417.407C86.3939 414.785 85.6788 412.093 85.1812 409.357H85.1828ZM90.696 425.026C90.5658 424.771 90.3859 424.544 90.167 424.359C89.9481 424.175 89.6946 424.036 89.4214 423.95C89.1482 423.865 88.8608 423.836 88.576 423.864C88.2913 423.892 88.015 423.977 87.7634 424.113C87.5118 424.25 87.2899 424.435 87.1109 424.659C86.9318 424.883 86.7992 425.14 86.7207 425.416C86.6423 425.692 86.6196 425.981 86.6541 426.265C86.6885 426.55 86.7794 426.825 86.9214 427.074C88.3471 429.716 89.9713 432.246 91.7798 434.641C91.9473 434.873 92.1593 435.069 92.4033 435.218C92.6474 435.367 92.9187 435.465 93.2012 435.508C93.4837 435.55 93.7718 435.535 94.0486 435.465C94.3255 435.394 94.5854 435.269 94.8133 435.096C95.0412 434.923 95.2324 434.706 95.3757 434.459C95.519 434.211 95.6115 433.937 95.6478 433.653C95.6842 433.369 95.6636 433.08 95.5873 432.804C95.511 432.528 95.3805 432.27 95.2035 432.045C93.5262 429.823 92.0194 427.477 90.696 425.026ZM100.705 438.329C100.298 437.937 99.7536 437.72 99.1887 437.728C98.6239 437.735 98.0847 437.965 97.688 438.368C97.2914 438.772 97.0693 439.316 97.0699 439.882C97.0705 440.448 97.2937 440.992 97.6912 441.394C97.9306 441.631 98.1727 441.867 98.4175 442.101L103.97 447.421C104.172 447.625 104.412 447.787 104.677 447.897C104.943 448.006 105.227 448.061 105.514 448.059C105.801 448.056 106.084 447.996 106.347 447.882C106.611 447.768 106.848 447.602 107.047 447.394C107.245 447.186 107.399 446.94 107.501 446.672C107.603 446.403 107.651 446.116 107.64 445.829C107.63 445.541 107.562 445.259 107.441 444.998C107.32 444.737 107.148 444.504 106.935 444.311L101.383 438.989C101.154 438.771 100.93 438.551 100.705 438.329ZM113.194 450.308C112.781 449.923 112.233 449.717 111.67 449.734C111.106 449.751 110.571 449.99 110.182 450.399C109.792 450.808 109.579 451.354 109.588 451.919C109.596 452.485 109.827 453.024 110.229 453.42L116.488 459.418C116.69 459.622 116.93 459.784 117.196 459.893C117.461 460.003 117.745 460.058 118.032 460.056C118.319 460.053 118.602 459.993 118.866 459.879C119.129 459.765 119.367 459.599 119.565 459.391C119.763 459.183 119.918 458.937 120.02 458.668C120.121 458.4 120.169 458.113 120.158 457.825C120.148 457.538 120.08 457.256 119.959 456.995C119.838 456.734 119.666 456.5 119.453 456.307L113.194 450.308ZM125.706 462.305C125.294 461.91 124.743 461.696 124.174 461.709C123.605 461.722 123.064 461.961 122.671 462.373C122.277 462.786 122.063 463.339 122.076 463.909C122.089 464.48 122.327 465.022 122.739 465.417L129 471.416C129.413 471.801 129.961 472.007 130.524 471.99C131.088 471.973 131.622 471.734 132.012 471.326C132.402 470.917 132.615 470.371 132.606 469.805C132.597 469.24 132.367 468.701 131.965 468.304L125.706 462.305ZM138.218 474.302C137.804 473.917 137.257 473.711 136.693 473.728C136.129 473.745 135.595 473.983 135.205 474.392C134.816 474.801 134.602 475.347 134.611 475.912C134.62 476.478 134.85 477.017 135.252 477.414L141.511 483.413C141.714 483.613 141.955 483.77 142.219 483.876C142.483 483.982 142.765 484.035 143.05 484.03C143.334 484.026 143.615 483.965 143.876 483.85C144.136 483.736 144.372 483.571 144.568 483.365C144.765 483.159 144.918 482.915 145.02 482.649C145.122 482.383 145.17 482.099 145.162 481.814C145.153 481.529 145.088 481.248 144.971 480.988C144.853 480.729 144.685 480.495 144.477 480.301L138.218 474.302ZM150.729 486.298C150.316 485.914 149.768 485.707 149.205 485.724C148.641 485.741 148.106 485.98 147.717 486.389C147.327 486.798 147.114 487.344 147.123 487.909C147.131 488.475 147.362 489.014 147.764 489.41L154.023 495.409C154.434 495.804 154.985 496.018 155.555 496.006C156.124 495.993 156.665 495.754 157.058 495.341C157.452 494.928 157.665 494.376 157.653 493.805C157.64 493.234 157.401 492.692 156.99 492.297L150.729 486.298ZM163.241 498.295C163.038 498.095 162.798 497.937 162.533 497.831C162.269 497.725 161.987 497.673 161.702 497.678C161.418 497.682 161.137 497.743 160.877 497.857C160.616 497.971 160.38 498.136 160.184 498.343C159.987 498.549 159.834 498.792 159.732 499.059C159.63 499.325 159.582 499.609 159.59 499.894C159.599 500.179 159.664 500.46 159.781 500.719C159.899 500.979 160.067 501.213 160.275 501.407L166.535 507.406C166.948 507.791 167.495 507.997 168.059 507.98C168.623 507.963 169.157 507.725 169.547 507.316C169.936 506.907 170.15 506.361 170.141 505.795C170.132 505.23 169.902 504.691 169.5 504.294L163.241 498.295ZM175.265 501.752C175.265 502.323 175.491 502.871 175.894 503.274C176.296 503.678 176.842 503.905 177.412 503.905C177.981 503.905 178.527 503.678 178.929 503.274C179.332 502.871 179.558 502.323 179.558 501.752V493.022C179.558 492.452 179.332 491.904 178.929 491.501C178.527 491.097 177.981 490.87 177.412 490.87C176.842 490.87 176.296 491.097 175.894 491.501C175.491 491.904 175.265 492.452 175.265 493.022V501.752ZM175.265 484.293C175.265 484.863 175.491 485.411 175.894 485.814C176.296 486.218 176.842 486.445 177.412 486.445C177.981 486.445 178.527 486.218 178.929 485.814C179.332 485.411 179.558 484.863 179.558 484.293V475.563C179.558 474.992 179.332 474.444 178.929 474.041C178.527 473.637 177.981 473.41 177.412 473.41C176.842 473.41 176.296 473.637 175.894 474.041C175.491 474.444 175.265 474.992 175.265 475.563V484.293ZM175.265 466.833C175.265 467.404 175.491 467.951 175.894 468.355C176.296 468.758 176.842 468.985 177.412 468.985C177.981 468.985 178.527 468.758 178.929 468.355C179.332 467.951 179.558 467.404 179.558 466.833V460.891C179.558 459.992 179.581 459.1 179.626 458.214C179.655 457.643 179.457 457.085 179.076 456.661C178.694 456.237 178.161 455.983 177.592 455.954C177.023 455.925 176.466 456.123 176.044 456.506C175.621 456.888 175.367 457.424 175.338 457.994C175.289 458.954 175.265 459.92 175.265 460.891V466.833ZM176.528 449.005C176.461 449.283 176.451 449.573 176.498 449.855C176.545 450.138 176.647 450.409 176.8 450.651C176.952 450.893 177.151 451.103 177.385 451.267C177.619 451.431 177.884 451.547 178.163 451.607C178.442 451.668 178.731 451.672 179.012 451.619C179.293 451.566 179.56 451.457 179.798 451.3C180.037 451.142 180.242 450.938 180.4 450.699C180.559 450.461 180.669 450.194 180.723 449.912C181.312 447.179 182.119 444.498 183.138 441.894C183.337 441.365 183.319 440.778 183.09 440.261C182.86 439.744 182.437 439.338 181.911 439.132C181.386 438.926 180.8 438.935 180.282 439.159C179.763 439.382 179.353 439.801 179.14 440.325C178.038 443.143 177.165 446.046 176.528 449.005ZM183.084 432.177C182.936 432.421 182.837 432.693 182.795 432.975C182.752 433.258 182.766 433.546 182.836 433.823C182.906 434.101 183.03 434.361 183.201 434.59C183.372 434.818 183.587 435.01 183.833 435.155C184.079 435.299 184.352 435.393 184.634 435.431C184.917 435.468 185.204 435.449 185.479 435.374C185.754 435.299 186.012 435.17 186.237 434.995C186.462 434.819 186.649 434.6 186.789 434.351C188.203 431.932 189.795 429.624 191.553 427.444C191.736 427.225 191.874 426.971 191.959 426.698C192.043 426.425 192.073 426.138 192.045 425.853C192.018 425.569 191.934 425.292 191.799 425.041C191.664 424.789 191.48 424.566 191.259 424.387C191.037 424.207 190.782 424.073 190.508 423.993C190.234 423.914 189.947 423.889 189.664 423.922C189.38 423.955 189.106 424.044 188.858 424.184C188.609 424.324 188.391 424.512 188.215 424.738C186.321 427.085 184.606 429.572 183.084 432.177ZM194.371 418.144C193.953 418.532 193.706 419.07 193.684 419.641C193.662 420.211 193.867 420.767 194.254 421.186C194.64 421.605 195.177 421.852 195.746 421.874C196.315 421.896 196.869 421.691 197.287 421.303C199.345 419.394 201.534 417.631 203.837 416.027C204.295 415.698 204.606 415.201 204.701 414.644C204.797 414.087 204.67 413.514 204.348 413.05C204.026 412.586 203.535 412.267 202.981 412.163C202.427 412.059 201.854 412.178 201.387 412.493C198.92 414.211 196.576 416.099 194.371 418.144ZM209.099 407.863C208.838 407.985 208.604 408.159 208.411 408.374C208.219 408.589 208.071 408.84 207.978 409.113C207.884 409.387 207.846 409.676 207.867 409.964C207.887 410.252 207.965 410.533 208.096 410.791C208.227 411.048 208.408 411.276 208.629 411.462C208.849 411.648 209.105 411.787 209.381 411.871C209.656 411.955 209.946 411.983 210.232 411.953C210.519 411.923 210.796 411.835 211.048 411.695C213.55 410.415 216.132 409.301 218.78 408.361C219.052 408.272 219.303 408.129 219.519 407.941C219.735 407.753 219.911 407.523 220.038 407.266C220.164 407.008 220.238 406.728 220.255 406.442C220.271 406.155 220.231 405.868 220.135 405.598C220.04 405.328 219.891 405.079 219.699 404.867C219.506 404.655 219.273 404.483 219.013 404.363C218.754 404.242 218.473 404.175 218.187 404.165C217.901 404.155 217.616 404.202 217.348 404.304C214.534 405.308 211.79 406.496 209.133 407.863H209.099ZM225.997 401.857C225.717 401.912 225.451 402.022 225.214 402.181C224.977 402.34 224.774 402.545 224.616 402.783C224.459 403.022 224.351 403.29 224.298 403.571C224.245 403.852 224.249 404.141 224.308 404.421C224.368 404.7 224.483 404.965 224.646 405.2C224.809 405.435 225.017 405.634 225.258 405.788C225.499 405.941 225.768 406.044 226.049 406.092C226.33 406.14 226.618 406.131 226.896 406.066C229.646 405.477 232.431 405.064 235.233 404.829C235.801 404.781 236.326 404.51 236.693 404.074C237.061 403.637 237.24 403.073 237.193 402.504C237.145 401.935 236.874 401.409 236.439 401.04C236.005 400.672 235.441 400.491 234.874 400.539C231.891 400.791 228.926 401.231 225.997 401.857ZM243.753 400.286C243.183 400.286 242.637 400.513 242.235 400.917C241.832 401.321 241.606 401.868 241.606 402.439C241.606 403.01 241.832 403.557 242.235 403.961C242.637 404.364 243.183 404.591 243.753 404.591H252.459C253.028 404.591 253.574 404.364 253.977 403.961C254.379 403.557 254.605 403.01 254.605 402.439C254.605 401.868 254.379 401.321 253.977 400.917C253.574 400.513 253.028 400.286 252.459 400.286H243.753ZM261.165 400.286C260.596 400.286 260.05 400.513 259.647 400.917C259.245 401.321 259.018 401.868 259.018 402.439C259.018 403.01 259.245 403.557 259.647 403.961C260.05 404.364 260.596 404.591 261.165 404.591H269.904C270.473 404.591 271.019 404.364 271.421 403.961C271.824 403.557 272.05 403.01 272.05 402.439C272.05 401.868 271.824 401.321 271.421 400.917C271.019 400.513 270.473 400.286 269.904 400.286H261.165ZM278.577 400.286C278.008 400.286 277.462 400.513 277.059 400.917C276.657 401.321 276.431 401.868 276.431 402.439C276.431 403.01 276.657 403.557 277.059 403.961C277.462 404.364 278.008 404.591 278.577 404.591H287.285C287.854 404.591 288.4 404.364 288.803 403.961C289.205 403.557 289.431 403.01 289.431 402.439C289.431 401.868 289.205 401.321 288.803 400.917C288.4 400.513 287.854 400.286 287.285 400.286H278.577ZM295.991 400.286C295.422 400.286 294.876 400.513 294.473 400.917C294.071 401.321 293.845 401.868 293.845 402.439C293.845 403.01 294.071 403.557 294.473 403.961C294.876 404.364 295.422 404.591 295.991 404.591H304.697C305.267 404.591 305.813 404.364 306.215 403.961C306.618 403.557 306.844 403.01 306.844 402.439C306.844 401.868 306.618 401.321 306.215 400.917C305.813 400.513 305.267 400.286 304.697 400.286H295.991ZM313.403 400.286C312.834 400.286 312.288 400.513 311.886 400.917C311.483 401.321 311.257 401.868 311.257 402.439C311.257 403.01 311.483 403.557 311.886 403.961C312.288 404.364 312.834 404.591 313.403 404.591H322.11C322.679 404.591 323.225 404.364 323.627 403.961C324.03 403.557 324.256 403.01 324.256 402.439C324.256 401.868 324.03 401.321 323.627 400.917C323.225 400.513 322.679 400.286 322.11 400.286H313.403ZM330.816 400.286C330.247 400.286 329.701 400.513 329.298 400.917C328.895 401.321 328.669 401.868 328.669 402.439C328.669 403.01 328.895 403.557 329.298 403.961C329.701 404.364 330.247 404.591 330.816 404.591H339.522C340.091 404.591 340.637 404.364 341.04 403.961C341.442 403.557 341.668 403.01 341.668 402.439C341.668 401.868 341.442 401.321 341.04 400.917C340.637 400.513 340.091 400.286 339.522 400.286H330.816ZM348.228 400.286C347.659 400.286 347.113 400.513 346.71 400.917C346.308 401.321 346.082 401.868 346.082 402.439C346.082 403.01 346.308 403.557 346.71 403.961C347.113 404.364 347.659 404.591 348.228 404.591H356.934C357.504 404.591 358.05 404.364 358.452 403.961C358.855 403.557 359.081 403.01 359.081 402.439C359.081 401.868 358.855 401.321 358.452 400.917C358.05 400.513 357.504 400.286 356.934 400.286H348.228ZM365.64 400.286C365.071 400.286 364.525 400.513 364.123 400.917C363.72 401.321 363.494 401.868 363.494 402.439C363.494 403.01 363.72 403.557 364.123 403.961C364.525 404.364 365.071 404.591 365.64 404.591H374.347C374.916 404.591 375.462 404.364 375.864 403.961C376.267 403.557 376.493 403.01 376.493 402.439C376.493 401.868 376.267 401.321 375.864 400.917C375.462 400.513 374.916 400.286 374.347 400.286H365.64ZM383.054 400.286C382.485 400.286 381.939 400.513 381.537 400.917C381.134 401.321 380.908 401.868 380.908 402.439C380.908 403.01 381.134 403.557 381.537 403.961C381.939 404.364 382.485 404.591 383.054 404.591H391.761C392.33 404.591 392.876 404.364 393.278 403.961C393.681 403.557 393.907 403.01 393.907 402.439C393.907 401.868 393.681 401.321 393.278 400.917C392.876 400.513 392.33 400.286 391.761 400.286H383.054ZM400.467 400.286C399.897 400.286 399.351 400.513 398.949 400.917C398.546 401.321 398.32 401.868 398.32 402.439C398.32 403.01 398.546 403.557 398.949 403.961C399.351 404.364 399.897 404.591 400.467 404.591H409.173C409.742 404.591 410.288 404.364 410.691 403.961C411.093 403.557 411.319 403.01 411.319 402.439C411.319 401.868 411.093 401.321 410.691 400.917C410.288 400.513 409.742 400.286 409.173 400.286H400.467ZM417.879 400.286C417.31 400.286 416.764 400.513 416.361 400.917C415.959 401.321 415.733 401.868 415.733 402.439C415.733 403.01 415.959 403.557 416.361 403.961C416.764 404.364 417.31 404.591 417.879 404.591H426.585C427.155 404.591 427.7 404.364 428.103 403.961C428.506 403.557 428.732 403.01 428.732 402.439C428.732 401.868 428.506 401.321 428.103 400.917C427.7 400.513 427.155 400.286 426.585 400.286H417.879ZM435.291 400.286C434.722 400.286 434.176 400.513 433.774 400.917C433.371 401.321 433.145 401.868 433.145 402.439C433.145 403.01 433.371 403.557 433.774 403.961C434.176 404.364 434.722 404.591 435.291 404.591H443.997C444.567 404.591 445.113 404.364 445.515 403.961C445.918 403.557 446.144 403.01 446.144 402.439C446.144 401.868 445.918 401.321 445.515 400.917C445.113 400.513 444.567 400.286 443.997 400.286H435.291ZM452.704 400.286C452.134 400.286 451.588 400.513 451.186 400.917C450.783 401.321 450.557 401.868 450.557 402.439C450.557 403.01 450.783 403.557 451.186 403.961C451.588 404.364 452.134 404.591 452.704 404.591H461.41C461.979 404.591 462.525 404.364 462.928 403.961C463.33 403.557 463.556 403.01 463.556 402.439C463.556 401.868 463.33 401.321 462.928 400.917C462.525 400.513 461.979 400.286 461.41 400.286H452.704ZM470.116 400.286C469.547 400.286 469.001 400.513 468.598 400.917C468.196 401.321 467.97 401.868 467.97 402.439C467.97 403.01 468.196 403.557 468.598 403.961C469.001 404.364 469.547 404.591 470.116 404.591H478.822C479.391 404.591 479.937 404.364 480.34 403.961C480.742 403.557 480.969 403.01 480.969 402.439C480.969 401.868 480.742 401.321 480.34 400.917C479.937 400.513 479.391 400.286 478.822 400.286H470.116ZM487.528 400.286C486.959 400.286 486.413 400.513 486.01 400.917C485.608 401.321 485.382 401.868 485.382 402.439C485.382 403.01 485.608 403.557 486.01 403.961C486.413 404.364 486.959 404.591 487.528 404.591H496.236C496.805 404.591 497.351 404.364 497.754 403.961C498.156 403.557 498.383 403.01 498.383 402.439C498.383 401.868 498.156 401.321 497.754 400.917C497.351 400.513 496.805 400.286 496.236 400.286H487.528ZM504.941 400.286C504.371 400.286 503.825 400.513 503.423 400.917C503.02 401.321 502.794 401.868 502.794 402.439C502.794 403.01 503.02 403.557 503.423 403.961C503.825 404.364 504.371 404.591 504.941 404.591H511.528C512.259 404.591 512.988 404.58 513.713 404.557C514 404.555 514.283 404.496 514.546 404.383C514.809 404.269 515.046 404.105 515.245 403.898C515.443 403.691 515.599 403.447 515.702 403.179C515.805 402.911 515.853 402.625 515.844 402.339C515.836 402.052 515.77 401.77 515.651 401.509C515.531 401.248 515.362 401.013 515.151 400.819C514.94 400.625 514.692 400.475 514.423 400.379C514.154 400.282 513.868 400.24 513.582 400.256C512.899 400.277 512.215 400.288 511.528 400.286H504.941ZM521.974 399.472C521.692 399.511 521.419 399.606 521.174 399.752C520.928 399.898 520.714 400.092 520.544 400.322C520.374 400.551 520.252 400.813 520.184 401.091C520.115 401.369 520.103 401.658 520.148 401.94C520.193 402.223 520.293 402.494 520.443 402.737C520.594 402.981 520.791 403.192 521.023 403.357C521.256 403.523 521.519 403.641 521.798 403.704C522.076 403.767 522.364 403.773 522.645 403.723C525.603 403.255 528.528 402.597 531.402 401.755C531.948 401.594 532.409 401.223 532.682 400.722C532.956 400.221 533.019 399.632 532.859 399.084C532.7 398.536 532.329 398.074 531.83 397.8C531.33 397.526 530.743 397.462 530.196 397.623C527.498 398.414 524.752 399.032 521.974 399.472ZM538.109 394.732C537.848 394.843 537.61 395.006 537.412 395.21C537.213 395.414 537.056 395.655 536.952 395.92C536.847 396.185 536.795 396.468 536.801 396.754C536.806 397.039 536.867 397.32 536.982 397.581C537.097 397.842 537.262 398.078 537.468 398.274C537.674 398.47 537.917 398.624 538.183 398.725C538.448 398.827 538.732 398.874 539.016 398.865C539.3 398.856 539.58 398.79 539.838 398.672C542.582 397.461 545.241 396.068 547.8 394.502C548.286 394.205 548.634 393.726 548.768 393.171C548.902 392.616 548.81 392.031 548.514 391.544C548.217 391.056 547.739 390.707 547.186 390.573C546.633 390.439 546.049 390.531 545.563 390.828C543.167 392.297 540.675 393.604 538.105 394.739L538.109 394.732ZM552.423 385.955C551.983 386.317 551.704 386.839 551.647 387.407C551.591 387.975 551.762 388.542 552.123 388.984C552.483 389.426 553.004 389.705 553.571 389.762C554.137 389.818 554.703 389.647 555.143 389.285C557.47 387.378 559.657 385.305 561.688 383.084C561.879 382.876 562.026 382.632 562.123 382.366C562.219 382.101 562.263 381.818 562.25 381.536C562.238 381.254 562.17 380.976 562.051 380.72C561.932 380.464 561.764 380.234 561.556 380.043C561.348 379.852 561.105 379.704 560.84 379.607C560.575 379.511 560.294 379.467 560.012 379.48C559.73 379.492 559.454 379.56 559.198 379.679C558.943 379.799 558.714 379.967 558.523 380.176C556.631 382.246 554.592 384.178 552.423 385.955ZM563.877 373.536C563.531 373.99 563.378 374.563 563.453 375.13C563.528 375.696 563.824 376.21 564.277 376.557C564.729 376.905 565.301 377.057 565.866 376.982C566.431 376.907 566.943 376.61 567.289 376.156L572.588 369.23C572.935 368.776 573.087 368.203 573.012 367.637C572.937 367.07 572.641 366.557 572.188 366.209C571.736 365.862 571.164 365.709 570.599 365.784C570.034 365.859 569.522 366.156 569.176 366.61L563.877 373.536ZM574.475 359.687C574.303 359.912 574.177 360.168 574.104 360.442C574.032 360.715 574.013 361 574.05 361.281C574.088 361.561 574.179 361.831 574.321 362.076C574.462 362.321 574.65 362.536 574.874 362.708C575.098 362.88 575.354 363.006 575.627 363.079C575.899 363.152 576.184 363.17 576.463 363.133C576.743 363.096 577.013 363.004 577.257 362.862C577.501 362.72 577.715 362.532 577.887 362.307L583.186 355.379C583.357 355.155 583.483 354.898 583.555 354.625C583.628 354.352 583.646 354.066 583.609 353.786C583.572 353.506 583.48 353.235 583.339 352.99C583.197 352.746 583.009 352.531 582.785 352.359C582.561 352.187 582.305 352.061 582.033 351.988C581.76 351.916 581.476 351.897 581.196 351.935C580.917 351.972 580.647 352.064 580.403 352.206C580.159 352.348 579.945 352.536 579.773 352.761L574.475 359.687ZM585.072 345.838C584.726 346.292 584.573 346.865 584.648 347.431C584.723 347.998 585.019 348.511 585.472 348.859C585.924 349.206 586.496 349.359 587.061 349.284C587.626 349.209 588.138 348.912 588.484 348.458L593.783 341.53C593.955 341.305 594.08 341.049 594.153 340.776C594.226 340.502 594.244 340.217 594.207 339.937C594.17 339.656 594.078 339.386 593.937 339.141C593.795 338.896 593.607 338.681 593.383 338.509C593.159 338.337 592.904 338.211 592.631 338.138C592.358 338.065 592.074 338.047 591.794 338.084C591.515 338.121 591.245 338.213 591.001 338.355C590.756 338.497 590.542 338.685 590.371 338.91L585.072 345.838ZM595.67 331.989C595.323 332.442 595.171 333.016 595.246 333.582C595.32 334.149 595.617 334.662 596.069 335.009C596.522 335.357 597.093 335.51 597.658 335.435C598.223 335.36 598.735 335.062 599.082 334.609L604.381 327.681C604.727 327.227 604.88 326.654 604.805 326.087C604.73 325.521 604.433 325.007 603.981 324.66C603.528 324.313 602.957 324.16 602.392 324.235C601.827 324.31 601.315 324.607 600.968 325.061L595.671 331.989H595.67ZM606.266 318.139C606.094 318.364 605.968 318.62 605.896 318.894C605.823 319.167 605.805 319.452 605.842 319.733C605.879 320.013 605.971 320.283 606.113 320.528C606.254 320.773 606.442 320.987 606.666 321.159C606.89 321.331 607.146 321.457 607.418 321.53C607.691 321.603 607.975 321.621 608.255 321.584C608.535 321.547 608.804 321.455 609.048 321.313C609.292 321.171 609.506 320.982 609.678 320.758L614.977 313.832C615.148 313.607 615.274 313.351 615.347 313.077C615.419 312.804 615.438 312.519 615.401 312.238C615.364 311.958 615.272 311.687 615.13 311.442C614.989 311.197 614.801 310.983 614.577 310.811C614.353 310.639 614.097 310.513 613.824 310.44C613.552 310.367 613.268 310.348 612.988 310.386C612.708 310.423 612.438 310.515 612.194 310.657C611.95 310.798 611.736 310.987 611.564 311.212L606.266 318.139ZM616.863 304.29C616.517 304.744 616.364 305.317 616.439 305.884C616.514 306.45 616.81 306.964 617.263 307.311C617.715 307.658 618.287 307.811 618.852 307.736C619.417 307.661 619.929 307.364 620.275 306.91L625.574 299.984C625.746 299.759 625.871 299.503 625.944 299.23C626.017 298.956 626.035 298.671 625.998 298.391C625.961 298.11 625.869 297.84 625.728 297.595C625.586 297.35 625.398 297.135 625.174 296.963C624.95 296.791 624.695 296.665 624.422 296.592C624.149 296.519 623.865 296.501 623.585 296.538C623.306 296.575 623.036 296.667 622.792 296.809C622.547 296.951 622.333 297.139 622.162 297.364L616.863 304.29ZM627.08 290.54C626.804 291.037 626.734 291.624 626.887 292.172C627.041 292.719 627.404 293.184 627.898 293.464C628.392 293.744 628.976 293.817 629.524 293.666C630.071 293.515 630.536 293.153 630.818 292.659C632.373 289.903 633.439 286.898 633.97 283.777C634.017 283.498 634.009 283.213 633.946 282.938C633.883 282.662 633.767 282.402 633.603 282.171C633.44 281.941 633.233 281.745 632.994 281.595C632.756 281.444 632.49 281.343 632.212 281.296C631.934 281.249 631.649 281.257 631.375 281.32C631.1 281.383 630.84 281.5 630.61 281.663C630.381 281.827 630.185 282.034 630.035 282.274C629.885 282.513 629.784 282.78 629.737 283.059C629.289 285.689 628.39 288.221 627.079 290.544L627.08 290.54ZM629.662 275.13C629.768 275.692 630.092 276.189 630.563 276.511C631.034 276.833 631.613 276.955 632.174 276.848C632.734 276.742 633.229 276.417 633.55 275.945C633.872 275.473 633.993 274.892 633.887 274.33C633.327 271.382 632.288 268.546 630.811 265.936C630.732 265.794 630.649 265.653 630.567 265.512C630.273 265.032 629.803 264.686 629.257 264.55C628.712 264.414 628.135 264.497 627.65 264.783C627.165 265.069 626.812 265.534 626.666 266.078C626.519 266.623 626.592 267.203 626.868 267.694C626.937 267.813 627.006 267.934 627.074 268.053C628.321 270.253 629.2 272.644 629.674 275.13H629.662ZM621.752 261.547C622.183 261.909 622.738 262.088 623.299 262.044C623.86 262.001 624.381 261.738 624.751 261.313C625.12 260.888 625.309 260.334 625.276 259.771C625.242 259.209 624.99 258.681 624.573 258.303C622.217 256.251 619.57 254.562 616.718 253.291C616.461 253.176 616.183 253.113 615.902 253.105C615.62 253.098 615.339 253.146 615.076 253.247C614.813 253.348 614.572 253.5 614.368 253.695C614.163 253.889 613.999 254.122 613.884 254.38C613.769 254.638 613.706 254.917 613.699 255.199C613.691 255.482 613.739 255.763 613.84 256.027C613.941 256.291 614.092 256.532 614.286 256.737C614.48 256.943 614.713 257.107 614.97 257.222C617.432 258.318 619.718 259.776 621.752 261.547Z" fill="#73A4CA"/>
<path fill-rule="evenodd" clip-rule="evenodd" d="M331.392 472L354 563H272L294.608 472H331.392Z" fill="#93B0C6"/>
<path fill-rule="evenodd" clip-rule="evenodd" d="M291 488L293.638 477H332.362L335 488H291Z" fill="#30A1DB"/>
<path fill-rule="evenodd" clip-rule="evenodd" d="M539 222.52C539 221.056 538.419 219.652 537.387 218.617C536.354 217.582 534.954 217 533.494 217H92.5043C91.7814 217 91.0657 217.143 90.3979 217.42C89.7301 217.698 89.1233 218.104 88.6122 218.617C88.101 219.129 87.6956 219.738 87.419 220.408C87.1424 221.077 87 221.795 87 222.52V475.48C87 476.205 87.1424 476.923 87.419 477.592C87.6956 478.262 88.101 478.871 88.6122 479.383C89.1233 479.896 89.7301 480.302 90.3979 480.58C91.0657 480.857 91.7814 481 92.5043 481H533.494C534.954 481 536.354 480.418 537.387 479.383C538.419 478.348 539 476.944 539 475.48V222.52Z" fill="#93B0C6"/>
<path fill-rule="evenodd" clip-rule="evenodd" d="M539 217.979C539 217.72 538.897 217.47 538.715 217.287C538.532 217.103 538.284 217 538.026 217H87.9742C87.7158 217 87.468 217.103 87.2853 217.287C87.1026 217.47 87 217.72 87 217.979V450.021C87 450.281 87.1026 450.53 87.2853 450.713C87.468 450.897 87.7158 451 87.9742 451H538.023C538.281 451 538.529 450.897 538.711 450.713C538.894 450.53 538.997 450.281 538.997 450.021V217.979H539Z" fill="#7FB0CF"/>
<path fill-rule="evenodd" clip-rule="evenodd" d="M539 222.533C539 221.065 538.419 219.658 537.387 218.62C536.354 217.583 534.954 217 533.494 217H92.5043C91.7814 217 91.0657 217.143 90.3979 217.421C89.7301 217.699 89.1233 218.107 88.6122 218.62C88.101 219.134 87.6956 219.744 87.419 220.415C87.1424 221.087 87 221.806 87 222.533V445.467C87 446.194 87.1424 446.913 87.419 447.585C87.6956 448.256 88.101 448.866 88.6122 449.38C89.1233 449.893 89.7301 450.301 90.3979 450.579C91.0657 450.857 91.7814 451 92.5043 451H533.494C534.217 451 534.933 450.857 535.601 450.579C536.269 450.301 536.876 449.894 537.387 449.38C537.899 448.866 538.304 448.256 538.581 447.585C538.858 446.914 539 446.194 539 445.467V222.533Z" fill="#6E91AA"/>
<path fill-rule="evenodd" clip-rule="evenodd" d="M534 228.534C534 227.066 533.418 225.659 532.382 224.621C531.345 223.583 529.94 223 528.474 223H97.5257C96.8001 223 96.0815 223.143 95.4111 223.421C94.7407 223.699 94.1315 224.107 93.6184 224.621C93.1053 225.135 92.6983 225.745 92.4206 226.416C92.1429 227.088 92 227.807 92 228.534V439.468C92.0004 440.935 92.5828 442.342 93.619 443.38C94.6552 444.417 96.0605 445 97.5257 445H528.474C529.939 445 531.345 444.417 532.381 443.38C533.417 442.342 534 440.935 534 439.468V228.534Z" fill="#262626"/>
<path fill-rule="evenodd" clip-rule="evenodd" d="M92 372.427L503.782 223H528.474C529.94 223 531.345 223.583 532.382 224.621C533.418 225.659 534 227.066 534 228.534V241.474L207.734 445H97.5257C96.0605 445 94.6553 444.417 93.619 443.38C92.5828 442.342 92.0004 440.935 92 439.468V372.427Z" fill="#373737" stroke="black" stroke-width="0.24" stroke-linecap="round" stroke-linejoin="round"/>
<path fill-rule="evenodd" clip-rule="evenodd" d="M387.995 569.895C387.995 567.544 387.527 565.217 386.616 563.046C385.706 560.874 384.372 558.901 382.69 557.24C381.009 555.578 379.012 554.26 376.815 553.361C374.618 552.462 372.263 551.999 369.885 552H256.106C251.304 552 246.698 553.885 243.303 557.241C239.908 560.597 238 565.149 238 569.895V575H388V569.895H387.995Z" fill="#30A1DB"/>
<path fill-rule="evenodd" clip-rule="evenodd" d="M313 455C315.176 455 317.302 455.645 319.111 456.854C320.92 458.063 322.33 459.78 323.163 461.79C323.995 463.8 324.213 466.012 323.789 468.146C323.364 470.28 322.317 472.24 320.778 473.778C319.24 475.317 317.28 476.364 315.146 476.789C313.012 477.213 310.8 476.995 308.79 476.163C306.78 475.33 305.063 473.92 303.854 472.111C302.645 470.302 302 468.176 302 466C302.003 463.084 303.164 460.288 305.226 458.226C307.288 456.164 310.084 455.003 313 455ZM313 460.5C314.088 460.5 315.151 460.823 316.056 461.427C316.96 462.031 317.665 462.89 318.081 463.895C318.498 464.9 318.607 466.006 318.394 467.073C318.182 468.14 317.658 469.12 316.889 469.889C316.12 470.658 315.14 471.182 314.073 471.394C313.006 471.607 311.9 471.498 310.895 471.081C309.89 470.665 309.031 469.96 308.427 469.056C307.823 468.151 307.5 467.088 307.5 466C307.501 464.542 308.081 463.143 309.112 462.112C310.143 461.081 311.542 460.501 313 460.5Z" fill="#30A1DB"/>
<path fill-rule="evenodd" clip-rule="evenodd" d="M426.043 311.265C423.569 309.612 420.66 308.727 417.682 308.722L134.042 308.276C132.064 308.273 130.105 307.881 128.278 307.123C126.452 306.365 124.793 305.256 123.396 303.859C121.999 302.461 120.892 300.803 120.138 298.979C119.383 297.154 118.997 295.2 119 293.227C119.057 257.17 119.202 166.059 119.259 130.002C119.265 126.017 120.859 122.198 123.689 119.385C126.518 116.572 130.352 114.994 134.348 115L491.953 115.564C493.931 115.567 495.89 115.957 497.717 116.714C499.544 117.472 501.203 118.58 502.601 119.977C503.998 121.374 505.106 123.032 505.861 124.856C506.615 126.68 507.003 128.634 507 130.607C506.935 171.291 506.756 284.079 506.675 336.999C506.67 339.719 505.926 342.387 504.52 344.719C503.114 347.05 501.1 348.957 498.693 350.236C496.286 351.515 493.575 352.118 490.851 351.981C488.127 351.844 485.491 350.972 483.225 349.458L426.049 311.26L426.043 311.265Z" fill="white"/>
<path d="M229.3 277.978L235.927 263.814L242.632 278L255.498 268.529L244.826 257.419L259 255.839L254.82 240.672L241.719 247.184L244.624 232.027L227.45 232L230.308 247.165L217.106 240.611L213 255.765L227.049 257.39L216.343 268.466L229.3 277.978Z" fill="#E6E6E6"/>
<path d="M282.655 277.978L289.427 263.815L296.276 278L309.421 268.53L298.517 257.419L313 255.84L308.728 240.673L295.342 247.183L298.312 232.029L280.763 232L283.685 247.165L270.196 240.612L266 255.766L280.356 257.391L269.416 268.466L282.655 277.978Z" fill="#E6E6E6"/>
<path d="M336.654 277.98L343.426 264.123L350.276 278L363.421 268.736L352.518 257.867L367 256.322L362.729 241.484L349.343 247.854L352.311 233.027L334.763 233L337.684 247.836L324.195 241.424L320 256.25L334.355 257.838L323.416 268.674L336.654 277.98Z" fill="#E6E6E6"/>
<path d="M389.655 277.979L396.425 264.123L403.276 278L416.421 268.736L405.517 257.866L420 256.321L415.728 241.484L402.342 247.854L405.312 233.027L387.763 233L390.685 247.836L377.196 241.424L373 256.248L387.356 257.838L376.416 268.674L389.655 277.979Z" fill="#E6E6E6"/>
<path d="M223.655 267.979L230.426 254.123L237.276 268L250.421 258.735L239.517 247.867L254 246.322L249.728 231.484L236.342 237.854L239.312 223.027L221.763 223L224.685 237.836L211.196 231.424L207 246.248L221.356 247.838L210.416 258.674L223.655 267.979Z" fill="black"/>
<path d="M276.654 267.979L283.426 254.123L290.276 268L303.421 258.735L292.518 247.866L307 246.321L302.729 231.483L289.342 237.854L292.311 223.027L274.763 223L277.684 237.836L264.195 231.424L260 246.248L274.355 247.838L263.416 258.674L276.654 267.979Z" fill="black"/>
<path d="M330.654 267.979L337.425 254.123L344.276 268L357.421 258.736L346.517 247.867L361 246.322L356.728 231.484L343.342 237.854L346.312 223.028L328.763 223L331.684 237.835L318.196 231.425L314 246.249L328.356 247.839L317.416 258.674L330.654 267.979Z" fill="black"/>
<path d="M384.301 267.98L390.928 254.124L397.631 268L410.497 258.736L399.825 247.867L414 246.322L409.819 231.484L396.718 237.854L399.624 223.028L382.449 223L385.309 237.836L372.107 231.425L368 246.25L382.05 247.839L371.343 258.675L384.301 267.98Z" fill="black"/>
<path fill-rule="evenodd" clip-rule="evenodd" d="M177.177 331.853V300.307C177.177 268.079 151.108 241.913 118.999 241.913C86.8903 241.913 60.8212 268.079 60.8212 300.307V372H36V300.307C36 254.328 73.1903 217 118.999 217C164.808 217 202 254.328 202 300.307V331.853H196.631V337.141H202V343.981H177.177V337.148H182.547V331.86L177.177 331.853Z" fill="#585E64"/>
<path fill-rule="evenodd" clip-rule="evenodd" d="M118.999 337C184.677 337 238 390.321 238 455.999C238 521.677 184.682 575 118.999 575C53.3164 575 0 521.679 0 455.999C0 390.32 53.3212 337 118.999 337Z" fill="#78A4D0"/>
<path fill-rule="evenodd" clip-rule="evenodd" d="M119 367C168.12 367 208 406.878 208 455.998C208 505.119 168.125 545 119 545C69.8747 545 30 505.12 30 455.998C30 406.876 69.8796 367 119 367Z" fill="#497DB0"/>
<path fill-rule="evenodd" clip-rule="evenodd" d="M61.697 524.264C42.3209 507.918 30 483.434 30 456.082C30 406.915 69.8303 367 118.89 367C135.675 366.976 152.119 371.74 166.303 380.734C185.679 397.082 198 421.566 198 448.917C198 498.083 158.17 538 109.11 538C92.3252 538.024 75.8801 533.26 61.697 524.264Z" fill="#5287BA"/>
<path fill-rule="evenodd" clip-rule="evenodd" d="M109.504 449.934C105.881 447.875 103.049 444.694 101.448 440.887C99.8462 437.08 99.5647 432.858 100.647 428.877C101.729 424.896 104.114 421.378 107.433 418.869C110.751 416.36 114.817 415 119 415C123.183 415 127.249 416.36 130.567 418.869C133.886 421.378 136.271 424.896 137.353 428.877C138.435 432.858 138.154 437.08 136.552 440.887C134.951 444.694 132.119 447.875 128.496 449.934V500H109.504V449.934Z" fill="#2C5986"/>
<path fill-rule="evenodd" clip-rule="evenodd" d="M108 143C133.388 143 154 163.837 154 189.499C154 215.161 133.388 236 108 236C82.6117 236 62 215.163 62 189.499C62 163.835 82.6117 143 108 143Z" fill="#54D27A"/>
<path fill-rule="evenodd" clip-rule="evenodd" d="M71.0722 216.849C65.1698 208.881 61.9874 199.207 62 189.27C62 163.734 82.6085 143 107.993 143C118.977 142.987 129.601 146.945 137.928 154.153C143.83 162.12 147.012 171.794 147 181.73C147 207.267 126.392 228 101.007 228C90.0227 228.014 79.399 224.056 71.0722 216.849Z" fill="#67E28C"/>
<path fill-rule="evenodd" clip-rule="evenodd" d="M86.5738 180L110 203.44L100.426 213L77 189.56L86.5738 180Z" fill="white"/>
<path fill-rule="evenodd" clip-rule="evenodd" d="M138 175.563L100.548 213L91 203.437L128.45 166L138 175.563Z" fill="white"/>
<path fill-rule="evenodd" clip-rule="evenodd" d="M453 451C453 451 468 467.804 468 488.5C468 509.196 453 526 453 526C453 526 438 509.196 438 488.5C438 467.804 453 451 453 451Z" fill="#82C865"/>
<path fill-rule="evenodd" clip-rule="evenodd" d="M453.5 451C453.5 451 456 468.027 456 488.998C456 509.968 453.5 527 453.5 527C453.5 527 451 509.975 451 489.004C451 468.034 453.5 451.007 453.5 451.007V451Z" fill="#69A450"/>
<path fill-rule="evenodd" clip-rule="evenodd" d="M496.718 464C496.718 464 499.51 486.283 487.522 503.393C475.535 520.503 453.282 526 453.282 526C453.282 526 450.49 503.717 462.478 486.607C474.465 469.497 496.718 464 496.718 464Z" fill="#92CF79"/>
<path fill-rule="evenodd" clip-rule="evenodd" d="M452.725 526C452.725 526 455.452 503.717 443.737 486.607C432.022 469.497 410.275 464 410.275 464C410.275 464 407.549 486.283 419.262 503.393C430.975 520.503 452.725 526 452.725 526Z" fill="#92CF79"/>
<path fill-rule="evenodd" clip-rule="evenodd" d="M496 465C496 465 488.35 480.232 476.485 497.341C464.62 514.449 453 527 453 527C453 527 460.648 511.768 472.515 494.659C484.382 477.551 496 465.007 496 465.007V465Z" fill="#69A450"/>
<path fill-rule="evenodd" clip-rule="evenodd" d="M453 525C453 525 445.352 509.765 433.485 492.655C421.618 475.545 410 463 410 463C410 463 417.648 478.235 429.515 495.343C441.382 512.452 453 525 453 525Z" fill="#69A450"/>
<path fill-rule="evenodd" clip-rule="evenodd" d="M476.949 518C485.104 536.087 480.345 559.62 468.055 573H437.945C425.655 559.62 420.896 536.087 429.051 518H476.949Z" fill="#D6AC70"/>
<path fill-rule="evenodd" clip-rule="evenodd" d="M453 518H476.949C485.104 536.087 480.345 559.62 468.055 573H453V518Z" fill="#B58F57"/>
<path fill-rule="evenodd" clip-rule="evenodd" d="M479.217 514C480.751 514 482.221 514.606 483.306 515.682C484.39 516.759 485 518.219 485 519.742C485 520.341 484.76 520.915 484.334 521.339C483.907 521.762 483.329 522 482.726 522H423.274C422.671 522 422.093 521.762 421.666 521.339C421.24 520.915 421 520.341 421 519.742C421 518.219 421.61 516.759 422.694 515.682C423.779 514.606 425.249 514 426.783 514H479.217Z" fill="#815F2F"/>
<path fill-rule="evenodd" clip-rule="evenodd" d="M476.73 571C477.291 571 477.847 571.103 478.365 571.305C478.883 571.506 479.354 571.8 479.75 572.172C480.147 572.543 480.461 572.984 480.675 573.469C480.89 573.955 481 574.475 481 575H425C425 573.939 425.45 572.922 426.251 572.172C427.052 571.421 428.138 571 429.271 571H476.73Z" fill="#815F2F"/>
<path fill-rule="evenodd" clip-rule="evenodd" d="M453 523H428C428.114 522.666 428.23 522.331 428.353 522H453V523Z" fill="#CD9F5E"/>
<path fill-rule="evenodd" clip-rule="evenodd" d="M436.847 571C436.561 570.673 436.278 570.34 436 570H453V571H436.847Z" fill="#CD9F5E"/>
<path fill-rule="evenodd" clip-rule="evenodd" d="M478.633 522C478.76 522.331 478.884 522.666 479 523H453V522H478.633Z" fill="#A0793F"/>
<path fill-rule="evenodd" clip-rule="evenodd" d="M453 570H471C470.705 570.34 470.406 570.673 470.103 571H453V570Z" fill="#A0793F"/>
<path d="M179.483 203.392L180.035 206.32C179.315 206.464 178.627 206.576 177.971 206.656C177.315 206.752 176.683 206.8 176.075 206.8C174.731 206.8 173.547 206.576 172.523 206.128C171.515 205.696 170.731 205.072 170.171 204.256C169.611 203.44 169.331 202.464 169.331 201.328C169.331 200.192 169.611 199.216 170.171 198.4C170.731 197.584 171.515 196.96 172.523 196.528C173.547 196.08 174.731 195.856 176.075 195.856H178.187V199H176.075C175.003 199 174.219 199.192 173.723 199.576C173.243 199.96 173.003 200.544 173.003 201.328C173.003 202.112 173.243 202.696 173.723 203.08C174.219 203.464 175.003 203.656 176.075 203.656C176.459 203.656 176.931 203.632 177.491 203.584C178.051 203.552 178.715 203.488 179.483 203.392ZM170.891 190.432L170.531 187.576C171.283 187.384 172.019 187.232 172.739 187.12C173.475 186.992 174.195 186.928 174.899 186.928C176.259 186.928 177.459 187.176 178.499 187.672C179.539 188.152 180.355 188.84 180.947 189.736C181.555 190.616 181.859 191.688 181.859 192.952V199H178.187V192.952C178.187 192.024 177.891 191.32 177.299 190.84C176.723 190.344 175.795 190.096 174.515 190.096C174.131 190.096 173.627 190.128 173.003 190.192C172.379 190.24 171.675 190.32 170.891 190.432ZM189.061 199V195.856H191.725V199H189.061ZM185.413 199V182.128H189.061V199H185.413ZM191.725 199V195.856C191.821 195.856 191.893 195.896 191.941 195.976C192.005 196.04 192.053 196.144 192.085 196.288C192.133 196.416 192.165 196.576 192.181 196.768C192.197 196.96 192.205 197.176 192.205 197.416C192.205 197.656 192.197 197.88 192.181 198.088C192.165 198.28 192.133 198.448 192.085 198.592C192.053 198.72 192.005 198.824 191.941 198.904C191.893 198.968 191.821 199 191.725 199ZM204.339 199V195.856H206.859V199H204.339ZM191.715 199C191.635 199 191.563 198.968 191.499 198.904C191.435 198.824 191.387 198.72 191.355 198.592C191.323 198.448 191.299 198.28 191.283 198.088C191.251 197.88 191.235 197.656 191.235 197.416C191.235 197.096 191.251 196.824 191.283 196.6C191.315 196.36 191.371 196.176 191.451 196.048C191.515 195.92 191.603 195.856 191.715 195.856V199ZM191.715 199V195.856H201.939L200.667 196.84V192.952C200.667 192.024 200.379 191.32 199.803 190.84C199.227 190.344 198.299 190.096 197.019 190.096C196.667 190.096 196.195 190.12 195.603 190.168C195.011 190.216 194.363 190.288 193.659 190.384L193.323 187.504C193.995 187.344 194.675 187.208 195.363 187.096C196.067 186.984 196.747 186.928 197.403 186.928C198.747 186.928 199.939 187.176 200.979 187.672C202.019 188.152 202.835 188.84 203.427 189.736C204.035 190.616 204.339 191.688 204.339 192.952V199H191.715ZM206.859 199V195.856C206.939 195.856 207.011 195.896 207.075 195.976C207.139 196.04 207.187 196.144 207.219 196.288C207.251 196.416 207.275 196.576 207.291 196.768C207.323 196.96 207.339 197.176 207.339 197.416C207.339 197.656 207.323 197.88 207.291 198.088C207.275 198.28 207.251 198.448 207.219 198.592C207.187 198.72 207.139 198.824 207.075 198.904C207.011 198.968 206.939 199 206.859 199ZM196.179 204.376V201.448H199.875V204.376H196.179ZM213.023 199V195.856H215.543V199H213.023ZM206.855 199C206.759 199 206.687 198.968 206.639 198.904C206.575 198.824 206.527 198.72 206.495 198.592C206.463 198.448 206.439 198.28 206.423 198.088C206.391 197.88 206.375 197.656 206.375 197.416C206.375 197.096 206.391 196.824 206.423 196.6C206.455 196.36 206.511 196.176 206.591 196.048C206.655 195.92 206.743 195.856 206.855 195.856V199ZM206.855 199V195.856H211.583L209.351 197.704V186.928H213.023V199H206.855ZM215.543 199V195.856C215.623 195.856 215.695 195.896 215.759 195.976C215.823 196.04 215.871 196.144 215.903 196.288C215.935 196.416 215.959 196.576 215.975 196.768C216.007 196.96 216.023 197.176 216.023 197.416C216.023 197.656 216.007 197.88 215.975 198.088C215.959 198.28 215.935 198.448 215.903 198.592C215.871 198.72 215.823 198.824 215.759 198.904C215.695 198.968 215.623 199 215.543 199ZM209.351 184.696V181.768H213.047V184.696H209.351ZM215.551 199V195.856H220.279L218.047 197.704V186.928H221.719V199H215.551ZM215.551 199C215.471 199 215.399 198.968 215.335 198.904C215.271 198.824 215.223 198.72 215.191 198.592C215.159 198.448 215.135 198.28 215.119 198.088C215.087 197.88 215.071 197.656 215.071 197.416C215.071 197.096 215.087 196.824 215.119 196.6C215.151 196.36 215.207 196.176 215.287 196.048C215.351 195.92 215.439 195.856 215.551 195.856V199ZM218.047 204.376V201.448H221.743V204.376H218.047ZM229.757 205.192C229.581 205.192 229.365 205.176 229.109 205.144C228.853 205.128 228.589 205.112 228.317 205.096L228.437 202C228.693 202 228.941 202.008 229.181 202.024C229.421 202.04 229.597 202.048 229.709 202.048C230.301 202.048 230.765 201.816 231.101 201.352C231.453 200.888 231.629 200.216 231.629 199.336V186.928H235.301V199.336C235.301 200.472 235.069 201.48 234.605 202.36C234.141 203.256 233.493 203.952 232.661 204.448C231.829 204.944 230.861 205.192 229.757 205.192ZM242.807 205.192C242.199 205.192 241.567 205.144 240.911 205.048C240.255 204.968 239.567 204.848 238.847 204.688L239.399 201.76C240.183 201.856 240.847 201.928 241.391 201.976C241.951 202.024 242.423 202.048 242.807 202.048C243.895 202.048 244.679 201.856 245.159 201.472C245.639 201.088 245.879 200.504 245.879 199.72V189.544L246.623 190.072H243.959C243.415 190.072 242.959 190.144 242.591 190.288C242.223 190.416 241.943 190.696 241.751 191.128C241.575 191.544 241.487 192.192 241.487 193.072C241.487 193.888 241.567 194.496 241.727 194.896C241.887 195.296 242.151 195.56 242.519 195.688C242.887 195.8 243.367 195.856 243.959 195.856H245.879V199H243.959C242.615 199 241.479 198.784 240.551 198.352C239.639 197.92 238.951 197.264 238.487 196.384C238.039 195.504 237.815 194.4 237.815 193.072C237.815 191.728 238.039 190.6 238.487 189.688C238.951 188.776 239.639 188.088 240.551 187.624C241.479 187.16 242.615 186.928 243.959 186.928H249.551V199.72C249.551 200.84 249.271 201.808 248.711 202.624C248.151 203.456 247.367 204.088 246.359 204.52C245.351 204.968 244.167 205.192 242.807 205.192ZM257.224 199V195.856H260.32V199H257.224ZM252.28 205.192C252.104 205.192 251.888 205.176 251.632 205.144C251.376 205.128 251.112 205.112 250.84 205.096L250.96 202C251.216 202 251.464 202.008 251.704 202.024C251.944 202.04 252.12 202.048 252.232 202.048C252.824 202.048 253.288 201.816 253.624 201.352C253.976 200.888 254.152 200.216 254.152 199.336V186.928H257.824V199.336C257.824 200.472 257.592 201.48 257.128 202.36C256.664 203.256 256.016 203.952 255.184 204.448C254.352 204.944 253.384 205.192 252.28 205.192ZM260.32 199V195.856C260.416 195.856 260.488 195.896 260.536 195.976C260.6 196.04 260.648 196.144 260.68 196.288C260.728 196.416 260.76 196.576 260.776 196.768C260.792 196.96 260.8 197.176 260.8 197.416C260.8 197.656 260.792 197.88 260.776 198.088C260.76 198.28 260.728 198.448 260.68 198.592C260.648 198.72 260.6 198.824 260.536 198.904C260.488 198.968 260.416 199 260.32 199ZM274.716 199V195.856H277.212V199H274.716ZM260.316 199C260.236 199 260.164 198.968 260.1 198.904C260.036 198.824 259.988 198.72 259.956 198.592C259.924 198.448 259.9 198.28 259.884 198.088C259.852 197.88 259.836 197.656 259.836 197.416C259.836 197.096 259.852 196.824 259.884 196.6C259.916 196.36 259.972 196.176 260.052 196.048C260.116 195.92 260.204 195.856 260.316 195.856V199ZM260.292 199V195.856H272.532L271.044 197.176V193.024C271.044 192.24 270.956 191.632 270.78 191.2C270.62 190.768 270.324 190.464 269.892 190.288C269.476 190.112 268.892 190.024 268.14 190.024C267.484 190.024 266.844 190.064 266.22 190.144C265.612 190.224 265.132 190.336 264.78 190.48L267.06 188.368C266.964 188.72 266.868 189.176 266.772 189.736C266.692 190.296 266.62 190.888 266.556 191.512C266.508 192.12 266.484 192.712 266.484 193.288C266.484 193.816 266.508 194.376 266.556 194.968C266.62 195.56 266.684 196.088 266.748 196.552C266.828 197 266.884 197.304 266.916 197.464L263.436 198.448C263.356 198.208 263.268 197.832 263.172 197.32C263.076 196.808 262.996 196.208 262.932 195.52C262.868 194.816 262.836 194.072 262.836 193.288C262.836 192.504 262.868 191.744 262.932 191.008C263.012 190.256 263.108 189.576 263.22 188.968C263.332 188.36 263.436 187.88 263.532 187.528C263.916 187.384 264.524 187.24 265.356 187.096C266.204 186.952 267.132 186.88 268.14 186.88C269.612 186.88 270.828 187.08 271.788 187.48C272.764 187.88 273.492 188.528 273.972 189.424C274.468 190.32 274.716 191.528 274.716 193.048V199H260.292ZM277.212 199V195.856C277.308 195.856 277.38 195.896 277.428 195.976C277.492 196.04 277.54 196.144 277.572 196.288C277.62 196.416 277.652 196.576 277.668 196.768C277.684 196.96 277.692 197.176 277.692 197.416C277.692 197.656 277.684 197.88 277.668 198.088C277.652 198.28 277.62 198.448 277.572 198.592C277.54 198.72 277.492 198.824 277.428 198.904C277.38 198.968 277.308 199 277.212 199ZM279.879 199V182.128H283.551V199H279.879ZM277.215 199V195.856H279.879V199H277.215ZM277.215 199C277.135 199 277.063 198.968 276.999 198.904C276.935 198.824 276.887 198.72 276.855 198.592C276.823 198.448 276.799 198.28 276.783 198.088C276.751 197.88 276.735 197.656 276.735 197.416C276.735 197.096 276.751 196.824 276.783 196.6C276.815 196.36 276.871 196.176 276.951 196.048C277.015 195.92 277.103 195.856 277.215 195.856V199ZM287.272 199V182.128H290.92V199H287.272ZM305.342 199C303.998 199 302.862 198.784 301.934 198.352C301.022 197.92 300.334 197.264 299.87 196.384C299.422 195.504 299.198 194.4 299.198 193.072C299.198 191.728 299.422 190.6 299.87 189.688C300.334 188.776 301.022 188.088 301.934 187.624C302.862 187.16 303.998 186.928 305.342 186.928H310.934V197.296H307.262V189.448L308.006 190.072H305.342C304.798 190.072 304.342 190.144 303.974 190.288C303.606 190.416 303.326 190.696 303.134 191.128C302.958 191.544 302.87 192.192 302.87 193.072C302.87 193.888 302.95 194.496 303.11 194.896C303.27 195.296 303.534 195.56 303.902 195.688C304.27 195.8 304.75 195.856 305.342 195.856H313.43V199H305.342ZM313.43 199V195.856C313.526 195.856 313.598 195.896 313.646 195.976C313.71 196.04 313.758 196.144 313.79 196.288C313.838 196.416 313.87 196.576 313.886 196.768C313.902 196.96 313.91 197.176 313.91 197.416C313.91 197.656 313.902 197.88 313.886 198.088C313.87 198.28 313.838 198.448 313.79 198.592C313.758 198.72 313.71 198.824 313.646 198.904C313.598 198.968 313.526 199 313.43 199ZM301.358 184.696V181.768H304.862V184.696H301.358ZM306.086 184.696V181.768H309.59V184.696H306.086ZM327.826 199V195.856H330.322V199H327.826ZM313.426 199C313.346 199 313.274 198.968 313.21 198.904C313.146 198.824 313.098 198.72 313.066 198.592C313.034 198.448 313.01 198.28 312.994 198.088C312.962 197.88 312.946 197.656 312.946 197.416C312.946 197.096 312.962 196.824 312.994 196.6C313.026 196.36 313.082 196.176 313.162 196.048C313.226 195.92 313.314 195.856 313.426 195.856V199ZM313.402 199V195.856H325.642L324.154 197.176V193.024C324.154 192.24 324.066 191.632 323.89 191.2C323.73 190.768 323.434 190.464 323.002 190.288C322.586 190.112 322.002 190.024 321.25 190.024C320.594 190.024 319.954 190.064 319.33 190.144C318.722 190.224 318.242 190.336 317.89 190.48L320.17 188.368C320.074 188.72 319.978 189.176 319.882 189.736C319.802 190.296 319.73 190.888 319.666 191.512C319.618 192.12 319.594 192.712 319.594 193.288C319.594 193.816 319.618 194.376 319.666 194.968C319.73 195.56 319.794 196.088 319.858 196.552C319.938 197 319.994 197.304 320.026 197.464L316.546 198.448C316.466 198.208 316.378 197.832 316.282 197.32C316.186 196.808 316.106 196.208 316.042 195.52C315.978 194.816 315.946 194.072 315.946 193.288C315.946 192.504 315.978 191.744 316.042 191.008C316.122 190.256 316.218 189.576 316.33 188.968C316.442 188.36 316.546 187.88 316.642 187.528C317.026 187.384 317.634 187.24 318.466 187.096C319.314 186.952 320.242 186.88 321.25 186.88C322.722 186.88 323.938 187.08 324.898 187.48C325.874 187.88 326.602 188.528 327.082 189.424C327.578 190.32 327.826 191.528 327.826 193.048V199H313.402ZM330.322 199V195.856C330.418 195.856 330.49 195.896 330.538 195.976C330.602 196.04 330.65 196.144 330.682 196.288C330.73 196.416 330.762 196.576 330.778 196.768C330.794 196.96 330.802 197.176 330.802 197.416C330.802 197.656 330.794 197.88 330.778 198.088C330.762 198.28 330.73 198.448 330.682 198.592C330.65 198.72 330.602 198.824 330.538 198.904C330.49 198.968 330.418 199 330.322 199ZM336.66 199V195.856H339.156V199H336.66ZM330.324 199C330.244 199 330.172 198.968 330.108 198.904C330.044 198.824 329.996 198.72 329.964 198.592C329.932 198.448 329.908 198.28 329.892 198.088C329.86 197.88 329.844 197.656 329.844 197.416C329.844 197.096 329.86 196.824 329.892 196.6C329.924 196.36 329.98 196.176 330.06 196.048C330.124 195.92 330.212 195.856 330.324 195.856V199ZM332.988 199V182.128H336.66V199H332.988ZM330.324 199V195.856H332.988V199H330.324ZM339.156 199V195.856C339.252 195.856 339.324 195.896 339.372 195.976C339.436 196.04 339.484 196.144 339.516 196.288C339.564 196.416 339.596 196.576 339.612 196.768C339.628 196.96 339.636 197.176 339.636 197.416C339.636 197.656 339.628 197.88 339.612 198.088C339.596 198.28 339.564 198.448 339.516 198.592C339.484 198.72 339.436 198.824 339.372 198.904C339.324 198.968 339.252 199 339.156 199ZM339.16 199V195.856H351.208L350.056 196.792V193.888C350.056 193.072 349.968 192.424 349.792 191.944C349.632 191.464 349.392 191.12 349.072 190.912C348.752 190.704 348.344 190.6 347.848 190.6H342.568L340.384 187.456L341.656 185.032C341.784 184.792 341.928 184.528 342.088 184.24C342.264 183.936 342.488 183.568 342.76 183.136C343.048 182.688 343.408 182.128 343.84 181.456L346.936 183.184C346.536 183.76 346.216 184.248 345.976 184.648C345.736 185.048 345.528 185.392 345.352 185.68C345.192 185.968 345.04 186.256 344.896 186.544L344.032 188.176L343.552 187.456H347.848C348.888 187.456 349.776 187.624 350.512 187.96C351.248 188.296 351.848 188.768 352.312 189.376C352.792 189.968 353.144 190.648 353.368 191.416C353.592 192.184 353.704 193.008 353.704 193.888V199H339.16ZM339.16 199C339.08 199 339.008 198.968 338.944 198.904C338.88 198.824 338.832 198.72 338.8 198.592C338.768 198.448 338.744 198.28 338.728 198.088C338.696 197.88 338.68 197.656 338.68 197.416C338.68 197.096 338.696 196.824 338.728 196.6C338.76 196.36 338.816 196.176 338.896 196.048C338.96 195.92 339.048 195.856 339.16 195.856V199ZM380.983 199V186.928H384.655V197.704L382.447 195.856H387.775V199H380.983ZM375.967 192.496V189.328H380.983V192.496H375.967ZM368.911 204.952C367.487 204.952 366.215 204.688 365.095 204.16C363.975 203.648 363.095 202.936 362.455 202.024C361.815 201.112 361.495 200.072 361.495 198.904C361.495 198.584 361.519 198.168 361.567 197.656C361.615 197.128 361.679 196.544 361.759 195.904C361.839 195.264 361.927 194.608 362.023 193.936C362.135 193.248 362.239 192.584 362.335 191.944L365.959 192.424C365.799 193.496 365.655 194.472 365.527 195.352C365.415 196.216 365.327 196.952 365.263 197.56C365.199 198.152 365.167 198.592 365.167 198.88C365.167 199.472 365.311 199.984 365.599 200.416C365.887 200.864 366.311 201.208 366.871 201.448C367.431 201.688 368.111 201.808 368.911 201.808C369.759 201.808 370.431 201.68 370.927 201.424C371.423 201.184 371.775 200.856 371.983 200.44C372.191 200.04 372.295 199.584 372.295 199.072V186.928H375.967V199.072C375.967 200.256 375.663 201.288 375.055 202.168C374.447 203.048 373.607 203.728 372.535 204.208C371.479 204.704 370.271 204.952 368.911 204.952ZM366.919 185.776V182.824H370.615V185.776H366.919ZM387.775 199V195.856C387.871 195.856 387.943 195.896 387.991 195.976C388.055 196.04 388.103 196.144 388.135 196.288C388.183 196.416 388.215 196.576 388.231 196.768C388.247 196.96 388.255 197.176 388.255 197.416C388.255 197.656 388.247 197.88 388.231 198.088C388.215 198.28 388.183 198.448 388.135 198.592C388.103 198.72 388.055 198.824 387.991 198.904C387.943 198.968 387.871 199 387.775 199ZM378.727 204.376V201.448H382.231V204.376H378.727ZM383.455 204.376V201.448H386.959V204.376H383.455ZM395.666 199V195.856H398.786V199H395.666ZM398.786 199V195.856C398.882 195.856 398.954 195.896 399.002 195.976C399.066 196.04 399.114 196.144 399.146 196.288C399.194 196.416 399.226 196.576 399.242 196.768C399.258 196.96 399.266 197.176 399.266 197.416C399.266 197.656 399.258 197.88 399.242 198.088C399.226 198.28 399.194 198.448 399.146 198.592C399.114 198.72 399.066 198.824 399.002 198.904C398.954 198.968 398.882 199 398.786 199ZM387.77 199C387.674 199 387.602 198.968 387.554 198.904C387.49 198.824 387.442 198.72 387.41 198.592C387.378 198.448 387.354 198.28 387.338 198.088C387.306 197.88 387.29 197.656 387.29 197.416C387.29 197.096 387.306 196.824 387.338 196.6C387.37 196.36 387.426 196.176 387.506 196.048C387.57 195.92 387.658 195.856 387.77 195.856V199ZM387.77 199V195.856H394.226L391.994 197.704V186.928H395.666V199H387.77ZM388.61 204.376V201.448H392.114V204.376H388.61ZM393.338 204.376V201.448H396.842V204.376H393.338ZM398.785 199V195.856H404.521C405.113 195.856 405.681 195.736 406.225 195.496C406.785 195.24 407.305 194.904 407.785 194.488C408.265 194.072 408.681 193.616 409.033 193.12C409.401 192.608 409.681 192.088 409.873 191.56C410.081 191.032 410.185 190.536 410.185 190.072V188.488L411.913 191.392C411.113 190.96 410.281 190.632 409.417 190.408C408.569 190.184 407.769 190.072 407.017 190.072C406.265 190.072 405.457 190.184 404.593 190.408C403.745 190.632 402.921 190.96 402.121 191.392L403.849 188.488V190.072C403.849 190.536 403.945 191.032 404.137 191.56C404.345 192.088 404.625 192.608 404.977 193.12C405.345 193.616 405.769 194.072 406.249 194.488C406.729 194.904 407.241 195.24 407.785 195.496C408.345 195.736 408.913 195.856 409.489 195.856H415.105V199H410.857C409.609 199 408.441 198.8 407.353 198.4C406.265 198 405.281 197.472 404.401 196.816C403.521 196.144 402.761 195.416 402.121 194.632C401.497 193.832 401.017 193.04 400.681 192.256C400.345 191.456 400.177 190.728 400.177 190.072V188.728C400.865 188.344 401.609 188.016 402.409 187.744C403.209 187.472 404.009 187.272 404.809 187.144C405.609 187 406.345 186.928 407.017 186.928C407.689 186.928 408.417 187 409.201 187.144C410.001 187.272 410.801 187.472 411.601 187.744C412.417 188.016 413.169 188.344 413.857 188.728V190.072C413.857 190.728 413.689 191.456 413.353 192.256C413.017 193.04 412.529 193.832 411.889 194.632C411.265 195.416 410.513 196.144 409.633 196.816C408.753 197.472 407.769 198 406.681 198.4C405.593 198.8 404.425 199 403.177 199H398.785ZM398.785 199C398.705 199 398.633 198.968 398.569 198.904C398.505 198.824 398.457 198.72 398.425 198.592C398.393 198.448 398.369 198.28 398.353 198.088C398.321 197.88 398.305 197.656 398.305 197.416C398.305 197.096 398.321 196.824 398.353 196.6C398.385 196.36 398.441 196.176 398.521 196.048C398.585 195.92 398.673 195.856 398.785 195.856V199ZM415.105 199V195.856C415.185 195.856 415.257 195.896 415.321 195.976C415.385 196.04 415.433 196.144 415.465 196.288C415.497 196.416 415.521 196.576 415.537 196.768C415.569 196.96 415.585 197.176 415.585 197.416C415.585 197.656 415.569 197.88 415.537 198.088C415.521 198.28 415.497 198.448 415.465 198.592C415.433 198.72 415.385 198.824 415.321 198.904C415.257 198.968 415.185 199 415.105 199ZM415.098 199V195.856H421.554L419.322 197.704V186.928H422.994V199H415.098ZM415.098 199C415.018 199 414.946 198.968 414.882 198.904C414.818 198.824 414.77 198.72 414.738 198.592C414.706 198.448 414.682 198.28 414.666 198.088C414.634 197.88 414.618 197.656 414.618 197.416C414.618 197.096 414.634 196.824 414.666 196.6C414.698 196.36 414.754 196.176 414.834 196.048C414.898 195.92 414.986 195.856 415.098 195.856V199ZM417.066 184.696V181.768H420.57V184.696H417.066ZM421.794 184.696V181.768H425.298V184.696H421.794ZM444.551 199V195.856H447.047V199H444.551ZM431.423 206.968C431.279 206.12 431.143 205.288 431.015 204.472C430.903 203.656 430.847 202.928 430.847 202.288C430.847 200.976 431.103 199.84 431.615 198.88C432.143 197.92 432.879 197.176 433.823 196.648C434.783 196.12 435.903 195.856 437.183 195.856C437.423 195.856 437.687 195.856 437.975 195.856C438.279 195.856 438.631 195.856 439.031 195.856C439.447 195.856 439.927 195.856 440.471 195.856C441.015 195.856 441.647 195.856 442.367 195.856L440.879 197.296V193.048C440.879 192.328 440.799 191.752 440.639 191.32C440.495 190.888 440.207 190.576 439.775 190.384C439.343 190.176 438.711 190.072 437.879 190.072C437.303 190.072 436.703 190.12 436.079 190.216C435.455 190.296 434.959 190.408 434.591 190.552L436.895 188.44C436.783 188.824 436.679 189.304 436.583 189.88C436.503 190.44 436.439 191.024 436.391 191.632C436.343 192.224 436.319 192.776 436.319 193.288C436.319 193.832 436.343 194.4 436.391 194.992C436.439 195.568 436.495 196.088 436.559 196.552C436.639 197 436.703 197.304 436.751 197.464L433.271 198.448C433.191 198.208 433.103 197.832 433.007 197.32C432.911 196.808 432.831 196.208 432.767 195.52C432.703 194.832 432.671 194.096 432.671 193.312C432.671 192.528 432.703 191.768 432.767 191.032C432.847 190.296 432.943 189.632 433.055 189.04C433.167 188.432 433.271 187.944 433.367 187.576C433.799 187.416 434.431 187.272 435.263 187.144C436.095 187 436.991 186.928 437.951 186.928C439.071 186.928 440.015 187.04 440.783 187.264C441.551 187.488 442.183 187.8 442.679 188.2C443.175 188.584 443.559 189.032 443.831 189.544C444.103 190.056 444.287 190.616 444.383 191.224C444.495 191.816 444.551 192.432 444.551 193.072V199C443.815 199 443.071 199 442.319 199C441.567 199 440.839 199 440.135 199C439.447 199 438.839 199 438.311 199C437.783 199 437.407 199 437.183 199C436.927 199 436.647 199.032 436.343 199.096C436.039 199.176 435.743 199.32 435.455 199.528C435.183 199.752 434.959 200.08 434.783 200.512C434.607 200.96 434.519 201.552 434.519 202.288C434.519 202.864 434.567 203.528 434.663 204.28C434.775 205.048 434.895 205.944 435.023 206.968H431.423ZM447.047 199V195.856C447.127 195.856 447.199 195.896 447.263 195.976C447.327 196.04 447.375 196.144 447.407 196.288C447.439 196.416 447.463 196.576 447.479 196.768C447.511 196.96 447.527 197.176 447.527 197.416C447.527 197.656 447.511 197.88 447.479 198.088C447.463 198.28 447.439 198.448 447.407 198.592C447.375 198.72 447.327 198.824 447.263 198.904C447.199 198.968 447.127 199 447.047 199ZM447.043 199V195.856H453.499L451.267 197.704V186.928H454.939V199H447.043ZM447.043 199C446.963 199 446.891 198.968 446.827 198.904C446.763 198.824 446.715 198.72 446.683 198.592C446.651 198.448 446.627 198.28 446.611 198.088C446.579 197.88 446.563 197.656 446.563 197.416C446.563 197.096 446.579 196.824 446.611 196.6C446.643 196.36 446.699 196.176 446.779 196.048C446.843 195.92 446.931 195.856 447.043 195.856V199ZM449.011 184.696V181.768H452.515V184.696H449.011ZM453.739 184.696V181.768H457.243V184.696H453.739Z" fill="#67E28C"/>
</svg>
