<svg width="14" height="18" viewBox="0 0 14 18" fill="none" xmlns="http://www.w3.org/2000/svg">
<path d="M11.6865 10.0572C11.097 11.2517 10.299 12.4426 9.48147 13.5113C8.66648 14.5766 7.84873 15.4989 7.23364 16.1555C7.15191 16.2428 7.07387 16.3252 7 16.4026C6.92613 16.3252 6.84809 16.2428 6.76636 16.1555C6.15127 15.4989 5.33352 14.5766 4.51853 13.5113C3.70098 12.4426 2.90303 11.2517 2.31351 10.0572C1.7179 8.85046 1.375 7.71965 1.375 6.75C1.375 3.6434 3.8934 1.125 7 1.125C10.1066 1.125 12.625 3.6434 12.625 6.75C12.625 7.71965 12.2821 8.85046 11.6865 10.0572ZM7 18C7 18 13.75 11.6029 13.75 6.75C13.75 3.02208 10.7279 0 7 0C3.27208 0 0.25 3.02208 0.25 6.75C0.25 11.6029 7 18 7 18Z" fill="#A9A9A9"/>
<path d="M7 9C5.75736 9 4.75 7.99264 4.75 6.75C4.75 5.50736 5.75736 4.5 7 4.5C8.24264 4.5 9.25 5.50736 9.25 6.75C9.25 7.99264 8.24264 9 7 9ZM7 10.125C8.86396 10.125 10.375 8.61396 10.375 6.75C10.375 4.88604 8.86396 3.375 7 3.375C5.13604 3.375 3.625 4.88604 3.625 6.75C3.625 8.61396 5.13604 10.125 7 10.125Z" fill="#A9A9A9"/>
</svg>
