<svg width="18" height="20" viewBox="0 0 18 20" fill="none" xmlns="http://www.w3.org/2000/svg">
<g opacity="0.2">
<path fill-rule="evenodd" clip-rule="evenodd" d="M15.3976 3.77471C15.497 3.65623 15.5511 3.49952 15.5485 3.33761C15.5459 3.17569 15.4869 3.0212 15.3838 2.90669C15.2808 2.79218 15.1417 2.72659 14.996 2.72373C14.8503 2.72087 14.7092 2.78098 14.6026 2.89138L2.60262 16.2247C2.54735 16.2819 2.50302 16.3509 2.47228 16.4276C2.44154 16.5043 2.425 16.587 2.42367 16.6709C2.42234 16.7549 2.43623 16.8382 2.46452 16.916C2.49281 16.9939 2.53492 17.0646 2.58834 17.1239C2.64175 17.1833 2.70538 17.23 2.77542 17.2615C2.84546 17.2929 2.92048 17.3083 2.99601 17.3069C3.07153 17.3054 3.14602 17.287 3.21502 17.2529C3.28402 17.2187 3.34612 17.1694 3.39762 17.108L5.67387 14.5789C6.66236 15.0855 7.79412 15.4164 9.00012 15.4164C10.9636 15.4164 12.7291 14.5405 14.0011 13.4555C14.6386 12.9122 15.1614 12.3089 15.5274 11.7222C15.8874 11.1455 16.1251 10.5405 16.1251 9.99971C16.1251 9.45888 15.8874 8.85388 15.5274 8.27804C15.1614 7.69054 14.6386 7.08721 14.0011 6.54471C13.7986 6.37138 13.5826 6.20304 13.3561 6.04388L15.3976 3.77471ZM11.3476 8.27638L10.5226 9.19138C10.673 9.54126 10.7221 9.93434 10.6631 10.3165C10.6041 10.6987 10.4399 11.0511 10.1931 11.3253C9.94635 11.5994 9.62917 11.7819 9.28523 11.8474C8.94129 11.913 8.58751 11.8585 8.27261 11.6914L7.44762 12.608C7.98846 13.0059 8.63647 13.1839 9.28186 13.1117C9.92726 13.0396 10.5304 12.7218 10.989 12.2121C11.4477 11.7025 11.7337 11.0324 11.7987 10.3153C11.8636 9.59816 11.7035 8.87815 11.3454 8.27721L11.3476 8.27638Z" fill="black"/>
<path d="M9.5025 6.92467C9.53336 6.9311 9.56515 6.92915 9.59518 6.91899C9.62522 6.90884 9.6526 6.89077 9.675 6.86634L11.1375 5.24134C11.1602 5.2165 11.1767 5.18546 11.1853 5.15133C11.1938 5.11719 11.1942 5.08116 11.1863 5.04684C11.1784 5.01251 11.1625 4.98108 11.1403 4.9557C11.118 4.93031 11.0902 4.91186 11.0595 4.90217C10.3892 4.69227 9.69636 4.58489 9 4.58301C7.0365 4.58301 5.271 5.45884 3.999 6.54384C3.3615 7.08717 2.83875 7.69051 2.472 8.27717C2.112 8.85384 1.875 9.45884 1.875 9.99967C1.875 10.5405 2.11275 11.1455 2.472 11.7213C2.82889 12.2779 3.25056 12.7795 3.726 13.213C3.76158 13.2457 3.80688 13.2624 3.85298 13.2597C3.89908 13.2571 3.94261 13.2354 3.975 13.1988L6.18 10.7488C6.20199 10.7239 6.21825 10.6935 6.22739 10.6602C6.23653 10.6268 6.23828 10.5915 6.2325 10.5572C6.15123 10.0602 6.17959 9.5487 6.31517 9.06656C6.45074 8.58441 6.68949 8.14597 7.01095 7.78879C7.33242 7.43161 7.72701 7.16633 8.16095 7.01569C8.59488 6.86505 9.05521 6.83354 9.5025 6.92384V6.92467Z" fill="black"/>
</g>
</svg>
