<svg width="479" height="479" viewBox="0 0 479 479" fill="none" xmlns="http://www.w3.org/2000/svg">
<path d="M334.443 405.897C332.93 404.541 331.505 403.089 330.178 401.55C330.178 401.55 329.842 400.966 329.4 400.199C332.792 400.187 336.165 399.7 339.422 398.752C339.528 398.72 339.966 398.562 340.457 398.361L341.031 399.201C341.82 400.455 342.719 401.636 343.717 402.731L342.312 403.852C340.727 405.341 339.254 406.944 337.904 408.648L337.684 408.469C336.501 407.75 335.412 406.886 334.443 405.897Z" fill="white"/>
<path d="M315.223 408.857L315.186 408.833L315.372 407.788C315.955 404.65 316.747 401.553 317.741 398.52C317.741 398.52 317.767 398.451 317.805 398.355C320.923 399.381 324.164 399.985 327.442 400.152L327.426 400.198C326.495 402.222 322.342 411.928 322.44 411.039C319.917 410.783 317.466 410.042 315.223 408.857Z" fill="white"/>
<path d="M92.3582 378.39L4.75445 327.813C4.03399 327.397 3.43572 326.799 3.01975 326.078C2.60379 325.358 2.38479 324.541 2.38477 323.709V199.765C2.38479 198.933 2.60379 198.116 3.01975 197.395C3.43572 196.675 4.03399 196.076 4.75445 195.66L86.1698 148.656V103.931C86.1698 103.099 86.3888 102.282 86.8047 101.561C87.2207 100.841 87.819 100.243 88.5394 99.8267L150.831 63.8632C151.552 63.4472 152.369 63.2283 153.201 63.2283C154.033 63.2283 154.85 63.4472 155.571 63.8632C155.571 63.8632 173.952 74.4758 194.308 86.2236C209.6 77.3989 224.917 68.5516 234.6 62.9592C235.32 62.5432 236.138 62.3242 236.969 62.3242C237.801 62.3242 238.619 62.5432 239.339 62.9592L329.212 114.846C329.933 115.264 330.531 115.864 330.947 116.586C331.363 117.308 331.582 118.126 331.582 118.96C331.582 162.275 331.582 199.092 331.582 242.88C331.582 243.713 331.363 244.532 330.947 245.254C330.531 245.976 329.933 246.576 329.212 246.994L99.3642 379.696C98.6437 380.112 97.8264 380.331 96.9945 380.331C96.1626 380.331 95.3453 380.112 94.6248 379.696L92.3582 378.39Z" fill="white"/>
<path d="M108.732 296.125C108.732 296.125 108.732 284.092 108.732 270.769C108.732 269.171 108.732 267.554 108.732 265.935L137.222 249.487V279.682L108.732 296.125Z" fill="#88C5E9"/>
<path d="M152.289 270.974C152.289 270.974 152.289 258.942 152.289 245.618C152.289 244.02 152.289 242.402 152.289 240.785L180.78 224.336V254.528C173.796 258.564 163.244 264.655 152.289 270.974Z" fill="#88C5E9"/>
<path d="M108.732 356.106C108.732 356.106 108.732 344.072 108.732 330.75C108.732 329.15 108.732 327.533 108.732 325.916L137.222 309.468V339.66L108.732 356.106Z" fill="#88C5E9"/>
<path d="M205.912 240.02V201.325L222.669 191.65C222.669 195.353 222.669 229.353 222.669 230.347L205.912 240.02Z" fill="#88C5E9"/>
<path d="M152.289 330.957C152.289 330.957 152.289 318.924 152.289 305.601C152.289 304.003 152.289 302.386 152.289 300.767L180.78 284.319V314.511C173.796 318.544 163.244 324.635 152.289 330.957Z" fill="#88C5E9"/>
<path d="M247.805 215.834V185.642L276.294 169.195C276.294 170.813 276.294 172.431 276.294 174.031C276.294 187.354 276.294 199.386 276.294 199.386C265.336 205.712 254.783 211.806 247.805 215.834Z" fill="#88C5E9"/>
<path d="M291.361 190.687V160.494L319.851 144.046C319.851 145.663 319.851 147.282 319.851 148.881C319.851 162.205 319.851 174.237 319.851 174.237L291.361 190.687Z" fill="#88C5E9"/>
<path d="M247.805 275.815V245.618L276.294 229.169C276.294 230.787 276.294 232.406 276.294 234.004C276.294 247.329 276.294 259.36 276.294 259.36C265.336 265.693 254.783 271.787 247.805 275.815Z" fill="#88C5E9"/>
<path d="M291.361 250.668V220.475L319.851 204.03C319.851 205.648 319.851 207.266 319.851 208.866C319.851 222.189 319.851 234.221 319.851 234.221L291.361 250.668Z" fill="#88C5E9"/>
<path d="M183.148 332.691V162.685C183.148 160.57 183.266 158.419 183.148 156.301C183.138 156.141 183.148 155.977 183.148 155.817L181.975 157.864L236.769 126.228L248.999 119.168L245.434 117.122V293.995C245.434 297.045 250.173 297.049 250.173 293.995V136.411C250.173 130.149 250.306 123.869 250.173 117.609C250.173 117.445 250.173 117.282 250.173 117.118C250.167 116.704 250.052 116.298 249.842 115.941C249.631 115.584 249.331 115.287 248.972 115.081C248.612 114.875 248.205 114.765 247.79 114.764C247.376 114.762 246.968 114.868 246.607 115.072L217.483 131.886L200.26 141.829C193.546 145.707 186.706 149.426 180.093 153.474C178.277 154.585 178.408 155.809 178.408 157.554V332.691C178.408 335.739 183.148 335.745 183.148 332.691Z" fill="#211715"/>
<path d="M189.156 327.857V278.302L239.426 249.273V298.828L189.156 327.857Z" fill="#88C5E9"/>
<path d="M179.582 201.233L141.211 223.389L104.502 244.579L99.6445 247.386L97.3364 248.718C96.4072 249.088 95.5859 249.686 94.9478 250.456C94.6308 251.219 94.5192 252.051 94.6243 252.871V369.926C94.6243 372.976 99.3637 372.981 99.3637 369.926V251.653L98.1895 253.699L176.318 208.591L181.976 205.325C184.616 203.8 182.23 199.703 179.582 201.233Z" fill="#211715"/>
<path d="M179.579 222.295L149.427 239.704L109.873 262.54L96.0236 270.536C93.3837 272.06 95.7676 276.157 98.4157 274.629L128.568 257.22L168.121 234.384L181.971 226.388C184.612 224.863 182.228 220.766 179.579 222.295Z" fill="#211715"/>
<path d="M111.101 296.126V265.938C111.101 262.889 106.361 262.884 106.361 265.938V296.126C106.361 299.175 111.101 299.18 111.101 296.126Z" fill="#211715"/>
<path d="M248.999 115.074L238.516 109.021L213.746 94.7222L185.211 78.2529L162.973 65.4033L157.522 62.2575C156.33 61.4695 154.945 61.0229 153.517 60.9661C152.089 60.9092 150.673 61.2444 149.422 61.9353C143.743 65.0846 138.166 68.4341 132.544 71.6806L104.298 87.99C98.7116 91.2163 93.0647 94.3549 87.5303 97.6713C86.4229 98.3061 85.4977 99.2156 84.8442 100.312C84.1907 101.408 83.8307 102.655 83.7992 103.931C83.7743 104.569 83.7992 105.214 83.7992 105.853V148.656L84.9734 146.61L66.4697 157.291L30.1543 178.263L4.81046 192.892C4.16341 193.243 3.53644 193.629 2.93249 194.05C1.9885 194.771 1.23093 195.707 0.723208 196.781C0.215482 197.855 -0.027631 199.035 0.0142181 200.222C-0.0082939 202.65 0.0142181 205.08 0.0142181 207.507V316.631C0.0142181 318.897 -0.0177726 321.165 0.0142181 323.43C0.000744428 324.718 0.321092 325.987 0.944035 327.114C1.56698 328.241 2.47126 329.187 3.56875 329.86C4.04861 330.162 4.55335 330.429 5.04388 330.712L29.5192 344.844L66.2908 366.074L91.6085 380.69C92.1938 381.028 92.7732 381.388 93.3692 381.707C98.413 384.406 103.135 380.254 107.386 377.797L145.22 355.953L220.604 312.443L295.702 269.078L314.762 258.074L324.148 252.655L328.7 250.027C330.115 249.356 331.383 248.411 332.431 247.247C334.425 244.684 333.95 241.357 333.95 238.307V206.83C333.95 179.905 333.95 152.979 333.95 126.052C333.95 121.312 335.005 115.683 330.348 112.767C329.756 112.4 329.143 112.072 328.543 111.726L318.79 106.094L284.757 86.4473L251.172 67.0621L241.937 61.7303C241.471 61.4613 241.012 61.1734 240.537 60.9222C235.561 58.2907 230.804 62.4199 226.614 64.8381C215.446 71.2884 204.276 77.7371 193.105 84.1842C190.463 85.708 192.847 89.8051 195.497 88.2767C203.846 83.4583 212.195 78.64 220.543 73.8216L230.722 67.9448L235.073 65.4258C235.497 65.0726 236.012 64.8469 236.559 64.7747C237.106 64.7026 237.662 64.787 238.163 65.0182C241.332 66.5325 244.343 68.5858 247.382 70.3405L293.96 97.2294C305.185 103.71 316.441 110.144 327.639 116.674C327.974 116.826 328.277 117.044 328.529 117.313C328.78 117.583 328.976 117.899 329.105 118.245C329.271 119.122 329.308 120.018 329.216 120.906V131.775C329.216 141.253 329.216 150.73 329.216 160.205V239.611C329.304 240.794 329.304 241.982 329.216 243.165C328.924 245.047 326.609 245.772 325.179 246.601L318.351 250.543L305.835 257.771L254.338 287.487L151.647 346.776L100.443 376.339C98.8337 377.268 97.4415 378.472 95.6204 377.537C95.182 377.313 94.7626 377.043 94.3372 376.797L88.8158 373.609L43.9269 347.692L7.05692 326.405C5.89222 325.732 4.86023 325.233 4.75359 323.652C4.68961 322.694 4.75359 321.71 4.75359 320.751V203.793C4.75359 202.554 4.70146 201.305 4.75359 200.063C4.77235 199.487 4.95254 198.927 5.27365 198.448C5.59477 197.969 6.0439 197.59 6.56995 197.353L19.8094 189.71L68.01 161.879L84.7613 152.207C85.6144 151.714 86.567 151.28 87.3679 150.703C89.1879 149.391 88.5421 145.925 88.5421 143.962V106.227C88.5421 104.509 88.2495 102.847 89.9082 101.774C94.3846 98.8787 99.2033 96.4071 103.818 93.7424L128.502 79.4923L148.55 67.9152C149.691 67.2564 150.822 66.4815 152.013 65.9152C153.553 65.1817 154.698 66.1024 155.972 66.837L193.396 88.4438L238.798 114.657L246.607 119.167C249.254 120.694 251.643 116.6 248.999 115.074Z" fill="#211715"/>
<path d="M96.1968 110.901L121.248 125.368L160.873 148.245L170.011 153.521C172.657 155.05 175.047 150.955 172.404 149.429L147.352 134.966L107.728 112.086L98.589 106.81C95.942 105.283 93.5534 109.375 96.1968 110.901Z" fill="#211715"/>
<path d="M93.2785 157.183L115.417 169.965L150.844 190.422L158.946 195.1C161.593 196.628 163.982 192.533 161.338 191.007L139.205 178.225L103.779 157.769L95.6766 153.091C93.0309 151.562 90.641 155.656 93.2844 157.183H93.2785Z" fill="#211715"/>
<path d="M88.3485 243.924L63.0651 229.327L22.8006 206.08L13.6026 200.77C10.9557 199.241 8.56706 203.336 11.2104 204.862L36.4938 219.458L76.7595 242.706L85.9574 248.016C88.6044 249.544 90.9918 245.45 88.3485 243.924Z" fill="#211715"/>
<path d="M318.561 120.994L259.694 154.978L246.608 162.532C243.968 164.057 246.352 168.154 249 166.625L305.635 133.923L320.955 125.078C323.596 123.553 321.212 119.456 318.564 120.986L318.561 120.994Z" fill="#211715"/>
<path d="M125.343 287.902V257.715C125.343 254.665 120.604 254.66 120.604 257.715V287.902C120.604 290.952 125.343 290.957 125.343 287.902Z" fill="#211715"/>
<path d="M179.578 252.49L147.157 271.211L110.146 292.576L95.7978 300.86C93.1568 302.385 95.5407 306.481 98.1888 304.953L127.938 287.772L165.695 265.971L181.97 256.574C184.611 255.049 182.227 250.952 179.578 252.482V252.49Z" fill="#211715"/>
<path d="M139.587 279.68V249.492C139.587 246.442 134.848 246.438 134.848 249.492V279.68C134.848 282.728 139.587 282.734 139.587 279.68Z" fill="#211715"/>
<path d="M98.1939 334.737L166.116 295.519L181.975 286.362C184.615 284.837 182.231 280.74 179.583 282.27L112.379 321.07L95.8017 330.641C93.1606 332.165 95.5445 336.262 98.1939 334.734V334.737Z" fill="#211715"/>
<path d="M154.659 270.974V240.791C154.659 237.741 149.92 237.737 149.92 240.791V270.974C149.92 274.024 154.659 274.028 154.659 270.974Z" fill="#211715"/>
<path d="M205.451 180.027C203.471 178.815 202.879 176.212 202.726 174.043C202.562 171.226 202.935 168.404 203.825 165.726C205.523 160.233 208.86 155.39 213.389 151.848C215.625 150.173 218.682 148.367 221.597 148.829C224.066 149.22 225.213 151.495 225.67 153.73C226.842 159.455 224.557 165.963 221.472 170.717C219.677 173.519 217.34 175.936 214.6 177.826C212.156 179.479 208.416 181.617 205.456 180.03C202.77 178.584 200.374 182.674 203.064 184.122C210.271 188.003 218.933 181.563 223.35 176.127C228.156 170.214 231.365 162.169 230.538 154.444C230.16 150.919 228.82 147.43 225.738 145.425C222.413 143.261 218.237 143.954 214.829 145.493C207.87 148.636 202.834 155.354 200.048 162.28C197.419 168.816 195.962 179.769 203.064 184.119C205.665 185.717 208.049 181.62 205.451 180.027Z" fill="#211715"/>
<path d="M111.101 356.109V325.921C111.101 322.873 106.361 322.867 106.361 325.921V356.109C106.361 359.159 111.101 359.163 111.101 356.109Z" fill="#211715"/>
<path d="M168.901 262.754V232.567C168.901 229.518 164.162 229.512 164.162 232.567V262.754C164.162 265.804 168.901 265.809 168.901 262.754Z" fill="#211715"/>
<path d="M217.472 165.343V156.268C217.472 155.64 217.222 155.037 216.778 154.593C216.333 154.148 215.731 153.898 215.102 153.898C214.474 153.898 213.871 154.148 213.426 154.593C212.982 155.037 212.732 155.64 212.732 156.268V165.343C212.732 165.971 212.982 166.574 213.426 167.018C213.871 167.463 214.474 167.713 215.102 167.713C215.731 167.713 216.333 167.463 216.778 167.018C217.222 166.574 217.472 165.971 217.472 165.343Z" fill="#211715"/>
<path d="M211.619 170.091L216.298 167.388C216.567 167.231 216.802 167.023 216.99 166.775C217.179 166.527 217.316 166.245 217.395 165.944C217.474 165.643 217.493 165.329 217.451 165.021C217.409 164.712 217.306 164.415 217.149 164.147C216.836 163.614 216.328 163.224 215.733 163.058C215.117 162.9 214.463 162.985 213.907 163.295L209.227 165.997C208.958 166.154 208.723 166.363 208.535 166.611C208.347 166.858 208.209 167.141 208.13 167.442C208.051 167.743 208.032 168.057 208.075 168.365C208.117 168.673 208.219 168.97 208.376 169.239C208.692 169.772 209.201 170.163 209.798 170.328C210.415 170.485 211.068 170.401 211.624 170.091H211.619Z" fill="#211715"/>
<path d="M125.343 347.883V317.695C125.343 314.646 120.604 314.641 120.604 317.695V347.883C120.604 350.931 125.343 350.937 125.343 347.883Z" fill="#211715"/>
<path d="M179.578 312.469L114.272 350.173L95.7978 360.836C93.1568 362.36 95.5407 366.457 98.1888 364.928L167.013 325.193L181.97 316.558C184.611 315.033 182.227 310.936 179.578 312.465V312.469Z" fill="#211715"/>
<path d="M139.587 339.659V309.473C139.587 306.423 134.848 306.418 134.848 309.473V339.659C134.848 342.709 139.587 342.713 139.587 339.659Z" fill="#211715"/>
<path d="M208.282 240.02V201.325L207.109 203.371L223.865 193.697L220.3 191.65C220.3 202.962 220.3 214.273 220.3 225.585C220.3 227.173 220.3 228.76 220.3 230.347L221.473 228.301L204.718 237.974C202.077 239.498 204.461 243.595 207.11 242.065C212.696 238.843 218.28 235.619 223.865 232.393C224.221 232.183 224.517 231.884 224.723 231.526C224.929 231.167 225.038 230.761 225.039 230.347C225.039 219.5 225.039 208.652 225.039 197.804C225.039 195.751 225.039 193.699 225.039 191.65C225.033 191.236 224.918 190.83 224.708 190.473C224.497 190.116 224.197 189.82 223.838 189.613C223.478 189.407 223.071 189.298 222.657 189.296C222.242 189.294 221.834 189.401 221.473 189.604L208.795 196.924C207.448 197.701 206.001 198.403 204.718 199.278C203.47 200.128 203.544 201.36 203.544 202.688V240.02C203.543 243.069 208.282 243.075 208.282 240.02Z" fill="#211715"/>
<path d="M154.659 330.958V300.77C154.659 297.722 149.92 297.716 149.92 300.77V330.958C149.92 334.007 154.659 334.012 154.659 330.958Z" fill="#211715"/>
<path d="M168.901 322.734V292.547C168.901 289.497 164.162 289.492 164.162 292.547V322.734C164.162 325.784 168.901 325.789 168.901 322.734Z" fill="#211715"/>
<path d="M191.526 327.853V278.302C191.526 275.252 186.787 275.247 186.787 278.302V327.853C186.787 330.903 191.526 330.908 191.526 327.853Z" fill="#211715"/>
<path d="M249 187.689L279.149 170.281L318.703 147.445L332.552 139.449C335.193 137.924 332.81 133.827 330.16 135.357L300.011 152.765L260.457 175.601L246.608 183.597C243.968 185.121 246.352 189.219 249 187.689Z" fill="#211715"/>
<path d="M264.417 207.609V177.422C264.417 174.372 259.678 174.367 259.678 177.422V207.609C259.678 210.658 264.417 210.664 264.417 207.609Z" fill="#211715"/>
<path d="M249 217.882L281.424 199.161L318.432 177.795L332.781 169.51C335.421 167.986 333.038 163.89 330.389 165.418L300.64 182.598L262.884 204.399L246.608 213.796C243.968 215.321 246.352 219.418 249 217.889V217.882Z" fill="#211715"/>
<path d="M278.659 199.385V169.195C278.659 166.146 273.92 166.141 273.92 169.195V199.385C273.92 202.435 278.659 202.441 278.659 199.385Z" fill="#211715"/>
<path d="M241.796 298.83V249.279C241.796 246.23 237.057 246.224 237.057 249.279V298.83C237.057 301.88 241.796 301.885 241.796 298.83Z" fill="#211715"/>
<path d="M293.732 190.684V160.498C293.732 157.448 288.992 157.444 288.992 160.498V190.684C288.992 193.734 293.732 193.739 293.732 190.684Z" fill="#211715"/>
<path d="M249 247.669L316.204 208.869L332.781 199.298C335.421 197.773 333.038 193.676 330.389 195.205L262.467 234.424L246.608 243.58C243.968 245.105 246.352 249.202 249 247.673V247.669Z" fill="#211715"/>
<path d="M307.974 182.466V152.274C307.974 149.225 303.234 149.219 303.234 152.274V182.466C303.234 185.516 307.974 185.521 307.974 182.466Z" fill="#211715"/>
<path d="M264.417 267.589V237.402C264.417 234.353 259.678 234.348 259.678 237.402V267.589C259.678 270.638 264.417 270.644 264.417 267.589Z" fill="#211715"/>
<path d="M322.216 174.238V144.051C322.216 141.001 317.477 140.996 317.477 144.051V174.238C317.477 177.288 322.216 177.293 322.216 174.238Z" fill="#211715"/>
<path d="M249 277.862L314.306 240.157L332.781 229.493C335.421 227.968 333.038 223.871 330.389 225.401L261.565 265.137L246.608 273.772C243.968 275.297 246.352 279.393 249 277.864V277.862Z" fill="#211715"/>
<path d="M278.659 259.362V229.18C278.659 226.13 273.92 226.125 273.92 229.18V259.362C273.92 262.412 278.659 262.417 278.659 259.362Z" fill="#211715"/>
<path d="M293.732 250.665V220.477C293.732 217.429 288.992 217.423 288.992 220.477V250.665C288.992 253.714 293.732 253.719 293.732 250.665Z" fill="#211715"/>
<path d="M307.974 242.441V212.254C307.974 209.204 303.234 209.199 303.234 212.254V242.441C303.234 245.491 307.974 245.496 307.974 242.441Z" fill="#211715"/>
<path d="M322.216 234.219V204.03C322.216 200.981 317.477 200.976 317.477 204.03V234.218C317.477 237.266 322.216 237.272 322.216 234.218V234.219Z" fill="#211715"/>
<path d="M181.964 270.845L244.568 234.708C245.287 234.292 246.103 234.073 246.933 234.073C247.764 234.073 248.58 234.292 249.299 234.708L289.638 257.998C289.998 258.205 290.298 258.503 290.506 258.863C290.714 259.223 290.823 259.631 290.823 260.047V268.919C290.823 269.335 290.713 269.743 290.505 270.104C290.297 270.464 289.998 270.763 289.638 270.971L226.159 307.622C225.44 308.038 224.625 308.257 223.794 308.257C222.964 308.257 222.149 308.038 221.43 307.622L181.964 284.837C181.604 284.63 181.304 284.332 181.096 283.972C180.888 283.612 180.779 283.203 180.779 282.787V272.913C180.777 272.494 180.885 272.083 181.093 271.719C181.301 271.356 181.602 271.055 181.964 270.845Z" fill="white"/>
<path d="M216.078 304.522V353.913L220.922 356.713C221.822 357.233 222.844 357.506 223.884 357.506C224.924 357.506 225.945 357.233 226.846 356.713L232.162 353.64V304.138" fill="white"/>
<path d="M274.727 279.568V320.054L279.57 322.855C280.471 323.375 281.492 323.648 282.532 323.648C283.572 323.648 284.594 323.375 285.494 322.855L290.812 319.781V270.277" fill="white"/>
<path d="M213.709 304.522V350.612C213.621 351.818 213.635 353.03 213.752 354.234C213.996 355.618 215.127 356.107 216.214 356.735C218.478 358.039 220.727 359.678 223.415 359.861C226.335 360.06 228.679 358.401 231.079 357.017C231.824 356.586 232.611 356.188 233.33 355.714C235.153 354.505 234.541 351.586 234.541 349.687V304.138C234.541 301.088 229.802 301.083 229.802 304.138V353.642L230.976 351.595L227.945 353.347C226.885 354.131 225.698 354.727 224.435 355.107C222.954 355.336 221.767 354.463 220.559 353.765L217.278 351.869L218.451 353.915V304.522C218.451 301.472 213.711 301.467 213.711 304.522H213.709Z" fill="#211715"/>
<path d="M272.355 279.567V318.041C272.355 319.835 272.237 321.306 273.911 322.321C274.865 322.899 275.845 323.438 276.81 323.996C279.438 325.515 282.181 326.675 285.254 325.553C287.214 324.691 289.097 323.663 290.882 322.479C291.912 321.887 292.911 321.413 293.142 320.096C293.331 318.001 293.345 315.894 293.185 313.797V270.276C293.185 267.227 288.446 267.222 288.446 270.276V319.78L289.618 317.734L286.588 319.487C285.528 320.271 284.341 320.866 283.078 321.246C281.598 321.476 280.411 320.603 279.203 319.904L275.921 318.008L277.095 320.054V279.568C277.095 276.518 272.355 276.512 272.355 279.567Z" fill="#211715"/>
<path d="M183.159 272.892L214.333 254.895L235.739 242.538C239.049 240.628 242.32 238.421 245.761 236.752C247.775 235.776 250.315 238.025 252.018 239.003L259.217 243.159L275.155 252.361L287.137 259.278C287.459 259.466 288.288 259.773 288.44 260.034C288.592 260.296 288.44 261.173 288.44 261.478V267.575C288.44 267.854 288.592 268.659 288.44 268.907C288.184 269.326 286.851 269.824 286.379 270.091L283.312 271.862L271.713 278.558L250.332 290.903L233.829 300.432L227.872 303.868C226.315 304.767 224.456 306.427 222.612 305.551C220.973 304.773 219.413 303.705 217.841 302.797L211.387 299.071L196.979 290.753L185.099 283.894C184.497 283.628 183.925 283.297 183.393 282.909C183.073 282.599 183.142 282.686 183.142 282.112V276.254C183.142 275.872 182.853 273.094 183.154 272.883C185.631 271.145 183.266 267.033 180.761 268.79C178.573 270.331 178.402 272.317 178.402 274.715V281.167C178.402 283.507 178.661 285.545 180.875 286.929C182.274 287.804 183.742 288.588 185.171 289.409L213.895 305.997L219.367 309.156C220.635 310.007 222.122 310.472 223.649 310.496C225.176 310.52 226.677 310.101 227.97 309.29L240.397 302.115L283.157 277.428L289.283 273.89C291.188 272.79 292.913 271.709 293.143 269.321C293.301 267.674 293.179 265.973 293.179 264.32C293.325 262.543 293.285 260.757 293.061 258.988C292.526 256.549 290.176 255.562 288.225 254.436L257.953 236.958C255.632 235.618 253.321 234.253 250.986 232.93C249.843 232.205 248.527 231.801 247.175 231.759C245.822 231.718 244.484 232.04 243.299 232.693C242.037 233.373 240.81 234.13 239.57 234.846L220.297 245.974L181.535 268.353L180.767 268.796C178.126 270.325 180.51 274.422 183.159 272.892Z" fill="#211715"/>
<path d="M277.66 262.343L227.085 291.542L222.596 294.134H224.988L202.033 280.881L198.763 278.993C196.117 277.465 193.727 281.559 196.37 283.085L219.326 296.337L222.596 298.226C222.959 298.436 223.372 298.546 223.792 298.546C224.212 298.546 224.624 298.436 224.988 298.226L264.493 275.418L280.052 266.434C282.692 264.911 280.308 260.814 277.66 262.343Z" fill="#211715"/>
<path d="M129.281 377.927C127.258 378.285 125.212 378.496 123.159 378.56C120.884 378.518 118.617 378.28 116.383 377.849H116.367C116.367 382.331 116.396 388.244 116.396 391.83C116.396 393.895 119.323 395.621 122.899 395.621C126.475 395.621 129.346 393.891 129.346 391.83C129.346 388.275 129.316 382.406 129.316 377.934L129.281 377.927Z" fill="white"/>
<path d="M126.946 377.927C126.946 380.943 126.953 383.958 126.966 386.973C126.966 388.291 126.969 389.609 126.975 390.928C126.975 391.223 126.958 391.528 126.975 391.823C126.985 392.009 126.867 392.163 126.997 391.715C126.935 391.928 126.903 391.817 126.997 391.768C127.175 391.683 127.017 391.733 126.916 391.894C126.779 392.114 126.992 391.824 127.01 391.803C126.925 391.907 126.823 391.994 126.738 392.097C126.374 392.537 126.908 392.009 126.64 392.201C125.714 392.841 124.622 393.199 123.497 393.232C123.144 393.25 122.79 393.25 122.437 393.232C122.159 393.222 121.882 393.197 121.607 393.156C121.287 393.1 120.971 393.026 120.659 392.936C120.49 392.887 120.323 392.83 120.156 392.773C119.822 392.655 120.082 392.757 119.908 392.669C119.663 392.543 119.428 392.404 119.197 392.259C119.115 392.21 118.869 391.972 119.153 392.232C119.052 392.139 118.957 392.037 118.856 391.946C118.818 391.912 118.634 391.656 118.792 391.882C118.963 392.129 118.746 391.793 118.719 391.727C118.613 391.463 118.779 391.88 118.779 391.88C118.8 391.287 118.719 392.421 118.753 391.817C118.823 390.575 118.753 389.309 118.753 388.066C118.743 384.657 118.736 381.249 118.73 377.839C118.73 374.791 113.991 374.785 113.991 377.839C113.991 381.294 114.005 384.749 114.014 388.204C113.901 389.735 113.941 391.274 114.132 392.797C114.339 393.571 114.7 394.295 115.193 394.926C115.687 395.558 116.303 396.083 117.004 396.47C118.613 397.369 120.406 397.888 122.247 397.985C124.087 398.082 125.926 397.756 127.62 397.032C129.106 396.47 130.351 395.411 131.143 394.034C131.695 392.567 131.888 390.99 131.706 389.433C131.697 385.594 131.68 381.755 131.68 377.916C131.68 374.867 126.94 374.862 126.94 377.916L126.946 377.927Z" fill="#211715"/>
<path d="M126.867 333.791C125.804 332.969 124.499 332.523 123.155 332.523C121.812 332.523 120.506 332.969 119.443 333.791C114.306 337.812 110.331 343.129 107.925 349.193C107.173 351.022 106.605 352.922 106.23 354.864C105.926 356.72 105.733 358.593 105.65 360.472C105.441 363.781 105.249 367.211 106.443 370.306C107.509 373.006 109.52 375.226 112.102 376.552C114.659 377.861 120.295 378.555 123.159 378.555C125.319 378.555 131.659 377.861 134.215 376.552C136.797 375.226 138.808 373.006 139.873 370.306C141.068 367.214 140.876 363.79 140.666 360.472C140.585 358.593 140.391 356.72 140.087 354.864C139.712 352.922 139.144 351.022 138.391 349.193C135.986 343.127 132.008 337.81 126.867 333.791Z" fill="#73CA6E"/>
<path d="M128.063 331.744C127.084 331.048 125.968 330.567 124.79 330.332C123.612 330.097 122.397 330.113 121.226 330.38C118.856 330.928 116.967 332.647 115.241 334.267C111.804 337.513 108.989 341.36 106.935 345.619C105.817 347.872 104.93 350.233 104.289 352.666C103.684 355.408 103.335 358.2 103.248 361.006C102.939 366.147 103.276 371.185 106.729 375.284C109.551 378.633 113.536 379.866 117.72 380.464C121.321 380.98 124.979 380.967 128.576 380.426C132.634 379.843 136.432 378.767 139.288 375.625C142.869 371.684 143.386 366.638 143.099 361.525C143.026 358.363 142.62 355.217 141.889 352.139C139.639 344.235 134.972 337.234 128.543 332.115C128.089 331.689 127.49 331.451 126.867 331.451C126.244 331.451 125.645 331.689 125.191 332.115C124.751 332.561 124.504 333.163 124.504 333.79C124.504 334.417 124.751 335.019 125.191 335.466C131.746 340.467 136.247 347.691 137.849 355.779C138.182 358.032 138.37 360.304 138.413 362.581C138.593 364.718 138.4 366.87 137.843 368.941C137.337 370.482 136.439 371.864 135.238 372.954C134.037 374.044 132.573 374.803 130.991 375.158C128.286 375.86 125.5 376.205 122.705 376.184C119.589 376.235 116.49 375.71 113.563 374.638C111.883 373.831 110.462 372.569 109.462 370.996C108.461 369.423 107.921 367.601 107.903 365.737C107.582 361.235 108.055 356.711 109.299 352.372C110.666 348.037 112.881 344.016 115.816 340.544C118.143 337.801 121.813 333.096 125.67 335.841C126.214 336.153 126.858 336.239 127.465 336.08C128.071 335.921 128.591 335.53 128.912 334.992C129.217 334.446 129.299 333.803 129.141 333.197C128.983 332.592 128.597 332.071 128.063 331.744Z" fill="#211715"/>
<path d="M356.046 245.644C354.022 246.002 351.976 246.213 349.922 246.276C347.647 246.235 345.38 245.997 343.146 245.565H343.131C343.131 250.047 343.159 255.961 343.159 259.547C343.159 261.612 346.087 263.338 349.663 263.338C353.239 263.338 356.11 261.608 356.11 259.547C356.11 255.992 356.08 250.122 356.08 245.651L356.046 245.644Z" fill="white"/>
<path d="M353.713 245.644C353.713 248.659 353.72 251.675 353.733 254.69C353.733 256.009 353.737 257.327 353.743 258.645C353.743 258.94 353.725 259.245 353.743 259.54C353.754 259.726 353.635 259.88 353.765 259.433C353.704 259.647 353.672 259.534 353.765 259.487C353.943 259.4 353.786 259.451 353.685 259.605C353.547 259.826 353.761 259.536 353.779 259.514C353.694 259.618 353.591 259.705 353.506 259.808C353.143 260.249 353.677 259.72 353.409 259.913C352.483 260.553 351.391 260.91 350.267 260.943C349.911 260.963 349.556 260.965 349.2 260.949C348.923 260.939 348.646 260.914 348.371 260.873C348.051 260.818 347.735 260.745 347.423 260.654C347.252 260.604 347.085 260.547 346.918 260.49C346.584 260.372 346.845 260.474 346.672 260.386C346.425 260.26 346.191 260.121 345.961 259.977C345.88 259.927 345.634 259.689 345.917 259.95C345.816 259.856 345.722 259.756 345.62 259.663C345.582 259.629 345.399 259.373 345.556 259.599C345.726 259.846 345.509 259.51 345.483 259.445C345.377 259.18 345.544 259.597 345.544 259.597C345.564 259.004 345.482 260.138 345.517 259.534C345.587 258.292 345.517 257.026 345.517 255.783C345.508 252.374 345.5 248.965 345.494 245.558C345.494 242.508 340.755 242.503 340.755 245.558C340.755 249.011 340.762 252.466 340.777 255.922C340.665 257.453 340.704 258.992 340.896 260.515C341.103 261.289 341.465 262.013 341.958 262.644C342.451 263.275 343.067 263.8 343.768 264.188C345.377 265.087 347.17 265.605 349.011 265.702C350.851 265.799 352.689 265.473 354.384 264.749C355.87 264.187 357.115 263.128 357.908 261.751C358.459 260.284 358.652 258.707 358.469 257.15C358.461 253.311 358.444 249.472 358.443 245.634C358.443 242.584 353.704 242.579 353.704 245.634L353.713 245.644Z" fill="#211715"/>
<path d="M353.635 201.507C352.572 200.686 351.266 200.24 349.923 200.24C348.579 200.24 347.274 200.686 346.211 201.507C341.073 205.529 337.097 210.845 334.692 216.91C333.94 218.739 333.372 220.639 332.996 222.581C332.693 224.438 332.5 226.311 332.418 228.19C332.208 231.498 332.016 234.928 333.21 238.024C334.273 240.725 336.284 242.946 338.865 244.273C341.422 245.576 347.058 246.277 349.922 246.277C352.082 246.277 358.422 245.582 360.979 244.273C363.561 242.948 365.572 240.728 366.636 238.028C367.831 234.935 367.639 231.511 367.429 228.194C367.348 226.314 367.154 224.441 366.85 222.584C366.475 220.643 365.908 218.743 365.155 216.914C362.75 210.847 358.774 205.53 353.635 201.507Z" fill="#73CA6E"/>
<path d="M354.83 199.463C353.851 198.767 352.736 198.285 351.557 198.05C350.379 197.815 349.164 197.831 347.993 198.098C345.623 198.645 343.734 200.364 342.008 201.984C338.572 205.23 335.757 209.077 333.702 213.334C332.584 215.587 331.697 217.948 331.057 220.38C330.452 223.122 330.103 225.914 330.015 228.72C329.707 233.861 330.044 238.899 333.496 242.997C336.318 246.348 340.303 247.58 344.487 248.178C348.088 248.695 351.746 248.682 355.343 248.14C359.403 247.557 363.199 246.481 366.056 243.339C369.637 239.398 370.154 234.353 369.866 229.245C369.793 226.082 369.387 222.936 368.656 219.859C366.407 211.955 361.74 204.953 355.31 199.835C354.856 199.409 354.257 199.172 353.634 199.172C353.012 199.172 352.412 199.409 351.958 199.835C351.518 200.281 351.271 200.883 351.271 201.511C351.271 202.138 351.518 202.74 351.958 203.187C358.513 208.188 363.014 215.411 364.616 223.498C364.95 225.751 365.138 228.024 365.18 230.301C365.361 232.438 365.168 234.591 364.61 236.662C364.104 238.203 363.206 239.585 362.005 240.675C360.804 241.765 359.341 242.524 357.758 242.879C355.053 243.58 352.268 243.925 349.474 243.904C346.357 243.956 343.258 243.434 340.33 242.364C338.65 241.556 337.229 240.294 336.229 238.721C335.229 237.148 334.689 235.326 334.67 233.462C334.349 228.958 334.822 224.432 336.067 220.092C337.434 215.757 339.65 211.736 342.584 208.264C344.911 205.521 348.582 200.816 352.438 203.561C352.982 203.873 353.627 203.959 354.234 203.8C354.84 203.641 355.36 203.25 355.681 202.712C355.987 202.165 356.07 201.521 355.911 200.916C355.753 200.31 355.365 199.789 354.83 199.463Z" fill="#211715"/>
<path d="M392.584 362.129C391.393 362.165 390.233 361.741 389.346 360.945C387.465 358.914 388.059 356.192 388.662 354.246C390.826 352.356 392.962 350.435 395.071 348.484C395.722 348.318 396.405 348.334 397.047 348.528C397.689 348.723 398.266 349.089 398.715 349.588C399.134 350.166 399.426 350.827 399.57 351.527C399.715 352.227 399.708 352.949 399.551 353.646C399.227 355.037 398.666 356.362 397.892 357.562C397.117 359.085 395.996 360.405 394.619 361.416C394.222 361.67 393.794 361.87 393.344 362.009C393.097 362.082 392.842 362.122 392.584 362.129Z" fill="white"/>
<path d="M356.975 358.488C356.877 357.849 356.906 357.197 357.061 356.57C357.216 355.942 357.493 355.352 357.878 354.832C358.675 354.122 359.667 353.669 360.726 353.531C361.785 353.393 362.86 353.577 363.813 354.06C363.783 354.23 363.774 354.403 363.787 354.575C363.848 355.02 364.018 355.443 364.282 355.806C365.656 357.552 367.633 358.721 369.825 359.085C370.199 359.192 370.601 359.15 370.945 358.966L370.976 358.944C372.116 360.612 371.492 362.283 370.201 363.535C369.655 364.013 369.013 364.369 368.318 364.578C367.624 364.788 366.892 364.847 366.173 364.751C364.734 364.55 363.341 364.1 362.057 363.421C360.449 362.774 359.015 361.76 357.868 360.459C357.576 360.08 357.336 359.663 357.157 359.219C357.067 358.984 357.005 358.738 356.975 358.488Z" fill="white"/>
<path d="M379.927 341.447L371.43 358.31C371.326 358.566 371.159 358.792 370.946 358.967C370.601 359.151 370.2 359.193 369.825 359.086C367.633 358.722 365.656 357.553 364.282 355.807C364.018 355.444 363.848 355.021 363.787 354.576C363.775 354.21 363.826 353.845 363.937 353.497C366.2 345.033 368.579 339.782 370.21 331.527C376.391 332.73 383.307 332.455 389.449 331.838C390.295 337.583 392.476 343.049 395.818 347.798C392.965 350.455 390.062 353.056 387.107 355.601C384.812 352.793 380.886 346.224 379.969 341.718" fill="white"/>
<path d="M352.709 316.59C352.904 316.014 353.22 315.487 353.637 315.044C354.054 314.602 354.562 314.254 355.125 314.025C356.881 313.418 358.78 313.364 360.568 313.87C361.152 315.565 362.284 318.728 363.203 320.657C362.888 323.073 360.339 324.304 358.108 324.469C357.165 324.578 356.21 324.432 355.343 324.046C354.476 323.66 353.728 323.048 353.177 322.275C352.33 320.908 352.044 319.267 352.378 317.695C352.459 317.318 352.569 316.949 352.709 316.59Z" fill="white"/>
<path d="M381.708 280.065C379.55 279.518 377.28 279.606 375.17 280.318C373.461 280.783 371.907 281.696 370.668 282.961C369.899 283.85 369.291 284.867 368.871 285.965C367.56 288.917 367.377 292.247 368.354 295.325C368.938 296.802 369.879 298.112 371.092 299.136C372.306 300.161 373.755 300.869 375.309 301.197C377.911 301.912 380.678 301.732 383.166 300.684C385.39 299.693 387.153 297.89 388.093 295.644C388.957 293.311 389.222 290.799 388.864 288.337C388.729 286.332 387.832 284.454 386.356 283.089C385.313 281.951 384.051 281.033 382.647 280.391C382.341 280.264 382.027 280.155 381.708 280.065Z" fill="white"/>
<path d="M332.888 335.654C330.73 335.107 328.46 335.195 326.35 335.907C324.641 336.372 323.087 337.285 321.848 338.55C321.079 339.439 320.471 340.456 320.05 341.554C318.74 344.506 318.556 347.835 319.534 350.914C320.118 352.391 321.058 353.7 322.272 354.725C323.486 355.75 324.934 356.458 326.489 356.786C329.091 357.501 331.858 357.321 334.345 356.273C336.57 355.282 338.332 353.479 339.273 351.233C340.137 348.9 340.401 346.387 340.043 343.926C339.909 341.92 339.012 340.043 337.536 338.678C336.492 337.54 335.231 336.622 333.826 335.98C333.52 335.853 333.207 335.744 332.888 335.654Z" fill="white"/>
<path d="M381.707 280.066C379.549 279.519 377.279 279.607 375.169 280.319C373.46 280.784 371.906 281.697 370.667 282.962C370.342 283.321 370.051 283.709 369.797 284.121C371.829 285.09 375.713 286.712 377.187 289.628C378.452 292.129 378.355 297.71 377.674 301.561C379.549 301.771 381.446 301.47 383.164 300.69C385.389 299.699 387.151 297.896 388.092 295.649C388.956 293.316 389.22 290.804 388.862 288.342C388.728 286.337 387.83 284.46 386.355 283.095C385.311 281.957 384.05 281.039 382.645 280.397C382.339 280.268 382.026 280.158 381.707 280.066Z" fill="#85807F"/>
<path d="M389.577 306.613C388.629 303.427 387.827 301.874 384.928 300.464L375.057 301.607C373.524 302.061 372.161 302.96 371.14 304.19C370.296 305.138 368.812 307.413 367.713 308.625C366.044 310.666 363.77 312.124 361.218 312.789C361.097 312.826 360.984 312.888 360.886 312.97C360.789 313.052 360.709 313.152 360.651 313.266C360.594 313.379 360.56 313.504 360.551 313.631C360.542 313.758 360.559 313.885 360.601 314.005C361.458 316.66 362.52 319.245 363.778 321.735C365.823 321.397 367.799 320.726 369.628 319.751C369.599 320.688 369.583 321.235 369.583 321.235C369.528 323.131 369.565 329.5 369.583 331.399C370.98 331.692 372.391 331.913 373.81 332.06C379.15 332.52 384.524 332.431 389.847 331.796C390.771 324.705 391.722 314.117 389.759 307.241C389.701 307.026 389.639 306.816 389.577 306.613Z" fill="#3D8DCC"/>
<path d="M367.886 331.122C366.855 335.772 365.571 340.363 364.04 344.874C363.3 347.182 362.579 349.494 361.934 351.833C361.526 352.907 361.378 354.062 361.501 355.204C361.786 356.402 362.414 357.49 363.308 358.337C364.843 359.815 366.756 360.84 368.836 361.299C369.472 361.511 370.151 361.562 370.811 361.448C371.471 361.333 372.093 361.058 372.621 360.645C373.406 359.74 374.025 358.703 374.447 357.581L381.973 342.645C383.341 339.928 379.255 337.526 377.88 340.254L373.511 348.926L371.447 353.021L370.354 355.189C370.085 355.934 369.721 356.642 369.27 357.294L370.315 356.685C369.765 356.91 368.621 356.288 368.092 356C367.626 355.761 367.192 355.465 366.798 355.119C366.643 354.976 366.505 354.82 366.365 354.664C366.312 354.604 366.047 354.003 366.117 354.355C366.179 354.665 366.268 353.965 366.293 353.868C366.383 353.525 366.479 353.184 366.573 352.843C366.757 352.188 366.945 351.534 367.137 350.88C367.52 349.583 367.923 348.293 368.333 347.005C369.966 342.209 371.342 337.328 372.456 332.385C373.065 329.408 368.498 328.134 367.886 331.125V331.122Z" fill="#211715"/>
<path d="M386.914 330.467C387.367 337.102 390.231 343.47 393.773 348.992L394.144 346.12C391.288 348.777 388.384 351.378 385.433 353.925H388.784C387.392 352.087 386.151 350.139 385.075 348.1C383.81 345.908 382.863 343.547 382.261 341.088C381.617 338.108 377.047 339.369 377.691 342.348C378.85 347.714 382.019 353.037 385.438 357.277C385.888 357.712 386.489 357.955 387.114 357.955C387.74 357.955 388.341 357.712 388.79 357.277C391.742 354.729 394.645 352.128 397.5 349.472C397.867 349.1 398.102 348.617 398.169 348.099C398.236 347.58 398.131 347.054 397.871 346.6C395.868 343.631 394.258 340.415 393.082 337.033C392.382 334.899 391.905 332.699 391.66 330.467C391.646 329.843 391.392 329.249 390.95 328.807C390.509 328.366 389.914 328.112 389.29 328.098C388.664 328.103 388.064 328.354 387.621 328.798C387.177 329.241 386.926 329.84 386.921 330.467H386.914Z" fill="#211715"/>
<path d="M395.396 323.564C394.523 323.824 392.396 325.045 391.486 324.82C390.249 324.513 390.171 322.262 390.071 321.277C389.805 318.635 389.71 315.979 389.788 313.326C389.819 312.278 389.659 311.455 390.729 311.074C391.865 310.877 393.03 310.921 394.148 311.202C394.219 311.198 394.29 311.208 394.357 311.233C394.423 311.258 394.483 311.297 394.534 311.346C394.584 311.396 394.623 311.457 394.648 311.523C394.674 311.589 394.685 311.66 394.68 311.731C395.203 315.452 395.576 319.191 395.801 322.948C395.823 323.015 395.829 323.087 395.82 323.157C395.81 323.227 395.785 323.294 395.746 323.354C395.707 323.413 395.655 323.463 395.595 323.499C395.534 323.536 395.466 323.558 395.395 323.565L395.396 323.564Z" fill="#211715"/>
<path d="M394.766 321.278C394.319 321.422 393.887 321.622 393.463 321.808C393.281 321.886 393.107 321.964 392.922 322.045C392.357 322.298 393.201 321.949 392.743 322.123C392.371 322.265 391.999 322.381 391.619 322.496C391.186 322.628 392.14 322.496 391.71 322.477C391.97 322.473 392.226 322.545 392.446 322.684L392.337 322.62C392.509 322.729 393.048 323.381 392.684 322.872C392.44 322.526 392.803 323.33 392.703 322.894C392.665 322.718 392.608 322.546 392.572 322.37C392.522 322.124 392.596 321.695 392.548 322.314C392.53 321.48 392.451 320.648 392.311 319.826C392.132 317.511 392.125 315.205 392.163 312.881C392.189 312.693 392.195 312.502 392.181 312.311C392.121 312.667 392.112 312.762 392.155 312.583C392.197 312.404 392.164 312.488 392.036 312.83C391.928 313.013 391.776 313.166 391.593 313.274C391.301 313.375 391.276 313.388 391.517 313.31C391.983 313.205 391.061 313.265 391.618 313.3C391.818 313.313 392.021 313.3 392.222 313.313C392.332 313.32 393.202 313.441 392.611 313.345L393.177 313.435C393.29 313.454 393.403 313.471 393.515 313.488C393.768 313.543 393.714 313.518 393.352 313.413L392.503 312.563C392.25 312.089 392.448 312.764 392.465 312.893C392.426 312.603 392.495 313.114 392.505 313.195C392.568 313.683 392.628 314.172 392.686 314.66C392.798 315.593 392.9 316.528 392.992 317.463C393.085 318.398 393.168 319.334 393.242 320.271C393.278 320.717 393.311 321.163 393.342 321.61C393.361 321.878 393.378 322.146 393.395 322.413L393.413 322.681C393.413 323.206 393.497 323.046 393.666 322.201L394.516 321.351L394.762 321.281C394.156 321.448 393.641 321.849 393.331 322.395C393.02 322.942 392.94 323.59 393.107 324.196C393.274 324.802 393.675 325.317 394.221 325.628C394.768 325.938 395.416 326.019 396.022 325.852C396.639 325.68 397.183 325.311 397.57 324.801C397.958 324.291 398.169 323.669 398.17 323.028C398.17 322.159 398.06 321.271 397.992 320.405C397.861 318.71 397.698 317.017 397.504 315.327C397.408 314.482 397.303 313.639 397.191 312.796C397.018 311.482 396.995 310.114 395.745 309.321C395.168 309.004 394.528 308.817 393.871 308.775C393.065 308.619 392.245 308.551 391.425 308.571C390.537 308.55 389.669 308.833 388.963 309.371C388.257 309.909 387.756 310.672 387.541 311.533C387.335 313.096 387.287 314.675 387.399 316.247C387.429 317.948 387.543 319.641 387.704 321.333C387.743 322.489 387.959 323.631 388.345 324.722C388.658 325.586 389.277 326.306 390.085 326.744C390.893 327.182 391.834 327.308 392.729 327.098C393.479 326.917 394.207 326.655 394.9 326.317C395.168 326.199 395.435 326.086 395.701 325.962C396.196 325.738 395.316 326.095 395.626 325.992C395.76 325.948 395.889 325.89 396.024 325.847C396.63 325.68 397.145 325.279 397.456 324.732C397.766 324.186 397.847 323.538 397.68 322.932C397.513 322.326 397.112 321.811 396.565 321.5C396.019 321.19 395.371 321.109 394.765 321.276L394.766 321.278Z" fill="#211715"/>
<path d="M382.988 302.171C383.893 302.458 384.719 302.952 385.398 303.616C386.077 304.279 386.591 305.093 386.898 305.991C387.755 308.506 388.268 311.126 388.425 313.779C388.693 319.801 388.375 325.836 387.477 331.797L389.846 329.427C383.346 330.087 376.654 330.436 370.212 329.114L371.956 331.401C371.924 328.015 371.869 324.622 371.956 321.237C372.035 318.186 367.295 318.189 367.217 321.237C367.129 324.622 367.185 328.015 367.217 331.401C367.222 331.918 367.394 332.42 367.708 332.832C368.021 333.243 368.459 333.543 368.956 333.685C375.856 334.905 382.901 335.068 389.85 334.168C390.471 334.143 391.059 333.885 391.498 333.446C391.937 333.007 392.195 332.419 392.22 331.798C393.258 325.245 393.522 318.593 393.008 311.978C392.747 308.963 392.026 306.006 390.868 303.21C389.769 300.856 387.803 299.017 385.381 298.078C384.834 297.78 384.193 297.702 383.591 297.86C382.988 298.018 382.468 298.4 382.138 298.928C381.825 299.472 381.739 300.117 381.898 300.723C382.057 301.33 382.449 301.85 382.988 302.17V302.171Z" fill="#211715"/>
<path d="M382.335 277.78C377.096 276.389 370.409 278.339 367.59 283.185C364.952 287.719 364.264 294.26 367.471 298.689C370.632 303.053 376.296 304.657 381.474 303.719C383.923 303.219 386.164 301.99 387.901 300.193C389.783 298.152 390.945 295.552 391.211 292.789C391.597 289.783 391.413 286.208 389.76 283.575C388.032 280.84 385.407 278.791 382.334 277.78C379.413 276.877 378.164 281.453 381.074 282.35C382.808 282.964 384.316 284.089 385.4 285.575C386.397 287.176 386.829 289.065 386.626 290.94C386.54 294.388 385.008 297.519 381.636 298.777C380.044 299.327 378.337 299.45 376.683 299.133C375.029 298.817 373.488 298.072 372.212 296.973C369.494 294.35 369.707 290.176 371.027 286.888C371.35 286.001 371.856 285.191 372.511 284.51C373.166 283.83 373.956 283.294 374.83 282.937C376.79 282.064 378.982 281.856 381.071 282.344C384.026 283.135 385.285 278.563 382.335 277.78Z" fill="#211715"/>
<path d="M368.997 286.355C370.335 286.945 371.627 287.636 372.86 288.423C373.02 288.531 373.177 288.642 373.334 288.753C373.465 288.851 373.458 288.845 373.313 288.733L373.492 288.879C373.813 289.15 374.119 289.439 374.407 289.745C374.535 289.884 374.664 290.024 374.778 290.174C374.581 289.912 374.79 290.22 374.863 290.336C374.962 290.495 375.04 290.667 375.139 290.825C375.412 291.253 375.021 290.381 375.175 290.905C375.381 291.57 375.539 292.249 375.649 292.936C375.579 292.462 375.677 293.224 375.678 293.244C375.699 293.449 375.715 293.654 375.729 293.859C375.759 294.283 375.777 294.707 375.785 295.133C375.804 296.054 375.785 296.979 375.725 297.899C375.697 298.334 375.662 298.769 375.619 299.203C375.594 299.457 375.565 299.71 375.535 299.963C375.527 300.08 375.51 300.196 375.485 300.31C375.339 300.916 375.429 301.555 375.737 302.097C376.045 302.639 376.548 303.043 377.144 303.226C377.75 303.389 378.396 303.306 378.942 302.995C379.488 302.685 379.889 302.172 380.059 301.567C380.398 299.439 380.557 297.286 380.533 295.13C380.568 293.21 380.281 291.297 379.684 289.471C378.295 285.798 374.765 283.84 371.39 282.26C370.844 281.96 370.203 281.881 369.6 282.04C368.997 282.198 368.478 282.581 368.149 283.111C367.837 283.655 367.751 284.3 367.91 284.906C368.069 285.512 368.46 286.032 368.998 286.353L368.997 286.355Z" fill="#211715"/>
<path d="M374.431 299.324C371.606 299.798 369.504 302.356 367.914 304.523C366.565 306.685 364.718 308.494 362.527 309.796C362.438 309.84 361.737 310.14 362.188 309.961C361.926 310.065 361.661 310.159 361.394 310.249C360.639 310.421 359.93 310.753 359.314 311.223C357.916 312.507 358.129 314.116 358.707 315.725C359.469 318.226 360.485 320.642 361.739 322.935C362.013 323.376 362.419 323.719 362.9 323.915C363.38 324.111 363.91 324.149 364.414 324.025C368.665 323.144 372.606 321.149 375.832 318.243C376.272 317.796 376.518 317.194 376.518 316.567C376.518 315.94 376.272 315.338 375.832 314.891C375.381 314.459 374.781 314.218 374.156 314.218C373.532 314.218 372.932 314.459 372.481 314.891C369.841 317.225 366.618 318.802 363.155 319.454L365.831 320.544C364.844 318.77 364.047 316.897 363.454 314.955C363.328 314.447 363.152 313.952 362.929 313.479C362.719 312.804 362.429 313.318 362.057 315.019L362.456 314.892C362.655 314.827 362.854 314.76 363.048 314.689C364.069 314.338 365.046 313.87 365.959 313.294C368.166 311.724 370.069 309.764 371.573 307.512C372.569 306.153 373.917 304.194 375.693 303.901C376.297 303.73 376.81 303.329 377.12 302.784C377.431 302.238 377.514 301.592 377.352 300.986C377.173 300.387 376.771 299.88 376.227 299.571C375.684 299.262 375.043 299.175 374.437 299.327L374.431 299.324Z" fill="#211715"/>
<path d="M360.735 320.8C360.755 320.749 360.999 320.3 360.8 320.629C360.763 320.691 360.732 320.755 360.697 320.817C360.649 320.897 360.585 320.972 360.544 321.054C360.44 321.261 360.672 320.858 360.699 320.856C360.641 320.856 360.36 321.211 360.306 321.265C360.251 321.318 360.196 321.357 360.142 321.406C359.942 321.593 360.63 321.084 360.218 321.337C360.072 321.427 359.931 321.519 359.782 321.602C359.681 321.657 359.365 321.743 359.32 321.831C359.339 321.793 359.869 321.627 359.474 321.759C359.404 321.782 359.334 321.808 359.264 321.831C359.076 321.893 358.886 321.948 358.694 321.994C358.527 322.036 358.359 322.067 358.191 322.1C357.789 322.179 358.347 322.068 358.39 322.077C358.294 322.077 358.199 322.086 358.106 322.103C357.909 322.119 357.712 322.125 357.513 322.124C357.431 322.124 357.35 322.124 357.268 322.124C357.186 322.124 356.712 322.057 357.109 322.124C357.486 322.185 356.929 322.083 356.82 322.057C356.65 322.016 356.483 321.966 356.319 321.909C355.781 321.718 356.626 322.095 356.28 321.889C356.113 321.789 355.943 321.695 355.776 321.594C355.428 321.384 355.895 321.656 355.9 321.705C355.831 321.635 355.754 321.571 355.673 321.515C355.541 321.396 355.417 321.278 355.296 321.145C355.244 321.089 355.194 321.026 355.142 320.974C354.951 320.769 355.179 320.856 355.218 321.093C355.197 320.964 355.011 320.775 354.948 320.656C354.914 320.567 354.872 320.482 354.823 320.401C354.841 320.41 354.987 320.859 354.922 320.618C354.872 320.437 354.803 320.262 354.754 320.082C354.704 319.902 354.672 319.695 354.627 319.501C354.551 319.174 354.653 319.948 354.641 319.608C354.641 319.459 354.617 319.31 354.613 319.16C354.607 318.948 354.611 318.736 354.627 318.524C354.625 318.432 354.633 318.34 354.652 318.25C354.652 318.25 354.558 318.714 354.652 318.339C354.706 318.137 354.75 317.933 354.812 317.731C354.837 317.65 354.866 317.569 354.891 317.487C355.049 316.973 354.732 317.788 354.864 317.525C355.021 317.212 355.2 316.933 355.38 316.628C355.532 316.377 355.039 316.961 355.262 316.787C355.31 316.741 355.355 316.692 355.396 316.64C355.472 316.562 355.963 316.138 355.627 316.403C355.29 316.668 355.736 316.362 355.839 316.294C355.318 316.455 356.246 316.03 355.839 316.294C356.337 316.113 356.853 315.988 357.379 315.923C357.3 315.923 356.86 315.969 357.306 315.945C357.424 315.937 357.552 315.926 357.675 315.92C357.912 315.909 358.161 315.907 358.404 315.92C358.523 315.92 358.641 315.929 358.76 315.936C358.842 315.936 359.339 316.017 358.962 315.946C358.632 315.883 358.917 315.939 358.981 315.946C359.141 315.975 359.3 316.006 359.455 316.041C359.755 316.123 360.069 316.146 360.377 316.108C360.686 316.069 360.985 315.97 361.255 315.817C361.526 315.663 361.764 315.457 361.955 315.212C362.146 314.966 362.287 314.685 362.37 314.385C362.452 314.085 362.475 313.772 362.437 313.463C362.398 313.154 362.299 312.856 362.146 312.585C361.992 312.314 361.787 312.077 361.541 311.886C361.295 311.694 361.015 311.553 360.715 311.471C359.505 311.191 358.259 311.111 357.024 311.234C355.717 311.313 354.443 311.677 353.291 312.3C352.307 313.009 351.491 313.927 350.901 314.987C350.312 316.048 349.963 317.225 349.881 318.435C349.798 319.646 349.983 320.86 350.423 321.991C350.863 323.121 351.546 324.141 352.425 324.978C353.866 326.095 355.616 326.74 357.437 326.825C359.258 326.91 361.06 326.43 362.598 325.452C363.831 324.643 364.775 323.463 365.293 322.082C365.457 321.476 365.375 320.829 365.065 320.282C364.754 319.736 364.239 319.335 363.634 319.167C363.028 319.018 362.388 319.107 361.846 319.416C361.304 319.724 360.9 320.229 360.719 320.826L360.735 320.8Z" fill="#211715"/>
<path d="M369.188 360.572C369.108 360.368 369.111 360.397 369.197 360.655C369.257 360.939 369.259 360.942 369.204 360.666C369.191 360.948 369.204 360.947 369.238 360.666C369.212 360.803 369.178 360.939 369.134 361.072C369.258 360.627 368.972 361.349 368.897 361.471C369.119 361.125 368.6 361.788 368.531 361.865C368.324 362.046 368.316 362.058 368.51 361.903C368.391 361.982 368.269 362.056 368.143 362.127C367.895 362.245 367.889 362.258 368.122 362.157C367.987 362.208 367.851 362.253 367.711 362.293C367.502 362.353 367.289 362.4 367.074 362.431C367.601 362.359 366.718 362.417 366.615 362.413C365.53 362.283 364.474 361.971 363.493 361.489C362.443 361.041 361.446 360.478 360.519 359.813C360.865 360.079 360.209 359.519 360.148 359.457C360.088 359.396 359.556 358.761 359.782 359.082C359.617 358.853 359.502 358.608 359.36 358.362C359.275 358.185 359.288 358.218 359.399 358.462C359.367 358.365 359.34 358.266 359.318 358.166C359.271 357.909 359.274 357.954 359.328 358.3C359.318 358.181 359.31 358.063 359.308 357.944C359.307 357.696 359.318 357.447 359.341 357.2C359.29 357.827 359.389 357.043 359.425 356.906C359.482 356.697 359.814 356.162 359.493 356.65C359.858 356.096 359.289 356.749 359.558 356.511C360.051 356.076 359.185 356.7 359.727 356.359C359.823 356.3 360.571 355.93 360.051 356.137C360.296 356.039 360.551 355.989 360.801 355.91C361.075 355.86 361.055 355.856 360.743 355.899C360.87 355.885 360.996 355.874 361.124 355.87C361.377 355.858 361.623 355.879 361.874 355.885C361.25 355.868 361.969 355.907 362.133 355.949C362.27 355.983 362.994 356.251 362.37 355.984C362.916 356.284 363.557 356.363 364.16 356.205C364.763 356.046 365.282 355.663 365.611 355.134C365.922 354.59 366.007 353.946 365.848 353.339C365.689 352.733 365.299 352.214 364.762 351.892C363.559 351.322 362.231 351.068 360.903 351.154C359.575 351.24 358.291 351.663 357.172 352.384C356.03 353.154 355.209 354.314 354.86 355.647C354.509 356.904 354.479 358.23 354.771 359.502C355.463 362.258 358.059 364.096 360.467 365.275C363.137 366.578 366.197 367.775 369.184 366.799C370.829 366.269 372.225 365.159 373.113 363.676C373.605 362.851 373.879 361.914 373.91 360.953C373.941 359.992 373.727 359.039 373.289 358.184C372.97 357.643 372.45 357.25 371.843 357.091C371.235 356.931 370.59 357.019 370.046 357.334C369.517 357.663 369.134 358.183 368.976 358.786C368.818 359.389 368.897 360.029 369.197 360.576L369.188 360.572Z" fill="#211715"/>
<path d="M395.284 350.854C395.328 350.843 395.812 350.748 395.812 350.748C395.812 350.786 395.348 350.772 395.635 350.784C395.753 350.784 395.879 350.772 396 350.772C396.121 350.772 396.616 350.861 396.322 350.781C396.009 350.696 396.316 350.79 396.366 350.806C396.485 350.842 396.603 350.881 396.714 350.912C396.342 350.816 396.588 350.882 396.806 350.997C396.744 350.964 396.418 350.681 396.77 350.979C396.791 350.996 397.031 351.23 396.852 351.04C396.71 350.888 397.011 351.329 397.073 351.411C397.219 351.603 397.073 351.392 397.053 351.325C397.103 351.458 397.147 351.593 397.185 351.729C397.229 351.888 397.296 352.353 397.256 351.938C397.281 352.188 397.289 352.44 397.282 352.691C397.282 352.798 397.211 353.351 397.255 353.125C397.309 352.842 397.224 353.228 397.217 353.254C397.178 353.407 397.144 353.561 397.098 353.713C397.033 353.941 396.956 354.164 396.876 354.387C396.716 354.832 396.801 354.575 396.844 354.478C396.795 354.587 396.744 354.694 396.693 354.802C396.469 355.267 396.219 355.72 395.962 356.167C395.718 356.59 395.466 357.008 395.199 357.417C395.08 357.604 394.951 357.79 394.821 357.971C394.757 358.061 394.693 358.154 394.624 358.241C394.776 358.046 394.684 358.163 394.578 358.281C394.406 358.475 394.236 358.667 394.052 358.848C393.974 358.925 393.892 358.998 393.815 359.075C393.803 359.086 393.532 359.33 393.717 359.172C393.902 359.015 393.623 359.241 393.605 359.253C393.512 359.316 393.418 359.379 393.322 359.437C393.226 359.495 393.12 359.555 393.016 359.61C392.913 359.664 392.701 359.728 392.936 359.654C392.817 359.695 392.686 359.725 392.564 359.772C392.392 359.832 392.373 359.72 392.564 359.78C392.774 359.849 392.7 359.78 392.547 359.765C392.462 359.765 392.372 359.765 392.287 359.765C392.197 359.774 392.107 359.768 392.02 359.747C392.02 359.747 392.479 359.845 392.199 359.765C391.97 359.699 391.725 359.625 391.488 359.575C391.251 359.526 391.599 359.633 391.631 359.649C391.552 359.611 391.47 359.575 391.394 359.53C391.319 359.485 390.835 359.261 391.136 359.402C391.373 359.511 391.206 359.475 391.136 359.388C391.08 359.321 391.021 359.258 390.957 359.199C390.765 359.035 390.957 359.199 390.994 359.259C390.898 359.117 390.807 358.975 390.724 358.824C390.675 358.736 390.634 358.646 390.588 358.558C390.684 358.742 390.679 358.816 390.614 358.578C390.554 358.361 390.507 358.143 390.454 357.926C390.388 357.661 390.474 358.058 390.474 358.085C390.474 357.959 390.455 357.832 390.451 357.707C390.444 357.456 390.451 357.203 390.469 356.952C390.476 356.858 390.489 356.765 390.496 356.671C390.52 356.328 390.413 357.08 390.488 356.747C390.535 356.539 390.566 356.326 390.607 356.118C390.708 355.668 390.835 355.225 390.969 354.783C391.13 354.176 391.046 353.531 390.736 352.986C390.425 352.441 389.914 352.04 389.31 351.868C388.704 351.714 388.062 351.801 387.519 352.11C386.976 352.42 386.573 352.927 386.396 353.527C385.479 355.923 385.511 358.579 386.486 360.952C387.136 362.201 388.169 363.209 389.432 363.829C390.696 364.45 392.125 364.651 393.511 364.402C396.397 363.928 398.423 361.316 399.823 358.965C401.329 356.435 402.537 353.565 401.781 350.581C401.588 349.758 401.222 348.985 400.707 348.315C400.192 347.644 399.54 347.092 398.794 346.694C397.299 346.011 395.613 345.869 394.025 346.293C393.421 346.464 392.909 346.865 392.598 347.411C392.288 347.956 392.204 348.602 392.366 349.208C392.544 349.807 392.947 350.314 393.49 350.623C394.033 350.933 394.675 351.02 395.281 350.867L395.284 350.854Z" fill="#211715"/>
<path d="M309.377 414.245C308.989 413.627 308.752 412.926 308.684 412.198C308.616 411.471 308.72 410.739 308.988 410.059C309.575 409.098 310.515 408.405 311.608 408.13C312.7 407.855 313.857 408.02 314.829 408.589C317.105 409.919 319.639 410.748 322.261 411.018C323.707 411.79 323.122 413.743 322.314 415.065C321.928 415.631 321.427 416.108 320.843 416.465C320.259 416.822 319.605 417.05 318.926 417.134C317.567 417.293 316.191 417.216 314.858 416.906C313.234 416.701 311.68 416.118 310.322 415.204C309.965 414.929 309.647 414.606 309.377 414.245Z" fill="white"/>
<path d="M341.383 416.812C340.71 416.957 340.011 416.94 339.346 416.763C338.68 416.587 338.066 416.254 337.553 415.794C336.811 415.009 336.358 413.995 336.268 412.919C336.179 411.842 336.458 410.767 337.059 409.87C338.586 407.676 340.349 405.656 342.317 403.847C343.531 402.748 345.555 403.706 346.529 404.914C346.931 405.467 347.211 406.101 347.349 406.771C347.487 407.441 347.481 408.133 347.331 408.801C347.021 410.134 346.483 411.403 345.741 412.552C344.999 414.012 343.924 415.277 342.604 416.246C342.225 416.489 341.814 416.679 341.383 416.812Z" fill="white"/>
<path d="M443.525 360.232C442.43 359.786 441.214 359.741 440.089 360.105C438.866 360.456 437.79 361.193 437.02 362.206C436.234 363.13 435.847 364.328 435.944 365.537C435.95 366.523 436.34 367.467 437.03 368.17C437.431 368.518 437.899 368.783 438.404 368.947C438.91 369.111 439.443 369.171 439.973 369.125L441.055 369.007C442.629 368.328 444.261 367.625 444.993 367.3C445.237 367.207 445.465 367.075 445.67 366.912C445.921 366.65 446.115 366.34 446.24 365.999L446.651 365.087V364.969C446.656 364.102 446.44 363.248 446.024 362.488C445.607 361.728 445.004 361.087 444.27 360.625C444.034 360.472 443.784 360.341 443.525 360.232Z" fill="white"/>
<path d="M464.533 355.177C467.448 352.734 468.477 348.37 468.815 345.991C469.083 343.571 468.461 341.137 467.066 339.142C465.671 337.148 463.597 335.729 461.233 335.151C459.411 334.664 457.497 334.639 455.663 335.078C453.83 335.517 452.134 336.406 450.73 337.664C449.537 338.746 448.579 340.063 447.916 341.531C447.253 343 446.9 344.589 446.878 346.201C446.831 348.016 447.32 349.805 448.283 351.344C448.769 352.107 449.407 352.761 450.157 353.266C450.907 353.77 451.754 354.114 452.644 354.276" fill="white"/>
<path d="M319.537 361.918C318.589 363.449 317.742 365.041 317.001 366.683C316.877 367.023 316.683 367.334 316.432 367.595C316.227 367.759 315.999 367.89 315.755 367.984C314.378 368.594 309.82 370.542 308.443 371.152C309.328 375.603 313.225 379.462 317.247 379.986C318.046 380.119 318.864 380.065 319.639 379.828C320.365 379.531 321.037 379.116 321.628 378.6C322.839 377.687 324.003 376.713 325.116 375.683C328.197 375.786 329.922 376.175 333.227 376.522C333.512 379.963 333.336 383.427 332.702 386.822C335.151 386.565 337.599 386.31 340.048 386.058C340.972 378.967 341.713 370.119 339.749 363.243C338.638 359.351 336.735 355.227 333.013 353.637L323.377 358.05C322.109 358.647 321.035 359.589 320.276 360.767C320.024 361.146 319.778 361.53 319.537 361.918Z" fill="#3D8DCC"/>
<path d="M318.117 398.454C316.976 398.089 315.848 397.669 314.734 397.193C316.371 393.809 318.007 390.424 319.642 387.04C323.552 387.608 327.488 387.974 331.436 388.138C331.605 388.142 331.774 388.111 331.93 388.045C332.086 387.979 332.227 387.881 332.342 387.757C332.457 387.633 332.545 387.485 332.599 387.325C332.653 387.164 332.672 386.994 332.655 386.825L339.543 386.114C340.04 389.123 341.658 395.443 342.107 397.432C342.177 397.74 339.703 398.67 339.429 398.751C332.454 400.775 325.033 400.672 318.117 398.454Z" fill="#A0A0A0"/>
<path d="M331.82 355.683C336.323 357.747 337.812 363.719 338.337 368.216C338.843 374.167 338.623 380.158 337.684 386.057L340.054 383.688L333.688 384.346C333.065 384.364 332.472 384.619 332.031 385.06C331.591 385.5 331.335 386.093 331.318 386.716C331.322 387.343 331.573 387.943 332.017 388.387C332.46 388.83 333.061 389.081 333.688 389.086L340.054 388.427C340.674 388.402 341.263 388.145 341.702 387.706C342.141 387.266 342.399 386.678 342.424 386.057C343.277 379.449 343.822 372.738 342.796 366.119C341.947 360.647 339.619 354.065 334.216 351.59C333.669 351.291 333.029 351.212 332.426 351.37C331.823 351.528 331.303 351.911 330.973 352.44C330.661 352.984 330.575 353.629 330.734 354.235C330.894 354.842 331.285 355.362 331.824 355.683H331.82Z" fill="#211715"/>
<path d="M333.32 377.525C333.304 377.247 333.191 376.984 333 376.781C332.81 376.578 332.554 376.449 332.277 376.416C329.575 376.101 327.904 375.777 325.147 375.683L325.103 375.69C324.013 376.73 322.822 377.671 321.632 378.6C321.041 379.116 320.368 379.53 319.642 379.827C318.868 380.064 318.049 380.118 317.25 379.986C315.46 379.705 313.787 378.921 312.425 377.725L311.621 377.854C311.437 378.904 310.972 381.661 310.494 384.253C310.439 384.553 310.502 384.864 310.671 385.119C310.839 385.375 311.1 385.555 311.398 385.622C318.002 386.977 324.701 387.818 331.435 388.138C331.716 388.146 331.992 388.055 332.211 387.879C332.431 387.704 332.582 387.455 332.635 387.179C333.249 384 333.479 380.759 333.32 377.525Z" fill="#211715"/>
<path d="M325.146 378.053C327.134 378.131 329.094 378.386 331.07 378.637C331.334 378.671 331.598 378.705 331.863 378.737C331.651 378.682 331.458 378.573 331.302 378.42C331.146 378.268 331.033 378.076 330.974 377.866C330.84 378.033 331.011 379.063 331.012 379.299C331.012 380.323 330.975 381.349 330.902 382.371C330.834 383.304 330.746 384.238 330.601 385.162C330.548 385.5 330.442 385.873 330.42 386.213C330.199 386.939 330.538 386.79 331.439 385.767C331.262 385.767 331.083 385.757 330.907 385.751C329.262 385.693 327.621 385.565 325.982 385.411C322.543 385.086 319.118 384.632 315.708 384.047C314.917 383.911 314.128 383.768 313.338 383.61C312.988 383.513 312.632 383.439 312.271 383.391C311.596 383.185 311.788 383.545 312.847 384.472C312.898 384.198 312.947 383.923 312.997 383.649C313.306 381.93 313.6 380.213 313.898 378.486C314.047 377.88 313.959 377.24 313.65 376.697C313.341 376.155 312.837 375.751 312.239 375.57C311.633 375.409 310.988 375.492 310.443 375.803C309.897 376.113 309.496 376.625 309.325 377.229C309.026 378.95 308.732 380.673 308.423 382.393C308.022 383.584 308.043 384.877 308.482 386.054C308.738 386.538 309.097 386.959 309.533 387.289C309.969 387.619 310.472 387.85 311.007 387.964C314.46 388.737 317.956 389.302 321.477 389.655C323.301 389.887 325.13 390.084 326.964 390.248C328.534 390.456 330.119 390.535 331.703 390.485C334.378 390.269 334.951 387.909 335.257 385.694C335.567 383.578 335.726 381.442 335.731 379.303C335.854 378.111 335.667 376.907 335.19 375.807C334.85 375.278 334.386 374.841 333.84 374.531C333.293 374.222 332.679 374.049 332.051 374.03C329.747 373.74 327.454 373.412 325.131 373.319C322.081 373.2 322.087 377.939 325.131 378.058L325.146 378.053Z" fill="#211715"/>
<path d="M322.513 358.538C323.228 358.688 323.902 358.99 324.491 359.423C325.079 359.856 325.568 360.41 325.924 361.048C326.905 362.374 327.487 363.953 327.602 365.599C327.901 369.118 327.925 372.654 327.675 376.177C327.675 376.805 327.925 377.408 328.369 377.853C328.814 378.297 329.417 378.547 330.045 378.547C330.673 378.547 331.276 378.297 331.721 377.853C332.165 377.408 332.415 376.805 332.415 376.177C332.753 372.146 332.667 368.091 332.159 364.077C331.808 361.834 330.888 359.718 329.486 357.932C328.089 356.097 326.155 354.292 323.774 353.968C323.168 353.823 322.53 353.913 321.988 354.221C321.447 354.529 321.043 355.032 320.859 355.627C320.696 356.233 320.779 356.88 321.09 357.425C321.4 357.971 321.913 358.372 322.518 358.542L322.513 358.538Z" fill="#211715"/>
<path d="M316.804 387.48L312.688 395.995C312.515 396.311 312.415 396.662 312.394 397.021C312.374 397.381 312.434 397.741 312.571 398.074C312.707 398.408 312.916 398.706 313.182 398.949C313.448 399.192 313.765 399.372 314.11 399.476C322.116 402.85 331.873 403.777 340.213 400.983C341.48 400.659 342.665 400.071 343.69 399.258C344.953 398.039 344.304 396.39 343.952 394.934C343.2 391.82 342.389 388.704 341.843 385.545C341.672 384.941 341.271 384.429 340.726 384.118C340.18 383.808 339.535 383.725 338.928 383.886C338.329 384.064 337.822 384.467 337.513 385.01C337.204 385.553 337.117 386.195 337.27 386.801C337.925 390.592 338.966 394.308 339.823 398.057V396.797L339.804 396.866L340.413 395.821C340.887 395.32 340.342 395.821 340.078 395.955C339.856 396.063 339.629 396.159 339.398 396.243C338.588 396.537 337.758 396.774 336.915 396.954C334.608 397.492 332.249 397.782 329.88 397.818C324.891 397.869 319.947 396.876 315.366 394.903L316.781 398.384L320.898 389.868C322.219 387.135 318.133 384.729 316.805 387.476L316.804 387.48Z" fill="#211715"/>
<path d="M311.425 413.05C311.33 412.915 311.266 412.747 311.168 412.617C311.093 412.459 311.122 412.526 311.253 412.816C311.215 412.711 311.181 412.604 311.15 412.495C311.101 412.327 311.068 412.155 311.031 411.985C310.913 411.429 311.031 412.474 311.031 411.907C311.031 411.734 311.031 411.551 311.031 411.383C311.054 411.111 311.042 411.157 310.998 411.517C311.01 411.439 311.026 411.363 311.046 411.287C311.263 410.745 310.77 411.579 311.046 411.256C311.14 411.145 311.492 410.763 311.095 411.161C311.214 411.043 311.341 410.916 311.459 410.793C311.803 410.437 311.119 410.967 311.518 410.752C311.694 410.669 311.864 410.575 312.028 410.47C312.186 410.392 312.124 410.418 311.842 410.549C311.944 410.511 312.048 410.478 312.152 410.447C312.308 410.399 312.466 410.363 312.626 410.337C312.626 410.356 312.06 410.375 312.626 410.353C312.782 410.353 312.934 410.353 313.09 410.36C313.546 410.36 312.58 410.192 313.126 410.38C313.218 410.411 313.677 410.606 313.322 410.42C312.943 410.222 313.472 410.517 313.536 410.558C313.789 410.722 314.029 410.898 314.292 411.046C315.122 411.496 315.988 411.875 316.881 412.179C318.626 412.793 320.437 413.199 322.277 413.389L321.081 413.065C321.437 413.276 320.983 412.928 320.91 412.857C320.796 412.69 320.792 412.69 320.898 412.857L320.779 412.558C320.911 412.994 320.818 412.191 320.789 412.44C320.798 412.571 320.795 412.702 320.782 412.833C320.767 412.833 320.926 412.248 320.766 412.775C320.726 412.911 320.681 413.05 320.648 413.187C320.529 413.607 320.793 412.95 320.655 413.187C320.581 413.312 320.528 413.449 320.459 413.575C320.379 413.696 320.305 413.822 320.238 413.95C320.137 414.187 320.555 413.653 320.191 414.002C320.148 414.045 319.767 414.423 320.003 414.206C320.239 413.989 319.793 414.343 319.766 414.358C319.626 414.443 319.476 414.508 319.336 414.595C319.061 414.758 319.823 414.455 319.267 414.617C318.957 414.719 318.641 414.798 318.319 414.854C318.575 414.818 318.283 414.854 318.188 414.854C317.932 414.863 317.68 414.87 317.424 414.863C317.253 414.863 317.082 414.847 316.913 414.835C316.923 414.835 316.159 414.753 316.523 414.802C315.778 414.698 315.038 414.555 314.308 414.376C313.945 414.289 313.586 414.19 313.233 414.074C313.056 414.016 312.881 413.953 312.709 413.885C313.1 414.038 312.645 413.846 312.571 413.808C312.405 413.725 312.245 413.636 312.088 413.54C312.043 413.513 311.578 413.185 311.783 413.347C311.988 413.51 311.555 413.129 311.517 413.091C311.36 412.929 311.213 412.758 311.075 412.578C310.855 412.358 310.594 412.184 310.306 412.064C310.019 411.945 309.711 411.884 309.399 411.884C309.088 411.884 308.78 411.945 308.492 412.064C308.205 412.184 307.943 412.358 307.723 412.578C307.296 413.031 307.058 413.631 307.058 414.254C307.058 414.877 307.296 415.476 307.723 415.929C309.004 417.392 310.717 418.41 312.614 418.835C314.46 419.397 316.386 419.65 318.315 419.584C320.274 419.523 322.139 418.731 323.542 417.363C324.736 416.086 325.442 414.429 325.535 412.683C325.56 411.861 325.347 411.049 324.92 410.346C324.594 409.825 324.152 409.388 323.628 409.068C323.408 408.925 323.168 408.815 322.917 408.742C322.651 408.701 322.385 408.666 322.118 408.639L322.22 408.652C321.568 408.603 320.924 408.473 320.304 408.264C319.511 408.071 318.73 407.834 317.964 407.553C317.811 407.498 317.661 407.435 317.508 407.378C317.152 407.244 318.004 407.621 317.469 407.358C317.184 407.218 316.898 407.085 316.623 406.927C316.032 406.53 315.402 406.196 314.744 405.928C313.337 405.476 311.819 405.518 310.44 406.046C309.502 406.355 308.651 406.886 307.961 407.593C307.271 408.3 306.762 409.163 306.476 410.109C306.053 411.936 306.37 413.856 307.356 415.45C307.513 415.719 307.722 415.954 307.97 416.142C308.218 416.331 308.5 416.468 308.801 416.547C309.102 416.626 309.416 416.645 309.724 416.602C310.033 416.56 310.33 416.458 310.598 416.301C310.867 416.143 311.102 415.935 311.29 415.687C311.479 415.439 311.616 415.156 311.695 414.855C311.774 414.554 311.793 414.241 311.75 413.932C311.708 413.624 311.606 413.327 311.449 413.058L311.425 413.05Z" fill="#211715"/>
<path d="M340.754 414.528C340.775 414.528 340.456 414.607 340.453 414.598C340.428 414.498 340.988 414.578 340.587 414.556C340.469 414.556 340.35 414.549 340.238 414.546C339.727 414.529 340.336 414.536 340.33 414.559C340.06 414.503 339.793 414.43 339.533 414.338C339.215 414.247 339.875 414.54 339.606 414.363C339.557 414.332 339.24 414.215 339.234 414.15C339.234 414.15 339.578 414.489 339.336 414.226C339.249 414.132 339.16 414.039 339.074 413.944C339.311 414.205 339.086 413.96 339.043 413.889C338.97 413.771 338.9 413.652 338.828 413.528C338.604 413.158 338.781 413.44 338.818 413.547C338.775 413.428 338.733 413.31 338.7 413.18C338.655 413.061 338.627 412.938 338.615 412.812C338.652 413.137 338.658 413.164 338.634 412.894V412.713C338.634 412.594 338.642 412.476 338.643 412.351C338.643 411.855 338.666 412.439 338.621 412.45C338.651 412.443 338.771 411.823 338.79 411.763C338.815 411.648 338.854 411.537 338.908 411.432C338.694 411.657 338.766 411.723 338.876 411.52C338.995 411.296 339.113 411.071 339.247 410.854C339.456 410.512 339.688 410.184 339.941 409.874C339.549 410.336 340.018 409.787 340.119 409.664C340.319 409.42 340.524 409.178 340.73 408.939C341.458 408.099 342.215 407.284 343.001 406.496C343.171 406.325 343.343 406.155 343.517 405.986C343.608 405.898 343.873 405.541 344.004 405.523C343.991 405.523 343.541 405.828 343.941 405.61C343.874 405.646 343.444 405.785 343.832 405.691L343.524 405.736H343.689C343.905 405.752 343.911 405.749 343.708 405.729C343.505 405.709 343.511 405.707 343.728 405.752C343.834 405.793 343.956 405.828 344.062 405.861C343.966 405.83 343.637 405.624 343.985 405.845C344.136 405.94 344.657 406.345 344.254 405.979C344.428 406.137 344.593 406.296 344.758 406.464C344.684 406.389 344.509 406.053 344.733 406.444C344.762 406.495 345.03 406.982 344.893 406.699C344.743 406.39 344.979 406.982 344.98 406.988C345.017 407.119 345.041 407.253 345.073 407.386C345.049 407.289 345.049 406.912 345.063 407.367C345.063 407.505 345.075 407.642 345.074 407.78C345.073 407.919 345.062 408.055 345.055 408.193C345.048 408.33 344.937 408.578 345.055 408.174C344.959 408.501 344.905 408.835 344.798 409.161C344.749 409.304 344.693 409.444 344.644 409.587C344.566 409.824 344.762 409.381 344.569 409.752C344.396 410.092 344.23 410.433 344.044 410.766C343.709 411.369 343.355 411.966 342.97 412.543C342.89 412.662 342.81 412.78 342.733 412.899C342.633 413.037 342.434 413.268 342.651 413.017C342.428 413.289 342.19 413.549 341.94 413.796C341.839 413.893 341.728 413.982 341.627 414.079C341.947 413.767 341.509 414.163 341.429 414.213C341.303 414.293 341.172 414.363 341.042 414.437C340.62 414.674 341.279 414.373 340.773 414.54C340.167 414.707 339.652 415.108 339.342 415.654C339.031 416.201 338.951 416.849 339.118 417.455C339.285 418.061 339.686 418.575 340.232 418.886C340.779 419.196 341.427 419.277 342.033 419.11C345.587 417.925 347.8 414.389 349.142 411.068C350.509 407.68 349.734 403.413 346.226 401.682C345.385 401.197 344.418 400.976 343.451 401.046C342.483 401.116 341.558 401.474 340.796 402.074C339.761 402.978 338.796 403.959 337.909 405.009C335.982 407.161 333.982 409.502 333.909 412.543C333.892 413.536 334.092 414.52 334.496 415.426C334.9 416.333 335.498 417.14 336.248 417.79C337.045 418.441 337.983 418.899 338.986 419.128C339.99 419.357 341.032 419.351 342.033 419.11C342.333 419.027 342.615 418.886 342.86 418.695C343.106 418.504 343.311 418.266 343.465 417.995C343.619 417.725 343.718 417.426 343.756 417.117C343.794 416.809 343.772 416.495 343.689 416.195C343.606 415.895 343.465 415.614 343.274 415.369C343.083 415.123 342.845 414.917 342.574 414.764C342.304 414.61 342.005 414.511 341.697 414.473C341.388 414.434 341.074 414.457 340.774 414.54L340.754 414.528Z" fill="#211715"/>
<path d="M323.65 413.144C324.259 412.741 324.721 412.152 324.968 411.465C325.323 410.732 325.661 409.988 325.996 409.244C326.848 407.355 327.677 405.452 328.511 403.557C328.828 402.834 329.143 402.11 329.473 401.392C329.775 400.846 329.855 400.204 329.697 399.601C329.539 398.997 329.154 398.477 328.622 398.15C328.078 397.84 327.434 397.755 326.828 397.914C326.222 398.073 325.703 398.463 325.38 399C323.919 402.18 322.598 405.422 321.107 408.586C320.966 408.885 320.825 409.179 320.672 409.477C320.623 409.571 320.566 409.662 320.519 409.757C320.505 409.784 320.474 409.811 320.467 409.84C320.659 409.514 320.932 409.244 321.258 409.053C320.719 409.373 320.327 409.893 320.168 410.499C320.009 411.106 320.095 411.751 320.409 412.295C320.736 412.826 321.256 413.211 321.859 413.369C322.463 413.528 323.104 413.448 323.65 413.146V413.144Z" fill="#211715"/>
<path d="M315.454 397.888C314.435 400.914 313.643 404.011 313.085 407.155C312.934 407.772 313.018 408.424 313.322 408.982C313.557 409.385 313.906 409.71 314.324 409.915C314.743 410.121 315.213 410.198 315.676 410.138C316.138 410.077 316.573 409.881 316.924 409.575C317.276 409.269 317.53 408.866 317.653 408.416C318.211 405.272 319.003 402.174 320.023 399.148C320.186 398.542 320.103 397.895 319.793 397.35C319.482 396.804 318.969 396.403 318.364 396.233C317.758 396.081 317.117 396.169 316.574 396.478C316.031 396.787 315.628 397.293 315.45 397.892L315.454 397.888Z" fill="#211715"/>
<path d="M328.508 403.219C330.041 405.003 331.704 406.669 333.485 408.205C334.234 408.859 335.001 409.489 335.798 410.087C336.199 410.479 336.715 410.731 337.271 410.807C337.827 410.883 338.392 410.779 338.884 410.51C339.406 410.184 339.792 409.681 339.973 409.094C340.099 408.639 340.086 408.158 339.936 407.71C339.787 407.263 339.507 406.871 339.133 406.584C338.76 406.296 338.309 406.127 337.838 406.097C337.368 406.068 336.899 406.179 336.492 406.417L337.058 406.18H337.051L337.682 406.096H337.672L338.302 406.181C338.284 406.178 338.266 406.172 338.249 406.165L338.815 406.402C338.522 406.246 338.247 406.057 337.997 405.838L338.471 406.209C336.054 404.327 333.838 402.2 331.858 399.864C331.414 399.419 330.811 399.17 330.183 399.17C329.554 399.17 328.952 399.419 328.507 399.864C328.078 400.316 327.838 400.915 327.838 401.539C327.838 402.163 328.078 402.763 328.507 403.214L328.508 403.219Z" fill="#211715"/>
<path d="M344.965 400.564C344.685 400.242 344.413 399.914 344.151 399.576L344.522 400.056C344.011 399.394 343.547 398.698 343.082 398.003C342.76 397.478 342.256 397.091 341.666 396.914C341.36 396.814 341.033 396.799 340.719 396.871C340.405 396.884 340.101 396.981 339.837 397.152C339.568 397.309 339.333 397.517 339.145 397.765C338.956 398.013 338.819 398.296 338.74 398.597C338.661 398.898 338.642 399.212 338.684 399.52C338.726 399.829 338.829 400.126 338.986 400.395C339.785 401.623 340.662 402.799 341.611 403.915C342.063 404.344 342.663 404.583 343.286 404.583C343.91 404.583 344.509 404.344 344.962 403.915C345.405 403.47 345.654 402.868 345.656 402.24L345.572 401.61C345.462 401.215 345.252 400.854 344.962 400.564H344.965Z" fill="#211715"/>
<path d="M336.966 357.531C339.966 354.916 341.38 350.83 341.9 346.986C342.167 344.874 341.87 342.728 341.039 340.768C340.208 338.807 338.874 337.101 337.171 335.823C335.364 334.455 333.242 333.564 331 333.233C328.759 332.902 326.47 333.14 324.345 333.927C322.13 334.757 320.161 336.136 318.624 337.933C317.086 339.731 316.029 341.889 315.552 344.205C314.521 349.559 316.8 356.132 322.766 357.248C323.372 357.398 324.012 357.309 324.555 357.001C325.097 356.692 325.5 356.187 325.681 355.589C325.843 354.983 325.759 354.338 325.449 353.792C325.139 353.247 324.626 352.846 324.022 352.675C320.768 352.066 319.619 348.605 320.089 345.631C320.328 344.072 320.959 342.599 321.923 341.351C322.888 340.102 324.153 339.119 325.601 338.493C331.103 336.227 337.783 340.117 337.253 346.195C337.21 346.702 337.29 345.978 337.238 346.35C337.211 346.535 337.178 346.719 337.143 346.902C337.084 347.229 337.017 347.555 336.943 347.878C336.764 348.661 336.539 349.432 336.268 350.188C335.737 351.724 334.823 353.099 333.611 354.182C333.385 354.4 333.204 354.662 333.08 354.951C332.956 355.24 332.891 355.551 332.888 355.866C332.885 356.18 332.945 356.492 333.064 356.784C333.183 357.075 333.359 357.339 333.582 357.562C333.804 357.784 334.069 357.96 334.36 358.08C334.651 358.199 334.963 358.259 335.278 358.256C335.593 358.253 335.904 358.188 336.193 358.064C336.482 357.939 336.743 357.759 336.962 357.533L336.966 357.531Z" fill="#211715"/>
<path d="M340.381 343.292C340.007 341.192 338.974 339.266 337.432 337.792C335.89 336.319 333.918 335.375 331.803 335.098C330.152 334.726 328.439 334.717 326.785 335.074C325.13 335.431 323.573 336.144 322.222 337.163C320.577 338.402 319.357 340.121 318.73 342.082C320.995 342.477 324.431 345.66 325.332 347.533C326.424 349.793 325.925 352.453 325.578 354.94C325.445 355.499 325.493 356.086 325.714 356.616C325.973 357.09 326.53 357.277 327.017 357.521C328.965 358.497 330.784 358.097 336.215 356.559C337.497 356.111 338.673 355.406 339.67 354.485C340.207 353.68 340.549 352.76 340.668 351.799C341.185 348.976 341.087 346.074 340.381 343.292Z" fill="#A98A75"/>
<path d="M342.661 342.666C342.129 340.192 340.871 337.933 339.049 336.179C337.226 334.424 334.921 333.253 332.429 332.816C328.95 332.062 325.316 332.596 322.202 334.32C319.51 335.955 317.472 338.478 316.44 341.455C316.276 342.061 316.358 342.708 316.669 343.254C316.98 343.8 317.494 344.201 318.099 344.369C318.614 344.45 319.101 344.653 319.521 344.962C320.127 345.331 320.696 345.759 321.218 346.24C322.239 346.983 323.013 348.015 323.44 349.202C323.734 351.004 323.671 352.846 323.254 354.623C323.031 355.647 323.184 356.717 323.684 357.638C324.184 358.558 324.999 359.268 325.979 359.638C328.468 360.779 330.966 360.385 333.549 359.74C336.66 358.963 340.785 357.989 342.25 354.752C343.909 351.079 343.527 346.467 342.673 342.667C342.006 339.692 337.435 340.951 338.103 343.926C338.479 345.553 338.654 347.219 338.624 348.888C338.613 349.362 338.548 350.281 338.523 350.468C338.486 350.744 338.276 351.72 338.141 352.237C338.081 352.506 337.979 352.765 337.839 353.003C337.797 353.041 337.752 353.076 337.706 353.108C337.136 353.538 336.518 353.899 335.862 354.182C336.123 354.064 335.674 354.249 335.591 354.276C335.125 354.422 334.65 354.541 334.18 354.67C333.403 354.885 332.623 355.097 331.837 355.284C330.927 355.547 329.984 355.679 329.036 355.676C328.466 355.694 329.254 355.787 328.9 355.676C328.724 355.619 328.526 355.573 328.346 355.529C327.897 355.42 328.413 355.573 328.295 355.516C328.136 355.405 327.96 355.32 327.773 355.265C327.254 355.236 328.08 355.523 327.885 355.656C328.068 354.931 328.162 354.185 328.166 353.437C328.305 352.496 328.373 351.545 328.369 350.593C328.383 348.862 327.91 347.162 327.003 345.687C325.325 343.163 322.418 340.443 319.367 339.805L321.026 342.721C322.773 338.329 327.305 336.456 331.898 337.542C333.768 337.891 335.446 338.909 336.621 340.405C336.432 340.156 336.673 340.495 336.732 340.592C336.833 340.753 336.938 340.912 337.034 341.077C337.153 341.27 337.249 341.466 337.35 341.669C337.376 341.718 337.619 342.246 337.501 341.974C337.382 341.701 337.596 342.221 337.619 342.273C337.687 342.463 337.753 342.654 337.814 342.846C337.932 343.201 338.023 343.57 338.111 343.936C338.802 346.892 343.373 345.635 342.661 342.666Z" fill="#211715"/>
<path d="M322.182 356.005C320.445 356.875 318.996 358.229 318.011 359.904C317.358 360.904 316.749 361.931 316.185 362.985C315.904 363.512 315.635 364.045 315.376 364.583C315.258 364.82 315.15 365.064 315.037 365.305C314.991 365.405 314.59 366.125 315.027 365.702C314.544 366.015 314.017 366.255 313.464 366.413L311.296 367.349C309.945 367.932 308.593 368.509 307.248 369.103C306.8 369.37 306.451 369.775 306.255 370.258C306.058 370.741 306.025 371.275 306.159 371.779C306.664 374.026 307.713 376.114 309.215 377.86C310.716 379.607 312.624 380.957 314.77 381.793C315.934 382.284 317.199 382.491 318.459 382.396C319.719 382.301 320.938 381.907 322.016 381.247C324.24 379.768 326.27 378.017 328.059 376.034C328.49 375.582 328.73 374.982 328.73 374.358C328.73 373.733 328.49 373.133 328.059 372.682C327.611 372.243 327.01 371.997 326.383 371.997C325.756 371.997 325.154 372.243 324.707 372.682C323.28 374.263 321.687 375.685 319.954 376.925C319.397 377.342 318.731 377.592 318.037 377.645C317.342 377.699 316.647 377.554 316.031 377.227C314.682 376.606 313.498 375.676 312.577 374.511C311.655 373.346 311.023 371.979 310.73 370.523L309.64 373.198C310.944 372.624 312.247 372.064 313.559 371.502C314.885 371.025 316.175 370.455 317.42 369.795C318.37 369.082 319.083 368.1 319.469 366.977C319.987 365.9 320.55 364.847 321.159 363.818C321.464 363.304 321.78 362.796 322.107 362.295C322.226 362.112 322.344 361.928 322.476 361.749C322.67 361.478 322.248 362.016 322.52 361.695C323.065 361.002 323.772 360.453 324.578 360.095C325.117 359.775 325.509 359.255 325.668 358.649C325.827 358.042 325.741 357.397 325.427 356.853C325.1 356.322 324.58 355.938 323.977 355.78C323.373 355.621 322.732 355.702 322.186 356.004L322.182 356.005Z" fill="#211715"/>
<path d="M310.738 367.436C310.571 367.451 310.403 367.455 310.236 367.449C310.143 367.449 310.052 367.437 309.96 367.426C310.351 367.483 310.415 367.487 310.155 367.438C310.049 367.405 309.611 367.359 309.563 367.258C309.879 367.396 309.918 367.407 309.681 367.292C309.583 367.239 309.488 367.182 309.395 367.121C309.645 367.327 309.67 367.345 309.472 367.175C309.405 367.114 309.341 367.049 309.282 366.98C309.498 367.274 309.532 367.314 309.384 367.098C309.327 367.008 309.273 366.917 309.223 366.823C309.111 366.592 309.121 366.629 309.252 366.935C309.212 366.827 309.175 366.719 309.143 366.609C309.111 366.499 309.083 366.386 309.061 366.272C309.098 366.618 309.105 366.657 309.082 366.391C309.089 366.167 309.082 365.943 309.094 365.719C309.098 365.616 309.106 365.513 309.115 365.41C309.142 365.147 309.132 365.211 309.083 365.604C309.138 365.427 309.178 365.245 309.202 365.061C309.228 364.974 309.256 364.887 309.289 364.802C309.134 365.157 309.11 365.214 309.219 364.986C309.322 364.815 309.422 364.644 309.527 364.475C309.674 364.274 309.651 364.302 309.457 364.561C309.53 364.474 309.603 364.388 309.679 364.303C309.821 364.142 309.968 363.987 310.123 363.839C310.198 363.768 310.274 363.698 310.351 363.63C310.546 363.469 310.504 363.497 310.224 363.718C310.343 363.787 311.053 363.074 311.271 363.114C310.949 363.249 310.91 363.269 311.153 363.175C311.26 363.138 311.367 363.103 311.476 363.07C311.662 363.014 311.852 362.977 312.04 362.93C312.297 362.886 312.238 362.892 311.864 362.945C311.968 362.933 312.072 362.925 312.177 362.919C312.395 362.909 312.609 362.919 312.826 362.929C313.09 362.955 313.047 362.949 312.697 362.911C312.815 362.932 312.924 362.957 313.036 362.988C313.147 363.019 313.264 363.053 313.377 363.093C313.622 363.186 313.604 363.178 313.322 363.07C313.514 363.07 313.796 363.352 313.963 363.449C314.17 363.598 314.136 363.569 313.86 363.362C313.941 363.429 314.019 363.496 314.097 363.567C314.249 363.708 314.384 363.861 314.525 364.013C314.683 364.209 314.654 364.169 314.437 363.894C314.497 363.978 314.556 364.063 314.607 364.15C314.714 364.324 314.811 364.504 314.898 364.689C314.764 364.359 314.742 364.314 314.834 364.553C314.869 364.651 314.899 364.751 314.928 364.851C314.999 365.05 315.045 365.259 315.063 365.47C315.017 365.107 315.006 365.058 315.03 365.324C315.037 365.435 315.04 365.545 315.04 365.656C315.04 366.285 315.29 366.887 315.734 367.332C316.179 367.776 316.782 368.026 317.41 368.026C318.039 368.026 318.641 367.776 319.086 367.332C319.53 366.887 319.78 366.285 319.78 365.656C319.784 364.52 319.527 363.398 319.03 362.376C318.533 361.354 317.808 360.46 316.912 359.761C316.015 359.063 314.971 358.579 313.858 358.347C312.746 358.115 311.595 358.141 310.494 358.423C308.416 358.982 306.615 360.284 305.434 362.083C304.858 362.981 304.492 363.996 304.361 365.054C304.23 366.112 304.338 367.187 304.677 368.198C305.119 369.515 306.018 370.63 307.211 371.342C308.278 371.959 309.503 372.247 310.732 372.172C311.361 372.172 311.964 371.922 312.408 371.478C312.852 371.033 313.102 370.43 313.102 369.802C313.102 369.174 312.852 368.571 312.408 368.126C311.964 367.682 311.361 367.432 310.732 367.432L310.738 367.436Z" fill="#211715"/>
</svg>
