<svg width="47" height="50" viewBox="0 0 47 50" fill="none" xmlns="http://www.w3.org/2000/svg">
<path d="M46.257 0.23336C46.7189 0.518058 47 1.02097 47 1.5625V48.4375C47 49.3004 46.2986 50 45.4333 50H36.0333C35.1681 50 34.4667 49.3004 34.4667 48.4375V43.75H31.3333V48.4375C31.3333 49.3004 30.6319 50 29.7667 50H1.56667C0.701421 50 0 49.3004 0 48.4375V31.25C0 30.5775 0.431507 29.9804 1.07124 29.7677L18.8 23.8738V14.0625C18.8 13.4707 19.1353 12.9296 19.666 12.665L44.7327 0.164959C45.2183 -0.0772193 45.7951 -0.0513381 46.257 0.23336ZM18.8 27.1679L3.13333 32.3762V46.875H18.8V27.1679ZM21.9333 46.875H28.2V42.1875C28.2 41.3246 28.9014 40.625 29.7667 40.625H36.0333C36.8986 40.625 37.6 41.3246 37.6 42.1875V46.875H43.8667V4.09068L21.9333 15.0282V46.875Z" fill="#4682B4"/>
<path d="M6.26667 34.375H9.4V37.5H6.26667V34.375Z" fill="#4682B4"/>
<path d="M12.5333 34.375H15.6667V37.5H12.5333V34.375Z" fill="#4682B4"/>
<path d="M6.26667 40.625H9.4V43.75H6.26667V40.625Z" fill="#4682B4"/>
<path d="M12.5333 40.625H15.6667V43.75H12.5333V40.625Z" fill="#4682B4"/>
<path d="M25.0667 28.125H28.2V31.25H25.0667V28.125Z" fill="#4682B4"/>
<path d="M31.3333 28.125H34.4667V31.25H31.3333V28.125Z" fill="#4682B4"/>
<path d="M25.0667 34.375H28.2V37.5H25.0667V34.375Z" fill="#4682B4"/>
<path d="M31.3333 34.375H34.4667V37.5H31.3333V34.375Z" fill="#4682B4"/>
<path d="M37.6 28.125H40.7333V31.25H37.6V28.125Z" fill="#4682B4"/>
<path d="M37.6 34.375H40.7333V37.5H37.6V34.375Z" fill="#4682B4"/>
<path d="M25.0667 21.875H28.2V25H25.0667V21.875Z" fill="#4682B4"/>
<path d="M31.3333 21.875H34.4667V25H31.3333V21.875Z" fill="#4682B4"/>
<path d="M37.6 21.875H40.7333V25H37.6V21.875Z" fill="#4682B4"/>
<path d="M25.0667 15.625H28.2V18.75H25.0667V15.625Z" fill="#4682B4"/>
<path d="M31.3333 15.625H34.4667V18.75H31.3333V15.625Z" fill="#4682B4"/>
<path d="M37.6 15.625H40.7333V18.75H37.6V15.625Z" fill="#4682B4"/>
<path d="M37.6 9.375H40.7333V12.5H37.6V9.375Z" fill="#4682B4"/>
</svg>
