<?xml version="1.0" ?><!-- Uploaded to: SVG Repo, www.svgrepo.com, Generator: SVG Repo Mixer Tools -->
<svg width="800px" height="800px" viewBox="0 0 64 64" data-name="Layer 1" id="Layer_1" xmlns="http://www.w3.org/2000/svg"><defs><style>.cls-1{fill:#ba9bc9;}.cls-2{fill:#838bc5;}.cls-3{fill:#f4ecce;}.cls-4{fill:#8f6c56;}.cls-5{fill:#65c8d0;}.cls-6{fill:#fcdd7c;}.cls-7{fill:#fcd8d1;}</style></defs><rect class="cls-1" height="2" transform="translate(-3.17 37.93) rotate(-45)" width="9.9" x="39.26" y="21.79"/><rect class="cls-1" height="9.9" transform="translate(-10.32 20.67) rotate(-45)" width="2" x="18.79" y="17.84"/><rect class="cls-1" height="2" transform="translate(-24.17 28.07) rotate(-45)" width="9.9" x="16.84" y="42.21"/><rect class="cls-1" height="9.9" transform="translate(-18.19 42.5) rotate(-45)" width="2" x="41.21" y="38.26"/><circle class="cls-2" cx="52" cy="52" r="10"/><circle class="cls-2" cx="52" cy="12" r="10"/><circle class="cls-2" cx="12" cy="52" r="10"/><circle class="cls-2" cx="12" cy="12" r="10"/><path class="cls-3" d="M44,32a11.88,11.88,0,0,1-4,8.93,11.75,11.75,0,0,1-4,2.38A12,12,0,0,1,33,44c-.33,0-.66,0-1,0s-.67,0-1,0a12,12,0,0,1-3-.65,11.75,11.75,0,0,1-4-2.38A12,12,0,1,1,44,32Z"/><path class="cls-4" d="M28,36v7.31a11.75,11.75,0,0,1-4-2.38V37Z"/><path class="cls-4" d="M40,37v3.93a11.75,11.75,0,0,1-4,2.38V36Z"/><path class="cls-5" d="M36,33V43.31a11.94,11.94,0,0,1-8,0V33Z"/><path class="cls-6" d="M32.83,30.55l-1.66-1.1,1-1.45H30a1,1,0,0,1-.88-.53,1,1,0,0,1,.05-1l2-3,1.66,1.1-1,1.45H34a1,1,0,0,1,.88.53,1,1,0,0,1-.05,1Z"/><circle class="cls-7" cx="52" cy="51" r="2"/><path class="cls-7" d="M50,53h4a2,2,0,0,1,2,2v2a0,0,0,0,1,0,0H48a0,0,0,0,1,0,0V55A2,2,0,0,1,50,53Z"/><circle class="cls-7" cx="12" cy="51" r="2"/><path class="cls-7" d="M10,53h4a2,2,0,0,1,2,2v2a0,0,0,0,1,0,0H8a0,0,0,0,1,0,0V55A2,2,0,0,1,10,53Z"/><circle class="cls-7" cx="52" cy="11" r="2"/><path class="cls-7" d="M50,13h4a2,2,0,0,1,2,2v2a0,0,0,0,1,0,0H48a0,0,0,0,1,0,0V15A2,2,0,0,1,50,13Z"/><circle class="cls-7" cx="12" cy="11" r="2"/><path class="cls-7" d="M10,13h4a2,2,0,0,1,2,2v2a0,0,0,0,1,0,0H8a0,0,0,0,1,0,0V15A2,2,0,0,1,10,13Z"/><path class="cls-3" d="M33,41v3c-.33,0-.66,0-1,0s-.67,0-1,0V41Z"/></svg>