<svg width="40" height="40" viewBox="0 0 40 40" fill="none" xmlns="http://www.w3.org/2000/svg">
<path d="M29.3752 11.6101L25 15.9854L25.8839 16.8692L30.2591 12.494L29.3752 11.6101Z" fill="black"/>
<path d="M10.6222 11.6151L9.73828 12.499L14.1135 16.8742L14.9974 15.9904L10.6222 11.6151Z" fill="black"/>
<path d="M15.3655 24.3806L10.9902 28.7559L11.8741 29.6397L16.2493 25.2645L15.3655 24.3806Z" fill="black"/>
<path d="M24.6358 24.3749L23.752 25.2588L28.1272 29.634L29.0111 28.7501L24.6358 24.3749Z" fill="black"/>
<path d="M32.5 38.75C35.9518 38.75 38.75 35.9518 38.75 32.5C38.75 29.0482 35.9518 26.25 32.5 26.25C29.0482 26.25 26.25 29.0482 26.25 32.5C26.25 35.9518 29.0482 38.75 32.5 38.75Z" fill="#E0E0E0"/>
<path d="M32.5 13.75C35.9518 13.75 38.75 10.9518 38.75 7.5C38.75 4.04822 35.9518 1.25 32.5 1.25C29.0482 1.25 26.25 4.04822 26.25 7.5C26.25 10.9518 29.0482 13.75 32.5 13.75Z" fill="#E0E0E0"/>
<path d="M7.5 38.75C10.9518 38.75 13.75 35.9518 13.75 32.5C13.75 29.0482 10.9518 26.25 7.5 26.25C4.04822 26.25 1.25 29.0482 1.25 32.5C1.25 35.9518 4.04822 38.75 7.5 38.75Z" fill="#E0E0E0"/>
<path d="M7.5 13.75C10.9518 13.75 13.75 10.9518 13.75 7.5C13.75 4.04822 10.9518 1.25 7.5 1.25C4.04822 1.25 1.25 4.04822 1.25 7.5C1.25 10.9518 4.04822 13.75 7.5 13.75Z" fill="#E0E0E0"/>
<path d="M27.5 19.9995C27.5035 21.054 27.2823 22.0971 26.8513 23.0595C26.4202 24.0218 25.7891 24.8813 25 25.5808C24.2742 26.2384 23.4242 26.7441 22.5 27.0683C21.8961 27.2919 21.2659 27.4369 20.625 27.4995C20.4187 27.4995 20.2125 27.4995 20 27.4995C19.7875 27.4995 19.5812 27.4995 19.375 27.4995C18.7352 27.4449 18.105 27.3084 17.5 27.0933C16.5758 26.7691 15.7258 26.2634 15 25.6058C14.068 24.7722 13.3592 23.7188 12.9381 22.5415C12.517 21.3642 12.397 20.1003 12.5888 18.8647C12.7807 17.6292 13.2784 16.4612 14.0368 15.467C14.7951 14.4729 15.7899 13.6841 16.9308 13.1724C18.0717 12.6607 19.3224 12.4424 20.5691 12.5373C21.8159 12.6321 23.0192 13.0372 24.0695 13.7157C25.1198 14.3941 25.9838 15.3244 26.5829 16.4218C27.182 17.5193 27.4973 18.7492 27.5 19.9995Z" fill="#C5CECF"/>
<path d="M17.5 22.5V27.0688C16.5758 26.7446 15.7258 26.2388 15 25.5813V23.125L17.5 22.5Z" fill="#575959"/>
<path d="M25 23.125V25.5813C24.2742 26.2388 23.4242 26.7446 22.5 27.0688V22.5L25 23.125Z" fill="#393939" fill-opacity="0.78"/>
<path d="M22.5 20.625V27.0688C20.8829 27.6437 19.1171 27.6437 17.5 27.0688V20.625H22.5Z" fill="#838A8B"/>
<path d="M32.5 33.125C33.1904 33.125 33.75 32.5654 33.75 31.875C33.75 31.1846 33.1904 30.625 32.5 30.625C31.8096 30.625 31.25 31.1846 31.25 31.875C31.25 32.5654 31.8096 33.125 32.5 33.125Z" fill="#C5CECF"/>
<path d="M31.25 33.125H33.75C34.0815 33.125 34.3995 33.2567 34.6339 33.4911C34.8683 33.7255 35 34.0435 35 34.375V35.625H30V34.375C30 34.0435 30.1317 33.7255 30.3661 33.4911C30.6005 33.2567 30.9185 33.125 31.25 33.125Z" fill="#C5CECF"/>
<path d="M7.5 33.125C8.19036 33.125 8.75 32.5654 8.75 31.875C8.75 31.1846 8.19036 30.625 7.5 30.625C6.80964 30.625 6.25 31.1846 6.25 31.875C6.25 32.5654 6.80964 33.125 7.5 33.125Z" fill="#C5CECF"/>
<path d="M6.25 33.125H8.75C9.08152 33.125 9.39946 33.2567 9.63388 33.4911C9.8683 33.7255 10 34.0435 10 34.375V35.625H5V34.375C5 34.0435 5.1317 33.7255 5.36612 33.4911C5.60054 33.2567 5.91848 33.125 6.25 33.125Z" fill="#C5CECF"/>
<path d="M32.5 8.125C33.1904 8.125 33.75 7.56536 33.75 6.875C33.75 6.18464 33.1904 5.625 32.5 5.625C31.8096 5.625 31.25 6.18464 31.25 6.875C31.25 7.56536 31.8096 8.125 32.5 8.125Z" fill="#C5CECF"/>
<path d="M31.25 8.125H33.75C34.0815 8.125 34.3995 8.2567 34.6339 8.49112C34.8683 8.72554 35 9.04348 35 9.375V10.625H30V9.375C30 9.04348 30.1317 8.72554 30.3661 8.49112C30.6005 8.2567 30.9185 8.125 31.25 8.125Z" fill="#C5CECF"/>
<path d="M7.5 8.125C8.19036 8.125 8.75 7.56536 8.75 6.875C8.75 6.18464 8.19036 5.625 7.5 5.625C6.80964 5.625 6.25 6.18464 6.25 6.875C6.25 7.56536 6.80964 8.125 7.5 8.125Z" fill="#C5CECF"/>
<path d="M6.25 8.125H8.75C9.08152 8.125 9.39946 8.2567 9.63388 8.49112C9.8683 8.72554 10 9.04348 10 9.375V10.625H5V9.375C5 9.04348 5.1317 8.72554 5.36612 8.49112C5.60054 8.2567 5.91848 8.125 6.25 8.125Z" fill="#C5CECF"/>
<path d="M20.625 25.625V27.5C20.4188 27.5 20.2125 27.5 20 27.5C19.7875 27.5 19.5813 27.5 19.375 27.5V25.625H20.625Z" fill="#F4ECCE"/>
<path d="M19.9807 14.2111C20.0705 13.9347 20.4615 13.9347 20.5513 14.2111L20.5579 14.2313C20.598 14.3549 20.7132 14.4386 20.8432 14.4386H20.8644C21.155 14.4386 21.2759 14.8105 21.0407 14.9813L21.0236 14.9937C20.9184 15.0701 20.8744 15.2056 20.9146 15.3292L20.9212 15.3493C21.011 15.6257 20.6946 15.8556 20.4595 15.6847L20.4424 15.6723C20.3372 15.5959 20.1948 15.5959 20.0897 15.6723L20.0725 15.6847C19.8374 15.8556 19.5211 15.6257 19.6109 15.3493L19.6174 15.3292C19.6576 15.2056 19.6136 15.0701 19.5084 14.9937L19.4913 14.9813C19.2562 14.8105 19.377 14.4386 19.6676 14.4386H19.6888C19.8188 14.4386 19.934 14.3549 19.9741 14.2313L19.9807 14.2111Z" fill="white"/>
<path d="M22.6487 15.2785C22.7385 15.0021 23.1295 15.0021 23.2193 15.2785L23.2259 15.2987C23.266 15.4223 23.3812 15.506 23.5112 15.506H23.5324C23.823 15.506 23.9438 15.8778 23.7087 16.0487L23.6916 16.0611C23.5864 16.1375 23.5424 16.2729 23.5826 16.3965L23.5891 16.4167C23.6789 16.6931 23.3626 16.9229 23.1275 16.7521L23.1103 16.7397C23.0052 16.6633 22.8628 16.6633 22.7576 16.7397L22.7405 16.7521C22.5054 16.9229 22.189 16.6931 22.2788 16.4167L22.2854 16.3965C22.3256 16.2729 22.2816 16.1375 22.1764 16.0611L22.1593 16.0487C21.9241 15.8778 22.045 15.506 22.3356 15.506H22.3568C22.4868 15.506 22.602 15.4223 22.6421 15.2987L22.6487 15.2785Z" fill="white"/>
<path d="M16.7815 15.2785C16.8713 15.0021 17.2623 15.0021 17.3521 15.2785L17.3587 15.2987C17.3988 15.4223 17.514 15.506 17.644 15.506H17.6652C17.9558 15.506 18.0766 15.8778 17.8415 16.0487L17.8244 16.0611C17.7192 16.1375 17.6752 16.2729 17.7154 16.3965L17.7219 16.4167C17.8117 16.6931 17.4954 16.9229 17.2603 16.7521L17.2431 16.7397C17.138 16.6633 16.9956 16.6633 16.8905 16.7397L16.8733 16.7521C16.6382 16.9229 16.3219 16.6931 16.4117 16.4167L16.4182 16.3965C16.4584 16.2729 16.4144 16.1375 16.3092 16.0611L16.2921 16.0487C16.057 15.8778 16.1778 15.506 16.4684 15.506H16.4896C16.6196 15.506 16.7348 15.4223 16.7749 15.2987L16.7815 15.2785Z" fill="white"/>
</svg>
