<svg width="18" height="18" viewBox="0 0 18 18" fill="none" xmlns="http://www.w3.org/2000/svg">
<path d="M0 4.5C0 3.25736 1.00736 2.25 2.25 2.25H15.75C16.9926 2.25 18 3.25736 18 4.5V13.5C18 14.7426 16.9926 15.75 15.75 15.75H2.25C1.00736 15.75 0 14.7426 0 13.5V4.5ZM2.25 3.375C1.62868 3.375 1.125 3.87868 1.125 4.5V4.74402L9 9.46902L16.875 4.74402V4.5C16.875 3.87868 16.3713 3.375 15.75 3.375H2.25ZM16.875 6.05598L11.5784 9.23393L16.875 12.4934V6.05598ZM16.837 13.7909L10.4916 9.88605L9 10.781L7.50844 9.88605L1.16298 13.7909C1.29121 14.2712 1.72929 14.625 2.25 14.625H15.75C16.2707 14.625 16.7088 14.2712 16.837 13.7909ZM1.125 12.4934L6.42159 9.23393L1.125 6.05598V12.4934Z" fill="#A9A9A9"/>
</svg>
