<svg width="43" height="43" viewBox="0 0 43 43" fill="none" xmlns="http://www.w3.org/2000/svg">
<g filter="url(#filter0_d_1876_2705)">
<path d="M21.4987 34.3725C32 34.3725 37.2475 27.3215 37.2475 18.6237C37.2475 9.92595 32 2.875 21.4987 2.875C10.9975 2.875 5.75 9.92595 5.75 18.6237C5.75 27.3215 10.9975 34.3725 21.4987 34.3725Z" fill="url(#paint0_radial_1876_2705)"/>
<path d="M21.4987 34.3725C32 34.3725 37.2475 27.3215 37.2475 18.6237C37.2475 9.92595 32 2.875 21.4987 2.875C10.9975 2.875 5.75 9.92595 5.75 18.6237C5.75 27.3215 10.9975 34.3725 21.4987 34.3725Z" fill="url(#paint1_radial_1876_2705)"/>
<path d="M21.4987 34.3725C32 34.3725 37.2475 27.3215 37.2475 18.6237C37.2475 9.92595 32 2.875 21.4987 2.875C10.9975 2.875 5.75 9.92595 5.75 18.6237C5.75 27.3215 10.9975 34.3725 21.4987 34.3725Z" fill="url(#paint2_radial_1876_2705)"/>
<path d="M21.4987 34.3725C32 34.3725 37.2475 27.3215 37.2475 18.6237C37.2475 9.92595 32 2.875 21.4987 2.875C10.9975 2.875 5.75 9.92595 5.75 18.6237C5.75 27.3215 10.9975 34.3725 21.4987 34.3725Z" fill="url(#paint3_radial_1876_2705)" fill-opacity="0.6"/>
<path d="M21.4987 34.3725C32 34.3725 37.2475 27.3215 37.2475 18.6237C37.2475 9.92595 32 2.875 21.4987 2.875C10.9975 2.875 5.75 9.92595 5.75 18.6237C5.75 27.3215 10.9975 34.3725 21.4987 34.3725Z" fill="url(#paint4_radial_1876_2705)"/>
<path d="M21.4987 34.3725C32 34.3725 37.2475 27.3215 37.2475 18.6237C37.2475 9.92595 32 2.875 21.4987 2.875C10.9975 2.875 5.75 9.92595 5.75 18.6237C5.75 27.3215 10.9975 34.3725 21.4987 34.3725Z" fill="url(#paint5_radial_1876_2705)"/>
<path d="M21.4987 34.3725C32 34.3725 37.2475 27.3215 37.2475 18.6237C37.2475 9.92595 32 2.875 21.4987 2.875C10.9975 2.875 5.75 9.92595 5.75 18.6237C5.75 27.3215 10.9975 34.3725 21.4987 34.3725Z" fill="url(#paint6_radial_1876_2705)"/>
<path d="M21.4987 34.3725C32 34.3725 37.2475 27.3215 37.2475 18.6237C37.2475 9.92595 32 2.875 21.4987 2.875C10.9975 2.875 5.75 9.92595 5.75 18.6237C5.75 27.3215 10.9975 34.3725 21.4987 34.3725Z" fill="url(#paint7_radial_1876_2705)"/>
</g>
<g filter="url(#filter1_f_1876_2705)">
<path d="M7.49219 19.7455C7.73828 20.7651 8.44534 22.7019 10.703 23.2608C11.0395 23.3441 11.3703 23.4047 11.7021 23.4504C11.7182 23.4526 11.7344 23.4545 11.7506 23.456C16.5938 23.9099 19.7955 19.8159 19.9519 15.362C19.9648 14.9928 20.249 14.6806 20.6184 14.6759C20.8151 14.6733 21.019 14.6736 21.229 14.6772C21.5968 14.6837 21.8791 14.9949 21.8921 15.3626C22.0503 19.8164 25.249 23.91 30.0931 23.456C30.1093 23.4545 30.1255 23.4526 30.1416 23.4504C30.4734 23.4047 30.8042 23.3441 31.1407 23.2608C34.1317 22.5203 35.9871 20.5545 36.936 18.446C36.7888 17.554 36.5792 16.6898 36.3073 15.8604C36.0234 18.3393 34.6961 18.6523 31.1407 19.5325C30.8481 19.6049 29.8482 20.3021 29.5498 20.3432C26.1748 20.6596 25.2256 18.446 23.3125 14.9115L23.3124 14.8764C23.3124 14.8601 23.3125 14.8439 23.3127 14.8277C23.4366 14.8439 23.5611 14.8616 23.6861 14.8809L23.9939 12.8834C24.3495 12.4251 24.825 12.0644 25.3734 11.8486C25.5023 11.7929 25.8037 11.6664 26.7357 11.4926C27.6972 11.3133 30.2642 11.3154 31.8309 11.3166L32.1805 11.3168C33.0078 11.3168 33.759 11.557 34.2443 11.7766C33.8479 11.2309 33.4116 10.7154 32.9353 10.2339C32.6879 10.2071 32.4345 10.1918 32.1805 10.1918L31.8266 10.1916C31.0459 10.191 30.0019 10.1902 29.0308 10.2122C28.0901 10.2336 26.6964 10.2935 26.1106 10.4028C25.1421 10.5833 24.7515 10.728 24.5252 10.8246C23.9033 11.0725 23.3691 11.4546 22.9475 11.9363C22.6703 12.253 22.2775 12.4644 21.857 12.4458C21.1819 12.4159 20.5471 12.4193 19.9787 12.4423C19.5603 12.4593 19.1701 12.2486 18.8941 11.9338C18.4728 11.4533 17.9394 11.0721 17.3185 10.8246C17.0923 10.728 16.7016 10.5833 15.7331 10.4028C15.1474 10.2935 13.7537 10.2336 12.8129 10.2122C11.8419 10.1902 10.7978 10.191 10.0171 10.1916L10.0027 10.1916C9.62976 10.5652 9.2811 10.9595 8.95668 11.3727C9.18236 11.3377 9.41949 11.3168 9.66322 11.3168L10.0128 11.3166C11.5795 11.3154 14.1465 11.3133 15.108 11.4926C16.0401 11.6664 16.3414 11.7929 16.4703 11.8486C16.9985 12.0564 17.4591 12.3987 17.8101 12.8332L18.1945 14.8745C18.2862 14.8573 18.3991 14.8389 18.5309 14.8205C18.5312 14.8391 18.5314 14.8577 18.5314 14.8764L18.5312 14.9115C18.7333 19.6488 15.1256 22.504 11.7506 22.1876C11.4523 22.1465 11.161 22.0929 10.8684 22.0205C8.2825 21.3803 8.47043 19.4807 7.73828 17.6713C7.60839 18.3359 7.55108 19.0507 7.49219 19.7455Z" fill="url(#paint8_linear_1876_2705)"/>
</g>
<path fill-rule="evenodd" clip-rule="evenodd" d="M17.8953 9.69964C18.5113 9.94512 19.0412 10.3223 19.4609 10.7974C19.7443 11.1182 20.143 11.3337 20.5707 11.3167C21.1309 11.2944 21.7551 11.2912 22.4186 11.3201C22.8484 11.3388 23.2497 11.1225 23.5343 10.7998C23.9544 10.3235 24.485 9.94554 25.102 9.69964C25.3283 9.60298 25.7189 9.45832 26.6874 9.27775C27.2732 9.16854 28.6668 9.10857 29.6076 9.08721C30.5786 9.06517 31.6227 9.06601 32.4034 9.06663L32.7573 9.06682C34.0954 9.06682 35.4155 9.48959 35.939 9.8051C37.1167 10.4028 38.2065 11.5453 38.2847 13.5115C38.2879 13.5409 38.29 13.5706 38.2909 13.6004C38.3837 16.6248 36.5056 20.9504 31.7175 22.1358C31.381 22.2191 31.0502 22.2797 30.7184 22.3254C30.7023 22.3276 30.6861 22.3295 30.6699 22.331C25.8311 22.7845 22.6341 18.7004 22.4695 14.2523C22.4556 13.8765 22.1671 13.5583 21.791 13.552C21.5915 13.5487 21.3975 13.5484 21.21 13.5507C20.8324 13.5553 20.542 13.8744 20.5281 14.2518C20.3652 18.7 17.1652 22.7844 12.3274 22.331C12.3112 22.3295 12.295 22.3276 12.2789 22.3254C11.9471 22.2797 11.6163 22.2191 11.2798 22.1358C6.49169 20.9504 4.61361 16.6248 4.70639 13.6004C4.7073 13.5706 4.7094 13.5409 4.71264 13.5115C4.7908 11.5453 5.88064 10.4028 7.05838 9.8051C7.58186 9.48959 8.90196 9.06682 10.24 9.06682L10.5939 9.06663C11.3746 9.06601 12.4187 9.06517 13.3897 9.08721C14.3305 9.10857 15.7241 9.16854 16.3099 9.27775C17.2784 9.45832 17.6691 9.60298 17.8953 9.69964ZM6.30049 12.5106C6.58161 11.8259 7.10344 11.2664 7.80594 10.843C8.20095 10.6049 9.15513 10.1918 10.24 10.1918L10.5896 10.1916C12.1563 10.1904 14.7233 10.1883 15.6848 10.3676C16.6168 10.5414 16.9182 10.6679 17.0471 10.7236C17.5753 10.9314 18.0359 11.2737 18.3869 11.7082L18.7713 13.7495C18.863 13.7323 18.9759 13.7139 19.1077 13.6955C19.108 13.7141 19.1082 13.7327 19.1082 13.7514L19.108 13.7865C19.3101 18.5238 15.7024 21.379 12.3274 21.0626C12.0291 21.0215 11.7378 20.9679 11.4451 20.8955C7.88982 20.0153 6.39718 17.2143 6.11321 14.7354C6.06948 14.3537 6.05441 13.9796 6.06489 13.6213L6.06519 13.6113L6.06746 13.6113L6.06788 13.6004C6.08353 13.2082 6.16339 12.8445 6.30049 12.5106ZM23.8895 13.7027C23.8893 13.7189 23.8892 13.7351 23.8892 13.7514L23.8893 13.7865C23.6872 18.5238 27.2949 21.379 30.6699 21.0626C30.9683 21.0215 31.2595 20.9679 31.5522 20.8955C35.1075 20.0153 36.6001 17.2143 36.8841 14.7354C36.9278 14.3537 36.9429 13.9796 36.9324 13.6213L36.9321 13.6113L36.9299 13.6113L36.9294 13.6004C36.9138 13.2082 36.8339 12.8445 36.6968 12.5106C36.4157 11.8259 35.8939 11.2664 35.1914 10.843C34.7964 10.6049 33.8422 10.1918 32.7573 10.1918L32.4077 10.1916C30.841 10.1904 28.274 10.1883 27.3125 10.3676C26.3805 10.5414 26.0791 10.6679 25.9502 10.7236C25.4018 10.9394 24.9263 11.3001 24.5707 11.7584L24.2629 13.7559C24.1379 13.7366 24.0134 13.7189 23.8895 13.7027Z" fill="url(#paint9_radial_1876_2705)"/>
<path fill-rule="evenodd" clip-rule="evenodd" d="M17.8953 9.69964C18.5113 9.94512 19.0412 10.3223 19.4609 10.7974C19.7443 11.1182 20.143 11.3337 20.5707 11.3167C21.1309 11.2944 21.7551 11.2912 22.4186 11.3201C22.8484 11.3388 23.2497 11.1225 23.5343 10.7998C23.9544 10.3235 24.485 9.94554 25.102 9.69964C25.3283 9.60298 25.7189 9.45832 26.6874 9.27775C27.2732 9.16854 28.6668 9.10857 29.6076 9.08721C30.5786 9.06517 31.6227 9.06601 32.4034 9.06663L32.7573 9.06682C34.0954 9.06682 35.4155 9.48959 35.939 9.8051C37.1167 10.4028 38.2065 11.5453 38.2847 13.5115C38.2879 13.5409 38.29 13.5706 38.2909 13.6004C38.3837 16.6248 36.5056 20.9504 31.7175 22.1358C31.381 22.2191 31.0502 22.2797 30.7184 22.3254C30.7023 22.3276 30.6861 22.3295 30.6699 22.331C25.8311 22.7845 22.6341 18.7004 22.4695 14.2523C22.4556 13.8765 22.1671 13.5583 21.791 13.552C21.5915 13.5487 21.3975 13.5484 21.21 13.5507C20.8324 13.5553 20.542 13.8744 20.5281 14.2518C20.3652 18.7 17.1652 22.7844 12.3274 22.331C12.3112 22.3295 12.295 22.3276 12.2789 22.3254C11.9471 22.2797 11.6163 22.2191 11.2798 22.1358C6.49169 20.9504 4.61361 16.6248 4.70639 13.6004C4.7073 13.5706 4.7094 13.5409 4.71264 13.5115C4.7908 11.5453 5.88064 10.4028 7.05838 9.8051C7.58186 9.48959 8.90196 9.06682 10.24 9.06682L10.5939 9.06663C11.3746 9.06601 12.4187 9.06517 13.3897 9.08721C14.3305 9.10857 15.7241 9.16854 16.3099 9.27775C17.2784 9.45832 17.6691 9.60298 17.8953 9.69964ZM6.30049 12.5106C6.58161 11.8259 7.10344 11.2664 7.80594 10.843C8.20095 10.6049 9.15513 10.1918 10.24 10.1918L10.5896 10.1916C12.1563 10.1904 14.7233 10.1883 15.6848 10.3676C16.6168 10.5414 16.9182 10.6679 17.0471 10.7236C17.5753 10.9314 18.0359 11.2737 18.3869 11.7082L18.7713 13.7495C18.863 13.7323 18.9759 13.7139 19.1077 13.6955C19.108 13.7141 19.1082 13.7327 19.1082 13.7514L19.108 13.7865C19.3101 18.5238 15.7024 21.379 12.3274 21.0626C12.0291 21.0215 11.7378 20.9679 11.4451 20.8955C7.88982 20.0153 6.39718 17.2143 6.11321 14.7354C6.06948 14.3537 6.05441 13.9796 6.06489 13.6213L6.06519 13.6113L6.06746 13.6113L6.06788 13.6004C6.08353 13.2082 6.16339 12.8445 6.30049 12.5106ZM23.8895 13.7027C23.8893 13.7189 23.8892 13.7351 23.8892 13.7514L23.8893 13.7865C23.6872 18.5238 27.2949 21.379 30.6699 21.0626C30.9683 21.0215 31.2595 20.9679 31.5522 20.8955C35.1075 20.0153 36.6001 17.2143 36.8841 14.7354C36.9278 14.3537 36.9429 13.9796 36.9324 13.6213L36.9321 13.6113L36.9299 13.6113L36.9294 13.6004C36.9138 13.2082 36.8339 12.8445 36.6968 12.5106C36.4157 11.8259 35.8939 11.2664 35.1914 10.843C34.7964 10.6049 33.8422 10.1918 32.7573 10.1918L32.4077 10.1916C30.841 10.1904 28.274 10.1883 27.3125 10.3676C26.3805 10.5414 26.0791 10.6679 25.9502 10.7236C25.4018 10.9394 24.9263 11.3001 24.5707 11.7584L24.2629 13.7559C24.1379 13.7366 24.0134 13.7189 23.8895 13.7027Z" fill="url(#paint10_radial_1876_2705)"/>
<path fill-rule="evenodd" clip-rule="evenodd" d="M17.8953 9.69964C18.5113 9.94512 19.0412 10.3223 19.4609 10.7974C19.7443 11.1182 20.143 11.3337 20.5707 11.3167C21.1309 11.2944 21.7551 11.2912 22.4186 11.3201C22.8484 11.3388 23.2497 11.1225 23.5343 10.7998C23.9544 10.3235 24.485 9.94554 25.102 9.69964C25.3283 9.60298 25.7189 9.45832 26.6874 9.27775C27.2732 9.16854 28.6668 9.10857 29.6076 9.08721C30.5786 9.06517 31.6227 9.06601 32.4034 9.06663L32.7573 9.06682C34.0954 9.06682 35.4155 9.48959 35.939 9.8051C37.1167 10.4028 38.2065 11.5453 38.2847 13.5115C38.2879 13.5409 38.29 13.5706 38.2909 13.6004C38.3837 16.6248 36.5056 20.9504 31.7175 22.1358C31.381 22.2191 31.0502 22.2797 30.7184 22.3254C30.7023 22.3276 30.6861 22.3295 30.6699 22.331C25.8311 22.7845 22.6341 18.7004 22.4695 14.2523C22.4556 13.8765 22.1671 13.5583 21.791 13.552C21.5915 13.5487 21.3975 13.5484 21.21 13.5507C20.8324 13.5553 20.542 13.8744 20.5281 14.2518C20.3652 18.7 17.1652 22.7844 12.3274 22.331C12.3112 22.3295 12.295 22.3276 12.2789 22.3254C11.9471 22.2797 11.6163 22.2191 11.2798 22.1358C6.49169 20.9504 4.61361 16.6248 4.70639 13.6004C4.7073 13.5706 4.7094 13.5409 4.71264 13.5115C4.7908 11.5453 5.88064 10.4028 7.05838 9.8051C7.58186 9.48959 8.90196 9.06682 10.24 9.06682L10.5939 9.06663C11.3746 9.06601 12.4187 9.06517 13.3897 9.08721C14.3305 9.10857 15.7241 9.16854 16.3099 9.27775C17.2784 9.45832 17.6691 9.60298 17.8953 9.69964ZM6.30049 12.5106C6.58161 11.8259 7.10344 11.2664 7.80594 10.843C8.20095 10.6049 9.15513 10.1918 10.24 10.1918L10.5896 10.1916C12.1563 10.1904 14.7233 10.1883 15.6848 10.3676C16.6168 10.5414 16.9182 10.6679 17.0471 10.7236C17.5753 10.9314 18.0359 11.2737 18.3869 11.7082L18.7713 13.7495C18.863 13.7323 18.9759 13.7139 19.1077 13.6955C19.108 13.7141 19.1082 13.7327 19.1082 13.7514L19.108 13.7865C19.3101 18.5238 15.7024 21.379 12.3274 21.0626C12.0291 21.0215 11.7378 20.9679 11.4451 20.8955C7.88982 20.0153 6.39718 17.2143 6.11321 14.7354C6.06948 14.3537 6.05441 13.9796 6.06489 13.6213L6.06519 13.6113L6.06746 13.6113L6.06788 13.6004C6.08353 13.2082 6.16339 12.8445 6.30049 12.5106ZM23.8895 13.7027C23.8893 13.7189 23.8892 13.7351 23.8892 13.7514L23.8893 13.7865C23.6872 18.5238 27.2949 21.379 30.6699 21.0626C30.9683 21.0215 31.2595 20.9679 31.5522 20.8955C35.1075 20.0153 36.6001 17.2143 36.8841 14.7354C36.9278 14.3537 36.9429 13.9796 36.9324 13.6213L36.9321 13.6113L36.9299 13.6113L36.9294 13.6004C36.9138 13.2082 36.8339 12.8445 36.6968 12.5106C36.4157 11.8259 35.8939 11.2664 35.1914 10.843C34.7964 10.6049 33.8422 10.1918 32.7573 10.1918L32.4077 10.1916C30.841 10.1904 28.274 10.1883 27.3125 10.3676C26.3805 10.5414 26.0791 10.6679 25.9502 10.7236C25.4018 10.9394 24.9263 11.3001 24.5707 11.7584L24.2629 13.7559C24.1379 13.7366 24.0134 13.7189 23.8895 13.7027Z" fill="url(#paint11_radial_1876_2705)"/>
<path d="M7.80675 10.843C8.20176 10.6049 9.15593 10.1918 10.2408 10.1918C10.3503 10.1918 10.4673 10.1917 10.5904 10.1916C12.1571 10.1904 14.7241 10.1883 15.6856 10.3676C16.6177 10.5414 16.919 10.6679 17.0479 10.7236C18.2551 11.1986 19.109 12.3756 19.109 13.7514L19.1088 13.7865C19.3109 18.5238 15.7032 21.379 12.3282 21.0626C12.0299 21.0215 11.7386 20.9679 11.446 20.8955C7.33773 19.8784 5.98362 16.2966 6.06601 13.6108L6.06826 13.6113C6.11251 12.4097 6.75847 11.4748 7.80675 10.843Z" fill="url(#paint12_radial_1876_2705)"/>
<path d="M7.80675 10.843C8.20176 10.6049 9.15593 10.1918 10.2408 10.1918C10.3503 10.1918 10.4673 10.1917 10.5904 10.1916C12.1571 10.1904 14.7241 10.1883 15.6856 10.3676C16.6177 10.5414 16.919 10.6679 17.0479 10.7236C18.2551 11.1986 19.109 12.3756 19.109 13.7514L19.1088 13.7865C19.3109 18.5238 15.7032 21.379 12.3282 21.0626C12.0299 21.0215 11.7386 20.9679 11.446 20.8955C7.33773 19.8784 5.98362 16.2966 6.06601 13.6108L6.06826 13.6113C6.11251 12.4097 6.75847 11.4748 7.80675 10.843Z" fill="url(#paint13_radial_1876_2705)"/>
<path d="M7.80675 10.843C8.20176 10.6049 9.15593 10.1918 10.2408 10.1918C10.3503 10.1918 10.4673 10.1917 10.5904 10.1916C12.1571 10.1904 14.7241 10.1883 15.6856 10.3676C16.6177 10.5414 16.919 10.6679 17.0479 10.7236C18.2551 11.1986 19.109 12.3756 19.109 13.7514L19.1088 13.7865C19.3109 18.5238 15.7032 21.379 12.3282 21.0626C12.0299 21.0215 11.7386 20.9679 11.446 20.8955C7.33773 19.8784 5.98362 16.2966 6.06601 13.6108L6.06826 13.6113C6.11251 12.4097 6.75847 11.4748 7.80675 10.843Z" fill="url(#paint14_radial_1876_2705)"/>
<path d="M7.80675 10.843C8.20176 10.6049 9.15593 10.1918 10.2408 10.1918C10.3503 10.1918 10.4673 10.1917 10.5904 10.1916C12.1571 10.1904 14.7241 10.1883 15.6856 10.3676C16.6177 10.5414 16.919 10.6679 17.0479 10.7236C18.2551 11.1986 19.109 12.3756 19.109 13.7514L19.1088 13.7865C19.3109 18.5238 15.7032 21.379 12.3282 21.0626C12.0299 21.0215 11.7386 20.9679 11.446 20.8955C7.33773 19.8784 5.98362 16.2966 6.06601 13.6108L6.06826 13.6113C6.11251 12.4097 6.75847 11.4748 7.80675 10.843Z" fill="url(#paint15_radial_1876_2705)"/>
<ellipse cx="16.0309" cy="13.6105" rx="1.68096" ry="2.11399" transform="rotate(-25.8832 16.0309 13.6105)" fill="url(#paint16_linear_1876_2705)"/>
<path d="M35.1913 10.843C34.7963 10.6049 33.8421 10.1918 32.7572 10.1918C32.6477 10.1918 32.5308 10.1917 32.4076 10.1916C30.8409 10.1904 28.2739 10.1883 27.3124 10.3676C26.3804 10.5414 26.079 10.6679 25.9501 10.7236C24.743 11.1986 23.8891 12.3756 23.8891 13.7514L23.8892 13.7865C23.6871 18.5238 27.2948 21.379 30.6698 21.0626C30.9682 21.0215 31.2595 20.9679 31.5521 20.8955C35.6603 19.8784 37.0144 16.2966 36.932 13.6108L36.9298 13.6113C36.8855 12.4097 36.2396 11.4748 35.1913 10.843Z" fill="url(#paint17_radial_1876_2705)"/>
<path d="M35.1913 10.843C34.7963 10.6049 33.8421 10.1918 32.7572 10.1918C32.6477 10.1918 32.5308 10.1917 32.4076 10.1916C30.8409 10.1904 28.2739 10.1883 27.3124 10.3676C26.3804 10.5414 26.079 10.6679 25.9501 10.7236C24.743 11.1986 23.8891 12.3756 23.8891 13.7514L23.8892 13.7865C23.6871 18.5238 27.2948 21.379 30.6698 21.0626C30.9682 21.0215 31.2595 20.9679 31.5521 20.8955C35.6603 19.8784 37.0144 16.2966 36.932 13.6108L36.9298 13.6113C36.8855 12.4097 36.2396 11.4748 35.1913 10.843Z" fill="url(#paint18_radial_1876_2705)"/>
<path d="M35.1913 10.843C34.7963 10.6049 33.8421 10.1918 32.7572 10.1918C32.6477 10.1918 32.5308 10.1917 32.4076 10.1916C30.8409 10.1904 28.2739 10.1883 27.3124 10.3676C26.3804 10.5414 26.079 10.6679 25.9501 10.7236C24.743 11.1986 23.8891 12.3756 23.8891 13.7514L23.8892 13.7865C23.6871 18.5238 27.2948 21.379 30.6698 21.0626C30.9682 21.0215 31.2595 20.9679 31.5521 20.8955C35.6603 19.8784 37.0144 16.2966 36.932 13.6108L36.9298 13.6113C36.8855 12.4097 36.2396 11.4748 35.1913 10.843Z" fill="url(#paint19_radial_1876_2705)"/>
<path d="M35.1913 10.843C34.7963 10.6049 33.8421 10.1918 32.7572 10.1918C32.6477 10.1918 32.5308 10.1917 32.4076 10.1916C30.8409 10.1904 28.2739 10.1883 27.3124 10.3676C26.3804 10.5414 26.079 10.6679 25.9501 10.7236C24.743 11.1986 23.8891 12.3756 23.8891 13.7514L23.8892 13.7865C23.6871 18.5238 27.2948 21.379 30.6698 21.0626C30.9682 21.0215 31.2595 20.9679 31.5521 20.8955C35.6603 19.8784 37.0144 16.2966 36.932 13.6108L36.9298 13.6113C36.8855 12.4097 36.2396 11.4748 35.1913 10.843Z" fill="url(#paint20_radial_1876_2705)"/>
<ellipse cx="34.068" cy="13.6105" rx="1.68096" ry="2.11399" transform="rotate(-25.8832 34.068 13.6105)" fill="url(#paint21_linear_1876_2705)"/>
<path d="M15.1992 23.125C15.1992 23.125 17.3701 26.725 21.0492 26.725C24.7283 26.725 26.7539 24.7 26.7539 24.7" stroke="url(#paint22_radial_1876_2705)" stroke-width="2.3" stroke-linecap="round" stroke-linejoin="round"/>
<path d="M16.1973 3.67676C16.1973 3.67676 17.6976 6.22804 19.0738 6.73376C20.45 7.23948 23.2453 6.26672 23.2453 6.26672C23.2453 6.26672 20.4738 7.68611 19.9681 9.06233C19.4624 10.4386 20.6554 13.3148 20.6554 13.3148C20.6554 13.3148 19.155 10.7635 17.7788 10.2578C16.4026 9.75207 13.6073 10.7248 13.6073 10.7248C13.6073 10.7248 16.1586 9.22451 16.6643 7.84828C17.17 6.47206 16.1973 3.67676 16.1973 3.67676Z" fill="url(#paint23_linear_1876_2705)"/>
<path d="M22.9766 6.88574C22.9766 6.88574 24.546 9.7245 26.039 10.3186C27.532 10.9127 30.6228 9.92838 30.6228 9.92838C30.6228 9.92838 27.5451 11.4027 26.951 12.8957C26.3569 14.3888 27.5801 17.5746 27.5801 17.5746C27.5801 17.5746 26.0107 14.7358 24.5177 14.1417C23.0247 13.5476 19.9339 14.532 19.9339 14.532C19.9339 14.532 22.7727 12.9625 23.3668 11.4695C23.9609 9.97649 22.9766 6.88574 22.9766 6.88574Z" fill="url(#paint24_linear_1876_2705)"/>
<defs>
<filter id="filter0_d_1876_2705" x="-2.25" y="-2.25" width="47.5" height="47.5" filterUnits="userSpaceOnUse" color-interpolation-filters="sRGB">
<feFlood flood-opacity="0" result="BackgroundImageFix"/>
<feColorMatrix in="SourceAlpha" type="matrix" values="0 0 0 0 0 0 0 0 0 0 0 0 0 0 0 0 0 0 127 0" result="hardAlpha"/>
<feOffset dy="2.875"/>
<feGaussianBlur stdDeviation="2.875"/>
<feComposite in2="hardAlpha" operator="out"/>
<feColorMatrix type="matrix" values="0 0 0 0 0 0 0 0 0 0 0 0 0 0 0 0 0 0 0.25 0"/>
<feBlend mode="normal" in2="BackgroundImageFix" result="effect1_dropShadow_1876_2705"/>
<feBlend mode="normal" in="SourceGraphic" in2="effect1_dropShadow_1876_2705" result="shape"/>
</filter>
<filter id="filter1_f_1876_2705" x="6.11219" y="8.81141" width="32.2034" height="16.0588" filterUnits="userSpaceOnUse" color-interpolation-filters="sRGB">
<feFlood flood-opacity="0" result="BackgroundImageFix"/>
<feBlend mode="normal" in="SourceGraphic" in2="BackgroundImageFix" result="shape"/>
<feGaussianBlur stdDeviation="0.69" result="effect1_foregroundBlur_1876_2705"/>
</filter>
<radialGradient id="paint0_radial_1876_2705" cx="0" cy="0" r="1" gradientUnits="userSpaceOnUse" gradientTransform="translate(32.1875 10.75) rotate(132.839) scale(42.1912)">
<stop stop-color="#FFF478"/>
<stop offset="0.474827" stop-color="#FFB02E"/>
<stop offset="1" stop-color="#F70A8D"/>
</radialGradient>
<radialGradient id="paint1_radial_1876_2705" cx="0" cy="0" r="1" gradientUnits="userSpaceOnUse" gradientTransform="translate(32.1875 10.75) rotate(131.878) scale(43.8173)">
<stop stop-color="#FFF478"/>
<stop offset="0.474827" stop-color="#FFB02E"/>
<stop offset="1" stop-color="#F70A8D"/>
</radialGradient>
<radialGradient id="paint2_radial_1876_2705" cx="0" cy="0" r="1" gradientUnits="userSpaceOnUse" gradientTransform="translate(21.5 14.6875) rotate(101.31) scale(20.0774 25.7153)">
<stop offset="0.787821" stop-color="#F59639" stop-opacity="0"/>
<stop offset="0.972509" stop-color="#FF7DCE"/>
</radialGradient>
<radialGradient id="paint3_radial_1876_2705" cx="0" cy="0" r="1" gradientUnits="userSpaceOnUse" gradientTransform="translate(23.75 16.375) rotate(135) scale(46.1387)">
<stop offset="0.314853" stop-opacity="0"/>
<stop offset="1"/>
</radialGradient>
<radialGradient id="paint4_radial_1876_2705" cx="0" cy="0" r="1" gradientUnits="userSpaceOnUse" gradientTransform="translate(21.5 19.75) rotate(77.692) scale(31.6653)">
<stop offset="0.507903" stop-color="#7D6133" stop-opacity="0"/>
<stop offset="1" stop-color="#715B32"/>
</radialGradient>
<radialGradient id="paint5_radial_1876_2705" cx="0" cy="0" r="1" gradientUnits="userSpaceOnUse" gradientTransform="translate(22.0625 19.1875) rotate(55.7131) scale(14.9777 10.8566)">
<stop stop-color="#FFB849"/>
<stop offset="1" stop-color="#FFB847" stop-opacity="0"/>
</radialGradient>
<radialGradient id="paint6_radial_1876_2705" cx="0" cy="0" r="1" gradientUnits="userSpaceOnUse" gradientTransform="translate(26.5625 20.875) rotate(9.86581) scale(13.1317)">
<stop stop-color="#FFA64B"/>
<stop offset="0.900412" stop-color="#FFAE46" stop-opacity="0"/>
</radialGradient>
<radialGradient id="paint7_radial_1876_2705" cx="0" cy="0" r="1" gradientUnits="userSpaceOnUse" gradientTransform="translate(23.1875 17.5) rotate(43.9708) scale(66.4346)">
<stop offset="0.185425" stop-opacity="0"/>
<stop offset="1" stop-opacity="0.4"/>
</radialGradient>
<linearGradient id="paint8_linear_1876_2705" x1="29.0225" y1="16.841" x2="13.2022" y2="22.8744" gradientUnits="userSpaceOnUse">
<stop stop-color="#E78F00"/>
<stop offset="1" stop-color="#D07000"/>
</linearGradient>
<radialGradient id="paint9_radial_1876_2705" cx="0" cy="0" r="1" gradientUnits="userSpaceOnUse" gradientTransform="translate(27.2641 9.79631) rotate(78.8614) scale(13.8308 28.6608)">
<stop stop-color="#5F5B9B"/>
<stop offset="1" stop-color="#5C3085"/>
</radialGradient>
<radialGradient id="paint10_radial_1876_2705" cx="0" cy="0" r="1" gradientUnits="userSpaceOnUse" gradientTransform="translate(30.3756 15.7151) rotate(78.0636) scale(6.20359 6.96914)">
<stop offset="0.776042" stop-color="#77579C"/>
<stop offset="0.9375" stop-color="#77579C" stop-opacity="0"/>
</radialGradient>
<radialGradient id="paint11_radial_1876_2705" cx="0" cy="0" r="1" gradientUnits="userSpaceOnUse" gradientTransform="translate(28.1079 14.5776) rotate(-122.735) scale(5.26605 3.86557)">
<stop offset="0.769354" stop-color="#4E3D92"/>
<stop offset="1" stop-color="#534687" stop-opacity="0"/>
</radialGradient>
<radialGradient id="paint12_radial_1876_2705" cx="0" cy="0" r="1" gradientUnits="userSpaceOnUse" gradientTransform="translate(15.5229 13.5229) rotate(121.845) scale(6.66311 7.56943)">
<stop stop-color="#4C3D70"/>
<stop offset="1" stop-color="#361C5D"/>
</radialGradient>
<radialGradient id="paint13_radial_1876_2705" cx="0" cy="0" r="1" gradientUnits="userSpaceOnUse" gradientTransform="translate(14.152 13.6987) rotate(87.1376) scale(8.44804 12.5448)">
<stop offset="0.647365" stop-color="#5B2B84" stop-opacity="0"/>
<stop offset="1" stop-color="#5B2B84"/>
</radialGradient>
<radialGradient id="paint14_radial_1876_2705" cx="0" cy="0" r="1" gradientUnits="userSpaceOnUse" gradientTransform="translate(12.2535 22.2065) rotate(-99.5134) scale(12.9753 12.8493)">
<stop offset="0.858612" stop-color="#2E1D57" stop-opacity="0"/>
<stop offset="1" stop-color="#20143D"/>
</radialGradient>
<radialGradient id="paint15_radial_1876_2705" cx="0" cy="0" r="1" gradientUnits="userSpaceOnUse" gradientTransform="translate(13.3434 12.8549) rotate(102.225) scale(8.63328 8.10249)">
<stop offset="0.872281" stop-color="#2E1D57" stop-opacity="0"/>
<stop offset="1" stop-color="#20143D" stop-opacity="0.6"/>
</radialGradient>
<linearGradient id="paint16_linear_1876_2705" x1="16.7664" y1="12.0946" x2="15.1987" y2="15.6519" gradientUnits="userSpaceOnUse">
<stop stop-color="white"/>
<stop offset="0.973958" stop-color="white" stop-opacity="0"/>
</linearGradient>
<radialGradient id="paint17_radial_1876_2705" cx="0" cy="0" r="1" gradientUnits="userSpaceOnUse" gradientTransform="translate(31.2369 13.0658) rotate(121.289) scale(7.44624 11.1849)">
<stop stop-color="#4C3D70"/>
<stop offset="1" stop-color="#361C5D"/>
</radialGradient>
<radialGradient id="paint18_radial_1876_2705" cx="0" cy="0" r="1" gradientUnits="userSpaceOnUse" gradientTransform="translate(28.8461 13.6987) rotate(92.8624) scale(8.44804 12.5448)">
<stop offset="0.647365" stop-color="#5B2B84" stop-opacity="0"/>
<stop offset="1" stop-color="#5B2B84"/>
</radialGradient>
<radialGradient id="paint19_radial_1876_2705" cx="0" cy="0" r="1" gradientUnits="userSpaceOnUse" gradientTransform="translate(30.4083 20.6948) rotate(-77.6023) scale(11.5546 11.4423)">
<stop offset="0.858612" stop-color="#2E1D57" stop-opacity="0"/>
<stop offset="1" stop-color="#20143D"/>
</radialGradient>
<radialGradient id="paint20_radial_1876_2705" cx="0" cy="0" r="1" gradientUnits="userSpaceOnUse" gradientTransform="translate(29.6547 12.8549) rotate(77.7749) scale(8.63328 8.10249)">
<stop offset="0.872281" stop-color="#2E1D57" stop-opacity="0"/>
<stop offset="1" stop-color="#20143D" stop-opacity="0.6"/>
</radialGradient>
<linearGradient id="paint21_linear_1876_2705" x1="34.8035" y1="12.0946" x2="33.2358" y2="15.6519" gradientUnits="userSpaceOnUse">
<stop stop-color="white"/>
<stop offset="0.973958" stop-color="white" stop-opacity="0"/>
</linearGradient>
<radialGradient id="paint22_radial_1876_2705" cx="0" cy="0" r="1" gradientUnits="userSpaceOnUse" gradientTransform="translate(21.498 23.3666) rotate(90) scale(12.3047 18.9769)">
<stop offset="0.145833" stop-color="#2E1529"/>
<stop offset="0.276042" stop-color="#503A4A"/>
<stop offset="0.342857" stop-color="#4B2744"/>
</radialGradient>
<linearGradient id="paint23_linear_1876_2705" x1="19.7213" y1="4.97174" x2="17.1313" y2="12.0198" gradientUnits="userSpaceOnUse">
<stop stop-color="#ECCDFF"/>
<stop offset="1" stop-color="white"/>
</linearGradient>
<linearGradient id="paint24_linear_1876_2705" x1="26.7997" y1="8.40706" x2="23.757" y2="16.0533" gradientUnits="userSpaceOnUse">
<stop stop-color="#ECCDFF"/>
<stop offset="1" stop-color="white"/>
</linearGradient>
</defs>
</svg>
