<svg width="40" height="40" viewBox="0 0 40 40" fill="none" xmlns="http://www.w3.org/2000/svg">
<path d="M30.3125 39.25H22.0625C21.8802 39.25 21.7053 39.1776 21.5764 39.0486C21.4474 38.9197 21.375 38.7448 21.375 38.5625V22.0625C21.375 21.8802 21.4474 21.7053 21.5764 21.5764C21.7053 21.4474 21.8802 21.375 22.0625 21.375H30.3125C30.4948 21.375 30.6697 21.4474 30.7986 21.5764C30.9276 21.7053 31 21.8802 31 22.0625V38.5625C31 38.7448 30.9276 38.9197 30.7986 39.0486C30.6697 39.1776 30.4948 39.25 30.3125 39.25ZM22.75 37.875H29.625V22.75H22.75V37.875Z" fill="black"/>
<path d="M37.875 39.25H30.3125C30.1302 39.25 29.9553 39.1776 29.8264 39.0486C29.6974 38.9197 29.625 38.7448 29.625 38.5625V24.125C29.625 23.9427 29.6974 23.7678 29.8264 23.6389C29.9553 23.5099 30.1302 23.4375 30.3125 23.4375H37.875C38.0573 23.4375 38.2322 23.5099 38.3611 23.6389C38.4901 23.7678 38.5625 23.9427 38.5625 24.125V38.5625C38.5625 38.7448 38.4901 38.9197 38.3611 39.0486C38.2322 39.1776 38.0573 39.25 37.875 39.25ZM31 37.875H37.1875V24.8125H31V37.875Z" fill="black"/>
<path d="M26.1875 28.25C25.7796 28.25 25.3808 28.129 25.0416 27.9024C24.7025 27.6758 24.4381 27.3537 24.282 26.9768C24.1259 26.5999 24.085 26.1852 24.1646 25.7851C24.2442 25.385 24.4406 25.0175 24.7291 24.7291C25.0175 24.4406 25.385 24.2442 25.7851 24.1646C26.1852 24.085 26.5999 24.1259 26.9768 24.282C27.3537 24.4381 27.6758 24.7025 27.9024 25.0416C28.129 25.3808 28.25 25.7796 28.25 26.1875C28.25 26.7345 28.0327 27.2591 27.6459 27.6459C27.2591 28.0327 26.7345 28.25 26.1875 28.25ZM26.1875 25.5C26.0515 25.5 25.9186 25.5403 25.8055 25.6159C25.6925 25.6914 25.6044 25.7988 25.5523 25.9244C25.5003 26.05 25.4867 26.1883 25.5132 26.3216C25.5397 26.455 25.6052 26.5775 25.7014 26.6736C25.7975 26.7698 25.92 26.8353 26.0534 26.8618C26.1867 26.8883 26.325 26.8747 26.4506 26.8227C26.5762 26.7706 26.6836 26.6825 26.7591 26.5695C26.8347 26.4564 26.875 26.3235 26.875 26.1875C26.875 26.0052 26.8026 25.8303 26.6736 25.7014C26.5447 25.5724 26.3698 25.5 26.1875 25.5Z" fill="black"/>
<path d="M28.25 39.25H24.125C23.9427 39.25 23.7678 39.1776 23.6389 39.0486C23.5099 38.9197 23.4375 38.7448 23.4375 38.5625V35.3244C23.4393 34.725 23.6782 34.1508 24.102 33.727C24.5258 33.3032 25.1 33.0643 25.6994 33.0625H26.6756C27.275 33.0643 27.8492 33.3032 28.273 33.727C28.6968 34.1508 28.9357 34.725 28.9375 35.3244V38.5625C28.9375 38.7448 28.8651 38.9197 28.7361 39.0486C28.6072 39.1776 28.4323 39.25 28.25 39.25ZM24.8125 37.875H27.5625V35.3244C27.5625 35.0892 27.4691 34.8636 27.3027 34.6973C27.1364 34.5309 26.9108 34.4375 26.6756 34.4375H25.6994C25.4642 34.4375 25.2386 34.5309 25.0723 34.6973C24.9059 34.8636 24.8125 35.0892 24.8125 35.3244V37.875Z" fill="black"/>
<path d="M35.125 36.5H33.0625C32.8802 36.5 32.7053 36.4276 32.5764 36.2986C32.4474 36.1697 32.375 35.9948 32.375 35.8125V32.375C32.375 32.1927 32.4474 32.0178 32.5764 31.8889C32.7053 31.7599 32.8802 31.6875 33.0625 31.6875H35.125C35.3073 31.6875 35.4822 31.7599 35.6111 31.8889C35.7401 32.0178 35.8125 32.1927 35.8125 32.375V35.8125C35.8125 35.9948 35.7401 36.1697 35.6111 36.2986C35.4822 36.4276 35.3073 36.5 35.125 36.5ZM33.75 35.125H34.4375V33.0625H33.75V35.125Z" fill="black"/>
<path d="M35.125 31H33.0625C32.8802 31 32.7053 30.9276 32.5764 30.7986C32.4474 30.6697 32.375 30.4948 32.375 30.3125V26.875C32.375 26.6927 32.4474 26.5178 32.5764 26.3889C32.7053 26.2599 32.8802 26.1875 33.0625 26.1875H35.125C35.3073 26.1875 35.4822 26.2599 35.6111 26.3889C35.7401 26.5178 35.8125 26.6927 35.8125 26.875V30.3125C35.8125 30.4948 35.7401 30.6697 35.6111 30.7986C35.4822 30.9276 35.3073 31 35.125 31ZM33.75 29.625H34.4375V27.5625H33.75V29.625Z" fill="black"/>
<path d="M26.1875 22.75C26.0052 22.75 25.8303 22.6776 25.7014 22.5486C25.5724 22.4197 25.5 22.2448 25.5 22.0625V17.9375C25.5 17.7552 25.5724 17.5803 25.7014 17.4514C25.8303 17.3224 26.0052 17.25 26.1875 17.25C26.3698 17.25 26.5447 17.3224 26.6736 17.4514C26.8026 17.5803 26.875 17.7552 26.875 17.9375V22.0625C26.875 22.2448 26.8026 22.4197 26.6736 22.5486C26.5447 22.6776 26.3698 22.75 26.1875 22.75Z" fill="black"/>
<path d="M29.625 20.6875H26.1875C26.0052 20.6875 25.8303 20.6151 25.7014 20.4861C25.5724 20.3572 25.5 20.1823 25.5 20V17.9375C25.5 17.7552 25.5724 17.5803 25.7014 17.4514C25.8303 17.3224 26.0052 17.25 26.1875 17.25H29.625C29.8073 17.25 29.9822 17.3224 30.1111 17.4514C30.2401 17.5803 30.3125 17.7552 30.3125 17.9375V20C30.3125 20.1823 30.2401 20.3572 30.1111 20.4861C29.9822 20.6151 29.8073 20.6875 29.625 20.6875ZM26.875 19.3125H28.9375V18.625H26.875V19.3125Z" fill="black"/>
<path d="M38.5625 24.8125H30.3125C30.1302 24.8125 29.9553 24.7401 29.8264 24.6111C29.6974 24.4822 29.625 24.3073 29.625 24.125C29.625 23.9427 29.6974 23.7678 29.8264 23.6389C29.9553 23.5099 30.1302 23.4375 30.3125 23.4375H38.5625C38.7448 23.4375 38.9197 23.5099 39.0486 23.6389C39.1776 23.7678 39.25 23.9427 39.25 24.125C39.25 24.3073 39.1776 24.4822 39.0486 24.6111C38.9197 24.7401 38.7448 24.8125 38.5625 24.8125Z" fill="black"/>
<path d="M22.0625 39.25H13.8125C13.6302 39.25 13.4553 39.1776 13.3264 39.0486C13.1974 38.9197 13.125 38.7448 13.125 38.5625V24.125C13.125 23.9427 13.1974 23.7678 13.3264 23.6389C13.4553 23.5099 13.6302 23.4375 13.8125 23.4375H22.0625C22.2448 23.4375 22.4197 23.5099 22.5486 23.6389C22.6776 23.7678 22.75 23.9427 22.75 24.125V38.5625C22.75 38.7448 22.6776 38.9197 22.5486 39.0486C22.4197 39.1776 22.2448 39.25 22.0625 39.25ZM14.5 37.875H21.375V24.8125H14.5V37.875Z" fill="black"/>
<path d="M19.3125 36.5H16.5625C16.3802 36.5 16.2053 36.4276 16.0764 36.2986C15.9474 36.1697 15.875 35.9948 15.875 35.8125V32.375C15.875 32.1927 15.9474 32.0178 16.0764 31.8889C16.2053 31.7599 16.3802 31.6875 16.5625 31.6875H19.3125C19.4948 31.6875 19.6697 31.7599 19.7986 31.8889C19.9276 32.0178 20 32.1927 20 32.375V35.8125C20 35.9948 19.9276 36.1697 19.7986 36.2986C19.6697 36.4276 19.4948 36.5 19.3125 36.5ZM17.25 35.125H18.625V33.0625H17.25V35.125Z" fill="black"/>
<path d="M19.3125 31H16.5625C16.3802 31 16.2053 30.9276 16.0764 30.7986C15.9474 30.6697 15.875 30.4948 15.875 30.3125V26.875C15.875 26.6927 15.9474 26.5178 16.0764 26.3889C16.2053 26.2599 16.3802 26.1875 16.5625 26.1875H19.3125C19.4948 26.1875 19.6697 26.2599 19.7986 26.3889C19.9276 26.5178 20 26.6927 20 26.875V30.3125C20 30.4948 19.9276 30.6697 19.7986 30.7986C19.6697 30.9276 19.4948 31 19.3125 31ZM17.25 29.625H18.625V27.5625H17.25V29.625Z" fill="black"/>
<path d="M22.0625 24.8125H13.125C12.9427 24.8125 12.7678 24.7401 12.6389 24.6111C12.5099 24.4822 12.4375 24.3073 12.4375 24.125C12.4375 23.9427 12.5099 23.7678 12.6389 23.6389C12.7678 23.5099 12.9427 23.4375 13.125 23.4375H22.0625C22.2448 23.4375 22.4197 23.5099 22.5486 23.6389C22.6776 23.7678 22.75 23.9427 22.75 24.125C22.75 24.3073 22.6776 24.4822 22.5486 24.6111C22.4197 24.7401 22.2448 24.8125 22.0625 24.8125Z" fill="black"/>
<path d="M11.0619 35.1257C10.8858 35.1269 10.716 35.0604 10.5875 34.9401C10.2681 34.631 10.0093 34.2649 9.82437 33.8607L1.13437 14.3839C0.76325 13.5523 0.737245 12.6075 1.06206 11.7568C1.38688 10.906 2.03598 10.219 2.86687 9.84636L16.7337 3.65886C16.8862 3.62613 17.0454 3.64624 17.1849 3.71587C17.3245 3.78551 17.4362 3.90053 17.5018 4.04206C17.5674 4.18359 17.5829 4.3432 17.5457 4.4947C17.5086 4.64619 17.4211 4.78056 17.2975 4.87573L3.43062 11.0632C3.17987 11.1733 2.95355 11.3322 2.76486 11.5307C2.57617 11.7291 2.42889 11.9632 2.33162 12.2192C2.23434 12.4751 2.18902 12.7479 2.19829 13.0216C2.20756 13.2953 2.27124 13.5644 2.38562 13.8132L11.0619 33.2832C11.1721 33.5264 11.3286 33.7459 11.5225 33.9295C11.6251 34.0227 11.6971 34.1448 11.729 34.2797C11.761 34.4145 11.7515 34.5559 11.7017 34.6853C11.6518 34.8146 11.5641 34.9259 11.4499 35.0045C11.3358 35.0831 11.2005 35.1254 11.0619 35.1257Z" fill="black"/>
<path d="M9.50791 13.5928C9.37373 13.5933 9.24235 13.5545 9.12996 13.4812C9.01757 13.4079 8.92908 13.3033 8.87541 13.1803C8.83879 13.0977 8.81881 13.0087 8.81661 12.9184C8.81441 12.8281 8.83004 12.7382 8.86261 12.6539C8.89517 12.5696 8.94403 12.4926 9.00639 12.4272C9.06875 12.3618 9.14339 12.3094 9.22604 12.2728L14.8704 9.74972C14.953 9.7127 15.0421 9.69232 15.1326 9.68973C15.2231 9.68715 15.3132 9.70241 15.3978 9.73465C15.4824 9.76689 15.5598 9.81547 15.6256 9.87763C15.6914 9.93979 15.7443 10.0143 15.7813 10.0969C15.8184 10.1795 15.8387 10.2686 15.8413 10.3591C15.8439 10.4496 15.8287 10.5397 15.7964 10.6243C15.7642 10.7089 15.7156 10.7863 15.6534 10.8521C15.5913 10.9179 15.5168 10.9708 15.4342 11.0078L9.78291 13.531C9.6965 13.5704 9.60287 13.5914 9.50791 13.5928Z" fill="black"/>
<path d="M9.30118 18.1994C9.14264 18.2035 8.98754 18.1527 8.86217 18.0556C8.73679 17.9585 8.64885 17.821 8.61325 17.6665C8.57765 17.5119 8.59657 17.3498 8.66682 17.2076C8.73706 17.0654 8.8543 16.9519 8.99868 16.8863L13.6599 14.8238C13.8236 14.7618 14.0047 14.7647 14.1664 14.8317C14.3281 14.8987 14.4581 15.0248 14.53 15.1844C14.6019 15.3439 14.6102 15.5249 14.5533 15.6904C14.4964 15.8559 14.3785 15.9934 14.2237 16.075L9.56243 18.1375C9.48026 18.1751 9.39148 18.1961 9.30118 18.1994Z" fill="black"/>
<path d="M10.9871 21.9601C10.8303 21.9594 10.6786 21.9052 10.5569 21.8064C10.4352 21.7076 10.3509 21.5702 10.318 21.4169C10.2852 21.2637 10.3056 21.1038 10.376 20.9638C10.4464 20.8237 10.5626 20.712 10.7052 20.647L12.2796 19.9595C12.4433 19.8976 12.6244 19.9004 12.7861 19.9674C12.9477 20.0344 13.0777 20.1606 13.1496 20.3201C13.2215 20.4797 13.2299 20.6606 13.1729 20.8261C13.116 20.9916 12.9982 21.1292 12.8433 21.2108L11.269 21.8983C11.1804 21.9386 11.0844 21.9597 10.9871 21.9601Z" fill="black"/>
<path d="M12.3412 22.0629C12.282 22.0729 12.2216 22.0729 12.1624 22.0629C11.9879 22.0146 11.8395 21.8995 11.7494 21.7424C11.6593 21.5854 11.6348 21.3992 11.6812 21.2241L16.5624 3.27353C16.681 2.83786 16.8844 2.42984 17.1607 2.07276C17.4371 1.71569 17.7811 1.41656 18.1731 1.19247C18.5651 0.96838 18.9974 0.823713 19.4453 0.766736C19.8933 0.709758 20.348 0.741586 20.7837 0.860402L36.713 5.21915C37.1461 5.33544 37.5516 5.53703 37.9058 5.8121C38.26 6.08717 38.5557 6.43018 38.7755 6.82103C39.0007 7.21295 39.1463 7.64544 39.2041 8.09373C39.2619 8.54201 39.2308 8.9973 39.1124 9.43353L35.8124 21.5541C35.7885 21.6413 35.7477 21.7229 35.6923 21.7943C35.6369 21.8656 35.5679 21.9254 35.4894 21.9701C35.4108 22.0148 35.3242 22.0436 35.2346 22.0548C35.1449 22.066 35.0539 22.0594 34.9668 22.0354C34.7923 21.9871 34.6439 21.872 34.5538 21.7149C34.4637 21.5579 34.4391 21.3717 34.4855 21.1966L37.8062 9.07603C37.8776 8.81447 37.8967 8.54139 37.8625 8.27243C37.8283 8.00346 37.7414 7.74387 37.6068 7.50853C37.4735 7.27235 37.294 7.06543 37.079 6.90007C36.864 6.73471 36.618 6.61431 36.3555 6.54603L20.4468 2.1804C19.9209 2.0438 19.3623 2.12027 18.8924 2.39318C18.4225 2.66609 18.0793 3.11339 17.9374 3.6379L13.008 21.5541C12.9686 21.7006 12.8818 21.83 12.7612 21.922C12.6405 22.014 12.4929 22.0636 12.3412 22.0629Z" fill="black"/>
<path d="M30.6278 9.93496C30.5661 9.94172 30.5039 9.94172 30.4422 9.93496L24.4747 8.31246C24.3875 8.28859 24.3059 8.24778 24.2345 8.19235C24.1632 8.13692 24.1034 8.06796 24.0587 7.98942C24.014 7.91088 23.9853 7.8243 23.9741 7.73463C23.9629 7.64496 23.9694 7.55396 23.9934 7.46684C24.0122 7.37826 24.0483 7.29426 24.0996 7.21967C24.1509 7.14508 24.2165 7.08136 24.2925 7.03217C24.3685 6.98298 24.4535 6.94929 24.5426 6.93304C24.6317 6.91679 24.7231 6.91829 24.8115 6.93746L30.779 8.57371C30.8693 8.58545 30.9564 8.61485 31.0353 8.66025C31.1143 8.70564 31.1835 8.76613 31.239 8.83827C31.2945 8.91041 31.3353 8.99278 31.359 9.08069C31.3828 9.16859 31.3889 9.2603 31.3772 9.35059C31.3654 9.44087 31.336 9.52796 31.2906 9.60688C31.2452 9.6858 31.1848 9.755 31.1126 9.81055C31.0405 9.86609 30.9581 9.90687 30.8702 9.93058C30.7823 9.95429 30.6906 9.96045 30.6003 9.94871L30.6278 9.93496Z" fill="black"/>
<path d="M31.5293 14.4588C31.4676 14.4656 31.4054 14.4656 31.3437 14.4588L21.375 11.7501C21.1926 11.699 21.038 11.5776 20.9452 11.4126C20.8524 11.2476 20.8289 11.0524 20.88 10.8701C20.931 10.6877 21.0524 10.5332 21.2174 10.4403C21.3825 10.3475 21.5776 10.324 21.76 10.3751L31.6875 13.1251C31.8698 13.1488 32.0352 13.2439 32.1474 13.3896C32.2596 13.5353 32.3093 13.7196 32.2856 13.902C32.2619 14.0843 32.1667 14.2497 32.021 14.3619C31.8753 14.4741 31.691 14.5238 31.5087 14.5001L31.5293 14.4588Z" fill="black"/>
<path d="M23.4377 16.5217C23.3785 16.5317 23.3181 16.5317 23.2589 16.5217L20.3095 15.7173C20.1309 15.6671 19.9794 15.5481 19.8885 15.3863C19.7976 15.2244 19.7747 15.0332 19.8249 14.8545C19.875 14.6758 19.9941 14.5243 20.1559 14.4334C20.3177 14.3425 20.509 14.3196 20.6877 14.3698L23.6164 15.1879C23.793 15.2303 23.9456 15.3409 24.0409 15.4955C24.1362 15.6501 24.1665 15.8361 24.1252 16.0129C24.0849 16.1629 23.995 16.2948 23.8702 16.3872C23.7453 16.4796 23.5929 16.527 23.4377 16.5217Z" fill="black"/>
<path d="M23.4366 20.8051C23.3775 20.8155 23.317 20.8155 23.2579 20.8051L19.2222 19.6982C19.1272 19.6828 19.0364 19.6476 18.9558 19.5949C18.8752 19.5422 18.8065 19.4732 18.7543 19.3922C18.7021 19.3113 18.6675 19.2203 18.6527 19.1252C18.6379 19.03 18.6433 18.9328 18.6684 18.8398C18.6936 18.7468 18.738 18.6602 18.7988 18.5855C18.8596 18.5108 18.9355 18.4497 19.0214 18.4062C19.1073 18.3627 19.2014 18.3377 19.2976 18.3329C19.3938 18.3281 19.4899 18.3435 19.5797 18.3782L23.6154 19.4851C23.7899 19.5334 23.9383 19.6485 24.0284 19.8055C24.1185 19.9626 24.143 20.1488 24.0966 20.3238C24.0525 20.4641 23.9646 20.5865 23.8458 20.6731C23.727 20.7597 23.5836 20.806 23.4366 20.8051Z" fill="black"/>
</svg>
