<svg width="42" height="40" viewBox="0 0 42 40" fill="none" xmlns="http://www.w3.org/2000/svg">
<path d="M25.5273 37.5H16.4755C15.9756 37.5 15.5703 37.0947 15.5703 36.5949V3.40515C15.5703 2.9053 15.9756 2.5 16.4755 2.5H25.5273C26.0272 2.5 26.4324 2.9053 26.4324 3.40515V36.5948C26.4324 37.0947 26.0271 37.5 25.5273 37.5Z" fill="#BDC3C7"/>
<path d="M24.0169 23.6213H17.9824C17.6491 23.6213 17.3789 23.3511 17.3789 23.0178V7.9316C17.3789 7.59835 17.6491 7.32812 17.9824 7.32812H24.0169C24.3502 7.32812 24.6204 7.59835 24.6204 7.9316V23.0178C24.6204 23.3511 24.3502 23.6213 24.0169 23.6213Z" fill="#EFF2FA"/>
<path d="M22.8121 12.7577H19.1914C18.8581 12.7577 18.5879 12.4875 18.5879 12.1543C18.5879 11.821 18.8581 11.5508 19.1914 11.5508H22.8121C23.1454 11.5508 23.4156 11.821 23.4156 12.1543C23.4156 12.4875 23.1454 12.7577 22.8121 12.7577Z" fill="#D7DEED"/>
<path d="M22.8121 15.1728H19.1914C18.8581 15.1728 18.5879 14.9025 18.5879 14.5693C18.5879 14.236 18.8581 13.9658 19.1914 13.9658H22.8121C23.1454 13.9658 23.4156 14.236 23.4156 14.5693C23.4156 14.9025 23.1454 15.1728 22.8121 15.1728Z" fill="#D7DEED"/>
<path d="M22.8121 17.5859H19.1914C18.8581 17.5859 18.5879 17.3156 18.5879 16.9824C18.5879 16.6491 18.8581 16.3789 19.1914 16.3789H22.8121C23.1454 16.3789 23.4156 16.6491 23.4156 16.9824C23.4155 17.3156 23.1454 17.5859 22.8121 17.5859Z" fill="#D7DEED"/>
<path d="M22.8121 22.414H19.1914C18.8581 22.414 18.5879 22.1438 18.5879 21.8105C18.5879 21.4773 18.8581 21.207 19.1914 21.207H22.8121C23.1454 21.207 23.4156 21.4773 23.4156 21.8105C23.4156 22.1438 23.1454 22.414 22.8121 22.414Z" fill="#D7DEED"/>
<path d="M24.6203 18.793H17.3789V19.9999H24.6203V18.793Z" fill="#C7CFE2"/>
<path d="M24.6204 9.74088H17.3789V7.32711C17.3789 6.99386 17.6491 6.72363 17.9824 6.72363H24.0169C24.3502 6.72363 24.6204 6.99386 24.6204 7.32711V9.74088Z" fill="#C7CFE2"/>
<path d="M20.9989 30.5602C21.8321 30.5602 22.5075 29.8848 22.5075 29.0516C22.5075 28.2184 21.8321 27.543 20.9989 27.543C20.1657 27.543 19.4902 28.2184 19.4902 29.0516C19.4902 29.8848 20.1657 30.5602 20.9989 30.5602Z" fill="#464655"/>
<path d="M21.0007 31.767C19.5032 31.767 18.2852 30.5489 18.2852 29.0514C18.2852 27.554 19.5032 26.3359 21.0007 26.3359C22.4982 26.3359 23.7162 27.554 23.7162 29.0514C23.7162 30.5489 22.4982 31.767 21.0007 31.767ZM21.0007 27.5428C20.1689 27.5428 19.4921 28.2196 19.4921 29.0514C19.4921 29.8832 20.1689 30.5601 21.0007 30.5601C21.8325 30.5601 22.5093 29.8832 22.5093 29.0514C22.5093 28.2196 21.8325 27.5428 21.0007 27.5428Z" fill="#EFF2FA"/>
<path d="M36.3866 37.5H27.3348C26.8349 37.5 26.4297 37.0947 26.4297 36.5949V3.40515C26.4296 2.9053 26.8349 2.5 27.3348 2.5H36.3866C36.8866 2.5 37.2918 2.9053 37.2918 3.40515V36.5948C37.2918 37.0947 36.8865 37.5 36.3866 37.5Z" fill="#4E5350"/>
<path d="M34.8802 23.6213H28.8457C28.5124 23.6213 28.2422 23.3511 28.2422 23.0178V7.9316C28.2422 7.59835 28.5124 7.32812 28.8457 7.32812H34.8802C35.2135 7.32812 35.4837 7.59835 35.4837 7.9316V23.0178C35.4837 23.3511 35.2135 23.6213 34.8802 23.6213Z" fill="#EFF2FA"/>
<path d="M33.6715 12.7577H30.0507C29.7175 12.7577 29.4473 12.4875 29.4473 12.1543C29.4473 11.821 29.7175 11.5508 30.0507 11.5508H33.6715C34.0048 11.5508 34.275 11.821 34.275 12.1543C34.275 12.4875 34.0048 12.7577 33.6715 12.7577Z" fill="#D7DEED"/>
<path d="M33.6715 15.1728H30.0507C29.7175 15.1728 29.4473 14.9025 29.4473 14.5693C29.4473 14.236 29.7175 13.9658 30.0507 13.9658H33.6715C34.0048 13.9658 34.275 14.236 34.275 14.5693C34.275 14.9025 34.0048 15.1728 33.6715 15.1728Z" fill="#D7DEED"/>
<path d="M33.6715 17.5859H30.0507C29.7175 17.5859 29.4473 17.3156 29.4473 16.9824C29.4473 16.6491 29.7175 16.3789 30.0507 16.3789H33.6715C34.0048 16.3789 34.275 16.6491 34.275 16.9824C34.275 17.3156 34.0048 17.5859 33.6715 17.5859Z" fill="#D7DEED"/>
<path d="M33.6715 22.414H30.0507C29.7175 22.414 29.4473 22.1438 29.4473 21.8105C29.4473 21.4773 29.7175 21.207 30.0507 21.207H33.6715C34.0048 21.207 34.275 21.4773 34.275 21.8105C34.275 22.1438 34.0048 22.414 33.6715 22.414Z" fill="#D7DEED"/>
<path d="M35.4836 18.793H28.2422V19.9999H35.4836V18.793Z" fill="#C7CFE2"/>
<path d="M35.4837 9.74088H28.2422V7.32711C28.2422 6.99386 28.5124 6.72363 28.8457 6.72363H34.8802C35.2135 6.72363 35.4837 6.99386 35.4837 7.32711V9.74088Z" fill="#C7CFE2"/>
<path d="M31.8622 30.5602C32.6953 30.5602 33.3708 29.8848 33.3708 29.0516C33.3708 28.2184 32.6953 27.543 31.8622 27.543C31.029 27.543 30.3535 28.2184 30.3535 29.0516C30.3535 29.8848 31.029 30.5602 31.8622 30.5602Z" fill="#464655"/>
<path d="M31.864 31.767C30.3665 31.767 29.1484 30.5489 29.1484 29.0514C29.1484 27.554 30.3665 26.3359 31.864 26.3359C33.3615 26.3359 34.5795 27.554 34.5795 29.0514C34.5795 30.5489 33.3613 31.767 31.864 31.767ZM31.864 27.5428C31.0322 27.5428 30.3553 28.2196 30.3553 29.0514C30.3553 29.8832 31.0322 30.5601 31.864 30.5601C32.6958 30.5601 33.3726 29.8832 33.3726 29.0514C33.3726 28.2196 32.6957 27.5428 31.864 27.5428Z" fill="#EFF2FA"/>
<path d="M14.6639 37.5H5.61218C5.11227 37.5 4.70703 37.0947 4.70703 36.5949V3.40515C4.70696 2.9053 5.11227 2.5 5.61218 2.5H14.6639C15.1638 2.5 15.5691 2.9053 15.5691 3.40515V36.5948C15.5691 37.0947 15.1638 37.5 14.6639 37.5Z" fill="#E0E0E0"/>
<path d="M13.1555 23.6213H7.12106C6.7878 23.6213 6.51758 23.3511 6.51758 23.0178V7.9316C6.51758 7.59835 6.7878 7.32812 7.12106 7.32812H13.1556C13.4889 7.32812 13.7591 7.59835 13.7591 7.9316V23.0178C13.759 23.3511 13.4888 23.6213 13.1555 23.6213Z" fill="#EFF2FA"/>
<path d="M11.9468 12.7577H8.32614C7.99288 12.7577 7.72266 12.4875 7.72266 12.1543C7.72266 11.821 7.99288 11.5508 8.32614 11.5508H11.9469C12.2801 11.5508 12.5504 11.821 12.5504 12.1543C12.5504 12.4875 12.2801 12.7577 11.9468 12.7577Z" fill="#D7DEED"/>
<path d="M11.9468 15.1728H8.32614C7.99288 15.1728 7.72266 14.9025 7.72266 14.5693C7.72266 14.236 7.99288 13.9658 8.32614 13.9658H11.9469C12.2801 13.9658 12.5504 14.236 12.5504 14.5693C12.5504 14.9025 12.2801 15.1728 11.9468 15.1728Z" fill="#D7DEED"/>
<path d="M11.9468 17.5859H8.32614C7.99288 17.5859 7.72266 17.3156 7.72266 16.9824C7.72266 16.6491 7.99288 16.3789 8.32614 16.3789H11.9469C12.2801 16.3789 12.5504 16.6491 12.5504 16.9824C12.5503 17.3156 12.2801 17.5859 11.9468 17.5859Z" fill="#D7DEED"/>
<path d="M11.9468 22.414H8.32614C7.99288 22.414 7.72266 22.1438 7.72266 21.8105C7.72266 21.4773 7.99288 21.207 8.32614 21.207H11.9469C12.2801 21.207 12.5504 21.4773 12.5504 21.8105C12.5504 22.1438 12.2801 22.414 11.9468 22.414Z" fill="#D7DEED"/>
<path d="M13.759 18.793H6.51758V19.9999H13.759V18.793Z" fill="#C7CFE2"/>
<path d="M13.7591 9.74088H6.51758V7.32711C6.51758 6.99386 6.7878 6.72363 7.12106 6.72363H13.1556C13.4889 6.72363 13.7591 6.99386 13.7591 7.32711V9.74088Z" fill="#C7CFE2"/>
<path d="M10.1395 30.5602C10.9727 30.5602 11.6481 29.8848 11.6481 29.0516C11.6481 28.2184 10.9727 27.543 10.1395 27.543C9.3063 27.543 8.63086 28.2184 8.63086 29.0516C8.63086 29.8848 9.3063 30.5602 10.1395 30.5602Z" fill="#464655"/>
<path d="M10.1374 31.767C8.63991 31.767 7.42188 30.5489 7.42188 29.0514C7.42188 27.554 8.63991 26.3359 10.1374 26.3359C11.6349 26.3359 12.8529 27.554 12.8529 29.0514C12.8529 30.5489 11.6349 31.767 10.1374 31.767ZM10.1374 27.5428C9.3056 27.5428 8.62877 28.2196 8.62877 29.0514C8.62877 29.8832 9.3056 30.5601 10.1374 30.5601C10.9692 30.5601 11.646 29.8832 11.646 29.0514C11.646 28.2196 10.9692 27.5428 10.1374 27.5428Z" fill="#EFF2FA"/>
</svg>
