<svg width="24" height="24" viewBox="0 0 24 24" fill="none" xmlns="http://www.w3.org/2000/svg">
<g clip-path="url(#clip0_1133_576)">
<path d="M20.4 0H3.6C1.61177 0 0 1.61177 0 3.6V20.4C0 22.3882 1.61177 24 3.6 24H20.4C22.3882 24 24 22.3882 24 20.4V3.6C24 1.61177 22.3882 0 20.4 0Z" fill="white"/>
<path d="M7.40625 18.3281V11.6719L3.5625 8.71875V16.9219C3.5625 17.8594 4.03125 18.3281 4.96875 18.3281" fill="#4285F4"/>
<path d="M7.21875 11.625L12 15.2344L16.7812 11.625V7.03125L12 10.6406L7.21875 7.03125" fill="#EA4335"/>
<path d="M16.5938 18.3281V11.6719L20.4375 8.71875V16.9219C20.4375 17.8594 19.9688 18.3281 19.0312 18.3281" fill="#34A853"/>
<path d="M3.5625 8.8127L7.40625 11.7658V7.17208L6 6.09395C4.73438 5.10958 3.5625 6.09395 3.5625 7.3127" fill="#C5221F"/>
<path d="M20.4375 8.8127L16.5938 11.7658V7.17208L18 6.09395C19.2656 5.10958 20.4375 6.09395 20.4375 7.3127" fill="#FBBC04"/>
</g>
<defs>
<clipPath id="clip0_1133_576">
<rect width="24" height="24" fill="white"/>
</clipPath>
</defs>
</svg>
