<svg width="43" height="43" viewBox="0 0 43 43" fill="none" xmlns="http://www.w3.org/2000/svg">
<g filter="url(#filter0_d_1876_2730)">
<path d="M21.4987 34.3725C32 34.3725 37.2475 27.3215 37.2475 18.6237C37.2475 9.92595 32 2.875 21.4987 2.875C10.9975 2.875 5.75 9.92595 5.75 18.6237C5.75 27.3215 10.9975 34.3725 21.4987 34.3725Z" fill="url(#paint0_radial_1876_2730)"/>
<path d="M21.4987 34.3725C32 34.3725 37.2475 27.3215 37.2475 18.6237C37.2475 9.92595 32 2.875 21.4987 2.875C10.9975 2.875 5.75 9.92595 5.75 18.6237C5.75 27.3215 10.9975 34.3725 21.4987 34.3725Z" fill="url(#paint1_radial_1876_2730)"/>
<path d="M21.4987 34.3725C32 34.3725 37.2475 27.3215 37.2475 18.6237C37.2475 9.92595 32 2.875 21.4987 2.875C10.9975 2.875 5.75 9.92595 5.75 18.6237C5.75 27.3215 10.9975 34.3725 21.4987 34.3725Z" fill="url(#paint2_radial_1876_2730)"/>
<path d="M21.4987 34.3725C32 34.3725 37.2475 27.3215 37.2475 18.6237C37.2475 9.92595 32 2.875 21.4987 2.875C10.9975 2.875 5.75 9.92595 5.75 18.6237C5.75 27.3215 10.9975 34.3725 21.4987 34.3725Z" fill="url(#paint3_radial_1876_2730)" fill-opacity="0.6"/>
<path d="M21.4987 34.3725C32 34.3725 37.2475 27.3215 37.2475 18.6237C37.2475 9.92595 32 2.875 21.4987 2.875C10.9975 2.875 5.75 9.92595 5.75 18.6237C5.75 27.3215 10.9975 34.3725 21.4987 34.3725Z" fill="url(#paint4_radial_1876_2730)"/>
<path d="M21.4987 34.3725C32 34.3725 37.2475 27.3215 37.2475 18.6237C37.2475 9.92595 32 2.875 21.4987 2.875C10.9975 2.875 5.75 9.92595 5.75 18.6237C5.75 27.3215 10.9975 34.3725 21.4987 34.3725Z" fill="url(#paint5_radial_1876_2730)"/>
<path d="M21.4987 34.3725C32 34.3725 37.2475 27.3215 37.2475 18.6237C37.2475 9.92595 32 2.875 21.4987 2.875C10.9975 2.875 5.75 9.92595 5.75 18.6237C5.75 27.3215 10.9975 34.3725 21.4987 34.3725Z" fill="url(#paint6_radial_1876_2730)"/>
<path d="M21.4987 34.3725C32 34.3725 37.2475 27.3215 37.2475 18.6237C37.2475 9.92595 32 2.875 21.4987 2.875C10.9975 2.875 5.75 9.92595 5.75 18.6237C5.75 27.3215 10.9975 34.3725 21.4987 34.3725Z" fill="url(#paint7_radial_1876_2730)"/>
</g>
<ellipse cx="12.5" cy="14.6875" rx="5.625" ry="5.0625" fill="url(#paint8_radial_1876_2730)"/>
<path d="M20.375 12.4375C20.375 14.0394 19.631 15.4675 18.4697 16.3951C17.5662 16.092 16.4114 15.8125 15.3125 15.8125C14.2136 15.8125 13.0588 16.092 12.1553 16.3951C10.994 15.4675 10.25 14.0394 10.25 12.4375C10.25 9.64156 12.5166 7.375 15.3125 7.375C18.1084 7.375 20.375 9.64156 20.375 12.4375Z" fill="white"/>
<path d="M15.875 15.25C17.739 15.25 19.25 13.739 19.25 11.875C19.25 10.011 17.739 8.5 15.875 8.5C14.011 8.5 12.5 10.011 12.5 11.875C12.5 13.739 14.011 15.25 15.875 15.25Z" fill="url(#paint9_linear_1876_2730)"/>
<circle cx="24.875" cy="14.125" r="4.5" fill="url(#paint10_radial_1876_2730)"/>
<path d="M32.75 12.4375C32.75 14.0394 32.006 15.4675 30.8447 16.3951C29.9412 16.092 28.7864 15.8125 27.6875 15.8125C26.5886 15.8125 25.4338 16.092 24.5303 16.3951C23.369 15.4675 22.625 14.0394 22.625 12.4375C22.625 9.64156 24.8916 7.375 27.6875 7.375C30.4834 7.375 32.75 9.64156 32.75 12.4375Z" fill="white"/>
<path d="M27.125 15.25C28.989 15.25 30.5 13.739 30.5 11.875C30.5 10.011 28.989 8.5 27.125 8.5C25.261 8.5 23.75 10.011 23.75 11.875C23.75 13.739 25.261 15.25 27.125 15.25Z" fill="url(#paint11_linear_1876_2730)"/>
<path d="M21.5001 28.7989C11.3262 28.7989 11.3262 18.625 11.3262 18.625H21.5001H31.674C31.674 18.625 31.4783 28.7989 21.5001 28.7989Z" fill="url(#paint12_radial_1876_2730)"/>
<path d="M12.8906 19.1902V18.625H30.108V19.1902C30.108 19.7425 29.6603 20.1902 29.108 20.1902H13.8906C13.3383 20.1902 12.8906 19.7425 12.8906 19.1902Z" fill="url(#paint13_linear_1876_2730)"/>
<defs>
<filter id="filter0_d_1876_2730" x="-2.25" y="-2.25" width="47.5" height="47.5" filterUnits="userSpaceOnUse" color-interpolation-filters="sRGB">
<feFlood flood-opacity="0" result="BackgroundImageFix"/>
<feColorMatrix in="SourceAlpha" type="matrix" values="0 0 0 0 0 0 0 0 0 0 0 0 0 0 0 0 0 0 127 0" result="hardAlpha"/>
<feOffset dy="2.875"/>
<feGaussianBlur stdDeviation="2.875"/>
<feComposite in2="hardAlpha" operator="out"/>
<feColorMatrix type="matrix" values="0 0 0 0 0 0 0 0 0 0 0 0 0 0 0 0 0 0 0.25 0"/>
<feBlend mode="normal" in2="BackgroundImageFix" result="effect1_dropShadow_1876_2730"/>
<feBlend mode="normal" in="SourceGraphic" in2="effect1_dropShadow_1876_2730" result="shape"/>
</filter>
<radialGradient id="paint0_radial_1876_2730" cx="0" cy="0" r="1" gradientUnits="userSpaceOnUse" gradientTransform="translate(32.1875 10.75) rotate(132.839) scale(42.1912)">
<stop stop-color="#FFF478"/>
<stop offset="0.474827" stop-color="#FFB02E"/>
<stop offset="1" stop-color="#F70A8D"/>
</radialGradient>
<radialGradient id="paint1_radial_1876_2730" cx="0" cy="0" r="1" gradientUnits="userSpaceOnUse" gradientTransform="translate(32.1875 10.75) rotate(131.878) scale(43.8173)">
<stop stop-color="#FFF478"/>
<stop offset="0.474827" stop-color="#FFB02E"/>
<stop offset="1" stop-color="#F70A8D"/>
</radialGradient>
<radialGradient id="paint2_radial_1876_2730" cx="0" cy="0" r="1" gradientUnits="userSpaceOnUse" gradientTransform="translate(21.5 14.6875) rotate(101.31) scale(20.0774 25.7153)">
<stop offset="0.787821" stop-color="#F59639" stop-opacity="0"/>
<stop offset="0.972509" stop-color="#FF7DCE"/>
</radialGradient>
<radialGradient id="paint3_radial_1876_2730" cx="0" cy="0" r="1" gradientUnits="userSpaceOnUse" gradientTransform="translate(23.75 16.375) rotate(135) scale(46.1387)">
<stop offset="0.314853" stop-opacity="0"/>
<stop offset="1"/>
</radialGradient>
<radialGradient id="paint4_radial_1876_2730" cx="0" cy="0" r="1" gradientUnits="userSpaceOnUse" gradientTransform="translate(21.5 19.75) rotate(77.692) scale(31.6653)">
<stop offset="0.507903" stop-color="#7D6133" stop-opacity="0"/>
<stop offset="1" stop-color="#715B32"/>
</radialGradient>
<radialGradient id="paint5_radial_1876_2730" cx="0" cy="0" r="1" gradientUnits="userSpaceOnUse" gradientTransform="translate(22.0625 19.1875) rotate(55.7131) scale(14.9777 10.8566)">
<stop stop-color="#FFB849"/>
<stop offset="1" stop-color="#FFB847" stop-opacity="0"/>
</radialGradient>
<radialGradient id="paint6_radial_1876_2730" cx="0" cy="0" r="1" gradientUnits="userSpaceOnUse" gradientTransform="translate(26.5625 20.875) rotate(9.86581) scale(13.1317)">
<stop stop-color="#FFA64B"/>
<stop offset="0.900412" stop-color="#FFAE46" stop-opacity="0"/>
</radialGradient>
<radialGradient id="paint7_radial_1876_2730" cx="0" cy="0" r="1" gradientUnits="userSpaceOnUse" gradientTransform="translate(23.1875 17.5) rotate(43.9708) scale(66.4346)">
<stop offset="0.185425" stop-opacity="0"/>
<stop offset="1" stop-opacity="0.4"/>
</radialGradient>
<radialGradient id="paint8_radial_1876_2730" cx="0" cy="0" r="1" gradientTransform="matrix(-7.75 6.975 -4.01114 -3.61003 16.875 10.75)" gradientUnits="userSpaceOnUse">
<stop stop-color="#392108"/>
<stop offset="1" stop-color="#C87928" stop-opacity="0"/>
</radialGradient>
<linearGradient id="paint9_linear_1876_2730" x1="28.4231" y1="8.5" x2="27.125" y2="15.25" gradientUnits="userSpaceOnUse">
<stop stop-color="#553B3E"/>
<stop offset="1" stop-color="#3D2432"/>
</linearGradient>
<radialGradient id="paint10_radial_1876_2730" cx="0" cy="0" r="1" gradientUnits="userSpaceOnUse" gradientTransform="translate(28.375 10.625) rotate(135) scale(8.13173 4.59049)">
<stop stop-color="#392108"/>
<stop offset="1" stop-color="#C87928" stop-opacity="0"/>
</radialGradient>
<linearGradient id="paint11_linear_1876_2730" x1="28.4231" y1="8.5" x2="27.125" y2="15.25" gradientUnits="userSpaceOnUse">
<stop stop-color="#553B3E"/>
<stop offset="1" stop-color="#3D2432"/>
</linearGradient>
<radialGradient id="paint12_radial_1876_2730" cx="0" cy="0" r="1" gradientUnits="userSpaceOnUse" gradientTransform="translate(21.5001 33.3478) rotate(-90) scale(12.375 24.75)">
<stop stop-color="#F70A8D"/>
<stop offset="1" stop-color="#89029C"/>
</radialGradient>
<linearGradient id="paint13_linear_1876_2730" x1="21.4993" y1="18.625" x2="21.4993" y2="20.1902" gradientUnits="userSpaceOnUse">
<stop stop-color="#ECCDFF"/>
<stop offset="1" stop-color="white"/>
</linearGradient>
</defs>
</svg>
