<svg width="48" height="48" viewBox="0 0 48 48" fill="none" xmlns="http://www.w3.org/2000/svg">
<path d="M37.0607 13.0607C37.6464 12.4749 37.6464 11.5251 37.0607 10.9393C36.4749 10.3536 35.5251 10.3536 34.9393 10.9393L15 30.8787L5.56066 21.4393C4.97487 20.8536 4.02513 20.8536 3.43934 21.4393C2.85355 22.0251 2.85355 22.9749 3.43934 23.5607L13.9393 34.0607C14.2206 34.342 14.6022 34.5 15 34.5C15.3978 34.5 15.7794 34.342 16.0607 34.0607L37.0607 13.0607Z" fill="#3D8C40"/>
<path d="M24.4393 34.0607L21.75 31.3713L23.8713 29.25L25.5 30.8787L45.4393 10.9393C46.0251 10.3536 46.9749 10.3536 47.5607 10.9393C48.1464 11.5251 48.1464 12.4749 47.5607 13.0607L26.5607 34.0607C26.2794 34.342 25.8978 34.5 25.5 34.5C25.1022 34.5 24.7206 34.342 24.4393 34.0607Z" fill="#3D8C40"/>
<path d="M16.0607 21.4393L18.75 24.1287L16.6287 26.25L13.9393 23.5607C13.3536 22.9749 13.3536 22.0251 13.9393 21.4393C14.5251 20.8536 15.4749 20.8536 16.0607 21.4393Z" fill="#3D8C40"/>
</svg>
