<svg width="69" height="68" viewBox="0 0 69 68" fill="none" xmlns="http://www.w3.org/2000/svg">
<path d="M17.0581 37.2173C14.6298 34.9195 4.92002 34.1742 2.00172 33.9985C1.6305 33.9985 1.231 34.1175 0.947713 34.381C0.661501 34.6473 0.5 35.0242 0.5 35.4153V60.9153C0.5 61.6974 1.13471 62.3321 1.91672 62.3321H10.4167C11.0288 62.3321 11.5728 61.9383 11.7655 61.3546C11.9723 60.7199 16.8542 45.7372 17.4945 38.3705C17.5341 37.9398 17.3698 37.5175 17.0581 37.2173Z" fill="#61A2F9"/>
<path d="M27.1732 14.5108L36.5063 21.2938L32.942 32.2646C32.7522 32.8483 32.959 33.4886 33.4577 33.8484C33.9564 34.2082 34.625 34.2082 35.1237 33.8484L44.4539 27.0681L53.7842 33.8484C54.0335 34.0269 54.3254 34.1204 54.6172 34.1204C54.909 34.1204 55.2009 34.0297 55.4502 33.8484C55.946 33.4886 56.1557 32.8482 55.9659 32.2646L52.4016 21.2938L61.7318 14.5136C62.2276 14.1538 62.4373 13.5134 62.2476 12.9298C62.0578 12.3462 61.5138 11.9495 60.8988 11.9495H49.3643L45.7996 0.978742C45.4199 -0.188552 43.4848 -0.188552 43.1051 0.978742L39.5408 11.9495H28.0062C27.3914 11.9495 26.8474 12.3462 26.6575 12.9298C26.4677 13.5135 26.6745 14.151 27.1732 14.5108Z" fill="#F9CA54"/>
<path d="M68.3498 54.614C66.4203 50.7577 61.9465 48.6952 57.7616 49.7434L51.3554 51.3442C51.4517 51.993 51.4999 52.673 51.4999 53.3815V53.832C51.4999 55.7842 50.1739 57.4813 48.2783 57.9545L44.4646 58.9065C43.4616 59.1587 42.4218 59.2862 41.3734 59.2862C40.5262 59.2862 39.6847 59.204 38.8744 59.0397L26.5806 56.5804C25.8128 56.4274 25.314 55.6822 25.467 54.9144C25.6228 54.1437 26.3823 53.6536 27.1331 53.8037L39.4298 56.263C40.8408 56.5463 42.3736 56.5095 43.7733 56.161C43.7733 56.161 46.635 55.447 47.5898 55.209C48.2246 55.0475 48.6666 54.4808 48.6666 53.832C48.6666 53.7215 48.6666 53.3843 48.6666 53.3843C48.6666 52.8658 48.6326 52.3812 48.5731 51.9165C48.5561 51.7833 48.5248 51.6643 48.5023 51.534C48.4456 51.2053 48.3833 50.8823 48.2926 50.5792C48.2528 50.446 48.2048 50.3242 48.1593 50.1967C48.0601 49.9162 47.9496 49.6414 47.8166 49.3835C47.7571 49.2702 47.6918 49.1597 47.6268 49.0492C47.4795 48.797 47.3151 48.5562 47.131 48.3267C47.0573 48.2332 46.9808 48.1397 46.8987 48.0519C46.6947 47.8224 46.468 47.6072 46.2244 47.4032C46.1394 47.3324 46.0572 47.2587 45.9666 47.1879C45.6946 46.9811 45.3943 46.7884 45.0798 46.6071C44.9948 46.5589 44.9155 46.5023 44.8248 46.4569C44.4593 46.2614 44.0626 46.0886 43.6405 45.9241C43.5782 45.9014 43.5243 45.8731 43.462 45.8476C42.9633 45.6634 42.4278 45.4991 41.8527 45.3546L21.5461 40.8411C21.1664 40.7589 20.7754 40.8326 20.4524 41.0479C20.1294 41.2632 19.9112 41.6004 19.8432 41.9801C18.8232 47.7857 16.6104 55.3195 15.3835 59.2947C15.1568 60.0314 15.5592 60.8134 16.2873 61.057L32.5761 66.4885C34.7578 67.313 36.4521 67.8967 38.4524 67.8967C38.4524 67.8967 38.4524 67.8967 38.4552 67.8967C41.3622 67.8967 44.6545 66.6642 52.0808 63.6212L67.6641 56.5379C68.0126 56.3792 68.2846 56.0846 68.4149 55.7219C68.5483 55.3592 68.5228 54.9597 68.3498 54.614Z" fill="#FFDDCE"/>
</svg>
