<svg width="80" height="75" viewBox="0 0 80 75" fill="none" xmlns="http://www.w3.org/2000/svg">
<path d="M72.4516 1.41943C70.2742 2.24202 68.758 2.93556 68.6129 3.11298C68.4838 3.2904 68.3871 3.64524 68.3871 3.90331C68.3871 4.38718 68.5484 4.5646 70.0645 5.82266L70.5161 6.20976L63.9516 13.4517L57.3709 20.7098L56.5161 20.6614C55.4677 20.5969 54.629 20.8388 53.8548 21.4356L53.2742 21.9033L48.9516 20.5001C45.5322 19.3872 44.6129 19.0323 44.5161 18.7743C44.4355 18.5969 44.2903 18.1936 44.1774 17.9033C43.8709 17.0646 43.0806 16.2743 42.1774 15.8549C40.6613 15.1452 39.2258 15.4194 37.9677 16.6775C36.8387 17.8065 36.5967 18.742 36.9677 20.6291C37 20.8227 33.4516 24.3388 27.9193 29.5969L27.5322 29.9678L28.3709 30.9356L29.2258 31.9194L31.2096 30.0162C32.3064 28.9839 34.4677 26.9194 36 25.4356L38.8064 22.742L39.4516 22.9678C40.7742 23.4356 42.0484 23.1775 43.1774 22.1775L43.9032 21.5323L48.0484 22.9033L52.1774 24.2743L52.2903 24.9194C52.4516 25.9194 52.6935 26.3872 53.3871 27.1452C54.9193 28.8065 57.4032 28.7743 58.9193 27.0807C60.0322 25.8549 60.2903 24.242 59.6129 22.8872L59.3548 22.3549L60.6935 20.8872C61.4355 20.0807 64.1935 17.0162 66.8387 14.0969C69.5 11.1614 71.8548 8.5646 72.1129 8.30653L72.5484 7.83879L73.5806 8.64524C74.1451 9.08072 74.7258 9.48395 74.8709 9.54847C75.258 9.69363 76.0967 9.37105 76.3064 9.00008C76.5 8.62911 77.9032 1.70976 77.9032 1.11298C77.9032 0.50008 77.2903 -0.0160484 76.5967 8.01086e-05C76.2903 0.0162086 74.4193 0.645241 72.4516 1.41943ZM74.8387 3.5646C74.8387 3.75814 74.6935 4.40331 74.4355 5.59685C74.3548 5.93556 74.2903 5.91943 73.2903 5.11298L72.2419 4.27427L73.3387 3.83879C74.5967 3.33879 74.8387 3.2904 74.8387 3.5646ZM41.5322 18.4517C41.7903 18.6936 41.9355 19.0323 41.9355 19.3388C41.9355 19.6452 41.7903 19.9839 41.5322 20.2259C41.2903 20.4839 40.9516 20.6291 40.6451 20.6291C40.3387 20.6291 40 20.4839 39.758 20.2259C38.9516 19.4356 39.5161 18.0485 40.6451 18.0485C40.9516 18.0485 41.2903 18.1936 41.5322 18.4517ZM57.0161 23.613C57.2742 23.8549 57.4193 24.1936 57.4193 24.5001C57.4193 24.8065 57.2742 25.1452 57.0161 25.3872C56.7742 25.6452 56.4355 25.7904 56.129 25.7904C55.8225 25.7904 55.4838 25.6452 55.2419 25.3872C54.9838 25.1452 54.8387 24.8065 54.8387 24.5001C54.8387 24.1936 54.9838 23.8549 55.2419 23.613C55.4838 23.3549 55.8225 23.2098 56.129 23.2098C56.4355 23.2098 56.7742 23.3549 57.0161 23.613Z" fill="#002147"/>
<path d="M66.2096 18.4519L65.8064 18.839V41.2744V63.7099L66.2096 64.097L66.5967 64.5002H71.6128H76.629L77.0161 64.097L77.4193 63.7099V41.2744V18.839L77.0161 18.4519L76.629 18.0486H71.6128H66.5967L66.2096 18.4519ZM74.8387 41.2744V61.9196H71.6128H68.387V41.2744V20.6293H71.6128H74.8387V41.2744Z" fill="#002147"/>
<path d="M35.2418 30.0648L34.8386 30.4519V47.0809V63.7099L35.2418 64.097L35.6289 64.5002H40.6451H45.6612L46.0483 64.097L46.4515 63.7099V47.0809V30.4519L46.0483 30.0648L45.6612 29.6615H40.6451H35.6289L35.2418 30.0648ZM43.8709 47.0809V61.9196H40.6451H37.4193V47.0809V32.2422H40.6451H43.8709V47.0809Z" fill="#002147"/>
<path d="M50.7257 32.6454L50.3225 33.0325V48.3712V63.7099L50.7257 64.097L51.1128 64.5002H56.129H61.1451L61.5322 64.097L61.9354 63.7099V48.3712V33.0325L61.5322 32.6454L61.1451 32.2422H56.129H51.1128L50.7257 32.6454ZM59.3548 48.3712V61.9196H56.129H52.9032V48.3712V34.8228H56.129H59.3548V48.3712Z" fill="#002147"/>
<path d="M13.6128 36.5002C13.2257 36.8228 13.1612 37.0164 13.0967 37.968L13.0322 39.0486L12.3064 39.3551C11.9031 39.5164 11.5161 39.6615 11.4193 39.6615C11.3225 39.6615 10.887 39.339 10.4677 38.9357C9.27411 37.8067 9.16121 37.8551 6.74186 40.2744C4.3225 42.6938 4.27411 42.8067 5.40315 44.0002C5.80637 44.4196 6.12895 44.8551 6.12895 44.9519C6.12895 45.0486 5.98379 45.4357 5.8225 45.839L5.51605 46.5486L4.41928 46.6454C3.48379 46.7099 3.25799 46.7906 2.95153 47.1615C2.5967 47.5648 2.58057 47.7099 2.58057 50.3067C2.58057 52.9035 2.5967 53.0486 2.95153 53.4519C3.25799 53.8228 3.48379 53.9035 4.41928 53.968L5.51605 54.0648L5.8225 54.7744C5.98379 55.1777 6.12895 55.5648 6.12895 55.6615C6.12895 55.7583 5.80637 56.1938 5.40315 56.6131C4.27411 57.8067 4.3225 57.9196 6.74186 60.339C9.16121 62.7583 9.27411 62.8067 10.4677 61.6777C10.887 61.2744 11.3225 60.9519 11.4193 60.9519C11.5161 60.9519 11.9031 61.097 12.3064 61.2583L13.0161 61.5648L13.1128 62.6615C13.1773 63.597 13.258 63.8228 13.629 64.1293C14.0322 64.4841 14.1773 64.5002 16.7741 64.5002C19.3709 64.5002 19.5161 64.4841 19.9193 64.1293C20.2902 63.8228 20.3709 63.597 20.4354 62.6615L20.5322 61.5648L21.2419 61.2583C21.6451 61.097 22.0322 60.9519 22.129 60.9519C22.2257 60.9519 22.6612 61.2744 23.0806 61.6777C24.2741 62.7906 24.387 62.7422 26.7257 60.4196C29.1773 57.9841 29.2419 57.7906 28.1612 56.6293C27.758 56.1938 27.4193 55.7583 27.4193 55.6615C27.4193 55.5648 27.5644 55.1777 27.7257 54.7744L28.0322 54.0648L29.129 53.968C30.0644 53.9035 30.2902 53.8228 30.5967 53.4519C30.9515 53.0486 30.9677 52.9035 30.9677 50.3067C30.9677 47.7099 30.9515 47.5648 30.5967 47.1615C30.2902 46.7906 30.0644 46.7099 29.129 46.6454L28.0322 46.5486L27.7257 45.839C27.5644 45.4357 27.4193 45.0486 27.4193 44.9519C27.4193 44.8551 27.7419 44.4196 28.1451 44.0002C29.2741 42.8067 29.2257 42.6938 26.8064 40.2744C24.387 37.8551 24.2741 37.8067 23.0806 38.9357C22.6612 39.339 22.2257 39.6615 22.129 39.6615C22.0322 39.6615 21.6451 39.5164 21.2419 39.3551L20.5322 39.0486L20.4354 37.9519C20.3709 37.0164 20.2902 36.7906 19.9193 36.4841C19.5161 36.1293 19.3709 36.1131 16.7741 36.1131C14.1451 36.1131 14.0322 36.1293 13.6128 36.5002ZM17.9031 39.2906C17.9031 40.0002 18.3548 40.839 18.9031 41.1454C19.4515 41.4519 20.9677 42.0809 21.5967 42.2744C22.3225 42.4841 23.1128 42.3228 23.7257 41.8067L24.2257 41.3873L24.9515 42.1293L25.6935 42.8551L25.2741 43.3551C24.758 43.968 24.5967 44.7583 24.8064 45.4841C24.9999 46.1131 25.629 47.6293 25.9354 48.1777C26.2419 48.7261 27.0806 49.1777 27.7902 49.1777H28.387V50.3067V51.4357H27.7902C27.0806 51.4357 26.2419 51.8873 25.9354 52.4357C25.629 52.9841 24.9999 54.5002 24.8064 55.1293C24.5967 55.8551 24.758 56.6454 25.2741 57.2583L25.6935 57.7583L24.9515 58.4841L24.2257 59.2261L23.7257 58.8067C23.1128 58.2906 22.3225 58.1293 21.5967 58.339C20.9677 58.5325 19.4515 59.1615 18.9031 59.468C18.3548 59.7744 17.9031 60.6131 17.9031 61.3067V61.9196H16.7741H15.6451V61.3067C15.6451 60.6131 15.1935 59.7744 14.6451 59.468C14.0967 59.1615 12.5806 58.5325 11.9515 58.339C11.2257 58.1293 10.4354 58.2906 9.8225 58.8067L9.3225 59.2261L8.5967 58.4841L7.85476 57.7583L8.25799 57.2583C8.74186 56.6938 8.95153 55.7583 8.72573 55.0648C8.53218 54.468 7.88702 52.9357 7.61282 52.4357C7.30637 51.8873 6.46766 51.4357 5.77411 51.4357H5.16121V50.3067V49.1777H5.72573C6.45153 49.1777 7.14508 48.8228 7.53218 48.2583C7.91928 47.6938 8.87089 45.2744 8.87089 44.839C8.87089 44.3551 8.56444 43.6615 8.17734 43.2422L7.83863 42.8712L8.58057 42.1293L9.3225 41.3873L9.8225 41.8067C10.4354 42.3228 11.2257 42.4841 11.9515 42.2744C12.5806 42.0809 14.0967 41.4519 14.6451 41.1454C15.1935 40.839 15.6451 40.0002 15.6451 39.2906V38.6938H16.7741H17.9031V39.2906Z" fill="#002147"/>
<path d="M14.9999 43.4357C11.2902 44.4841 9.06443 48.0809 9.85475 51.7905C10.4515 54.597 12.758 56.7744 15.6128 57.2744C20.5806 58.1293 24.887 53.4841 23.6289 48.6454C23.2741 47.2905 22.6935 46.2422 21.758 45.3067C20.016 43.5647 17.2741 42.8067 14.9999 43.4357ZM18.2257 46.0486C19.4354 46.4035 20.6289 47.6293 21.0322 48.9196C22.4515 53.4357 16.9515 56.7744 13.5967 53.4357C11.8064 51.6454 11.8064 48.968 13.6289 47.1615C14.887 45.8873 16.4354 45.5164 18.2257 46.0486Z" fill="#002147"/>
<path d="M0 68.3713V69.6616H40H80V68.3713V67.081H40H0V68.3713Z" fill="#002147"/>
<path d="M0 73.5324V74.8228H2.58065H5.16129V73.5324V72.2421H2.58065H0V73.5324Z" fill="#002147"/>
<path d="M7.74194 73.5324V74.8228H9.03227H10.3226V73.5324V72.2421H9.03227H7.74194V73.5324Z" fill="#002147"/>
<path d="M12.9033 73.5324V74.8228H46.4517H80.0001V73.5324V72.2421H46.4517H12.9033V73.5324Z" fill="#002147"/>
</svg>
