<svg width="25" height="24" viewBox="0 0 25 24" fill="none" xmlns="http://www.w3.org/2000/svg">
<path d="M12.4113 0C9.15225 0 8.74324 0.0142504 7.46323 0.072501C6.18572 0.131002 5.31371 0.333254 4.5507 0.630007C3.76144 0.93651 3.09193 1.34651 2.42493 2.01377C1.75742 2.68078 1.34742 3.35028 1.03991 4.13929C0.742409 4.90255 0.539907 5.77481 0.482407 7.05182C0.425156 8.33184 0.410156 8.74109 0.410156 12.0001C0.410156 15.2592 0.424657 15.6669 0.482657 16.9469C0.541408 18.2244 0.74366 19.0964 1.04016 19.8595C1.34692 20.6487 1.75692 21.3182 2.42418 21.9852C3.09093 22.6527 3.76044 23.0637 4.5492 23.3702C5.31271 23.667 6.18497 23.8692 7.46223 23.9277C8.74224 23.986 9.151 24.0002 12.4098 24.0002C15.6691 24.0002 16.0768 23.986 17.3568 23.9277C18.6343 23.8692 19.5074 23.667 20.2709 23.3702C21.0599 23.0637 21.7284 22.6527 22.3951 21.9852C23.0626 21.3182 23.4726 20.6487 23.7801 19.8597C24.0752 19.0964 24.2777 18.2242 24.3377 16.9472C24.3952 15.6672 24.4102 15.2592 24.4102 12.0001C24.4102 8.74109 24.3952 8.33209 24.3377 7.05207C24.2777 5.77456 24.0752 4.90255 23.7801 4.13954C23.4726 3.35028 23.0626 2.68078 22.3951 2.01377C21.7276 1.34626 21.0601 0.93626 20.2701 0.630007C19.5051 0.333254 18.6326 0.131002 17.3551 0.072501C16.0751 0.0142504 15.6676 0 12.4075 0H12.4113ZM11.3348 2.16252C11.6543 2.16202 12.0108 2.16252 12.4113 2.16252C15.6153 2.16252 15.9951 2.17402 17.2603 2.23152C18.4303 2.28502 19.0653 2.48053 19.4884 2.64478C20.0484 2.86228 20.4476 3.12228 20.8674 3.54229C21.2874 3.96229 21.5474 4.3623 21.7654 4.9223C21.9296 5.34481 22.1254 5.97981 22.1786 7.14982C22.2361 8.41484 22.2486 8.79484 22.2486 11.9974C22.2486 15.1999 22.2361 15.5799 22.1786 16.8449C22.1251 18.0149 21.9296 18.6499 21.7654 19.0724C21.5479 19.6325 21.2874 20.0312 20.8674 20.451C20.4474 20.871 20.0486 21.131 19.4884 21.3485C19.0658 21.5135 18.4303 21.7085 17.2603 21.762C15.9953 21.8195 15.6153 21.832 12.4113 21.832C9.207 21.832 8.82724 21.8195 7.56223 21.762C6.39222 21.708 5.75721 21.5125 5.33396 21.3482C4.77395 21.1307 4.37395 20.8707 3.95394 20.4507C3.53394 20.0307 3.27394 19.6317 3.05593 19.0714C2.89168 18.6489 2.69593 18.0139 2.64268 16.8439C2.58518 15.5789 2.57368 15.1989 2.57368 11.9944C2.57368 8.78984 2.58518 8.41184 2.64268 7.14682C2.69618 5.97681 2.89168 5.3418 3.05593 4.9188C3.27344 4.3588 3.53394 3.95879 3.95394 3.53879C4.37395 3.11878 4.77395 2.85878 5.33396 2.64078C5.75696 2.47578 6.39222 2.28077 7.56223 2.22702C8.66924 2.17702 9.09825 2.16202 11.3348 2.15952V2.16252ZM18.8168 4.15504C18.0218 4.15504 17.3768 4.7993 17.3768 5.59456C17.3768 6.38957 18.0218 7.03457 18.8168 7.03457C19.6119 7.03457 20.2569 6.38957 20.2569 5.59456C20.2569 4.79955 19.6119 4.15454 18.8168 4.15454V4.15504ZM12.4113 5.83756C9.00799 5.83756 6.24872 8.59684 6.24872 12.0001C6.24872 15.4034 9.00799 18.1614 12.4113 18.1614C15.8146 18.1614 18.5728 15.4034 18.5728 12.0001C18.5728 8.59684 15.8143 5.83756 12.411 5.83756H12.4113ZM12.4113 8.00008C14.6203 8.00008 16.4113 9.79085 16.4113 12.0001C16.4113 14.2091 14.6203 16.0002 12.4113 16.0002C10.202 16.0002 8.41124 14.2091 8.41124 12.0001C8.41124 9.79085 10.202 8.00008 12.4113 8.00008Z" fill="white"/>
</svg>
