<svg width="59" height="52" viewBox="0 0 59 52" fill="none" xmlns="http://www.w3.org/2000/svg">
<path d="M17.0946 0.376171C21.6423 1.10199 25.5209 3.78978 27.8345 7.8158L28.3902 8.79112L33.9926 7.5096L39.6063 6.22808L48.8718 8.46223L58.1487 10.6964V31.1327C58.1487 47.4409 58.1147 51.5576 58.0126 51.5236C57.9332 51.4896 53.7598 50.4803 48.7357 49.2668L39.6063 47.0667L30.9872 49.04L22.3681 51.0133L13.0913 48.7791L3.82578 46.545V35.7258V24.9065L3.1113 23.9539C0.0606003 19.8825 -0.710583 14.677 1.02457 9.87985C1.92051 7.43021 3.79176 4.88985 5.92384 3.25676C9.04259 0.863831 13.2727 -0.224895 17.0946 0.376171ZM11.8551 3.07531C6.57027 4.4589 2.8618 9.02928 2.6123 14.4502C2.45353 17.8298 3.5536 20.9145 5.76507 23.2848C6.33212 23.8859 9.89316 27.0046 14.7357 31.1327C14.9058 31.2801 15.3822 30.9059 19.3968 27.4356C24.0126 23.4549 24.625 22.8538 25.6116 21.1867C27.5623 17.8979 27.7551 13.3728 26.0993 9.84583C24.9992 7.52094 23.094 5.46824 20.8598 4.2094C19.9525 3.69905 18.2174 3.07531 17.106 2.87117C15.7451 2.61033 13.2387 2.7124 11.8551 3.07531ZM34.3328 9.97057C31.5543 10.6057 29.2748 11.1273 29.2634 11.1387C29.2407 11.15 29.3088 11.5243 29.4108 11.9552C29.6944 13.2027 29.7511 16.0493 29.5243 17.3989C29.0366 20.2454 27.7778 22.8312 25.8158 25.0086C25.3508 25.5189 22.7084 27.8779 19.9412 30.2481L14.9172 34.569L14.5543 34.2741C14.3615 34.104 12.4449 32.4596 10.3014 30.611C8.16934 28.7624 6.36614 27.2314 6.30943 27.2201C6.25273 27.1974 6.21871 30.7131 6.23005 35.8845L6.26407 44.583L14.146 46.4883C18.4782 47.543 22.1527 48.3935 22.3114 48.4049C22.4589 48.4049 26.4282 47.5316 31.112 46.4656L39.629 44.515L47.4429 46.4089C51.7411 47.4522 55.3475 48.3255 55.4609 48.3595C55.6423 48.4162 55.6537 47.5316 55.631 30.5203L55.597 12.6243L47.7718 10.7304C43.4622 9.68705 39.8218 8.83648 39.663 8.83648C39.5042 8.82515 37.1113 9.33548 34.3328 9.97057Z" fill="#002147"/>
<path d="M15.8476 7.69109C16.8229 7.82718 17.424 8.01998 18.3426 8.4963C21.2799 10.016 22.8336 13.3162 22.1418 16.5937C21.5634 19.3382 19.1932 21.6971 16.4146 22.2755C13.931 22.7972 11.0731 21.8672 9.38328 19.9619C8.73684 19.2361 7.89762 17.603 7.68214 16.6617C7.478 15.7885 7.50069 14.1214 7.7275 13.2481C8.39662 10.6397 10.472 8.53032 13.0124 7.88389C13.8516 7.66841 15.0877 7.57769 15.8476 7.69109ZM13.1598 10.4243C11.935 10.8892 10.7669 12.0573 10.3132 13.2822C9.51937 15.4256 10.2905 17.8412 12.1731 19.0887C15.462 21.2775 19.8056 18.9413 19.8169 14.9946C19.8169 12.8852 18.2745 10.8325 16.3012 10.3222C16.0177 10.2541 15.6888 10.1748 15.5641 10.1407C15.1331 10.0387 13.7609 10.2088 13.1598 10.4243Z" fill="#002147"/>
<path d="M52.0021 24.8952L51.9681 26.12L48.872 26.1541L45.7873 26.1767V24.9292V23.6817H48.906H52.0361L52.0021 24.8952Z" fill="#002147"/>
<path d="M42.0449 24.9179V26.1767H41.5573C40.4685 26.1767 38.8014 26.7665 37.6447 27.5603C37.3725 27.7531 37.1343 27.8779 37.123 27.8552C37.1116 27.8439 36.7601 27.4129 36.3404 26.9026C35.7734 26.2108 35.6373 25.9726 35.7394 25.8819C37.4859 24.6004 39.2664 23.8972 41.1944 23.7271L42.0449 23.6477V24.9179Z" fill="#002147"/>
<path d="M32.9491 30.4069L33.7656 31.2234L31.781 33.2081L29.7963 35.1928L28.9457 34.3422L28.0952 33.4916L30.0458 31.541C31.1232 30.4636 32.0305 29.579 32.0645 29.579C32.0985 29.579 32.4954 29.9533 32.9491 30.4069Z" fill="#002147"/>
<path d="M25.4756 37.5857C25.8612 38.0507 26.2014 38.493 26.2241 38.5724C26.2808 38.7198 25.2261 39.4683 24.3529 39.8993C23.1961 40.4776 21.495 40.9199 20.4289 40.9199H19.8165V39.7405V38.5497L20.3495 38.4816C21.9713 38.2888 23.06 37.9146 24.1147 37.1888L24.7725 36.7465L25.4756 37.5857Z" fill="#002147"/>
<path d="M16.1875 39.7291V40.9199H13.0688H9.95001V39.7291V38.5383H13.0688H16.1875V39.7291Z" fill="#002147"/>
</svg>
