<svg width="90" height="120" viewBox="0 0 90 120" fill="none" xmlns="http://www.w3.org/2000/svg">
<path d="M84.9223 76.6967C89.8452 113.331 60.8583 120.788 45.7494 119.937C58.2367 118.616 66.9618 111.479 69.7635 108.076C83.9318 93.1821 79.7693 74.5447 75.9171 67.0877C71.4745 56.1575 65.8612 51.3229 63.6099 50.2719C48.7212 42.9451 31.6912 58.7299 25.0373 67.5381C17.3528 76.9069 18.7336 86.0554 20.3846 89.4586C27.4607 102.389 45.4338 88.6687 48.3009 84.6541C49.6969 82.6994 45.8995 81.8515 43.7983 81.6513C39.8733 81.2982 37.3591 79.7111 36.444 76.6967C35.2464 72.7518 40.4841 62.2096 47.8507 61.2322C53.4081 60.4949 50.9525 67.6382 49.0514 71.4418C47.4719 65.5162 42.5643 68.657 41.3969 71.4418C40.1962 74.8049 44.6988 74.4719 49.5016 75.0451C60.5456 76.3632 49.0059 93.0426 42.7477 97.4161C32.663 104.464 24.9143 102.718 21.135 99.2177C8.04736 85.8853 20.9349 65.0858 29.2398 56.5778C63.4598 23.1866 80.6198 56.0774 84.9223 76.6967Z" fill="#4682B4"/>
<path d="M62.1957 70.1305C70.4149 64.8562 74.3532 76.9056 74.0903 83.9824C73.0063 97.1116 60.2886 107.521 54.0653 111.084C34.4317 122.527 26.2109 111.435 24.5547 104.459C42.9984 117.539 63.6573 97.9452 69.5406 87.1562L63.852 88.8005C58.9342 89.9723 56.4872 86.4992 56.0226 84.7353C54.2095 79.0878 58.237 72.6755 62.1957 70.1305Z" fill="#002147" stroke="#002147"/>
<path d="M63.0993 81.1215C65.3469 81.2046 67.8633 81.6714 68.8207 81.8743C68.9412 81.0312 68.0177 79.5155 67.6162 78.863C65.9299 76.2131 63.5008 76.8555 62.497 77.508C58.763 80.0374 61.3929 80.9709 63.0993 81.1215Z" fill="#002147"/>
<path d="M63.0993 81.1215C65.3469 81.2046 67.8633 81.6714 68.8207 81.8743C68.9412 81.0312 68.0177 79.5155 67.6162 78.863C65.9299 76.2131 63.5008 76.8555 62.497 77.508C58.763 80.0374 61.3929 80.9709 63.0993 81.1215Z" fill="#F6FBFD"/>
<path d="M63.0993 81.1215C65.3469 81.2046 67.8633 81.6714 68.8207 81.8743C68.9412 81.0312 68.0177 79.5155 67.6162 78.863C65.9299 76.2131 63.5008 76.8555 62.497 77.508C58.763 80.0374 61.3929 80.9709 63.0993 81.1215Z" stroke="#002147"/>
<path d="M12.8166 43.1306C12.5487 43.1976 12.3781 43.4709 12.4355 43.741L14.8095 54.9086C14.9044 55.3553 15.4947 55.4318 15.723 55.027L17.3683 52.1092C17.5155 51.8483 17.8477 51.7651 18.0853 51.9298L20.3621 53.5076C20.7307 53.7631 21.2306 53.4138 21.1356 52.9671L18.834 42.14C18.7766 41.8699 18.5129 41.7053 18.245 41.7723L12.8166 43.1306Z" fill="#4682B4"/>
<path d="M24.2579 42.6413L17.2599 43.5666C13.4396 44.0718 11.3658 39.3397 14.2289 36.6503L40.5885 11.8905C41.6373 10.9053 43.1035 10.5411 44.4426 10.933L77.3792 20.5713C80.9902 21.628 81.0777 26.7802 77.5088 28.1967L69.8692 31.2287L24.2579 42.6413Z" fill="#002147"/>
<path d="M65.274 26.1939C67.417 25.6577 69.5267 26.9747 69.9861 29.1356L71.1793 34.7489C71.8749 38.0209 68.4367 40.9226 65.2248 40.179C59.489 38.8511 53.5457 38.8864 47.796 40.3251C42.0462 41.7637 36.689 44.556 32.0686 48.4752C29.4813 50.6698 25.2191 49.6949 24.5235 46.4229L23.3303 40.8095C22.8709 38.6487 24.2358 36.4623 26.3789 35.926L65.274 26.1939Z" fill="#002147"/>
<path d="M24.0134 42.7023C30.4276 35.7775 37.0649 29.1126 43.6929 22.4562V22.4562C43.8095 22.3411 43.9773 22.2991 44.1287 22.3471V22.3471C52.905 25.1128 61.6872 27.8527 70.3744 30.9624C61.5571 28.6625 52.8227 26.0011 44.0886 23.3606C44.0301 23.343 44.0346 23.2573 44.0948 23.2423V23.2423C44.1547 23.2273 44.1935 23.3013 44.1488 23.3452C37.5074 29.8754 30.8578 36.4229 24.0134 42.7023Z" fill="#4682B4"/>
<path d="M64.6266 61.2891L64.7705 58.8691C64.4289 58.8973 63.5323 58.4554 60.7113 61.7848C58.9873 63.8195 60.1494 64.6982 60.652 65.23C61.7336 65.8286 62.7022 65.0605 63.4138 65.3457C63.9831 65.5739 62.8152 66.4273 61.8184 66.8537L57.8028 68.2178L62.6147 68.164C65.9875 65.6834 65.2277 63.705 64.4261 63.0258L61.7209 63.5935C61.5796 61.8851 63.5921 61.26 64.6266 61.2891Z" fill="#002147"/>
<path d="M11.8731 33.3181C12.1244 31.397 14.6872 30.9199 15.6131 32.6217L16.4523 34.1644C16.8664 34.9255 17.7235 35.3334 18.5753 35.1748L20.3017 34.8533C22.2064 34.4987 23.4522 36.7885 22.1197 38.195L20.912 39.4699C20.3161 40.0989 20.1929 41.0401 20.607 41.8012L21.4463 43.3438C22.3722 45.0457 20.5793 46.9381 18.8299 46.1055L17.2442 45.3508C16.4619 44.9784 15.5287 45.1521 14.9328 45.7811L13.725 47.056C12.3925 48.4625 10.0387 47.3422 10.29 45.4211L10.5178 43.6798C10.6302 42.8207 10.1765 41.9869 9.39419 41.6145L7.80849 40.8598C6.05908 40.0272 6.39718 37.4424 8.30189 37.0877L10.0284 36.7662C10.8802 36.6076 11.533 35.9186 11.6454 35.0594L11.8731 33.3181Z" fill="#F9CA54"/>
</svg>
