<svg width="40" height="40" viewBox="0 0 40 40" fill="none" xmlns="http://www.w3.org/2000/svg">
<path d="M37.2183 9.86816H2.27734V34.7232H37.2183V9.86816Z" fill="white"/>
<path d="M27.6493 32.1436H11.8471L9.25586 34.1136H30.2405L27.6493 32.1436Z" fill="#E6E5E5"/>
<path d="M9.8585 32.1436H5.30414L2.71289 34.1136H7.27651L9.8585 32.1436Z" fill="#E6E5E5"/>
<path d="M34.195 32.1436H29.6406L32.2226 34.1136H36.7862L34.195 32.1436Z" fill="#E6E5E5"/>
<path d="M27.6493 12.4974H11.8471L9.25586 10.5273H30.2405L27.6493 12.4974Z" fill="#E6E5E5"/>
<path d="M9.8585 12.4974H5.30414L2.71289 10.5273H7.27651L9.8585 12.4974Z" fill="#E6E5E5"/>
<path d="M34.195 12.4974H29.6406L32.2226 10.5273H36.7862L34.195 12.4974Z" fill="#E6E5E5"/>
<path d="M25.7597 34.4347H13.7402L15.4039 33.1699H24.096L25.7597 34.4347Z" fill="#232323"/>
<path d="M37.4966 34.1133H2V34.9984H37.4966V34.1133Z" fill="#232323"/>
<path d="M36.7859 34.1133H32.2222H30.2406H9.25596H7.27433H2.7107H2V34.9984H37.4966V34.1133H36.7859Z" fill="#232323"/>
<path d="M36.9417 10.1466V34.4461H2.55483V10.1466H36.9417ZM37.4966 9.5918H2V35.0001H37.4966V9.5918Z" fill="white"/>
<path d="M2 10.5281V6.10964C2 5.49926 2.49927 5 3.10965 5H36.3846C36.995 5 37.4943 5.49926 37.4943 6.10964V10.5281H2Z" fill="#232323"/>
<path d="M34.6974 9.28962H13.8926L15.8827 6.23926H34.6974V9.28962Z" fill="white"/>
<path d="M5.73476 8.66677C6.25598 8.66677 6.67851 8.24424 6.67851 7.72303C6.67851 7.20182 6.25598 6.7793 5.73476 6.7793C5.21355 6.7793 4.79102 7.20182 4.79102 7.72303C4.79102 8.24424 5.21355 8.66677 5.73476 8.66677Z" fill="white"/>
<path d="M8.23476 8.66677C8.75598 8.66677 9.17851 8.24424 9.17851 7.72303C9.17851 7.20182 8.75598 6.7793 8.23476 6.7793C7.71354 6.7793 7.29102 7.20182 7.29102 7.72303C7.29102 8.24424 7.71354 8.66677 8.23476 8.66677Z" fill="#C5CECF"/>
<path d="M10.7406 8.66677C11.2618 8.66677 11.6844 8.24424 11.6844 7.72303C11.6844 7.20182 11.2618 6.7793 10.7406 6.7793C10.2194 6.7793 9.79688 7.20182 9.79688 7.72303C9.79688 8.24424 10.2194 8.66677 10.7406 8.66677Z" fill="#E0E0E0"/>
<path d="M16.9463 7.19238L17.0791 7.76881C17.1076 7.90385 17.1369 8.04198 17.1601 8.1801H17.1655C17.1917 8.04198 17.2334 7.90076 17.2697 7.77112L17.434 7.19238H17.6948L17.8538 7.75569C17.8924 7.90462 17.9263 8.04275 17.9557 8.18087H17.9611C17.9819 8.04275 18.0105 7.90462 18.0444 7.75569L18.1856 7.19238H18.5005L18.1015 8.46176H17.8044L17.6539 7.94552C17.6154 7.81279 17.586 7.69242 17.5575 7.53886H17.5521C17.5258 7.6955 17.4927 7.82051 17.4556 7.94552L17.2943 8.46176H16.9942L16.6191 7.19238H16.9463Z" fill="#232323"/>
<path d="M18.9401 7.19238L19.0728 7.76881C19.1013 7.90385 19.1307 8.04198 19.1538 8.1801H19.1592C19.1854 8.04198 19.2271 7.90076 19.2634 7.77112L19.4277 7.19238H19.6886L19.8475 7.75569C19.8861 7.90462 19.9201 8.04275 19.9494 8.18087H19.9548C19.9756 8.04275 20.0042 7.90462 20.0381 7.75569L20.1794 7.19238H20.4942L20.0952 8.46176H19.7981L19.6469 7.94552C19.6083 7.81279 19.579 7.69242 19.5504 7.53886H19.545C19.5188 7.6955 19.4856 7.82051 19.4486 7.94552L19.2873 8.46176H18.9871L18.6113 7.19238H18.9401Z" fill="#232323"/>
<path d="M20.9354 7.19238L21.0681 7.76881C21.0967 7.90385 21.126 8.04198 21.1491 8.1801H21.1545C21.1808 8.04198 21.2224 7.90076 21.2587 7.77112L21.4231 7.19238H21.6839L21.8429 7.75569C21.8814 7.90462 21.9154 8.04275 21.9447 8.18087H21.9501C21.971 8.04275 21.9995 7.90462 22.0335 7.75569L22.1747 7.19238H22.4895L22.0906 8.46176H21.7935L21.643 7.94552C21.6044 7.81279 21.5751 7.69242 21.5465 7.53886H21.5411C21.5149 7.6955 21.4817 7.82051 21.4447 7.94552L21.2834 8.46176H20.9832L20.6074 7.19238H20.9354Z" fill="#232323"/>
<path d="M22.541 8.28318C22.541 8.1628 22.6244 8.07715 22.7393 8.07715C22.8566 8.07715 22.9377 8.16049 22.9377 8.28318C22.9377 8.40047 22.8597 8.48921 22.7393 8.48921C22.6228 8.48844 22.541 8.3997 22.541 8.28318Z" fill="#232323"/>
<path d="M32.5283 8.66526L32.33 8.4708L33.016 7.76705L32.2891 7.0579L32.4828 6.86035L33.408 7.76087L32.5283 8.66526Z" fill="#232323"/>
<path d="M33.0597 7.62402H31.2285V7.90105H33.0597V7.62402Z" fill="#232323"/>
<path d="M22.6097 14.7434C21.7177 14.407 20.7546 14.2148 19.7453 14.2148C15.2465 14.2148 11.5996 17.8617 11.5996 22.3604C11.5996 24.0056 12.0912 25.5343 12.9307 26.8152L19.7384 22.3574L22.6097 14.7434Z" fill="#232323"/>
<path d="M19.747 30.5071C24.2458 30.5071 27.8927 26.8602 27.8927 22.3615C27.8927 22.3607 27.8927 22.3592 27.8927 22.3584H19.7393L12.9316 26.8163C14.387 29.0371 16.8934 30.5071 19.747 30.5071Z" fill="#91A2A4" fill-opacity="0.52"/>
<path d="M27.8936 22.3588C27.8921 18.871 25.6952 15.9039 22.6124 14.7441L19.7402 22.3588H27.8936Z" fill="#403D3D" fill-opacity="0.16"/>
</svg>
