<?xml version="1.0" encoding="iso-8859-1"?>
<!-- Uploaded to: SVG Repo, www.svgrepo.com, Generator: SVG Repo Mixer Tools -->
<svg height="800px" width="800px" version="1.1" id="Layer_1" xmlns="http://www.w3.org/2000/svg" xmlns:xlink="http://www.w3.org/1999/xlink" 
	 viewBox="0 0 512 512" xml:space="preserve">
<path style="fill:#509FE8;" d="M218.784,404.955l-4.685,98.388c-0.104,2.188,0.692,4.322,2.204,5.908
	c1.511,1.585,3.605,2.482,5.796,2.482h68.338c2.19,0,4.285-0.897,5.796-2.482c1.512-1.585,2.307-3.72,2.204-5.908l-4.685-98.388
	H218.784z"/>
<path style="fill:#4D8CCF;" d="M289.893,323.957c-0.203-4.27-3.724-7.627-8-7.627H230.64c-4.274,0-7.796,3.358-8,7.627
	l-5.458,114.634h78.17L289.893,323.957z"/>
<path style="fill:#ECEDEF;" d="M0,59.843v297.282c0,9.02,7.311,16.331,16.331,16.331h478.805c9.02,0,16.865-7.311,16.865-16.331
	V59.843c0-9.02-7.845-16.331-16.865-16.331H16.331C7.311,43.512,0,50.823,0,59.843z"/>
<path style="fill:#D9DCDF;" d="M26.694,375.591V42.444c0-23.256,18.921-42.177,42.177-42.177H42.711
	c-23.256,0-42.177,18.921-42.177,42.177v333.147c0,23.256,18.921,42.177,42.177,42.177h26.161
	C45.616,417.769,26.694,398.847,26.694,375.591z"/>
<path style="fill:#509FE8;" d="M469.823,0.267H42.711c-23.294,0-42.177,18.884-42.177,42.177L0,67.537h512V42.444
	C512,19.151,493.116,0.267,469.823,0.267z"/>
<path style="fill:#4D8CCF;" d="M68.872,0.267H42.711c-23.294,0-42.177,18.884-42.177,42.177L0,67.537h26.694V42.444
	C26.694,19.151,45.578,0.267,68.872,0.267z"/>
<path style="fill:#509FE8;" d="M512,350.498H0l0.534,25.093c0,23.294,18.884,42.177,42.177,42.177h427.112
	c23.294,0,42.177-18.884,42.177-42.177V350.498z"/>
<g>
	<path style="fill:#4D8CCF;" d="M26.694,375.591v-25.093H0l0.534,25.093c0,23.294,18.884,42.177,42.177,42.177h26.161
		C45.578,417.769,26.694,398.885,26.694,375.591z"/>
	<path style="fill:#4D8CCF;" d="M333.147,511.733h-153.76c-4.423,0-8.008-3.586-8.008-8.008c0-4.423,3.586-8.008,8.008-8.008h153.76
		c4.423,0,8.008,3.586,8.008,8.008C341.155,508.147,337.57,511.733,333.147,511.733z"/>
</g>
<path style="fill:#424F5E;" d="M264.809,392.142h-17.084c-4.423,0-8.008-3.586-8.008-8.008c0-4.423,3.586-8.008,8.008-8.008h17.084
	c4.423,0,8.008,3.586,8.008,8.008C272.818,388.556,269.232,392.142,264.809,392.142z"/>
<g>
	<path style="fill:#FFC44F;" d="M102.507,188.196H51.253c-4.423,0-8.008,3.586-8.008,8.008v119.591c0,4.423,3.586,8.008,8.008,8.008
		h51.253c4.423,0,8.008-3.586,8.008-8.008V196.204C110.515,191.782,106.93,188.196,102.507,188.196z"/>
	<path style="fill:#FFC44F;" d="M187.929,136.943h-51.253c-4.423,0-8.008,3.586-8.008,8.008v170.845
		c0,4.423,3.586,8.008,8.008,8.008h51.253c4.423,0,8.008-3.586,8.008-8.008V144.951
		C195.937,140.528,192.352,136.943,187.929,136.943z"/>
	<path style="fill:#FFC44F;" d="M273.351,94.231h-51.253c-4.423,0-8.008,3.586-8.008,8.008v213.556c0,4.423,3.586,8.008,8.008,8.008
		h51.253c4.423,0,8.008-3.586,8.008-8.008V102.24C281.36,97.817,277.774,94.231,273.351,94.231z"/>
	<path style="fill:#FFC44F;" d="M460.231,220.893c0.677-3.859,1.05-7.821,1.05-11.875c0-28.77-17.788-53.371-42.958-63.449
		l-25.38,63.449L460.231,220.893z"/>
</g>
<path style="fill:#FF8C78;" d="M392.943,209.018l25.38-63.449c-7.849-3.142-16.407-4.889-25.38-4.889
	c-37.742,0-68.338,30.596-68.338,68.338s30.596,68.338,68.338,68.338c33.689,0,61.665-24.385,67.288-56.463L392.943,209.018z"/>
</svg>