<svg width="30" height="36" viewBox="0 0 30 36" fill="none" xmlns="http://www.w3.org/2000/svg">
<path d="M0 2V18.6667C0 25.6667 6.05367 32 15 35.3333C23.9467 32 30 25.6667 30 18.6667V2H0Z" fill="#95A5A6"/>
<path d="M0 0.333008V16.9997C0 23.9997 6.05367 30.333 15 33.6663C23.9467 30.333 30 23.9997 30 16.9997V0.333008H0Z" fill="#ECF0F1"/>
<path d="M0 0.333008V16.9997C0 23.9997 6.05367 30.333 15 33.6663V0.333008H0Z" fill="#BDC3C7"/>
<path d="M3.33398 3.66602V16.9993C3.33398 22.666 8.04248 27.666 15.0007 30.3327C21.959 27.666 26.6673 22.666 26.6673 16.9993V3.66602H3.33398Z" fill="#333734"/>
<path d="M15 3.66602V30.3327C21.9583 27.666 26.6667 22.666 26.6667 16.9993V3.66602H15Z" fill="#779584"/>
<path d="M21.6669 12L13.8619 19.6666L10.61 16.4999L7.8457 19.3334L11.0977 22.4999L13.7002 25.1667L13.8619 25.3333L24.4319 14.6666L21.6669 12Z" fill="#333734"/>
<path d="M21.6669 10.333L13.8619 17.9996L10.61 14.8329L7.8457 17.6664L11.0977 20.8329L13.7002 23.4997L13.8619 23.6663L24.4319 12.9996L21.6669 10.333Z" fill="#ECF0F1"/>
</svg>
