<svg width="57" height="67" viewBox="0 0 57 67" fill="none" xmlns="http://www.w3.org/2000/svg">
<path d="M0.375 3.875V35.125C0.375 48.25 11.7256 60.125 28.5 66.375C45.275 60.125 56.625 48.25 56.625 35.125V3.875H0.375Z" fill="#95A5A6"/>
<path d="M0.375 0.75V32C0.375 45.125 11.7256 57 28.5 63.25C45.275 57 56.625 45.125 56.625 32V0.75H0.375Z" fill="#ECF0F1"/>
<path d="M0.375 0.75V32C0.375 45.125 11.7256 57 28.5 63.25V0.75H0.375Z" fill="#BDC3C7"/>
<path d="M6.625 6.99976V31.9998C6.625 42.6248 15.4534 51.9998 28.5 56.9998C41.5469 51.9998 50.375 42.6248 50.375 31.9998V6.99976H6.625Z" fill="#27AE60"/>
<path d="M28.5 6.99976V56.9998C41.5469 51.9998 50.375 42.6248 50.375 31.9998V6.99976H28.5Z" fill="#2ECC71"/>
<path d="M40.9996 22.625L26.3653 36.9999L20.2681 31.0623L15.085 36.3751L21.1825 42.3123L26.0621 47.3126L26.3653 47.625L46.184 27.6249L40.9996 22.625Z" fill="#27AE60"/>
<path d="M40.9996 19.5L26.3653 33.8749L20.2681 27.9373L15.085 33.2501L21.1825 39.1873L26.0621 44.1876L26.3653 44.5L46.184 24.4999L40.9996 19.5Z" fill="#ECF0F1"/>
</svg>
