<svg width="20" height="20" viewBox="0 0 20 20" fill="none" xmlns="http://www.w3.org/2000/svg">
<g clip-path="url(#clip0_1133_508)">
<path d="M10 20C15.5228 20 20 15.5228 20 10C20 4.47715 15.5228 0 10 0C4.47715 0 0 4.47715 0 10C0 15.5228 4.47715 20 10 20Z" fill="#232323"/>
<path d="M15.5691 14.6904H4.43066V15.0029H15.5691V14.6904Z" fill="#CCCBCA"/>
<path d="M13.8557 15.6279H6.14441V15.9404H13.8557V15.6279Z" fill="#CCCBCA"/>
<path d="M7.121 9.94123C7.121 10.2112 7.09693 10.4425 7.04881 10.635C7.001 10.8272 6.93693 10.9894 6.85662 11.1209C6.77662 11.2528 6.68537 11.3569 6.58381 11.4334C6.48193 11.5103 6.376 11.5694 6.266 11.6103C6.156 11.6512 6.04787 11.6778 5.94131 11.6894C5.83475 11.7006 5.73725 11.7065 5.64787 11.7065C5.40537 11.7065 5.19818 11.6759 5.02631 11.6156C4.85475 11.555 4.71506 11.4737 4.60756 11.3719C4.49975 11.27 4.42068 11.1515 4.37037 11.0162C4.32006 10.8809 4.29506 10.739 4.29506 10.5906C4.29506 10.5103 4.30225 10.4222 4.31725 10.3259C4.33193 10.2297 4.35537 10.1337 4.38756 10.0375H5.06412V10.1644C5.06412 10.3428 5.07568 10.4884 5.0985 10.6006C5.12131 10.7128 5.15693 10.8019 5.20506 10.8669C5.25287 10.9322 5.31381 10.9772 5.38693 11.0009C5.46006 11.025 5.54725 11.0369 5.64787 11.0369C5.831 11.0369 5.97256 10.97 6.07193 10.8359C6.17131 10.7019 6.22131 10.4875 6.22131 10.1919V9.11373C6.13443 9.20998 6.02225 9.29029 5.88506 9.35561C5.74787 9.42092 5.58631 9.45342 5.40068 9.45342C5.26787 9.45342 5.13287 9.43248 4.99537 9.38998C4.85787 9.34748 4.73318 9.27186 4.62131 9.16311C4.50912 9.05436 4.41756 8.90686 4.34631 8.71998C4.27537 8.53342 4.23975 8.29498 4.23975 8.00404V7.43436C4.23975 7.12311 4.27225 6.85904 4.33756 6.64279C4.40287 6.42654 4.49631 6.25123 4.61756 6.11748C4.73912 5.98342 4.88475 5.88686 5.05537 5.82717C5.226 5.76748 5.41756 5.73779 5.63068 5.73779C5.87131 5.73779 6.08318 5.76842 6.26756 5.82873C6.45193 5.88936 6.60756 5.98873 6.73475 6.12592C6.86162 6.26311 6.95787 6.44436 7.02318 6.66842C7.0885 6.89248 7.121 7.16873 7.121 7.49592V9.94123ZM6.221 7.10154C6.221 6.96873 6.20975 6.85592 6.18693 6.76311C6.16412 6.67029 6.12881 6.59623 6.08225 6.53998C6.03537 6.48373 5.97506 6.44311 5.90193 6.41779C5.82881 6.39279 5.74162 6.37998 5.641 6.37998C5.46475 6.37998 5.33506 6.44311 5.25287 6.56873C5.17037 6.69467 5.12912 6.88373 5.12912 7.13529V8.03498C5.12912 8.17717 5.14162 8.29623 5.16693 8.39248C5.19193 8.48873 5.22725 8.56592 5.2735 8.62404C5.31912 8.68279 5.37412 8.72436 5.43818 8.74936C5.50225 8.77467 5.57443 8.78717 5.65443 8.78717C5.716 8.78717 5.77506 8.77811 5.831 8.75967C5.88693 8.74123 5.93943 8.71717 5.98725 8.68748C6.03537 8.65779 6.07881 8.62373 6.11787 8.58467C6.15662 8.54561 6.191 8.50686 6.22068 8.46779V7.10154H6.221Z" fill="white"/>
<path d="M7.87659 7.46547C7.87659 7.20922 7.89971 6.98766 7.9469 6.80109C7.99409 6.61453 8.05565 6.45766 8.13252 6.33047C8.20909 6.20359 8.29784 6.10109 8.39877 6.02328C8.49971 5.94547 8.60315 5.88547 8.7094 5.84297C8.81596 5.80078 8.92252 5.77266 9.02877 5.75891C9.13502 5.74516 9.23284 5.73828 9.32221 5.73828C9.4069 5.73828 9.50127 5.74484 9.60534 5.75734C9.70971 5.76984 9.81502 5.79641 9.92159 5.83641C10.0281 5.87641 10.131 5.93484 10.2303 6.01172C10.33 6.08828 10.4181 6.19078 10.495 6.31891C10.5716 6.44703 10.6335 6.60516 10.6806 6.79297C10.7272 6.98078 10.751 7.20484 10.751 7.46578V9.94547C10.751 10.2017 10.7275 10.4233 10.6806 10.6098C10.6338 10.7967 10.571 10.9548 10.4931 11.0855C10.4153 11.2161 10.3263 11.322 10.2256 11.4033C10.1247 11.4845 10.0219 11.5477 9.91659 11.592C9.81127 11.6364 9.70627 11.6667 9.60221 11.683C9.49815 11.6989 9.40471 11.707 9.32221 11.707C9.23065 11.707 9.13127 11.6989 9.02346 11.683C8.91565 11.6667 8.80846 11.6367 8.70065 11.592C8.59315 11.5473 8.4894 11.4848 8.39002 11.4048C8.29065 11.3245 8.20284 11.2192 8.12721 11.0886C8.05159 10.9583 7.99096 10.7989 7.94534 10.6114C7.8994 10.4236 7.87659 10.2014 7.87659 9.94516V7.46547ZM8.78659 10.3192C8.78659 10.5617 8.83065 10.738 8.91877 10.848C9.0069 10.958 9.14127 11.0127 9.32221 11.0127C9.49846 11.0127 9.63002 10.9577 9.71721 10.848C9.80409 10.7377 9.84784 10.5617 9.84784 10.3192V7.14266C9.84784 6.88641 9.80409 6.69953 9.71721 6.58266C9.63034 6.46609 9.49877 6.40766 9.32221 6.40766C9.14127 6.40766 9.0069 6.46609 8.91877 6.58266C8.83065 6.69953 8.78659 6.88641 8.78659 7.14266V10.3192Z" fill="white"/>
<path d="M12.3669 8.31666C12.2676 8.31666 12.1673 8.3026 12.0669 8.27479C11.9663 8.24666 11.8757 8.19197 11.7941 8.11103C11.7129 8.02978 11.6469 7.91447 11.5963 7.7651C11.5457 7.61572 11.5204 7.41979 11.5204 7.17666V6.89635C11.5204 6.73729 11.5326 6.59978 11.5569 6.48353C11.5813 6.3676 11.6151 6.26854 11.6579 6.18604C11.7007 6.10385 11.7501 6.0376 11.806 5.98697C11.8619 5.93635 11.9213 5.89697 11.9841 5.86885C12.0469 5.84104 12.1113 5.82197 12.1766 5.81103C12.2423 5.80072 12.3066 5.79541 12.3694 5.79541C12.4285 5.79541 12.491 5.80041 12.5554 5.80979C12.6201 5.81916 12.6835 5.83822 12.7454 5.86635C12.8073 5.89416 12.8666 5.93322 12.9223 5.98291C12.9779 6.0326 13.0269 6.09854 13.0691 6.18072C13.111 6.26291 13.1441 6.3626 13.1685 6.47947C13.1929 6.59666 13.2051 6.73541 13.2051 6.89635V7.17666C13.2051 7.41635 13.1782 7.61041 13.1238 7.75978C13.0698 7.90947 13.001 8.0251 12.9182 8.10697C12.8354 8.18885 12.7441 8.24447 12.6457 8.27322C12.5473 8.30229 12.4541 8.31666 12.3669 8.31666ZM12.3723 7.9001C12.4826 7.9001 12.5594 7.8526 12.6029 7.75697C12.6466 7.66166 12.6685 7.51385 12.6685 7.31291V6.80416C12.6685 6.60166 12.6466 6.45229 12.6029 6.35604C12.5591 6.25979 12.4823 6.21166 12.3723 6.21166C12.2569 6.21166 12.176 6.25979 12.1301 6.35604C12.0838 6.45229 12.0604 6.60135 12.0604 6.80416V7.31291C12.0604 7.51385 12.0835 7.66166 12.1301 7.75697C12.176 7.8526 12.2569 7.9001 12.3723 7.9001ZM13.9554 5.85041H14.4298L13.2266 10.377H12.7498L13.9554 5.85041ZM13.9607 8.99572C13.9607 8.75603 13.9873 8.56447 14.0407 8.4201C14.0941 8.27604 14.1623 8.1651 14.2451 8.0876C14.3282 8.00978 14.4194 7.95822 14.5188 7.93291C14.6185 7.9076 14.7148 7.89479 14.8073 7.89479C14.8666 7.89479 14.9288 7.89978 14.9935 7.90947C15.0582 7.91885 15.1213 7.93791 15.1835 7.96572C15.2454 7.99385 15.3044 8.0326 15.3604 8.08229C15.4163 8.13229 15.4651 8.19822 15.5069 8.28041C15.5491 8.3626 15.5823 8.46228 15.6066 8.57916C15.631 8.69635 15.6432 8.8351 15.6432 8.99604V9.27635C15.6432 9.43728 15.6304 9.57697 15.6054 9.69572C15.5798 9.81447 15.546 9.91572 15.5032 9.99978C15.4601 10.0838 15.411 10.1526 15.3548 10.207C15.2988 10.261 15.2401 10.3042 15.1782 10.3354C15.116 10.367 15.0529 10.3882 14.9882 10.3995C14.9235 10.4107 14.8626 10.4167 14.8048 10.4167C14.7382 10.4167 14.6713 10.4107 14.6041 10.3995C14.5366 10.3882 14.4719 10.3676 14.4101 10.3379C14.3482 10.3082 14.2894 10.2663 14.2344 10.2123C14.1791 10.1579 14.1316 10.0888 14.0916 10.0051C14.0513 9.92135 14.0194 9.81947 13.9957 9.69978C13.9719 9.5801 13.9604 9.43885 13.9604 9.27666V8.99572H13.9607ZM14.4979 9.41228C14.4979 9.61353 14.521 9.76135 14.5673 9.85666C14.6135 9.95197 14.6944 9.99947 14.8098 9.99947C14.9201 9.99947 14.9966 9.95197 15.0404 9.85666C15.0841 9.76135 15.1057 9.61353 15.1057 9.41228V8.90385C15.1057 8.70135 15.0841 8.55166 15.0404 8.45541C14.9963 8.35947 14.9198 8.31135 14.8098 8.31135C14.6944 8.31135 14.6135 8.35947 14.5673 8.45541C14.5213 8.55166 14.4979 8.70104 14.4979 8.90385V9.41228Z" fill="white"/>
</g>
<defs>
<clipPath id="clip0_1133_508">
<rect width="20" height="20" fill="white"/>
</clipPath>
</defs>
</svg>
