<svg width="22" height="22" viewBox="0 0 22 22" fill="none" xmlns="http://www.w3.org/2000/svg">
<path d="M14.8634 14.074L19.4759 18.6865C15.1084 22.6108 10.3429 19.3166 6.56646 15.5853C6.50478 15.5243 6.44342 15.463 6.38248 15.402C2.06937 11.0889 -1.95396 5.68348 2.00436 1.21484L7.71054 6.92103L6.16015 8.47142L13.3131 15.6244L14.8634 14.074Z" fill="white"/>
<path d="M17.6915 13.4355C17.327 13.0711 16.8408 12.8704 16.3225 12.8704C15.8041 12.8704 15.318 13.0711 14.9534 13.4355L13.312 15.077L6.70686 8.47172L7.98294 7.19564C7.98355 7.19503 8.34828 6.8303 8.34828 6.8303C8.71278 6.4658 8.91346 5.97966 8.91346 5.46131C8.91346 4.94297 8.71274 4.45683 8.34828 4.09228L4.82103 0.565125C4.45658 0.200672 3.97044 0 3.4521 0C2.93371 0 2.44757 0.200719 2.08311 0.565125C-0.0755283 2.72381 -0.559372 5.32781 0.645034 8.30503C1.5298 10.492 3.26549 12.8344 6.10752 15.6764C8.73008 18.299 12.6633 21.7856 16.525 21.7857C18.2561 21.7857 19.8352 21.0842 21.2187 19.7007C21.9735 18.9459 21.9735 17.7176 21.2187 16.9628L17.6915 13.4355ZM20.6711 19.1532C19.4207 20.4036 18.0645 21.0114 16.525 21.0113C12.9509 21.0112 9.18032 17.654 6.65506 15.1288C3.88902 12.3627 2.20742 10.1022 1.36297 8.01459C0.271018 5.31539 0.685722 3.05775 2.63071 1.11277C2.84886 0.894562 3.14057 0.774422 3.4521 0.774422C3.76358 0.774422 4.05528 0.894562 4.27349 1.11277L7.80074 4.63997C8.01889 4.85822 8.13908 5.14987 8.13908 5.46136C8.13908 5.77284 8.01894 6.06455 7.80074 6.2827L7.70947 6.37397L3.374 2.03864C3.22278 1.88747 2.97763 1.88747 2.82646 2.03864C2.67524 2.18991 2.67524 2.43502 2.82646 2.58623L7.16183 6.92156L5.88547 8.19792C5.73425 8.34919 5.73425 8.5943 5.88547 8.74552L13.0383 15.8984C13.1109 15.971 13.2094 16.0117 13.3121 16.0117C13.4149 16.0117 13.5133 15.971 13.586 15.8984L14.8623 14.622L19.1983 18.958C19.274 19.0336 19.3731 19.0714 19.4722 19.0714C19.5713 19.0714 19.6704 19.0336 19.746 18.958C19.8973 18.8068 19.8973 18.5617 19.746 18.4104L15.41 14.0744L15.5012 13.9832C15.7194 13.765 16.0112 13.6448 16.3227 13.6448C16.6341 13.6448 16.9258 13.765 17.144 13.9832L20.6713 17.5104C21.124 17.9633 21.124 18.7003 20.6711 19.1532Z" fill="#A9A9A9"/>
</svg>
