<svg width="169" height="181" viewBox="0 0 169 181" fill="none" xmlns="http://www.w3.org/2000/svg">
<path d="M66.075 45.5562C66.0623 45.692 66.1611 45.8172 66.2968 45.8316L89.4514 48.2834C89.5887 48.298 89.7119 48.197 89.7273 48.0598C91.3056 34.0735 100.631 24.1645 116.679 25.8639C128.958 27.164 139.557 34.554 137.977 49.4755C136.762 60.9535 129.495 65.5232 118.071 72.4382C105.084 80.0002 94.4399 89.3192 93.3476 106.149L92.5966 114.295C92.5841 114.431 92.6833 114.552 92.8193 114.566L115.746 116.994C115.883 117.009 116.006 116.909 116.021 116.772L116.675 110.593C118.048 97.6225 123.338 94.3524 137.596 85.6482C149.398 78.4249 161.751 70.3315 163.817 50.8188C166.71 23.5011 145.256 7.88154 120.244 5.23304C96.5402 2.72312 69.2272 11.6121 66.075 45.5562ZM83.4585 148.512C82.4376 158.153 89.3013 166.076 99.7609 167.184C110.675 168.339 118.932 162.017 119.953 152.376C121.011 142.39 114.249 134.594 103.334 133.438C92.8746 132.331 84.5159 138.526 83.4585 148.512Z" fill="#4682B4"/>
<path d="M71.7242 86.8747C71.7572 87.0071 71.6782 87.1455 71.5462 87.18L56.4752 91.1145C56.3416 91.1494 56.2049 91.0681 56.1686 90.9348C53.6824 81.7935 46.4618 76.1527 35.9383 78.9C27.8639 81.0079 21.5264 87.0161 24.0881 96.8285C26.0586 104.376 31.3761 106.697 39.7084 110.165C49.1506 113.908 57.2041 119.062 59.6325 130.199L60.9372 135.489C60.9699 135.622 60.8899 135.756 60.7576 135.791L45.8369 139.686C45.7033 139.721 45.5667 139.641 45.5319 139.507L44.4915 135.522C42.2648 126.993 38.3998 125.342 27.9932 120.964C19.3775 117.327 10.305 113.165 6.95517 100.334C2.26535 82.3697 15.0267 69.7664 31.4745 65.4724C47.0436 61.4079 66.1668 64.5798 71.7242 86.8747ZM70.5161 157.511C72.1713 163.851 68.3839 169.839 61.5057 171.634C54.3284 173.508 48.1723 170.117 46.5171 163.776C44.8028 157.21 48.5351 151.317 55.7124 149.443C62.5906 147.648 68.8017 150.944 70.5161 157.511Z" fill="#E5F5F9"/>
</svg>
