<svg width="43" height="43" viewBox="0 0 43 43" fill="none" xmlns="http://www.w3.org/2000/svg">
<g filter="url(#filter0_d_1876_2721)">
<path d="M21.4987 34.3725C32 34.3725 37.2475 27.3215 37.2475 18.6237C37.2475 9.92595 32 2.875 21.4987 2.875C10.9975 2.875 5.75 9.92595 5.75 18.6237C5.75 27.3215 10.9975 34.3725 21.4987 34.3725Z" fill="url(#paint0_radial_1876_2721)"/>
<path d="M21.4987 34.3725C32 34.3725 37.2475 27.3215 37.2475 18.6237C37.2475 9.92595 32 2.875 21.4987 2.875C10.9975 2.875 5.75 9.92595 5.75 18.6237C5.75 27.3215 10.9975 34.3725 21.4987 34.3725Z" fill="url(#paint1_radial_1876_2721)"/>
<path d="M21.4987 34.3725C32 34.3725 37.2475 27.3215 37.2475 18.6237C37.2475 9.92595 32 2.875 21.4987 2.875C10.9975 2.875 5.75 9.92595 5.75 18.6237C5.75 27.3215 10.9975 34.3725 21.4987 34.3725Z" fill="url(#paint2_radial_1876_2721)"/>
<path d="M21.4987 34.3725C32 34.3725 37.2475 27.3215 37.2475 18.6237C37.2475 9.92595 32 2.875 21.4987 2.875C10.9975 2.875 5.75 9.92595 5.75 18.6237C5.75 27.3215 10.9975 34.3725 21.4987 34.3725Z" fill="url(#paint3_radial_1876_2721)" fill-opacity="0.6"/>
<path d="M21.4987 34.3725C32 34.3725 37.2475 27.3215 37.2475 18.6237C37.2475 9.92595 32 2.875 21.4987 2.875C10.9975 2.875 5.75 9.92595 5.75 18.6237C5.75 27.3215 10.9975 34.3725 21.4987 34.3725Z" fill="url(#paint4_radial_1876_2721)"/>
<path d="M21.4987 34.3725C32 34.3725 37.2475 27.3215 37.2475 18.6237C37.2475 9.92595 32 2.875 21.4987 2.875C10.9975 2.875 5.75 9.92595 5.75 18.6237C5.75 27.3215 10.9975 34.3725 21.4987 34.3725Z" fill="url(#paint5_radial_1876_2721)"/>
<path d="M21.4987 34.3725C32 34.3725 37.2475 27.3215 37.2475 18.6237C37.2475 9.92595 32 2.875 21.4987 2.875C10.9975 2.875 5.75 9.92595 5.75 18.6237C5.75 27.3215 10.9975 34.3725 21.4987 34.3725Z" fill="url(#paint6_radial_1876_2721)"/>
<path d="M21.4987 34.3725C32 34.3725 37.2475 27.3215 37.2475 18.6237C37.2475 9.92595 32 2.875 21.4987 2.875C10.9975 2.875 5.75 9.92595 5.75 18.6237C5.75 27.3215 10.9975 34.3725 21.4987 34.3725Z" fill="url(#paint7_radial_1876_2721)"/>
</g>
<path d="M11.4356 21.9009C13.3905 23.2697 17.1204 22.2005 17.8877 19.6208" stroke="url(#paint8_linear_1876_2721)" stroke-width="2.875" stroke-linecap="round" stroke-linejoin="round"/>
<path d="M31.5644 21.9009C29.6095 23.2697 25.8796 22.2005 25.1123 19.6208" stroke="url(#paint9_linear_1876_2721)" stroke-width="2.875" stroke-linecap="round" stroke-linejoin="round"/>
<path fill-rule="evenodd" clip-rule="evenodd" d="M21.4999 27.5762C20.0208 27.5762 18.7369 28.2319 18.2018 29.3021C17.9239 29.8578 17.2482 30.0831 16.6924 29.8052C16.1367 29.5274 15.9115 28.8516 16.1893 28.2959C17.2195 26.2356 19.4572 25.3262 21.4999 25.3262C23.5426 25.3262 25.7804 26.2356 26.8105 28.2959C27.0883 28.8516 26.8631 29.5274 26.3074 29.8052C25.7516 30.0831 25.0759 29.8578 24.798 29.3021C24.2629 28.2319 22.979 27.5762 21.4999 27.5762Z" fill="url(#paint10_linear_1876_2721)"/>
<defs>
<filter id="filter0_d_1876_2721" x="-2.25" y="-2.25" width="47.5" height="47.5" filterUnits="userSpaceOnUse" color-interpolation-filters="sRGB">
<feFlood flood-opacity="0" result="BackgroundImageFix"/>
<feColorMatrix in="SourceAlpha" type="matrix" values="0 0 0 0 0 0 0 0 0 0 0 0 0 0 0 0 0 0 127 0" result="hardAlpha"/>
<feOffset dy="2.875"/>
<feGaussianBlur stdDeviation="2.875"/>
<feComposite in2="hardAlpha" operator="out"/>
<feColorMatrix type="matrix" values="0 0 0 0 0 0 0 0 0 0 0 0 0 0 0 0 0 0 0.25 0"/>
<feBlend mode="normal" in2="BackgroundImageFix" result="effect1_dropShadow_1876_2721"/>
<feBlend mode="normal" in="SourceGraphic" in2="effect1_dropShadow_1876_2721" result="shape"/>
</filter>
<radialGradient id="paint0_radial_1876_2721" cx="0" cy="0" r="1" gradientUnits="userSpaceOnUse" gradientTransform="translate(32.1875 10.75) rotate(132.839) scale(42.1912)">
<stop stop-color="#FFF478"/>
<stop offset="0.474827" stop-color="#FFB02E"/>
<stop offset="1" stop-color="#F70A8D"/>
</radialGradient>
<radialGradient id="paint1_radial_1876_2721" cx="0" cy="0" r="1" gradientUnits="userSpaceOnUse" gradientTransform="translate(32.1875 10.75) rotate(131.878) scale(43.8173)">
<stop stop-color="#FFF478"/>
<stop offset="0.474827" stop-color="#FFB02E"/>
<stop offset="1" stop-color="#F70A8D"/>
</radialGradient>
<radialGradient id="paint2_radial_1876_2721" cx="0" cy="0" r="1" gradientUnits="userSpaceOnUse" gradientTransform="translate(21.5 14.6875) rotate(101.31) scale(20.0774 25.7153)">
<stop offset="0.787821" stop-color="#F59639" stop-opacity="0"/>
<stop offset="0.972509" stop-color="#FF7DCE"/>
</radialGradient>
<radialGradient id="paint3_radial_1876_2721" cx="0" cy="0" r="1" gradientUnits="userSpaceOnUse" gradientTransform="translate(23.75 16.375) rotate(135) scale(46.1387)">
<stop offset="0.314853" stop-opacity="0"/>
<stop offset="1"/>
</radialGradient>
<radialGradient id="paint4_radial_1876_2721" cx="0" cy="0" r="1" gradientUnits="userSpaceOnUse" gradientTransform="translate(21.5 19.75) rotate(77.692) scale(31.6653)">
<stop offset="0.507903" stop-color="#7D6133" stop-opacity="0"/>
<stop offset="1" stop-color="#715B32"/>
</radialGradient>
<radialGradient id="paint5_radial_1876_2721" cx="0" cy="0" r="1" gradientUnits="userSpaceOnUse" gradientTransform="translate(22.0625 19.1875) rotate(55.7131) scale(14.9777 10.8566)">
<stop stop-color="#FFB849"/>
<stop offset="1" stop-color="#FFB847" stop-opacity="0"/>
</radialGradient>
<radialGradient id="paint6_radial_1876_2721" cx="0" cy="0" r="1" gradientUnits="userSpaceOnUse" gradientTransform="translate(26.5625 20.875) rotate(9.86581) scale(13.1317)">
<stop stop-color="#FFA64B"/>
<stop offset="0.900412" stop-color="#FFAE46" stop-opacity="0"/>
</radialGradient>
<radialGradient id="paint7_radial_1876_2721" cx="0" cy="0" r="1" gradientUnits="userSpaceOnUse" gradientTransform="translate(23.1875 17.5) rotate(43.9708) scale(66.4346)">
<stop offset="0.185425" stop-opacity="0"/>
<stop offset="1" stop-opacity="0.4"/>
</radialGradient>
<linearGradient id="paint8_linear_1876_2721" x1="16.04" y1="20.8034" x2="16.0551" y2="22.4124" gradientUnits="userSpaceOnUse">
<stop stop-color="#52383E"/>
<stop offset="1" stop-color="#432A35"/>
</linearGradient>
<linearGradient id="paint9_linear_1876_2721" x1="26.96" y1="20.8034" x2="26.9449" y2="22.4124" gradientUnits="userSpaceOnUse">
<stop stop-color="#52383E"/>
<stop offset="1" stop-color="#432A35"/>
</linearGradient>
<linearGradient id="paint10_linear_1876_2721" x1="21.4999" y1="24.167" x2="21.4999" y2="26.4874" gradientUnits="userSpaceOnUse">
<stop stop-color="#4F3C43"/>
<stop offset="1" stop-color="#512756"/>
</linearGradient>
</defs>
</svg>
