<svg width="186" height="186" viewBox="0 0 186 186" fill="none" xmlns="http://www.w3.org/2000/svg">
<g clip-path="url(#clip0_1413_1350)">
<path d="M180.215 123.445C179.553 116.849 178.184 103.354 177.709 98.5578C177.709 98.5578 177.703 98.4911 177.693 98.361C146.252 84.1899 98.8966 62.7328 77.3876 52.9709C61.1468 64.6397 28.4594 88.104 9.54206 101.611C10.0957 107.206 11.7769 123.779 12.2602 128.698C31.6045 137.484 82.2541 160.434 113.384 174.455C133.104 160.366 165.336 137.227 180.503 126.323L180.477 126.07C180.414 125.428 180.324 124.53 180.215 123.445Z" fill="white"/>
<path d="M77.0134 53.2378C60.7088 64.9541 28.5495 88.039 9.74673 101.465C25.7193 108.72 83.4693 134.893 110.228 146.911C127.668 134.485 165.841 107.089 177.709 98.5559C177.709 98.5559 177.703 98.4891 177.693 98.3591C146.252 84.1879 98.8965 62.7308 77.3875 52.9689L77.0134 53.2378Z" fill="#F9CA54"/>
<path d="M181.318 123.336C180.871 118.884 180.422 114.433 179.971 109.982C179.576 106.075 179.097 102.166 178.796 98.2506C178.777 98.0578 178.708 97.8734 178.595 97.7156C178.483 97.5579 178.331 97.4324 178.155 97.3515C164.272 91.0941 150.394 84.8251 136.521 78.5445C122.762 72.3191 109.005 66.0887 95.2499 59.8532C89.4489 57.2238 83.6486 54.5932 77.8488 51.9614C77.6697 51.8805 77.4725 51.8482 77.2769 51.8675C77.0814 51.8869 76.8943 51.9573 76.7345 52.0717C68.4924 57.9952 60.2478 63.9154 52.0007 69.8324C42.3417 76.7637 32.6797 83.6906 23.0147 90.6132C18.3085 93.9824 13.6003 97.3493 8.89033 100.714C8.73405 100.828 8.61019 100.981 8.53092 101.158C8.45166 101.334 8.41972 101.528 8.43825 101.721C9.06902 108.096 9.70937 114.469 10.3593 120.842C10.518 122.416 10.6761 123.99 10.8337 125.563C10.8626 126.701 10.982 127.834 11.1908 128.953C11.3921 129.692 12.2458 129.91 12.8744 130.197L14.4742 130.921L17.994 132.518C23.8945 135.196 29.7971 137.873 35.7019 140.548C42.9612 143.839 50.221 147.127 57.4814 150.414C65.1993 153.908 72.9175 157.4 80.6361 160.89C88.0563 164.244 95.4778 167.597 102.901 170.948C106.197 172.435 109.465 174.092 112.826 175.423C113.817 175.815 114.625 174.933 115.387 174.389L117.573 172.827C119.107 171.731 120.64 170.634 122.174 169.537C129.005 164.648 135.834 159.755 142.659 154.859C149.513 149.945 156.364 145.028 163.213 140.11C168.822 136.083 174.429 132.054 180.035 128.023C180.629 127.596 181.547 127.168 181.599 126.361C181.586 125.346 181.491 124.334 181.316 123.334C181.176 121.913 178.968 122.129 179.109 123.552C179.204 124.511 179.298 125.471 179.393 126.431L179.846 125.424C171.919 131.122 163.99 136.818 156.059 142.509C146.449 149.405 136.838 156.296 127.224 163.184C122.394 166.644 117.561 170.101 112.727 173.555L113.841 173.445C99.6698 167.062 85.5046 160.665 71.3461 154.253C57.36 147.925 43.3756 141.591 29.3928 135.251C23.8346 132.732 18.2777 130.212 12.7222 127.69L13.3629 128.589C12.6402 121.24 11.8861 113.895 11.1485 106.548C10.9794 104.866 10.8115 103.184 10.6447 101.502L10.1921 102.509C19.0815 96.1625 27.9639 89.8054 36.8394 83.438C46.324 76.6377 55.8074 69.8332 65.2894 63.0246C69.5395 59.9724 73.7888 56.9197 78.0373 53.8666L76.923 53.9769C88.4347 59.2019 99.9489 64.4217 111.465 69.6362C125.886 76.1677 140.309 82.6936 154.735 89.2138C162.231 92.6017 169.73 95.9862 177.23 99.3674L176.589 98.4684C176.89 102.384 177.369 106.293 177.763 110.2C178.213 114.651 178.662 119.102 179.11 123.554C179.253 124.974 181.461 124.758 181.318 123.336Z" fill="#211715"/>
<path d="M109.336 146.925C110.091 154.554 110.859 162.182 111.641 169.809C111.796 171.352 111.951 172.895 112.105 174.439C112.245 175.859 114.453 175.643 114.312 174.22C113.575 166.77 112.81 159.322 112.061 151.872C111.887 150.149 111.715 148.426 111.544 146.703C111.403 145.283 109.195 145.499 109.336 146.922L109.336 146.925Z" fill="#211715"/>
<path d="M10.4481 102.997C15.1593 105.138 19.8714 107.277 24.5845 109.413C31.2122 112.419 37.8411 115.423 44.471 118.424C51.9969 121.834 59.5234 125.241 67.0504 128.646C74.4556 131.995 81.8619 135.342 89.2691 138.686C95.5341 141.513 101.801 144.337 108.069 147.156L109.998 148.024C111.302 148.61 112.227 146.593 110.923 146.007C104.864 143.287 98.8087 140.561 92.7556 137.829C85.433 134.525 78.112 131.219 70.7928 127.909C63.2247 124.486 55.6575 121.061 48.0912 117.635C41.2971 114.555 34.5029 111.474 27.7088 108.394C22.7055 106.125 17.7026 103.855 12.7002 101.583L11.3738 100.98C10.0713 100.389 9.14738 102.406 10.4481 102.997Z" fill="#211715"/>
<path d="M111.278 155.16C106.052 152.813 100.829 150.461 95.6077 148.103C89.2386 145.23 82.8709 142.353 76.5045 139.473C69.9379 136.504 63.3725 133.533 56.8082 130.56C50.8819 127.876 44.9561 125.192 39.031 122.505C34.6875 120.536 30.3441 118.566 26.0009 116.595C25.6149 116.42 25.2288 116.244 24.8425 116.069C23.54 115.477 22.6161 117.494 23.9168 118.086C28.0051 119.943 32.0942 121.798 36.184 123.652C41.9647 126.275 47.7455 128.895 53.5266 131.511C60.0575 134.468 66.589 137.425 73.121 140.38C79.5643 143.294 86.0086 146.206 92.4537 149.116C97.8597 151.557 103.269 153.994 108.683 156.427L110.352 157.177C111.657 157.762 112.582 155.745 111.278 155.16L111.278 155.16Z" fill="#211715"/>
<path d="M105.759 161.213C100.697 158.94 95.6411 156.654 90.5905 154.354C89.2881 153.763 88.3642 155.78 89.6649 156.371C94.7172 158.665 99.7734 160.952 104.834 163.229C106.138 163.815 107.063 161.798 105.759 161.213Z" fill="#211715"/>
<path d="M152.19 149.976C149.786 151.692 141.993 157.283 138.447 159.821C134.614 158.096 127.813 155.025 122.734 152.728C127.015 149.667 131.725 146.298 136.487 142.882C141.699 145.239 148.544 148.336 152.19 149.976Z" fill="#64C8CC" fill-opacity="0.5"/>
<path d="M122.845 153.83L122.85 153.829L122.278 153.734C127.159 155.947 132.042 158.153 136.929 160.352C137.385 160.627 137.886 160.819 138.409 160.918C138.969 160.937 139.44 160.474 139.871 160.165L142.333 158.403L147.928 154.394C149.566 153.219 151.204 152.046 152.843 150.874C152.997 150.759 153.118 150.606 153.196 150.429C153.274 150.253 153.304 150.06 153.285 149.868C153.266 149.676 153.198 149.493 153.088 149.335C152.977 149.178 152.828 149.051 152.654 148.968C147.416 146.613 142.182 144.248 136.952 141.874C135.648 141.284 134.725 143.302 136.026 143.891C141.259 146.259 146.493 148.623 151.728 150.985L151.539 149.076C146.953 152.35 142.374 155.631 137.8 158.921L138.914 158.811C136.348 157.656 133.781 156.498 131.214 155.337C129.775 154.688 128.336 154.038 126.897 153.388L124.755 152.418C124.155 152.146 123.296 151.554 122.626 151.62C121.206 151.761 121.422 153.968 122.845 153.828L122.845 153.83Z" fill="#211715"/>
<path d="M169.822 117.597C163.42 122.202 157.015 126.801 150.606 131.396C141.988 137.578 133.366 143.755 124.741 149.927C120.28 153.118 115.817 156.306 111.353 159.492C110.19 160.32 111.489 162.118 112.656 161.288C120.902 155.419 129.135 149.531 137.356 143.623C145.502 137.787 153.646 131.947 161.787 126.102C164.9 123.867 168.012 121.63 171.125 119.392C172.283 118.559 170.984 116.76 169.822 117.596L169.822 117.597Z" fill="#211715"/>
<path d="M110.994 147.727C120.041 141.281 129.078 134.818 138.103 128.341C147.841 121.364 157.576 114.381 167.307 107.394C170.992 104.748 174.676 102.102 178.36 99.4536C179.519 98.6205 178.219 96.8219 177.057 97.6575C169.369 103.185 161.678 108.707 153.984 114.224C143.875 121.476 133.761 128.723 123.644 135.964C118.994 139.29 114.343 142.612 109.69 145.931C108.528 146.759 109.827 148.557 110.993 147.727L110.994 147.727Z" fill="#211715"/>
<path d="M152.937 85.2867C152.443 80.3633 151.421 70.2879 151.066 66.706C151.066 66.706 151.061 66.6558 151.055 66.5589C127.583 55.9797 92.2283 39.961 76.1709 32.6719C64.0478 41.3852 39.6431 58.9021 25.5205 68.9858C25.9338 73.1627 27.1893 85.5356 27.5498 89.2072C41.9916 95.7644 79.8044 112.9 103.046 123.368C117.769 112.85 141.832 95.5751 153.154 87.4354L153.135 87.2461C153.085 86.7673 153.019 86.0968 152.937 85.2867Z" fill="white"/>
<path d="M75.2621 33.3254C62.863 42.2354 39.2992 59.1486 25.5206 68.9865C25.9339 73.1633 27.1895 85.5363 27.55 89.2078C33.8305 92.0595 44.5301 96.9122 56.5318 102.347C56.0249 97.308 54.9015 86.1753 54.4801 81.9391C76.2484 66.3171 94.5869 53.145 104.929 45.7086C93.4393 40.505 83.0397 35.7899 76.171 32.6709L75.2621 33.3254Z" fill="#64C8CC" fill-opacity="0.5"/>
<path d="M154.041 85.1775C153.415 78.9419 152.639 72.7003 152.158 66.4497C152.139 66.2569 152.07 66.0725 151.958 65.9147C151.845 65.757 151.693 65.6315 151.517 65.5507C141.156 60.8802 130.798 56.202 120.443 51.516C110.172 46.8693 99.9036 42.2194 89.6367 37.5663C85.303 35.5983 80.9687 33.632 76.6339 31.6675C76.4548 31.5866 76.2575 31.5543 76.062 31.5736C75.8664 31.593 75.6793 31.6634 75.5196 31.7778C69.3575 36.2044 63.1937 40.6296 57.028 45.0536C49.8352 50.2149 42.6401 55.3728 35.4429 60.5271C31.9195 63.0496 28.395 65.5702 24.8694 68.0889C24.713 68.2031 24.5891 68.356 24.5097 68.5326C24.4303 68.7092 24.3983 68.9034 24.4167 69.0962C24.8932 73.9118 25.3771 78.7262 25.8682 83.5396C25.9858 84.7051 26.1028 85.8705 26.2192 87.036C26.2969 87.8214 26.229 88.8642 26.5149 89.6072C26.8202 90.4007 28.4125 90.8183 29.1478 91.1524L31.8321 92.3714C41.6673 96.8339 51.5046 101.292 61.3438 105.745C72.6292 110.855 83.9172 115.958 95.2078 121.054L99.0707 122.797L100.849 123.598C101.45 123.918 102.075 124.193 102.717 124.42C103.473 124.63 104.097 123.979 104.67 123.57L106.401 122.332C107.569 121.497 108.736 120.662 109.903 119.827C114.985 116.19 120.066 112.55 125.146 108.906C134.448 102.236 143.747 95.5606 153.043 88.8793C153.611 88.4709 154.276 88.1303 154.253 87.3272C154.233 86.613 154.111 85.8878 154.04 85.1748C153.9 83.7547 151.692 83.9704 151.833 85.3932C151.904 86.1096 151.975 86.8271 152.046 87.5457L152.498 86.5384C146.594 90.7831 140.687 95.0252 134.779 99.2647C127.591 104.424 120.401 109.58 113.209 114.732C109.603 117.313 105.997 119.893 102.391 122.471L103.505 122.361C92.9382 117.601 82.3763 112.832 71.8194 108.053C61.3894 103.333 50.9609 98.6083 40.5339 93.8801C36.3598 91.9895 32.1862 90.0962 28.013 88.2L28.6537 89.0991C28.1158 83.6288 27.5546 78.1608 27.005 72.6911C26.8793 71.4202 26.7524 70.1491 26.6244 68.8777L26.1723 69.8849C32.8175 65.1404 39.4572 60.3879 46.0915 55.6274C53.1558 50.5635 60.2177 45.4967 67.2773 40.4269C70.4598 38.1429 73.6414 35.8576 76.8222 33.571L75.7079 33.6813C84.2996 37.5806 92.8933 41.4768 101.489 45.3701C112.252 50.2453 123.018 55.1162 133.785 59.9828C139.385 62.5124 144.988 65.0418 150.592 67.5711L149.951 66.672C150.431 72.9221 151.207 79.1625 151.834 85.3998C151.976 86.8163 154.184 86.6006 154.041 85.1775Z" fill="#211715"/>
<path d="M99.7422 102.842C100.204 107.514 100.7 112.181 101.163 116.853C101.303 118.273 103.511 118.057 103.37 116.634C102.908 111.963 102.413 107.295 101.95 102.624C101.809 101.204 99.6014 101.42 99.7422 102.842Z" fill="#211715"/>
<path d="M101.548 101.975C92.6961 98.0009 83.8514 94.0109 75.0139 90.0052C65.4805 85.6942 55.949 81.3783 46.4194 77.0577C42.81 75.4215 39.201 73.784 35.5924 72.1452C34.2905 71.5539 33.366 73.5709 34.6667 74.1617C42.1963 77.582 49.7279 80.9969 57.2613 84.4064C67.1601 88.8886 77.0614 93.3664 86.965 97.8399C91.5153 99.8942 96.0678 101.945 100.623 103.992C101.927 104.578 102.852 102.561 101.548 101.975Z" fill="#211715"/>
<path d="M101.426 103.642C107.136 99.5736 112.84 95.495 118.537 91.4061C124.661 87.0178 130.783 82.6266 136.903 78.2323C139.247 76.5514 141.59 74.8681 143.933 73.1825C145.092 72.3494 143.792 70.5508 142.63 71.3864C137.778 74.8761 132.923 78.3616 128.067 81.8431C121.711 86.4026 115.352 90.959 108.991 95.5123C106.036 97.6252 103.08 99.7365 100.123 101.846C98.9604 102.674 100.26 104.473 101.426 103.642Z" fill="#211715"/>
<path d="M55.1886 82.7945C62.8054 77.3289 70.4211 71.8621 78.0357 66.3941C84.22 61.9553 90.4036 57.5138 96.5865 53.0695C99.2311 51.1693 101.876 49.2686 104.52 47.3673C105.678 46.5343 104.38 44.7356 103.217 45.5713C98.1043 49.2472 92.9902 52.9227 87.8743 56.5978C80.9935 61.5402 74.112 66.4816 67.2298 71.422C62.7825 74.6144 58.3352 77.8065 53.8879 80.9982C52.728 81.8308 54.0273 83.6289 55.1903 82.7943L55.1886 82.7945Z" fill="#211715"/>
<path d="M53.3731 82.0387C53.9997 88.2983 54.6457 94.556 55.2657 100.816C55.4062 102.237 57.6141 102.021 57.4733 100.598C56.8538 94.3375 56.2073 88.0799 55.5807 81.8203C55.4402 80.4002 53.2323 80.6159 53.3731 82.0387Z" fill="#211715"/>
<path d="M88.2491 78.9645C88.3059 80.1528 88.12 81.3403 87.7027 82.4544C86.8196 84.7153 84.8505 86.3976 82.7164 87.5562C80.5823 88.7148 80.2391 88.5024 78.0068 89.4573C76.2665 90.2024 74.4664 91.2048 73.8763 93.0984C73.6457 94.0617 73.5503 95.0523 73.5929 96.0418C73.7959 99.7825 74.209 103.653 74.5419 107.49C74.5712 107.758 74.5145 108.027 74.3802 108.26C74.2459 108.493 74.0409 108.676 73.795 108.785C71.2439 109.81 68.4903 110.231 65.7494 110.016C65.4618 109.951 65.1972 109.809 64.9843 109.605C64.6659 109.359 64.4213 109.031 64.2772 108.655C63.8975 106.936 63.6318 105.27 63.4067 103.598C61.5213 104.217 59.3913 105.175 57.2914 104.877C55.8314 104.67 54.3899 103.715 54.0255 102.286L53.7259 101.106C52.8275 95.276 52.5826 96.0453 51.6843 90.2172C51.3821 88.2559 51.0903 86.1848 51.817 84.3378C52.4619 82.9463 53.4216 81.7239 54.6204 80.7673C56.9131 78.716 59.4447 76.9485 62.1604 75.5031C62.1604 75.5031 84.4873 78.5766 88.2491 78.9645Z" fill="#C7C7C7"/>
<path d="M83.9853 81.3696C85.1843 80.5331 86.7405 79.571 88.2253 78.4689C90.6896 76.6423 92.9838 74.4151 93.2357 71.7056C93.2982 70.5376 93.1767 69.367 92.8757 68.2368C91.9692 64.218 90.4928 59.1198 87.6261 56.0233C85.8781 54.1281 83.1771 51.7264 80.6778 50.7432C80.6778 50.7432 76.3535 49.1536 72.3185 49.2887C65.8407 49.5061 62.8183 52.5756 62.8183 52.5756C59.3682 55.7707 57.1851 60.1022 56.6691 64.7762L56.1852 71.3535L56.0105 73.7271L83.9853 81.3696Z" fill="white"/>
<path d="M61.3347 115.774C61.1599 115.208 61.1104 114.61 61.1899 114.023C61.2693 113.436 61.4756 112.873 61.7946 112.374C62.531 111.3 63.4688 110.379 64.5558 109.662C65.8046 110.455 70.5309 110.164 73.7975 108.787C73.9085 108.74 74.0118 108.677 74.1039 108.6C74.1842 108.989 74.2348 109.229 74.2348 109.229C74.902 112.396 73.0905 113.875 71.9322 114.729C70.5527 115.745 69.0399 116.565 67.4364 117.168C66.4769 117.571 65.4456 117.777 64.4046 117.771C63.8842 117.761 63.3723 117.638 62.9044 117.41C62.4366 117.181 62.0241 116.854 61.6958 116.45C61.5446 116.243 61.423 116.015 61.3347 115.774Z" fill="white"/>
<path d="M50.7896 109.813C50.8973 109.377 51.0707 108.959 51.3039 108.574C52.107 107.431 53.1261 106.457 54.3038 105.706C54.8924 105.208 55.579 104.84 56.3191 104.625C56.6342 104.746 56.962 104.831 57.2961 104.878C59.3959 105.176 61.5255 104.219 63.4115 103.6C63.5725 104.805 63.756 106.006 63.9877 107.227L63.1359 107.455C63.337 108.829 62.22 110.027 61.1027 110.85C59.7687 111.832 58.3059 112.625 56.7554 113.208C55.8278 113.599 54.8304 113.796 53.8239 113.788C53.3211 113.78 52.8261 113.661 52.374 113.441C51.9219 113.221 51.5236 112.904 51.2072 112.513C50.9449 112.121 50.7717 111.676 50.6995 111.209C50.6274 110.743 50.6581 110.267 50.7896 109.813Z" fill="white"/>
<path d="M73.1323 109.339C73.3125 110.019 73.3087 110.736 73.1213 111.415C72.9339 112.094 72.5696 112.711 72.0657 113.203C70.5902 114.49 68.8831 115.485 67.0356 116.133C65.5446 116.69 62.5283 117.257 62.2663 114.913C62.0323 112.818 64.0767 111.39 65.5481 110.31C66.6992 109.467 65.3981 107.667 64.2452 108.514C62.506 109.789 60.7721 111.195 60.1978 113.373C59.8989 114.373 59.9795 115.448 60.4242 116.393C60.8688 117.337 61.6462 118.085 62.6076 118.492C64.8385 119.393 67.2803 118.55 69.3347 117.566C71.0194 116.818 72.5608 115.782 73.8899 114.505C74.5538 113.795 75.0332 112.933 75.286 111.994C75.5388 111.056 75.5572 110.07 75.3396 109.122C75.3034 108.833 75.1573 108.568 74.9316 108.383C74.7059 108.198 74.4177 108.107 74.1266 108.128C73.8347 108.159 73.5667 108.303 73.3805 108.53C73.1944 108.757 73.1051 109.049 73.132 109.341L73.1323 109.339Z" fill="#211715"/>
<path d="M55.7761 103.625C54.8261 103.986 53.9451 104.507 53.1714 105.165C52.3907 105.722 51.6729 106.363 51.0308 107.075C49.8001 108.504 49.1066 110.614 49.8934 112.426C50.725 114.342 52.8964 115.098 54.8561 114.852C56.9694 114.587 59.0575 113.527 60.828 112.388C62.5703 111.268 64.4845 109.64 64.242 107.347C64.0921 105.927 61.8842 106.143 62.0344 107.565C62.2059 109.186 59.9096 110.4 58.7578 111.061C57.9236 111.534 57.0492 111.933 56.1448 112.252C55.2417 112.65 54.2399 112.767 53.2695 112.588C51.6152 112.147 51.4833 110.409 52.2721 109.109C52.7791 108.364 53.4183 107.717 54.1581 107.201C54.8692 106.561 55.688 106.051 56.5767 105.696C57.94 105.275 57.1405 103.205 55.7794 103.625L55.7761 103.625Z" fill="#211715"/>
<path d="M61.7656 74.4683C58.7549 76.0544 55.9644 78.027 53.4649 80.3361C52.2049 81.404 51.2389 82.7764 50.6587 84.3227C50.2161 85.9305 50.1377 87.6168 50.4293 89.2587C50.745 91.6323 51.2081 93.9745 51.7278 96.3095C52.1975 98.4204 52.4001 100.598 52.9932 102.677C53.238 103.414 53.6599 104.081 54.2219 104.617C54.784 105.154 55.469 105.544 56.217 105.755C58.1502 106.368 60.1635 105.87 62.0277 105.25C63.382 104.8 62.5852 102.729 61.2304 103.179C59.2162 103.849 55.775 104.555 55.0376 101.778C54.5513 99.9441 54.3634 98.0227 53.9487 96.1522C53.5137 94.1889 53.1225 92.2296 52.8139 90.2427C52.5186 88.8513 52.4259 87.4245 52.5385 86.0065C52.7742 84.6303 53.4579 83.3704 54.4834 82.4228C56.8651 80.0649 59.5901 78.081 62.5657 76.5387C62.8347 76.4257 63.0504 76.2144 63.169 75.9478C63.2876 75.6812 63.3001 75.3795 63.2039 75.104C63.0971 74.8302 62.8866 74.6095 62.6181 74.49C62.3496 74.3705 62.0447 74.3617 61.7698 74.4657L61.7656 74.4683Z" fill="#211715"/>
<path d="M62.5904 85.1351C60.8291 86.6369 60.5585 88.7453 60.7387 90.9154C60.9213 93.1166 61.2558 95.3021 61.5415 97.4914C61.9165 100.363 62.1893 103.25 62.6671 106.107C62.8884 107.431 62.9519 109.069 63.9072 110.09C64.8239 111.069 65.841 111.193 67.1131 111.201C68.3331 111.2 69.55 111.075 70.745 110.829C71.9937 110.629 73.21 110.263 74.3612 109.739C75.7461 109.036 75.6724 107.648 75.5535 106.312C75.4176 104.792 75.273 103.274 75.1378 101.756C75.0037 100.254 74.8777 98.7505 74.779 97.2455C74.6249 96.0203 74.6655 94.7784 74.8992 93.5659C75.4385 91.4973 77.989 90.5817 79.7862 89.9552C82.1168 89.1428 84.3409 88.167 86.1798 86.4647C87.2933 85.4473 88.1567 84.1866 88.7029 82.7807C89.2491 81.3749 89.4632 79.8618 89.3286 78.3596C89.2432 76.933 87.0358 77.1542 87.121 78.5781C87.2273 79.7077 87.076 80.8468 86.6782 81.9094C86.2805 82.972 85.6469 83.9306 84.825 84.7128C83.3623 86.0498 81.6226 87.0475 79.7299 87.6346C77.8056 88.2664 75.7711 89.0295 74.2857 90.4583C72.6362 92.0426 72.4075 94.2371 72.5077 96.4152C72.6333 99.1654 72.9222 101.911 73.1746 104.653C73.2365 105.324 73.2974 105.994 73.3574 106.664C73.4261 106.972 73.4538 107.288 73.4398 107.604C73.395 107.787 73.4143 107.718 73.3042 107.793C72.8178 108.043 72.2979 108.222 71.7606 108.324C71.2104 108.481 70.6522 108.608 70.0884 108.705C69.0348 108.898 67.9659 108.995 66.8948 108.995C66.5468 109.026 66.1961 108.989 65.8624 108.886C65.3183 108.631 65.2735 108.037 65.1707 107.528C64.6608 104.954 64.3621 102.347 64.0521 99.7431C63.7571 97.2694 63.3858 94.806 63.1073 92.3301C63.0029 91.3986 62.8941 90.4564 62.8739 89.5204C62.8724 89.4431 62.8708 89.3652 62.8709 89.2872C62.8717 89.0642 62.8632 89.3559 62.8733 89.2502C62.8984 88.9508 62.9498 88.6542 63.027 88.3639C63.1679 87.8121 63.4686 87.3142 63.8913 86.9325C64.9706 86.0125 63.6773 84.2072 62.5884 85.137L62.5904 85.1351Z" fill="#211715"/>
<path d="M62.166 51.6782C58.4958 55.0539 56.1575 59.6336 55.5757 64.5861C55.4176 66.0012 57.6038 66.3829 57.7625 64.9622C58.2374 60.5759 60.2607 56.5027 63.469 53.4742C63.6994 53.2958 63.8532 53.0362 63.899 52.7484C63.9447 52.4606 63.879 52.1661 63.7153 51.925C63.5414 51.6884 63.2813 51.5298 62.9913 51.4836C62.7013 51.4374 62.4048 51.5073 62.166 51.6782Z" fill="#211715"/>
<path d="M57.7291 75.9394C56.4259 75.2953 55.7874 74.0527 55.4512 72.6999C55.0744 71.1834 55.1438 69.1987 57.3275 68.4175C58.116 68.1777 58.9666 68.251 59.7024 68.6222C60.4733 68.9742 61.1259 69.5417 61.5814 70.2563C62.0368 70.9709 62.2758 71.8021 62.2694 72.6495C62.2987 74.4885 60.7439 76.3315 58.9064 76.2464C58.4968 76.2273 58.0958 76.1227 57.7291 75.9394Z" fill="white"/>
<path d="M58.1911 74.9319C57.9217 74.7954 57.6776 74.6139 57.4693 74.3953C57.5803 74.5091 57.4185 74.3329 57.3945 74.304C57.3344 74.2301 57.2767 74.1544 57.2215 74.0771C57.1774 74.0145 57.135 73.9513 57.094 73.8868C57.094 73.8868 56.927 73.5896 57.0042 73.7391C56.8457 73.4249 56.7151 73.0975 56.6136 72.7606C56.5842 72.666 56.557 72.5712 56.5297 72.4752C56.5096 72.4014 56.4539 72.1378 56.5152 72.4304C56.4865 72.2923 56.4587 72.1574 56.4373 72.0151C56.4013 71.7585 56.3814 71.4999 56.378 71.2408C56.373 71.0323 56.378 71.2408 56.3761 71.2783C56.3835 71.2068 56.3875 71.1345 56.3966 71.0628C56.4155 70.9043 56.4506 70.7521 56.4848 70.5965C56.4293 70.8528 56.5231 70.4997 56.5572 70.4222C56.5914 70.3447 56.7879 70.0443 56.6425 70.2415C56.7228 70.1313 56.8087 70.0251 56.8997 69.9235C57.0163 69.7955 56.6967 70.0684 56.9365 69.8903C57.0171 69.8311 57.0916 69.7674 57.1774 69.711C57.2354 69.6723 57.2946 69.6342 57.3554 69.6003C57.2038 69.685 57.3708 69.5988 57.3963 69.5862C57.5552 69.5162 57.7179 69.4554 57.8838 69.4042C57.6412 69.4706 57.9866 69.4007 58.0778 69.3934C58.169 69.386 58.2606 69.382 58.3521 69.383C58.4306 69.383 58.4273 69.3833 58.3427 69.3839C58.4022 69.388 58.4614 69.395 58.5196 69.4037C58.8492 69.4478 59.1651 69.5638 59.445 69.7435C59.4585 69.7511 59.6229 69.8519 59.5037 69.7739C59.5678 69.8138 59.6301 69.8573 59.6919 69.9013C59.8569 70.0181 60.0146 70.1449 60.1641 70.2809C60.5573 70.6403 60.8464 71.099 61.0011 71.6087C60.9954 71.5908 61.095 71.9271 61.0555 71.7755C61.016 71.6239 61.094 71.9734 61.0904 71.9537C61.1195 72.1224 61.1399 72.2924 61.1514 72.4632C61.1611 72.5615 61.1631 72.6599 61.1644 72.7584C61.1636 72.71 61.1862 72.5668 61.1629 72.7987C61.1431 72.9855 61.1115 73.1708 61.0684 73.3536C60.9908 73.6957 61.1077 73.2662 61.0351 73.4567C60.9955 73.5632 60.9517 73.6673 60.9034 73.7701C60.8497 73.9116 60.7736 74.0436 60.6779 74.1608C60.5674 74.3118 60.4457 74.4543 60.3138 74.587C60.4233 74.4775 60.2926 74.6041 60.274 74.6188C60.1872 74.6876 60.1016 74.7573 60.0097 74.8199C59.7785 74.9769 59.5155 75.0809 59.2396 75.1246C58.878 75.1721 58.5107 75.1039 58.1904 74.9297C57.9229 74.807 57.6177 74.7955 57.3418 74.8978C57.0659 75.0001 56.842 75.2078 56.7192 75.4752C56.5965 75.7426 56.585 76.0478 56.6873 76.3237C56.7896 76.5996 56.9973 76.8235 57.2647 76.9463C59.4269 77.9584 61.7185 76.899 62.8166 74.8961C63.2637 74.0005 63.4467 72.9963 63.3443 72.0006C63.2419 71.005 62.8584 70.059 62.2385 69.2731C60.9788 67.7002 58.8026 66.6533 56.8166 67.4227C55.9815 67.7452 55.273 68.3293 54.7971 69.0876C54.3212 69.846 54.1034 70.7379 54.1761 71.6303C54.2492 73.7603 55.3361 75.9523 57.2658 76.9462C57.5332 77.0689 57.8384 77.0804 58.1143 76.9781C58.2509 76.9275 58.3762 76.8504 58.483 76.7514C58.5898 76.6523 58.6761 76.5331 58.7369 76.4007C58.7977 76.2683 58.8318 76.1252 58.8373 75.9797C58.8427 75.8341 58.8195 75.6888 58.7689 75.5522C58.7182 75.4156 58.6411 75.2903 58.5421 75.1835C58.443 75.0767 58.3239 74.9904 58.1915 74.9296L58.1911 74.9319Z" fill="#211715"/>
<path d="M63.3867 60.6725L64.6043 72.9768C64.7448 74.3968 66.9527 74.1811 66.8119 72.7583L65.5944 60.4541C65.4539 59.034 63.246 59.2497 63.3867 60.6725Z" fill="#211715"/>
<path d="M65.5321 74.9987C62.1942 75.9097 58.8604 77.5771 53.9362 78.9031C57.1691 80.0852 63.2551 82.3682 69.0792 84.5941C73.7069 82.1538 75.0457 81.6758 77.949 80.2198C72.6424 78.1149 65.5418 74.9961 65.5321 74.9987Z" fill="white"/>
<path d="M65.1335 73.9626C61.1996 75.0519 57.4831 76.794 53.5377 77.8676C52.6346 78.113 52.6101 79.5951 53.474 79.9109C56.8921 81.1621 60.301 82.4449 63.7022 83.7335C64.724 84.1206 65.7453 84.5085 66.7661 84.8972C67.3012 85.1011 67.8341 85.3109 68.371 85.5091C68.6464 85.6253 68.947 85.669 69.2441 85.6361C69.5412 85.6032 69.825 85.4947 70.0683 85.3211C71.5301 84.5567 73.0049 83.8184 74.4927 83.106C75.7797 82.4938 77.0729 81.8944 78.3479 81.2566C79.1333 80.8635 79.375 79.5945 78.4121 79.2127C75.6634 78.1198 72.9366 76.9724 70.2173 75.8103C68.816 75.2111 67.4272 74.5131 65.9955 73.9899C64.6604 73.5017 63.7278 75.5156 65.0699 76.0065C66.5016 76.5297 67.8903 77.2277 69.2922 77.8268C72.0115 78.9889 74.7383 80.1363 77.487 81.2292L77.5512 79.1859C74.6013 80.6615 71.6022 82.0222 68.6819 83.5601L69.5433 83.5863C64.5041 81.6606 59.4662 79.7471 54.4003 77.8954L54.3362 79.9393C58.2816 78.8656 61.9977 77.1241 65.932 76.0343C66.2055 75.927 66.4257 75.7164 66.5452 75.4481C66.6646 75.1797 66.6737 74.8751 66.5703 74.6001C66.4595 74.3289 66.248 74.1111 65.9802 73.9923C65.7123 73.8735 65.4089 73.8628 65.1335 73.9626Z" fill="#211715"/>
<path d="M74.9252 79.2307C74.9899 76.5609 77.5328 74.0878 81.2287 75.263C81.9269 76.8559 83.1031 79.2519 83.8806 81.2749C83.1637 81.9823 82.544 82.5964 82.544 82.5964C81.54 84.0857 78.9965 84.0872 77.5442 83.3893C76.7572 83.0172 76.0927 82.4282 75.6288 81.6916C75.1649 80.9549 74.9208 80.1012 74.9252 79.2307Z" fill="white"/>
<path d="M80.7181 73.9857C79.1925 73.6606 77.6003 73.9392 76.2758 74.763C75.1452 75.5154 74.3325 76.6588 73.9936 77.9738C73.1848 80.9519 75.2332 84.0128 78.1465 84.7645C79.9291 85.224 82.2729 84.8996 83.4028 83.2969C83.5825 83.0668 83.6667 82.7762 83.638 82.4856C83.6092 82.195 83.4697 81.9266 83.2483 81.7361C83.0198 81.5522 82.7283 81.4653 82.4364 81.4942C82.1445 81.5231 81.8756 81.6654 81.6875 81.8906C81.6384 81.9573 81.5887 82.0185 81.5395 82.0841C81.5071 82.1286 81.3531 82.2787 81.5119 82.1314C81.4035 82.2265 81.2882 82.3133 81.167 82.3913C81.1147 82.426 80.9282 82.5074 81.1224 82.4197C81.0621 82.4468 81.0036 82.4749 80.9425 82.4999C80.788 82.5634 80.6294 82.6164 80.4678 82.6583C80.685 82.6011 80.4678 82.6583 80.4087 82.6642C80.3235 82.6759 80.2391 82.691 80.1538 82.7011C79.9987 82.7164 79.8439 82.7239 79.6887 82.7326C79.6335 82.7381 79.4045 82.7323 79.6225 82.7392C79.5537 82.7365 79.4847 82.7316 79.4161 82.7256C79.2296 82.7105 79.0441 82.6855 78.8603 82.6507C78.7143 82.6234 78.5704 82.588 78.4268 82.5504C78.6476 82.6082 78.2741 82.4947 78.2114 82.4686C78.0781 82.4119 77.9483 82.3473 77.8227 82.2752C77.5355 82.1153 77.9192 82.3437 77.7598 82.2358C77.6774 82.1804 77.596 82.1238 77.5166 82.0648C77.401 81.9785 77.289 81.8881 77.1804 81.7937C77.134 81.7526 77.0881 81.7109 77.0426 81.668C77.0426 81.668 76.8304 81.4555 76.9467 81.5778C77.0631 81.7 76.8655 81.4833 76.8642 81.4817C76.8264 81.437 76.789 81.3916 76.7532 81.3456C76.6558 81.2218 76.5651 81.0929 76.4815 80.9595C76.4444 80.9002 76.409 80.8402 76.374 80.7795C76.3922 80.8117 76.4753 80.9924 76.3951 80.8126C76.3404 80.6881 76.2816 80.5669 76.2332 80.4384C76.1954 80.338 76.1631 80.2364 76.1312 80.1342C76.1254 80.1147 76.0625 79.8624 76.1055 80.0493C76.1486 80.2362 76.0911 79.9598 76.0854 79.9242C76.0506 79.6803 76.0313 79.4345 76.0276 79.1881C76.0377 79.4374 76.0252 79.2263 76.0373 79.1008C76.0518 78.9489 76.0741 78.7979 76.104 78.6483C76.1248 78.5482 76.1536 78.4506 76.176 78.3508C76.2301 78.1086 76.1001 78.5077 76.1712 78.3697C76.1992 78.3146 76.2149 78.2478 76.2375 78.1898C76.2797 78.0831 76.3262 77.978 76.3769 77.8745C76.4098 77.8072 76.6382 77.4229 76.4691 77.6804C76.5946 77.4857 76.7345 77.3007 76.8875 77.1268C76.9257 77.0846 77.1691 76.8409 77.0558 76.9463C76.9227 77.0709 77.1151 76.8975 77.1274 76.8874C77.1889 76.8384 77.2491 76.7878 77.3124 76.7403C77.4161 76.6615 77.5279 76.5864 77.6403 76.5173C77.6535 76.5093 77.8833 76.3818 77.7233 76.4662C77.5725 76.5469 77.8203 76.4215 77.8513 76.4078C77.989 76.3443 78.1301 76.2883 78.2739 76.24C78.3688 76.2078 78.7475 76.1207 78.4762 76.1732C78.8003 76.1147 79.128 76.0789 79.4571 76.0661C79.5046 76.0614 79.676 76.0706 79.4438 76.0613C79.5412 76.065 79.6383 76.0727 79.7351 76.0821C79.9371 76.1016 80.1371 76.1343 80.3365 76.173C80.4801 76.1977 80.6272 76.1939 80.7693 76.1618C80.9114 76.1296 81.0457 76.0698 81.1647 75.9857C81.2837 75.9017 81.385 75.795 81.4628 75.6718C81.5405 75.5486 81.5932 75.4113 81.6179 75.2677C81.6426 75.1241 81.6388 74.977 81.6067 74.8349C81.5745 74.6928 81.5147 74.5585 81.4306 74.4395C81.3466 74.3205 81.2399 74.2192 81.1167 74.1415C80.9935 74.0637 80.8562 74.011 80.7126 73.9863L80.7181 73.9857Z" fill="#211715"/>
<path d="M83.3316 65.9092C83.2605 65.6186 83.3023 65.7822 83.3359 65.9528C83.3624 66.0962 83.3882 66.2391 83.413 66.3826C83.4832 66.7931 83.5463 67.2054 83.6065 67.6169C83.7375 68.5185 83.8578 69.4245 83.9261 70.3339C83.9397 70.5115 83.9518 70.6897 83.9572 70.8681C83.9608 70.972 83.9931 71.3661 83.9649 71.0702C83.9938 71.3621 83.865 71.0801 84.0034 71.0424C83.8512 71.0865 83.5856 71.4332 83.4368 71.5794C82.4156 72.5856 81.4296 73.6261 80.4059 74.6291C80.2786 74.7792 80.1948 74.9612 80.1635 75.1554C80.1322 75.3497 80.1547 75.5488 80.2285 75.7312C81.1247 77.7542 82.1085 79.7384 82.9006 81.8068C82.9637 81.9638 83.0615 82.1045 83.1866 82.2183C83.3118 82.3322 83.4611 82.4162 83.6233 82.4642C83.7856 82.5122 83.9565 82.5229 84.1235 82.4955C84.2904 82.4681 84.449 82.4033 84.5874 82.3059C88.911 79.2927 95.0489 76.0509 94.2986 69.8532C93.9093 67.1328 93.2119 64.4654 92.22 61.9026C91.3978 59.4474 90.0975 57.1794 88.3941 55.2295C86.3491 53.0354 83.9561 50.8802 81.1438 49.7351C79.8221 49.1971 78.8935 51.2123 80.2181 51.7516C82.462 52.6654 84.3809 54.3052 86.079 56.0008C87.6713 57.6244 88.9195 59.5526 89.7487 61.67C90.6269 63.8766 91.3145 66.1543 91.804 68.4782C92.0918 69.7767 92.3568 71.1811 91.9655 72.4872C91.6133 73.5048 91.04 74.4317 90.2868 75.2013C88.3119 77.383 85.6744 78.8444 83.2845 80.5098L84.9715 81.0117C84.1794 78.9433 83.1955 76.9585 82.2993 74.9356L82.1213 76.0377C83.2162 74.9652 84.2665 73.8475 85.3657 72.7796C86.1286 72.0404 86.2113 71.384 86.1514 70.3673C86.0598 68.5972 85.8101 66.8388 85.4052 65.1132C85.2983 64.8395 85.0877 64.6189 84.8193 64.4994C84.5508 64.3799 84.246 64.3711 83.9711 64.4749C83.7009 64.5865 83.484 64.7977 83.3652 65.0647C83.2464 65.3318 83.2348 65.6342 83.3328 65.9096L83.3316 65.9092Z" fill="#211715"/>
<path d="M82.7056 61.1092C82.7791 61.1945 82.8205 61.3028 82.8228 61.4153C82.797 61.5996 82.5956 61.6925 82.4192 61.7462C80.7192 62.4731 78.9664 63.0698 77.176 63.5312C77.1167 63.5475 77.0546 63.5513 76.9938 63.5424C76.9329 63.5334 76.8746 63.5119 76.8225 63.4792C76.7528 63.4052 76.7122 63.3085 76.7081 63.2069C76.4073 61.5586 75.8735 58.7435 75.5474 57.4477C72.1581 58.1749 68.6244 57.7847 65.4754 56.3354C64.5543 55.8693 63.273 54.872 62.9486 53.892C62.8319 53.4432 62.8485 52.9701 62.9965 52.5306C63.1444 52.0912 63.4173 51.7044 63.7816 51.4176C64.4539 50.8333 67.1992 50.6469 66.5952 50.7669C67.4024 51.4424 68.3038 51.9966 69.2709 52.412C71.2534 53.2267 73.4268 53.4605 75.5371 53.086C77.6475 52.7115 79.6077 51.7441 81.1888 50.297L81.7477 50.4089C82.2152 50.5491 82.6381 50.8089 82.9745 51.1626C83.3109 51.5162 83.5493 51.9515 83.666 52.4255C83.6988 52.6691 83.6706 52.9171 83.5839 53.1471C83.4972 53.3772 83.3548 53.5822 83.1694 53.7436C82.001 54.7653 80.6903 55.6118 79.2784 56.2565C80.5929 57.7319 81.7367 59.351 82.688 61.0831L82.7056 61.1092Z" fill="white"/>
<path d="M62.1596 41.7558C62.3259 44.9995 63.7216 48.0581 66.0628 50.3094C68.1805 52.3027 71.0001 53.3785 73.9074 53.3023C76.8146 53.2261 79.574 52.0042 81.5844 49.9027C83.1095 49.8319 84.5586 49.2159 85.6677 48.1666C86.1646 47.6943 86.5331 47.1033 86.7386 46.4492C86.944 45.7951 86.9796 45.0995 86.8421 44.4279C86.7096 43.9656 86.4657 43.5429 86.1317 43.197C85.7977 42.8511 85.3838 42.5925 84.9264 42.4439C85.5417 40.2077 85.4012 37.8308 84.5267 35.6827C83.6522 33.5345 82.0927 31.7353 80.0905 30.5646C74.8333 27.562 67.9412 28.7289 64.3604 33.7184C62.7258 36.0654 61.9487 38.9034 62.1596 41.7558Z" fill="white"/>
<path d="M63.1829 35.7851C62.5927 37.141 62.2456 38.5902 62.1575 40.0664C65.1011 40.0363 68.0059 39.391 70.6853 38.172C70.7605 38.1381 70.8419 38.1201 70.9243 38.119C71.0068 38.118 71.0886 38.1339 71.1646 38.1658C71.5322 38.3273 71.1869 39.1294 71.0248 39.4966C72.2956 39.7225 75.2665 38.8539 76.5316 37.9864C77.4545 39.7209 78.3066 40.5879 79.8323 41.1263L83.9007 42.2981C84.2484 42.283 84.596 42.3327 84.9256 42.4447C85.5395 40.2079 85.398 37.831 84.5229 35.6828C83.6479 33.5346 82.0883 31.7353 80.0862 30.5641C74.829 27.5615 67.9368 28.7283 64.356 33.7178C63.894 34.3642 63.5009 35.057 63.1829 35.7851Z" fill="white"/>
<path d="M86.1431 42.1512C86.6398 39.8224 86.4157 37.3977 85.5007 35.1994C84.5857 33.0011 83.0232 31.1335 81.0209 29.8449C79.0511 28.625 76.7996 27.9345 74.4846 27.8405C72.1696 27.7465 69.8696 28.2521 67.8074 29.3082C63.4655 31.6132 61.0457 36.1194 61.0289 40.9736C61.0013 43.3846 61.6124 45.76 62.8 47.8584C63.9877 49.9568 65.7096 51.7035 67.7909 52.9209C72.6211 55.6291 79.0991 54.4275 82.7243 50.2874C83.6673 49.211 81.9495 47.8071 81.0091 48.881C79.66 50.3558 77.9037 51.3972 75.9624 51.8732C74.0212 52.3492 71.9823 52.2385 70.1041 51.5551C66.205 50.0673 63.7359 46.2856 63.3105 42.2175C62.9018 38.3071 64.3866 34.3153 67.6399 31.9971C69.21 30.9184 71.0304 30.2601 72.9273 30.085C74.8242 29.9099 76.7343 30.2238 78.4754 30.9968C80.4942 31.8818 82.1438 33.4394 83.1431 35.4043C84.1424 37.3691 84.4295 39.6196 83.9555 41.7724C83.6526 43.1712 85.8409 43.5404 86.1424 42.149L86.1431 42.1512Z" fill="#211715"/>
<path d="M84.0116 43.4039C84.2734 43.3964 83.886 43.3679 84.1232 43.4052C84.224 43.4214 84.3254 43.432 84.4257 43.4538C84.4826 43.4666 84.7196 43.5518 84.5439 43.4828C84.6395 43.5202 84.7347 43.5587 84.8267 43.6036C84.8689 43.6245 85.1007 43.7599 84.9435 43.6573C85.0293 43.7139 85.112 43.7751 85.1912 43.8406C85.2711 43.9054 85.3472 43.9748 85.4191 44.0483C85.2736 43.8955 85.4661 44.1183 85.4924 44.1525C85.5543 44.2349 85.6113 44.3208 85.6633 44.4098C85.5555 44.222 85.6897 44.4846 85.7068 44.5281C85.7461 44.6247 85.7789 44.7238 85.8047 44.8249C85.7514 44.6072 85.8101 44.913 85.8179 44.9585C85.8288 45.0688 85.8342 45.1742 85.8388 45.2824C85.85 45.5304 85.868 45.1943 85.8291 45.421C85.7978 45.6058 85.7362 45.963 85.7115 46.0407C85.5923 46.3833 85.4246 46.7071 85.2137 47.0023C84.9739 47.333 84.674 47.6156 84.3298 47.8354C83.9823 48.0918 83.5992 48.2958 83.1926 48.4412C82.9675 48.5291 82.7378 48.6045 82.5044 48.667C82.4272 48.6869 82.4272 48.6869 82.5044 48.667C82.4465 48.6794 82.3886 48.6913 82.3306 48.7015C82.1965 48.7264 82.0624 48.7458 81.927 48.7626C81.6342 48.7916 81.365 48.9356 81.1785 49.1631C80.9919 49.3906 80.9034 49.6829 80.9324 49.9756C80.9614 50.2684 81.1054 50.5376 81.3329 50.7242C81.5604 50.9107 81.8527 50.9992 82.1454 50.9702C84.7722 50.6451 87.2919 48.9562 87.931 46.2848C88.0871 45.6749 88.102 45.0374 87.9744 44.4209C87.8469 43.8044 87.5803 43.2251 87.1949 42.7273C86.7849 42.227 86.2647 41.8283 85.675 41.5623C85.0854 41.2963 84.4422 41.1702 83.7957 41.1938C83.5036 41.2242 83.2352 41.3687 83.049 41.5958C82.8627 41.823 82.7737 42.1144 82.8012 42.4069C82.8368 42.6968 82.9827 42.9618 83.2085 43.147C83.4344 43.3322 83.7229 43.4234 84.0142 43.4015L84.0116 43.4039Z" fill="#211715"/>
<path d="M69.519 45.0824C69.5307 45.3419 69.4846 45.6008 69.3839 45.8404C69.2833 46.0799 69.1307 46.2941 68.9371 46.4675C68.66 46.6871 68.3083 46.7904 67.9564 46.7557C67.7168 46.737 67.4849 46.6622 67.2796 46.5373C67.0742 46.4124 66.9012 46.2409 66.7745 46.0367C66.5878 45.7073 66.5104 45.3272 66.5532 44.9511C66.5961 44.5749 66.7572 44.2221 67.0132 43.9432C67.2645 43.6882 67.6029 43.5378 67.9605 43.5222C68.3181 43.5066 68.6684 43.6268 68.941 43.8589C69.122 44.0072 69.2678 44.1939 69.3678 44.4055C69.4678 44.6171 69.5194 44.8483 69.519 45.0824Z" fill="#211715"/>
<path d="M76.3648 45.7889C76.3761 46.0484 76.3297 46.3072 76.2291 46.5467C76.1285 46.7862 75.9761 47.0004 75.7829 47.174C75.5053 47.3933 75.1536 47.4965 74.8015 47.4617C74.5619 47.4432 74.3301 47.3684 74.1249 47.2434C73.9196 47.1185 73.7467 46.9469 73.6202 46.7427C73.4335 46.4133 73.3561 46.0332 73.3989 45.6571C73.4418 45.2809 73.6029 44.9281 73.8589 44.6492C74.1101 44.3943 74.4484 44.2439 74.8059 44.2283C75.1635 44.2127 75.5136 44.3329 75.7861 44.5649C75.9672 44.7134 76.1131 44.9002 76.2131 45.1118C76.3132 45.3235 76.365 45.5548 76.3648 45.7889Z" fill="#211715"/>
<path d="M75.498 38.3865C75.9456 39.2935 76.533 40.1246 77.2386 40.8493C77.8502 41.425 78.5776 41.8636 79.3722 42.1356C79.6461 42.2514 79.9533 42.2608 80.2336 42.1619C80.4373 42.0835 80.6133 41.9468 80.7397 41.7688C80.866 41.5909 80.9371 41.3796 80.9439 41.1615C80.9508 40.9434 80.8931 40.7281 80.7782 40.5426C80.6633 40.3571 80.4962 40.2096 80.2978 40.1185C79.9068 39.9827 79.5315 39.8053 79.1783 39.5895L79.4161 39.7404C79.0727 39.522 78.758 39.2615 78.4794 38.9648L78.6735 39.1685C78.2191 38.658 77.8293 38.0935 77.5129 37.4877L77.6494 37.7406C77.6221 37.6904 77.5949 37.6401 77.5681 37.5898C77.4555 37.3245 77.2526 37.1077 76.9954 36.9777C76.863 36.9169 76.7199 36.8827 76.5743 36.8771C76.4287 36.8716 76.2834 36.8948 76.1467 36.9454C76.0101 36.9961 75.8848 37.0731 75.7779 37.1722C75.671 37.2713 75.5848 37.3905 75.524 37.5229C75.4601 37.6568 75.4248 37.8026 75.4203 37.9509C75.4158 38.0992 75.4422 38.2468 75.4978 38.3843L75.498 38.3865Z" fill="#211715"/>
<path d="M75.8819 37.092C74.6874 37.879 72.5838 38.6082 71.2146 38.4065L72.0346 39.9628C72.3844 39.1613 72.7436 38.0596 71.9595 37.3787C71.0534 36.5917 69.9472 37.3187 69.0344 37.6681C66.9109 38.4525 64.6743 38.8876 62.4117 38.9566C60.9844 39.0187 61.2073 41.2259 62.6301 41.1642C64.1341 41.105 65.6292 40.905 67.0958 40.5668C67.7865 40.4049 68.4695 40.2169 69.1413 39.9882C69.4896 39.8698 69.8343 39.7428 70.1753 39.6073C70.3665 39.5304 70.5563 39.4505 70.7446 39.3676C70.8205 39.335 70.8963 39.3013 70.9715 39.2666C71.1207 39.1975 71.1225 39.1974 70.977 39.266L70.4621 39.0305L70.5517 39.0969L70.2198 38.6376C70.0833 38.3847 70.2921 38.3875 70.1887 38.6212C70.1276 38.7587 70.0777 38.9019 70.0172 39.04C69.9487 39.1947 69.9162 39.363 69.9219 39.5321C69.9277 39.7012 69.9717 39.8668 70.0506 40.0165C70.1295 40.1662 70.2412 40.2962 70.3774 40.3966C70.5137 40.4969 70.6708 40.5652 70.8372 40.5962C71.9352 40.6939 73.0416 40.5655 74.088 40.2188C75.184 39.942 76.2295 39.4938 77.1856 38.8907C78.3774 38.104 77.0744 36.3075 75.8827 37.0947L75.8819 37.092Z" fill="#211715"/>
<path d="M66.1153 49.6532C65.073 49.7647 63.8077 49.9144 62.999 50.6409C62.5107 51.0537 62.1457 51.5933 61.9442 52.2001C61.7427 52.8069 61.7125 53.4576 61.8569 54.0805C62.5106 56.5137 65.496 57.7398 67.6795 58.3307C70.1658 58.9738 72.7608 59.0785 75.2909 58.638C77.821 58.1974 80.2278 57.2217 82.3504 55.7761C83.5221 54.9613 85.0123 53.9522 84.7698 52.3126C84.6306 51.5952 84.2903 50.9322 83.7885 50.4009C83.2868 49.8697 82.6442 49.492 81.936 49.3121C80.5509 48.956 80.1858 51.1461 81.5599 51.4989C82.002 51.6123 82.7355 52.3233 82.5216 52.8082C82.3759 53.1386 81.7773 53.4475 81.5027 53.6519C81.1201 53.9366 80.7266 54.2068 80.3212 54.4571C78.752 55.3845 77.0356 56.0365 75.2464 56.3848C73.4473 56.7541 71.5962 56.7955 69.7824 56.507C68.0189 56.2356 66.1413 55.717 64.7721 54.5182C64.1381 53.9629 63.6682 53.2977 64.2595 52.5203C64.6974 51.9447 65.6656 51.9353 66.3337 51.8608C67.7522 51.7093 67.537 49.5014 66.1153 49.6532Z" fill="#211715"/>
<path d="M78.4872 57.0261C79.6235 58.4271 80.628 59.9301 81.4879 61.5159C81.5496 61.6213 81.6072 61.7365 81.6766 61.835C81.9962 62.2877 82.5069 60.6114 81.9455 60.8013C81.7037 60.881 81.4701 60.9988 81.2327 61.0947C80.7318 61.2931 80.2241 61.4732 79.7129 61.6464C79.2094 61.8144 78.7036 61.9712 78.1957 62.117C77.9356 62.1918 77.675 62.2638 77.414 62.3331C77.3054 62.3621 77.1978 62.3902 77.0913 62.4174L76.8815 62.4711C76.9449 62.4422 77.0139 62.4273 77.0836 62.4274C77.1533 62.4275 77.2222 62.4427 77.2856 62.4718L77.721 62.8283C77.8004 63.1348 77.8281 63.192 77.8043 63C77.7977 62.9333 77.7911 62.8665 77.7845 62.7997C77.7743 62.6965 77.7641 62.5938 77.7539 62.4906C77.7264 62.2388 77.6947 61.9877 77.6587 61.7371C77.5822 61.1929 77.49 60.6512 77.382 60.112C77.1901 59.0732 76.9228 58.0497 76.5824 57.0496C76.5322 56.9108 76.4548 56.7834 76.3547 56.6749C76.2546 56.5664 76.1339 56.479 75.9996 56.4178C75.8653 56.3565 75.7201 56.3227 75.5726 56.3183C75.4251 56.3139 75.2781 56.3389 75.1404 56.392C75.0027 56.4451 74.877 56.5252 74.7706 56.6275C74.6642 56.7298 74.5793 56.8523 74.5208 56.9878C74.4624 57.1234 74.4316 57.2692 74.4302 57.4168C74.4289 57.5644 74.457 57.7108 74.5129 57.8474C74.6077 58.1144 74.6944 58.3845 74.7731 58.6576C74.8118 58.7892 74.8483 58.9221 74.8838 59.0551C74.9062 59.141 74.9286 59.2268 74.9506 59.3132C74.9599 59.3513 75.0294 59.637 75.007 59.5401C74.9773 59.4143 75.0291 59.6399 75.0351 59.666C75.0558 59.7576 75.0755 59.8493 75.0949 59.9388C75.1269 60.0872 75.1573 60.2363 75.1865 60.385C75.2565 60.7403 75.3201 61.0969 75.377 61.4546C75.4801 62.1026 75.4992 62.7745 75.623 63.4165C75.6625 63.7111 75.793 63.986 75.9964 64.2027C76.1999 64.4194 76.4659 64.5671 76.7574 64.6251C77.2145 64.6594 77.6736 64.5934 78.1026 64.4318C79.535 64.0646 80.9415 63.6029 82.3129 63.0499C82.6417 62.9434 82.9554 62.7949 83.2462 62.6081C83.4895 62.4253 83.6672 62.1687 83.7529 61.8766C83.8386 61.5845 83.8276 61.2726 83.7217 60.9872C83.5612 60.6474 83.3746 60.3206 83.1635 60.0098C82.9836 59.701 82.8051 59.3904 82.6257 59.081C81.9522 57.8904 81.1673 56.7663 80.2816 55.7239C80.1049 55.4925 79.8459 55.3379 79.5584 55.2923C79.2708 55.2467 78.9767 55.3135 78.737 55.4788C78.5017 55.6536 78.3442 55.9136 78.2981 56.2031C78.2519 56.4926 78.3209 56.7887 78.4902 57.028L78.4872 57.0261Z" fill="#211715"/>
<path d="M116.073 54.8928C109.417 55.5514 105.29 60.8084 105.845 66.4241C106.467 72.7092 111.594 76.5723 118.154 75.9232C124.964 75.2494 128.981 70.4408 128.363 64.1959C127.804 58.5405 122.706 54.2365 116.073 54.8928Z" fill="white"/>
<path d="M114.952 43.557C109.737 44.073 106.505 48.1909 106.94 52.5919C107.428 57.516 111.446 60.5425 116.583 60.0342C121.919 59.5062 125.064 55.7397 124.579 50.8465C124.141 46.4168 120.149 43.0428 114.952 43.557Z" fill="white"/>
<path d="M122.831 57.3763C128.569 60.7767 128.83 69.5135 123.22 73.1343C118.165 76.3971 110.136 75.1993 107.68 69.2811C106.908 67.4879 106.713 65.4991 107.122 63.5901C107.531 61.6811 108.523 59.9465 109.961 58.6264C110.193 58.4484 110.347 58.1887 110.393 57.9005C110.438 57.6124 110.372 57.3176 110.208 57.0767C110.033 56.8404 109.773 56.6821 109.484 56.6361C109.194 56.59 108.897 56.6598 108.658 56.8304C107.032 58.261 105.839 60.1175 105.212 62.1905C104.585 64.2635 104.549 66.4705 105.109 68.5624C105.554 70.2987 106.408 71.9029 107.601 73.2404C108.794 74.5779 110.291 75.6096 111.965 76.2488C113.813 76.92 115.778 77.2071 117.741 77.0927C119.703 76.9784 121.622 76.4648 123.38 75.5835C124.956 74.7919 126.322 73.6372 127.366 72.2144C128.409 70.7916 129.099 69.1415 129.38 67.3997C129.772 65.0595 129.445 62.6553 128.44 60.5055C127.436 58.3557 125.802 56.5617 123.755 55.3611C123.487 55.2405 123.183 55.2302 122.908 55.3323C122.632 55.4344 122.408 55.6408 122.284 55.9068C122.168 56.175 122.16 56.4776 122.261 56.7517C122.363 57.0257 122.566 57.2499 122.829 57.3777L122.831 57.3763Z" fill="#211715"/>
<path d="M114.843 42.4532C110.7 42.9033 107.04 45.5911 106.034 49.7406C105.592 51.651 105.76 53.6518 106.515 55.4616C107.269 57.2715 108.572 58.7993 110.24 59.8303C113.696 61.9093 118.579 61.5878 121.88 59.3428C125.14 57.1253 126.384 52.9829 125.401 49.2414C124.174 44.5644 119.456 42.0457 114.843 42.4576C113.421 42.5844 113.638 44.7921 115.062 44.6652C118.208 44.3845 121.512 45.7379 122.874 48.7408C124.086 51.4141 123.618 54.8483 121.427 56.883C119.149 58.9994 115.317 59.5765 112.451 58.4529C111.072 57.9032 109.902 56.9335 109.105 55.6813C108.308 54.4292 107.926 52.958 108.012 51.4765C108.21 47.6582 111.434 45.0593 115.062 44.6652C116.479 44.506 116.265 42.2985 114.843 42.4532Z" fill="#211715"/>
<path d="M148.188 41.0328C147.762 41.0664 147.347 41.1854 146.967 41.3828C146.588 41.5801 146.252 41.8518 145.98 42.1815C145.708 42.5113 145.505 42.8924 145.383 43.3023C145.262 43.7121 145.223 44.1423 145.271 44.5672C145.292 45.0018 145.403 45.4273 145.598 45.8166C145.792 46.2059 146.065 46.5505 146.4 46.8285C146.735 47.1064 147.124 47.3116 147.542 47.4311C147.96 47.5505 148.399 47.5815 148.83 47.5221C149.266 47.5009 149.693 47.3879 150.082 47.1903C150.472 46.9928 150.815 46.7153 151.09 46.3759C151.365 46.0365 151.565 45.643 151.677 45.221C151.789 44.7989 151.811 44.358 151.741 43.927C151.705 43.5008 151.584 43.0862 151.384 42.708C151.184 42.3297 150.911 41.9956 150.579 41.7254C150.247 41.4553 149.865 41.2548 149.454 41.1358C149.043 41.0167 148.613 40.9817 148.188 41.0328Z" fill="white"/>
<path d="M110.904 7.71152C110.478 7.7452 110.063 7.8643 109.684 8.06172C109.304 8.25914 108.969 8.53084 108.697 8.86066C108.425 9.19047 108.222 9.57166 108.1 9.98152C107.978 10.3914 107.94 10.8216 107.988 11.2464C108.009 11.6809 108.12 12.1064 108.314 12.4956C108.509 12.8849 108.782 13.2294 109.117 13.5073C109.451 13.7852 109.84 13.9904 110.258 14.1098C110.677 14.2292 111.115 14.2602 111.546 14.2009C111.982 14.1797 112.409 14.0666 112.799 13.8691C113.188 13.6717 113.531 13.3942 113.806 13.0549C114.081 12.7156 114.281 12.3221 114.393 11.9001C114.505 11.4782 114.527 11.0373 114.457 10.6063C114.421 10.1801 114.3 9.76548 114.1 9.38719C113.901 9.00891 113.627 8.67472 113.295 8.40455C112.964 8.13438 112.581 7.93377 112.17 7.8147C111.76 7.69564 111.329 7.66054 110.904 7.71152Z" fill="white"/>
<path d="M35.5552 29.3853C35.1289 29.4189 34.7137 29.538 34.3344 29.7353C33.9551 29.9327 33.6194 30.2044 33.3473 30.5343C33.0751 30.8641 32.8721 31.2453 32.7504 31.6552C32.6286 32.0651 32.5906 32.4953 32.6386 32.9202C32.6595 33.3548 32.7707 33.7802 32.965 34.1695C33.1593 34.5587 33.4326 34.9033 33.7673 35.1812C34.1021 35.4591 34.491 35.6642 34.9093 35.7836C35.3277 35.903 35.7663 35.934 36.1973 35.8746C36.6334 35.8534 37.0601 35.7404 37.4495 35.5429C37.8389 35.3454 38.1822 35.068 38.457 34.7287C38.7317 34.3893 38.9318 33.9958 39.044 33.5739C39.1562 33.1519 39.178 32.711 39.108 32.2801C39.0722 31.8539 38.9508 31.4393 38.7512 31.061C38.5516 30.6827 38.2778 30.3485 37.9462 30.0783C37.6147 29.8082 37.232 29.6076 36.8212 29.4885C36.4104 29.3694 35.9798 29.3343 35.5552 29.3853Z" fill="white"/>
<path d="M148.08 39.9283C147.157 40.0179 146.287 40.3992 145.595 41.0169C144.903 41.6346 144.427 42.4565 144.234 43.3635C144.054 44.2331 144.137 45.1364 144.473 45.9584C144.808 46.7805 145.381 47.4843 146.117 47.9801C146.884 48.4417 147.767 48.6723 148.662 48.6442C149.556 48.6161 150.424 48.3304 151.16 47.8216C151.866 47.2749 152.391 46.5277 152.665 45.6778C152.938 44.8279 152.949 43.9151 152.695 43.059C152.418 42.0767 151.803 41.2239 150.958 40.6511C150.113 40.0783 149.093 39.8224 148.078 39.9285C147.785 39.9574 147.516 40.1015 147.329 40.329C147.143 40.5565 147.054 40.8488 147.083 41.1415C147.112 41.4343 147.256 41.7035 147.484 41.89C147.711 42.0766 148.004 42.1651 148.296 42.1361C148.39 42.1268 148.485 42.1264 148.579 42.1193C148.874 42.0968 148.359 42.082 148.647 42.1204C148.793 42.1399 148.939 42.1544 149.084 42.1886C149.141 42.2008 149.195 42.216 149.251 42.2305C148.984 42.1628 149.252 42.2338 149.3 42.2542C149.454 42.3173 149.604 42.3917 149.748 42.4767C149.501 42.334 149.851 42.563 149.91 42.614C149.97 42.6649 150.033 42.7245 150.094 42.7792C149.91 42.6134 150.05 42.7278 150.094 42.7841C150.188 42.9037 150.273 43.0256 150.36 43.1479C150.393 43.1943 150.456 43.3324 150.347 43.1108C150.396 43.2107 150.445 43.3101 150.488 43.4139C150.539 43.5452 150.583 43.6791 150.619 43.8151C150.539 43.5232 150.634 43.9647 150.641 44.0359C150.655 44.1838 150.658 44.3306 150.661 44.4797C150.655 44.1882 150.66 44.4637 150.654 44.5228C150.644 44.6188 150.631 44.7147 150.614 44.8104C150.601 44.8768 150.588 44.9428 150.572 45.009C150.556 45.0752 150.458 45.3051 150.567 45.0391C150.517 45.1599 150.473 45.2807 150.415 45.398C150.387 45.4565 150.348 45.5088 150.323 45.5664C150.263 45.7062 150.483 45.3612 150.328 45.5503C150.273 45.6182 150.127 45.8768 150.034 45.8988L150.13 45.8096C150.092 45.844 150.053 45.8774 150.013 45.9097C149.974 45.9421 149.933 45.9735 149.891 46.0043C149.828 46.0502 149.761 46.0902 149.697 46.135C149.491 46.2774 149.854 46.0844 149.706 46.1341C149.559 46.1838 149.433 46.2592 149.291 46.3073C149.237 46.3254 149.183 46.3397 149.129 46.3579C149.006 46.3901 149.02 46.3881 149.167 46.354C149.11 46.3665 149.052 46.3772 148.993 46.3869C148.845 46.4116 148.696 46.428 148.546 46.4362C148.458 46.4404 148.371 46.4412 148.283 46.441C148.322 46.441 148.526 46.4637 148.325 46.4369C148.173 46.4173 148.023 46.4004 147.872 46.3669C147.806 46.3517 147.741 46.3341 147.676 46.3161C147.962 46.3958 147.675 46.3067 147.612 46.2805C147.481 46.2227 147.353 46.1572 147.229 46.0844C147.488 46.2321 147.153 46.015 147.091 45.9627C147.045 45.916 146.997 45.8722 146.946 45.8315C146.822 45.7519 147.104 46.0316 146.953 45.8386C146.854 45.713 146.761 45.5857 146.671 45.4546C146.518 45.2358 146.76 45.6688 146.652 45.4231C146.63 45.3723 146.605 45.323 146.581 45.2724C146.517 45.1152 146.462 44.9543 146.416 44.7905C146.427 44.8284 146.459 45.0292 146.426 44.8219C146.412 44.7324 146.395 44.6432 146.384 44.5535C146.376 44.4795 146.369 44.4056 146.362 44.3327C146.355 44.2599 146.372 43.9456 146.353 44.2444C146.363 44.0764 146.385 43.9092 146.419 43.7442C146.436 43.6628 146.458 43.5825 146.479 43.5025C146.43 43.679 146.456 43.5788 146.502 43.465C146.565 43.3132 146.639 43.1661 146.722 43.0247C146.579 43.2685 146.724 43.0363 146.756 42.993C146.805 42.9272 146.857 42.8636 146.912 42.802C146.946 42.7629 147.145 42.5738 146.937 42.7611C146.999 42.7053 147.062 42.6517 147.128 42.6006C147.194 42.5495 147.263 42.4998 147.333 42.4538C147.429 42.3914 147.545 42.3398 147.375 42.4201C147.533 42.3426 147.696 42.2759 147.862 42.2203C147.911 42.2049 148.197 42.1465 147.924 42.1969C148.048 42.174 148.171 42.1546 148.297 42.1405C148.59 42.1116 148.859 41.9675 149.045 41.74C149.232 41.5125 149.32 41.2202 149.291 40.9275C149.262 40.6347 149.118 40.3655 148.891 40.179C148.663 39.9924 148.371 39.9039 148.078 39.9329L148.08 39.9283Z" fill="#211715"/>
<path d="M110.795 6.60696C109.872 6.69696 109.002 7.07839 108.31 7.69601C107.619 8.31364 107.142 9.13538 106.948 10.0422C106.769 10.9119 106.852 11.8152 107.188 12.6373C107.523 13.4595 108.095 14.1633 108.832 14.6593C109.599 15.1207 110.482 15.3512 111.377 15.323C112.271 15.2949 113.139 15.0094 113.875 14.5008C114.581 13.9541 115.105 13.2069 115.379 12.357C115.653 11.5072 115.664 10.5943 115.41 9.73827C115.133 8.7562 114.518 7.9035 113.674 7.3306C112.829 6.75771 111.81 6.50142 110.795 6.60696C110.503 6.63872 110.236 6.78355 110.05 7.01036C109.864 7.23717 109.774 7.52786 109.8 7.82C109.834 8.1106 109.98 8.37665 110.206 8.56216C110.432 8.74767 110.722 8.83816 111.013 8.8146C111.107 8.80531 111.202 8.80486 111.296 8.79778C111.591 8.77524 111.076 8.76047 111.364 8.79885C111.511 8.81831 111.656 8.83292 111.801 8.86707C111.858 8.87927 111.912 8.89505 111.968 8.90902C111.701 8.84125 111.969 8.91233 112.017 8.93324C112.172 8.9958 112.322 9.07019 112.465 9.15577C112.219 9.01297 112.568 9.24208 112.627 9.29247C112.687 9.34286 112.75 9.40296 112.811 9.45821C112.627 9.29247 112.767 9.40684 112.811 9.46263C112.904 9.58215 112.99 9.70464 113.078 9.82635C113.111 9.87269 113.173 10.0103 113.064 9.78876C113.113 9.88864 113.161 9.98863 113.205 10.0919C113.256 10.2232 113.3 10.3573 113.336 10.4936C113.256 10.2011 113.35 10.6426 113.358 10.7144C113.372 10.8617 113.375 11.0091 113.378 11.1582C113.372 10.8667 113.376 11.1422 113.371 11.2018C113.361 11.2982 113.348 11.3939 113.331 11.4889C113.319 11.5553 113.305 11.6219 113.289 11.6875C113.273 11.7532 113.175 11.9836 113.284 11.7181C113.234 11.8384 113.19 11.9598 113.132 12.0765C113.104 12.1349 113.065 12.1873 113.04 12.2449C112.98 12.3846 113.199 12.0397 113.045 12.2288C112.99 12.2967 112.844 12.5552 112.751 12.5773L112.847 12.4881C112.809 12.5225 112.77 12.5559 112.73 12.5882C112.691 12.6206 112.65 12.6519 112.608 12.6828C112.545 12.7292 112.478 12.7687 112.414 12.8135C112.208 12.9559 112.571 12.7634 112.423 12.8126C112.275 12.8618 112.15 12.9377 112.008 12.9858C111.954 13.0039 111.9 13.0182 111.846 13.0364C111.724 13.0691 111.737 13.0666 111.884 13.0325C111.826 13.0449 111.769 13.0556 111.711 13.0653C111.563 13.09 111.413 13.1065 111.263 13.1147C111.175 13.1194 111.088 13.1197 111 13.1195C111.039 13.1195 111.243 13.1428 111.042 13.1154C110.89 13.0958 110.74 13.0789 110.589 13.0454C110.523 13.0301 110.458 13.0132 110.393 12.9946C110.679 13.0743 110.392 12.9852 110.329 12.959C110.198 12.9011 110.07 12.8356 109.946 12.7629C110.205 12.9106 109.87 12.6941 109.808 12.6412C109.762 12.5944 109.714 12.5506 109.663 12.51C109.539 12.4303 109.822 12.7105 109.67 12.5177C109.571 12.3915 109.478 12.2642 109.389 12.1331C109.235 11.9142 109.477 12.3473 109.369 12.1016C109.347 12.048 109.322 12.002 109.298 11.9514C109.234 11.7941 109.178 11.633 109.133 11.469C109.144 11.5075 109.176 11.7083 109.143 11.5003C109.128 11.4109 109.112 11.3223 109.101 11.232C109.093 11.158 109.086 11.0846 109.079 11.0112C109.072 10.9378 109.088 10.6247 109.067 10.9232C109.077 10.7554 109.099 10.5884 109.132 10.4236C109.149 10.3416 109.172 10.2614 109.193 10.1812C109.144 10.3578 109.17 10.2582 109.216 10.1444C109.279 9.99245 109.352 9.84513 109.436 9.70354C109.293 9.94731 109.437 9.71568 109.469 9.67239C109.518 9.60677 109.571 9.54254 109.625 9.48084C109.66 9.44175 109.859 9.25262 109.651 9.44042C109.713 9.38469 109.776 9.33051 109.842 9.27942C109.907 9.22833 109.977 9.17912 110.047 9.13317C110.142 9.06799 110.258 9.01861 110.09 9.09939C110.247 9.02138 110.409 8.95464 110.576 8.89968C110.625 8.88367 110.911 8.82586 110.638 8.87568C110.762 8.85286 110.885 8.83339 111.01 8.81934C111.302 8.78704 111.569 8.64206 111.755 8.41538C111.941 8.18871 112.03 7.89832 112.005 7.6063C111.973 7.31515 111.828 7.04804 111.602 6.86151C111.376 6.67499 111.087 6.58369 110.795 6.60696Z" fill="#211715"/>
<path d="M35.4454 28.2818C34.5226 28.3717 33.6523 28.7531 32.9607 29.3707C32.2691 29.9884 31.7921 30.8101 31.5988 31.717C31.4193 32.5867 31.5025 33.49 31.8379 34.3122C32.1734 35.1344 32.7458 35.8382 33.4824 36.3341C34.2492 36.7955 35.1328 37.026 36.0273 36.9978C36.9218 36.9697 37.7891 36.6842 38.5255 36.1756C39.2315 35.6289 39.7558 34.8817 40.0298 34.0318C40.3037 33.182 40.3144 32.2691 40.0605 31.4131C39.7835 30.4306 39.1682 29.5777 38.3234 29.0048C37.4785 28.4319 36.4585 28.1759 35.4432 28.282C35.1505 28.3109 34.8812 28.455 34.6947 28.6825C34.5082 28.91 34.4197 29.2023 34.4486 29.495C34.4776 29.7878 34.6217 30.057 34.8492 30.2435C35.0767 30.4301 35.3689 30.5186 35.6617 30.4896C35.7555 30.4803 35.8502 30.4799 35.9442 30.4728C36.2396 30.4503 35.7243 30.4355 36.0123 30.4739C36.1586 30.4934 36.3045 30.5085 36.4493 30.5421C36.5063 30.5548 36.5635 30.5698 36.6168 30.584C36.3493 30.5163 36.6171 30.5873 36.6649 30.6083C36.8199 30.671 36.97 30.7453 37.1138 30.8308C36.8667 30.688 37.2154 30.9171 37.2756 30.9675C37.3357 31.0178 37.398 31.078 37.4592 31.1332C37.2756 30.9675 37.4151 31.0819 37.4596 31.1376C37.5528 31.2572 37.6385 31.3797 37.7258 31.5014C37.7588 31.5478 37.8215 31.6859 37.712 31.4638C37.7615 31.5637 37.8098 31.6636 37.8535 31.7669C37.9043 31.8983 37.9478 32.0324 37.9841 32.1686C37.9038 31.8762 37.9989 32.3182 38.0059 32.3894C38.0205 32.5367 38.0234 32.6841 38.0264 32.8332C38.0204 32.5418 38.0248 32.8172 38.019 32.8768C38.0096 32.9733 37.9962 33.0689 37.9789 33.1639C37.9665 33.2304 37.953 33.2969 37.9372 33.3625C37.9214 33.4282 37.8233 33.6586 37.9319 33.3932C37.8825 33.5134 37.8388 33.6348 37.7801 33.7515C37.7519 33.81 37.7136 33.8623 37.6887 33.9199C37.6284 34.0597 37.8478 33.7147 37.6937 33.9038C37.6386 33.9717 37.4925 34.2303 37.3994 34.2523L37.4954 34.1637C37.4576 34.1981 37.4185 34.2309 37.3788 34.2633C37.339 34.2956 37.2981 34.327 37.2566 34.3578C37.1932 34.4042 37.1263 34.4437 37.0622 34.4885C36.8567 34.6309 37.2189 34.4385 37.0716 34.4876C36.9243 34.5367 36.7981 34.6127 36.6563 34.6608C36.6023 34.6789 36.548 34.6932 36.4941 34.7114C36.3714 34.7441 36.3856 34.7416 36.5327 34.7076C36.4749 34.72 36.4168 34.7307 36.3587 34.7404C36.2105 34.7651 36.0611 34.7815 35.9111 34.7897C35.8235 34.7944 35.736 34.7947 35.6485 34.7945C35.6875 34.7945 35.8916 34.8178 35.6899 34.7904C35.5386 34.7714 35.3887 34.7539 35.2371 34.7204C35.171 34.7052 35.1063 34.6882 35.0409 34.6696C35.3275 34.7493 35.04 34.6602 34.9778 34.634C34.846 34.5764 34.7178 34.5109 34.5939 34.4379C34.8526 34.5857 34.518 34.3691 34.4559 34.3162C34.4104 34.2696 34.3621 34.2258 34.3114 34.185C34.187 34.1054 34.4694 34.3856 34.3183 34.1927C34.2194 34.0665 34.126 33.9392 34.0367 33.8087C33.8829 33.5893 34.1253 34.0229 34.0174 33.7766C33.9956 33.7258 33.9702 33.6771 33.9468 33.6264C33.8819 33.4682 33.8266 33.3062 33.7812 33.1412C33.7922 33.1797 33.8244 33.3805 33.791 33.1726C33.7766 33.0832 33.76 32.9945 33.7488 32.9042C33.7415 32.8303 33.7342 32.7569 33.727 32.6835C33.7197 32.6101 33.7366 32.2969 33.7155 32.5954C33.7256 32.4276 33.7475 32.2606 33.7808 32.0958C33.7978 32.0138 33.8205 31.9336 33.841 31.8535C33.7922 32.03 33.8185 31.9304 33.8647 31.8166C33.9274 31.6646 34.001 31.5173 34.0847 31.3757C33.9416 31.6195 34.0859 31.3879 34.1178 31.3446C34.167 31.279 34.2164 31.215 34.2734 31.1537C34.3084 31.114 34.5076 30.9248 34.2988 31.1127C34.3613 31.0569 34.4245 31.0027 34.4902 30.9516C34.5559 30.9005 34.6252 30.8513 34.6953 30.8054C34.7911 30.7429 34.9069 30.6908 34.7377 30.7716C34.8951 30.6937 35.0578 30.6269 35.2245 30.5719C35.2737 30.5559 35.5594 30.4981 35.2862 30.5479C35.4105 30.5251 35.5334 30.5057 35.6591 30.4915C35.9518 30.4626 36.2211 30.3185 36.4076 30.091C36.5941 29.8635 36.6826 29.5713 36.6537 29.2785C36.6247 28.9858 36.4806 28.7165 36.2531 28.53C36.0257 28.3435 35.7334 28.2549 35.4406 28.2839L35.4454 28.2818Z" fill="#211715"/>
</g>
<defs>
<clipPath id="clip0_1413_1350">
<rect width="170" height="170" fill="white" transform="translate(0 16.7402) rotate(-5.65109)"/>
</clipPath>
</defs>
</svg>
