<svg width="64" height="37" viewBox="0 0 64 37" fill="none" xmlns="http://www.w3.org/2000/svg">
<path d="M31.8233 1.01896C31.2134 1.25546 31.2009 1.30526 31.1636 5.43795L31.1262 9.32168L24.0061 13.1058C20.085 15.1846 16.7365 17.0394 16.5498 17.2261C16.1266 17.6368 16.1141 17.948 16.5 18.3962C16.7739 18.7198 16.861 18.7447 17.9938 18.7945L19.1887 18.8443V19.392V19.9397H10.4877H1.77419L1.52523 20.2633C1.37586 20.4501 1.26383 20.6741 1.26383 20.7613C1.26383 21.1223 1.56258 21.5579 1.89867 21.67L2.25966 21.7944V28.3296V34.8771H1.52523C0.877944 34.8771 0.753465 34.9145 0.529404 35.2008C0.106176 35.736 0.205759 36.2713 0.778361 36.5576C1.31362 36.8439 62.9554 36.8439 63.4907 36.5576C64.0633 36.2713 64.1629 35.736 63.7396 35.2008C63.5156 34.9145 63.3911 34.8771 62.7438 34.8771H62.0094V28.3296V21.7944L62.3704 21.67C62.7065 21.5579 63.0052 21.1223 63.0052 20.7613C63.0052 20.6741 62.8932 20.4501 62.7438 20.2633L62.4949 19.9397H53.7814H45.0803V19.392V18.8443L46.2753 18.7945C47.408 18.7447 47.4952 18.7198 47.769 18.3962C48.1549 17.948 48.1425 17.6368 47.7317 17.2261C47.5325 17.0394 44.1716 15.1846 40.263 13.1058L33.1304 9.30923V8.52501V7.7408H35.7817C37.9726 7.7408 38.4705 7.70346 38.707 7.54163C39.1053 7.26778 39.0555 6.65784 38.5825 5.6869L38.1842 4.87779L38.595 4.03134C39.0804 3.03551 39.1178 2.58739 38.7443 2.2264C38.4829 1.96499 38.346 1.95255 35.7444 1.9152C33.205 1.87786 33.0059 1.86541 33.0059 1.6538C33.0059 1.20567 32.2963 0.81979 31.8233 1.01896ZM36.429 4.13092C36.3295 4.33009 36.2423 4.64128 36.2423 4.81555C36.2423 4.98982 36.3295 5.30102 36.429 5.50019L36.6282 5.87362H34.8731H33.1304V4.81555V3.75748H34.8731H36.6282L36.429 4.13092ZM37.6987 13.8651L43.126 16.7655L37.6365 16.8028C34.6116 16.8153 29.6574 16.8153 26.6326 16.8028L21.1431 16.7655L26.5454 13.8776C29.5205 12.2843 32.0225 10.9897 32.1096 10.9772C32.1968 10.9772 34.7237 12.2843 37.6987 13.8651ZM23.1721 26.8483V34.8771H22.114H21.0559V26.8483V18.8194H22.114H23.1721V26.8483ZM27.1554 26.8483V34.8896L26.1347 34.8522L25.1015 34.8149L25.0641 26.8109L25.0392 18.8194H26.0973H27.1554V26.8483ZM31.1387 26.8483V34.8896L30.118 34.8522L29.0848 34.8149L29.0475 26.8109L29.0226 18.8194H30.0806H31.1387V26.8483ZM35.2216 26.8109L35.1842 34.8149L34.1635 34.8522L33.1304 34.8896V26.8483V18.8194H34.1884H35.2465L35.2216 26.8109ZM39.2049 26.8109L39.1676 34.8149L38.1468 34.8522L37.1137 34.8896V26.8483V18.8194H38.1717H39.2298L39.2049 26.8109ZM43.2131 26.8483V34.8771H42.155H41.097V26.8483V18.8194H42.155H43.2131V26.8483ZM19.1887 28.342V34.8771H11.6578H4.12684V28.342V21.8069H11.6578H19.1887V28.342ZM60.1422 28.342V34.8771H52.6113H45.0803V28.342V21.8069H52.6113H60.1422V28.342Z" fill="#002147"/>
<path d="M29.9559 13.9274C29.5077 14.0394 29.2712 14.3506 29.2712 14.8361C29.2712 15.6701 29.4082 15.7075 32.1591 15.7075C34.35 15.7075 34.5989 15.6826 34.7856 15.4834C35.0844 15.1473 35.0595 14.4253 34.7359 14.139C34.4993 13.9274 34.2504 13.9025 32.3334 13.8776C31.1633 13.8652 30.0928 13.8901 29.9559 13.9274Z" fill="#002147"/>
<path d="M6.50408 24.2467C6.26757 24.5454 6.24268 24.7446 6.24268 26.2383C6.24268 28.0557 6.34226 28.454 6.86507 28.6283C7.2634 28.7652 7.91069 28.5412 8.03517 28.2175C8.07251 28.1055 8.10985 27.2093 8.10985 26.2383C8.10985 24.6326 8.08496 24.4458 7.8609 24.1969C7.48746 23.7985 6.84017 23.8234 6.50408 24.2467Z" fill="#002147"/>
<path d="M9.49187 24.2467C9.25536 24.5454 9.23047 24.7446 9.23047 26.2383C9.23047 28.0557 9.33005 28.454 9.85286 28.6283C10.2512 28.7652 10.8985 28.5412 11.023 28.2175C11.0603 28.1055 11.0976 27.2093 11.0976 26.2383C11.0976 24.6326 11.0728 24.4458 10.8487 24.1969C10.4753 23.7985 9.82797 23.8234 9.49187 24.2467Z" fill="#002147"/>
<path d="M12.5165 24.1844C12.3173 24.4085 12.28 24.6823 12.2427 26.1885C12.1929 28.0557 12.2925 28.4291 12.8775 28.6408C13.226 28.7652 13.7986 28.5785 13.9605 28.2798C14.0352 28.1553 14.0849 27.2341 14.0849 26.2383C14.0849 24.5828 14.06 24.396 13.836 24.172C13.4999 23.8359 12.8277 23.8483 12.5165 24.1844Z" fill="#002147"/>
<path d="M15.5041 24.1844C15.2925 24.421 15.2676 24.6575 15.2676 26.3006C15.2676 28.0433 15.28 28.1678 15.5414 28.4167C15.9149 28.7902 16.5373 28.7902 16.8485 28.4167C17.0476 28.1678 17.0725 27.8939 17.0725 26.2757C17.0725 24.5828 17.0476 24.3961 16.8236 24.172C16.4875 23.8359 15.8153 23.8484 15.5041 24.1844Z" fill="#002147"/>
<path d="M6.50413 30.2216C6.20539 30.5951 6.14315 31.6656 6.37966 32.1884C6.57882 32.6241 7.16387 32.8108 7.61199 32.5743C8.04767 32.3502 8.10991 32.176 8.10991 31.2175C8.10991 30.5702 8.06012 30.3959 7.82361 30.1718C7.41283 29.786 6.82778 29.8109 6.50413 30.2216Z" fill="#002147"/>
<path d="M9.49168 30.2217C9.19293 30.5951 9.1307 31.6656 9.3672 32.1884C9.65351 32.7984 10.6618 32.8482 10.9605 32.2756C11.0352 32.1386 11.0975 31.6781 11.0975 31.2299C11.0975 30.5702 11.0477 30.3959 10.8112 30.1719C10.4004 29.786 9.81533 29.8109 9.49168 30.2217Z" fill="#002147"/>
<path d="M12.5288 30.147C12.2425 30.4706 12.1305 31.6283 12.3421 32.1262C12.616 32.7983 13.6242 32.8855 13.9479 32.2755C14.0226 32.1386 14.0848 31.678 14.0848 31.2299C14.0848 30.5702 14.035 30.3959 13.7985 30.1719C13.4251 29.8233 12.8276 29.8109 12.5288 30.147Z" fill="#002147"/>
<path d="M15.5164 30.147C15.2301 30.4706 15.118 31.6283 15.3297 32.1262C15.6035 32.7983 16.6118 32.8855 16.9354 32.2755C17.0101 32.1386 17.0724 31.678 17.0724 31.2424C17.0724 30.6075 17.0226 30.3835 16.8234 30.1719C16.4873 29.8109 15.8276 29.8109 15.5164 30.147Z" fill="#002147"/>
<path d="M47.4452 24.172C47.2212 24.3961 47.1963 24.5828 47.1963 26.2757C47.1963 27.8939 47.2212 28.1678 47.4204 28.4167C47.7315 28.7902 48.3539 28.7902 48.7274 28.4167C48.9888 28.1678 49.0012 28.0433 49.0012 26.3006C49.0012 24.6575 48.9763 24.421 48.7647 24.1844C48.4535 23.8484 47.7813 23.8359 47.4452 24.172Z" fill="#002147"/>
<path d="M50.4328 24.172C50.2087 24.396 50.1838 24.5828 50.1838 26.2383C50.1838 27.2341 50.2336 28.1553 50.3083 28.2798C50.4701 28.5785 51.0427 28.7652 51.3913 28.6408C51.9763 28.4291 52.0759 28.0557 52.0261 26.1885C51.9888 24.6823 51.9514 24.4085 51.7523 24.1844C51.4411 23.8483 50.7689 23.8359 50.4328 24.172Z" fill="#002147"/>
<path d="M53.4201 24.1969C53.196 24.4458 53.1711 24.6326 53.1711 26.2383C53.1711 27.2093 53.2085 28.1055 53.2458 28.2175C53.3703 28.5412 54.0176 28.7652 54.4159 28.6283C54.9387 28.454 55.0383 28.0557 55.0383 26.2383C55.0383 24.7446 55.0134 24.5454 54.7769 24.2467C54.4408 23.8234 53.7935 23.7985 53.4201 24.1969Z" fill="#002147"/>
<path d="M56.4079 24.1969C56.1838 24.4458 56.1589 24.6326 56.1589 26.2383C56.1589 27.2093 56.1963 28.1055 56.2336 28.2175C56.3581 28.5412 57.0054 28.7652 57.4037 28.6283C57.9265 28.454 58.0261 28.0557 58.0261 26.2383C58.0261 24.7446 58.0012 24.5454 57.7647 24.2467C57.4286 23.8234 56.7813 23.7985 56.4079 24.1969Z" fill="#002147"/>
<path d="M47.4452 30.1719C47.2461 30.3835 47.1963 30.6075 47.1963 31.2424C47.1963 31.678 47.2585 32.1386 47.3332 32.2755C47.6569 32.8855 48.6651 32.7983 48.939 32.1262C49.1506 31.6283 49.0386 30.4706 48.7523 30.147C48.4411 29.8109 47.7813 29.8109 47.4452 30.1719Z" fill="#002147"/>
<path d="M50.4577 30.1843C50.2336 30.4208 50.1838 30.62 50.1838 31.2548C50.1838 31.678 50.2461 32.1386 50.3208 32.2755C50.6444 32.8855 51.6527 32.7983 51.9265 32.1262C52.1382 31.6283 52.0261 30.4706 51.7398 30.147C51.4286 29.7984 50.7938 29.8233 50.4577 30.1843Z" fill="#002147"/>
<path d="M53.445 30.1843C53.2209 30.4208 53.1711 30.62 53.1711 31.2548C53.1711 31.6781 53.2334 32.1386 53.3081 32.2756C53.6068 32.8482 54.6151 32.7984 54.9014 32.1884C55.1379 31.6656 55.0757 30.5951 54.7769 30.2217C54.4408 29.7984 53.8184 29.7735 53.445 30.1843Z" fill="#002147"/>
<path d="M56.4328 30.1843C56.2087 30.4208 56.1589 30.62 56.1589 31.2299C56.1589 32.176 56.2212 32.3502 56.6568 32.5743C57.105 32.8108 57.69 32.6241 57.8892 32.1884C58.1257 31.6656 58.0635 30.5951 57.7647 30.2216C57.4286 29.7984 56.8062 29.7735 56.4328 30.1843Z" fill="#002147"/>
</svg>
