<svg width="18" height="16" viewBox="0 0 18 16" fill="none" xmlns="http://www.w3.org/2000/svg">
<path d="M13.2099 10.3439C14.0995 9.2673 14.625 7.9382 14.625 6.5C14.625 2.91015 11.3511 0 7.3125 0C3.27392 0 0 2.91015 0 6.5C0 10.0899 3.27392 13 7.3125 13C8.93091 13 10.4265 12.5327 11.6378 11.7415L11.6369 11.7422C11.6701 11.7822 11.707 11.8204 11.7477 11.8566L16.0795 15.7071C16.5188 16.0976 17.2312 16.0976 17.6705 15.7071C18.1098 15.3166 18.1098 14.6834 17.6705 14.2929L13.3387 10.4424C13.298 10.4062 13.2549 10.3734 13.2099 10.3439ZM13.5 6.5C13.5 9.53757 10.7298 12 7.3125 12C3.89524 12 1.125 9.53757 1.125 6.5C1.125 3.46243 3.89524 1 7.3125 1C10.7298 1 13.5 3.46243 13.5 6.5Z" fill="#A9A9A9"/>
<path d="M13.2099 10.3439C14.0995 9.2673 14.625 7.9382 14.625 6.5C14.625 2.91015 11.3511 0 7.3125 0C3.27392 0 0 2.91015 0 6.5C0 10.0899 3.27392 13 7.3125 13C8.93091 13 10.4265 12.5327 11.6378 11.7415L11.6369 11.7422C11.6701 11.7822 11.707 11.8204 11.7477 11.8566L16.0795 15.7071C16.5188 16.0976 17.2312 16.0976 17.6705 15.7071C18.1098 15.3166 18.1098 14.6834 17.6705 14.2929L13.3387 10.4424C13.298 10.4062 13.2549 10.3734 13.2099 10.3439ZM13.5 6.5C13.5 9.53757 10.7298 12 7.3125 12C3.89524 12 1.125 9.53757 1.125 6.5C1.125 3.46243 3.89524 1 7.3125 1C10.7298 1 13.5 3.46243 13.5 6.5Z" fill="black" fill-opacity="0.2"/>
</svg>
