<svg width="59" height="52" viewBox="0 0 59 52" fill="none" xmlns="http://www.w3.org/2000/svg">
<path d="M3.6797 1.18526C2.0547 1.76187 0.744223 3.12477 0.307397 4.71482C0.202559 5.09923 0.132666 11.5118 0.132666 21.6812C0.132666 40.4123 0.0278279 39.0494 1.68777 40.7268C3.29529 42.3343 2.92836 42.2819 13.517 42.2819H22.638L25.4511 46.5628C27.2509 49.3061 28.4216 50.9311 28.7011 51.0534C29.5224 51.4203 29.8718 51.0534 32.8248 46.5628L35.6379 42.2819H44.7589C55.3475 42.2819 54.9806 42.3343 56.5881 40.7268C58.2655 39.0494 58.1607 40.4472 58.1083 21.2968L58.0559 4.62745L57.654 3.89359C57.0424 2.74036 56.2736 1.97155 55.2078 1.44736L54.2118 0.958111L29.4 0.923164C5.93372 0.888218 4.53588 0.888218 3.6797 1.18526ZM54.4215 3.77127C54.6836 3.96348 55.0854 4.40031 55.3126 4.71482L55.697 5.29143V21.5414C55.697 37.7564 55.697 37.7738 55.3301 38.4378C55.1204 38.8048 54.6661 39.2591 54.2992 39.4687C53.6526 39.8357 53.4954 39.8357 44.1648 39.8357C38.521 39.8357 34.5895 39.9056 34.3973 40.0104C34.2226 40.0978 32.9995 41.8276 31.689 43.8545C30.3611 45.8639 29.2078 47.5238 29.1379 47.5238C29.0681 47.5238 27.9148 45.8639 26.5869 43.8545C25.2764 41.8276 24.0533 40.0978 23.8786 40.0104C23.6864 39.9056 19.7549 39.8357 14.1111 39.8357C4.7805 39.8357 4.62324 39.8357 3.97674 39.4687C3.60981 39.2591 3.15551 38.8048 2.94583 38.4378C2.57889 37.7738 2.57889 37.7564 2.57889 21.5938C2.57889 4.13821 2.54395 4.94197 3.48749 4.06832C3.69717 3.85864 4.08158 3.61402 4.3262 3.50918C4.60577 3.40434 13.2549 3.35192 29.3476 3.36939L53.9322 3.40434L54.4215 3.77127Z" fill="#002147"/>
<path d="M18.5143 9.60731C18.025 9.90435 17.6756 10.4984 16.4699 12.9796L15.0197 16.0025L12.1541 16.4043C10.5815 16.614 9.02642 16.8761 8.69443 16.9635C7.47131 17.2605 6.71997 18.5885 7.01701 19.864C7.08691 20.1785 7.97803 21.1745 9.58555 22.7121L12.0318 25.0884L11.5076 28.1986C11.2105 29.911 10.9659 31.4836 10.9659 31.6933C10.9659 32.7416 12.189 33.8949 13.3073 33.8949C13.6044 33.8949 15.0371 33.2484 16.8019 32.3398L19.7898 30.7672L22.7602 32.3223C24.4027 33.1785 25.9578 33.8949 26.2199 33.8949C27.4605 33.8949 28.6137 32.864 28.6137 31.7107C28.6137 31.4137 28.3691 29.8236 28.0895 28.1462L27.5653 25.1059L29.8368 22.9218C31.0949 21.7336 32.2306 20.528 32.3704 20.2484C32.8073 19.4097 32.7024 18.4487 32.0909 17.7498C31.4444 16.9984 31.1298 16.9111 27.5129 16.4043L24.6473 16.0025L23.1272 12.9796C21.9215 10.5509 21.5022 9.88688 21.0479 9.60731C20.314 9.15301 19.2482 9.15301 18.5143 9.60731ZM21.3449 14.9016C22.4632 17.1382 22.8651 17.8022 23.3019 18.0293C23.7038 18.2739 29.0855 19.2175 29.9766 19.2175C30.0465 19.2175 29.0156 20.3008 27.6876 21.6288C25.5385 23.778 25.2589 24.1274 25.189 24.739C25.1366 25.1059 25.3463 26.7134 25.6258 28.3035C25.9054 29.8935 26.1151 31.204 26.0801 31.239C26.0626 31.2739 24.8221 30.6449 23.3543 29.8411C19.7723 27.9191 19.8422 27.9191 16.2603 29.8411C14.7925 30.6274 13.5694 31.2739 13.5345 31.2739C13.4995 31.2739 13.6917 29.8935 13.9888 28.1986C14.3033 26.2941 14.4605 24.9137 14.3732 24.5118C14.2858 24.0226 13.814 23.4634 11.9095 21.6113C10.599 20.3532 9.60303 19.2874 9.69039 19.2699C9.76028 19.2524 11.1581 19.0253 12.7831 18.7807C14.5479 18.5186 15.9457 18.2215 16.2777 18.0468C16.7146 17.8022 17.1339 17.1207 18.3046 14.8143C19.1084 13.2068 19.8248 11.9312 19.8597 11.9836C19.8947 12.0186 20.5761 13.3291 21.3449 14.9016Z" fill="#002147"/>
<path d="M37.0533 11.0052C36.2844 11.3197 36.1097 12.3681 36.7562 12.9971C36.9834 13.2417 37.6299 13.2767 41.1769 13.2767C44.986 13.2767 45.353 13.2417 45.6151 12.9621C46.0694 12.4554 45.9995 11.6167 45.4578 11.1974C45.021 10.8479 44.7763 10.8304 41.2118 10.8479C39.1325 10.8479 37.2629 10.9178 37.0533 11.0052Z" fill="#002147"/>
<path d="M37.0008 17.3479C36.3368 17.6799 36.1446 18.4137 36.5989 19.0078L36.9484 19.4796L43.7279 19.532C51.2588 19.5844 51.154 19.5844 51.154 18.4487C51.1365 17.1382 51.0491 17.1207 43.7804 17.1207C39.0452 17.1207 37.3328 17.1731 37.0008 17.3479Z" fill="#002147"/>
<path d="M36.7387 23.8479C36.2145 24.372 36.1971 24.7914 36.6688 25.403L37.0183 25.8573H43.7979C50.1406 25.8573 50.5949 25.8398 50.857 25.5427C51.154 25.2108 51.2414 24.3546 51.0142 24.0051C50.6473 23.4634 50.0707 23.411 43.6406 23.411H37.1581L36.7387 23.8479Z" fill="#002147"/>
<path d="M36.7387 30.1382C36.2145 30.6623 36.1971 31.0817 36.6688 31.6933L37.0183 32.1476H43.7105C49.4591 32.1476 50.4376 32.1126 50.7696 31.868C51.2763 31.5185 51.2938 30.54 50.8046 30.0508C50.4726 29.7188 50.2279 29.7013 43.8153 29.7013H37.1581L36.7387 30.1382Z" fill="#002147"/>
</svg>
