<svg width="25" height="26" viewBox="0 0 25 26" fill="none" xmlns="http://www.w3.org/2000/svg">
<g clip-path="url(#clip0_1133_481)">
<path d="M19.1578 4.62293C20.2937 4.62293 21.2146 3.70206 21.2146 2.56611C21.2146 1.43015 20.2937 0.509277 19.1578 0.509277C18.0218 0.509277 17.101 1.43015 17.101 2.56611C17.101 3.70206 18.0218 4.62293 19.1578 4.62293Z" fill="black"/>
<path d="M24.3849 17.008C24.3849 16.7821 24.2018 16.599 23.9759 16.599H23.8028V15.7031C23.8749 15.6486 23.9393 15.5848 23.9941 15.513C24.1228 15.3448 24.1995 15.1348 24.1984 14.9066L24.1617 7.61547C24.1553 6.32685 23.1017 5.27861 21.8132 5.27861H20.796C20.666 5.61826 19.7051 8.12841 19.5657 8.49271L19.8558 7.12631C19.8761 7.03032 19.8614 6.93027 19.8141 6.84433L19.4158 6.11987L19.7699 5.47583C19.8226 5.37993 19.7531 5.26221 19.6435 5.26221H18.6716C18.5622 5.26221 18.4925 5.37978 18.5452 5.47583L18.8993 6.11987L18.4995 6.84706C18.4531 6.93139 18.4381 7.02934 18.4568 7.12377L18.7104 8.49276C18.5818 8.16273 17.6307 5.63193 17.4928 5.27866H16.4852C15.1966 5.27866 14.1431 6.32695 14.1366 7.61552L14.1 14.9067C14.0972 15.4548 14.5393 15.9013 15.0874 15.9041C15.0891 15.9041 15.0909 15.9041 15.0926 15.9041C15.6384 15.9041 16.0822 15.463 16.0849 14.9166L16.1216 7.62548C16.1216 7.6246 16.1216 7.62372 16.1216 7.62289C16.1229 7.51752 16.209 7.43295 16.3143 7.43359C16.4197 7.43422 16.5048 7.51986 16.5048 7.62528L16.5053 24.3089C16.5053 24.9666 17.0385 25.4998 17.6962 25.4998C18.354 25.4998 18.8872 24.9666 18.8872 24.3089V14.7895H19.4014V24.3088C19.4014 24.9665 19.9346 25.4997 20.5923 25.4997C21.2501 25.4997 21.7833 24.9665 21.7833 24.3088V22.2802C21.3084 22.0294 20.9838 21.5306 20.9838 20.9572V17.008C20.9838 16.4345 21.3084 15.9358 21.7833 15.6849C21.7833 14.844 21.7671 9.15614 21.7628 7.63627C21.7624 7.52367 21.852 7.43144 21.9646 7.42851C22.0771 7.42558 22.1715 7.51293 22.1771 7.62533V7.62543L22.2137 14.9166C22.2149 15.1417 22.2918 15.3483 22.4189 15.5141C22.4831 15.5978 22.5596 15.6715 22.6469 15.7311V16.5989H22.4791C22.2532 16.5989 22.0701 16.782 22.0701 17.0079V20.9572C22.0701 21.183 22.2532 21.3661 22.4791 21.3661H23.9762C24.2021 21.3661 24.3852 21.183 24.3852 20.9572V17.0079H24.3849V17.008Z" fill="black"/>
<path d="M7.20707 4.61532C8.34349 4.61532 9.26473 3.69407 9.26473 2.55766C9.26473 1.42124 8.34349 0.5 7.20707 0.5C6.07066 0.5 5.14941 1.42124 5.14941 2.55766C5.14941 3.69407 6.07066 4.61532 7.20707 4.61532Z" fill="black"/>
<path d="M11.1457 16.4496L10.4407 12.8096L8.80013 13.8568C8.38714 14.1205 7.87752 14.2074 7.3785 14.0691L6.00629 14.4671C5.91337 14.494 5.81742 14.5077 5.72118 14.5077C5.26918 14.5077 4.86557 14.2043 4.73955 13.77L4.16821 11.8003L3.396 15.7871C3.77139 16.059 4.01621 16.5006 4.01621 16.9985V17.1066C4.18227 17.1066 4.36694 17.1066 4.56674 17.1066V24.3084C4.56674 24.9664 5.10014 25.4998 5.75815 25.4998C6.4161 25.4998 6.94955 24.9665 6.94955 24.3084V17.1066C7.12084 17.1066 7.29266 17.1066 7.46395 17.1066V24.3084C7.46395 24.9664 7.99735 25.4998 8.65535 25.4998C9.31336 25.4998 9.84675 24.9665 9.84675 24.3084V17.1066C10.134 17.1066 10.3905 17.1066 10.6044 17.1066C10.9505 17.1066 11.2118 16.7907 11.1457 16.4496Z" fill="black"/>
<path d="M4.38868 8.89046C5.15132 8.66927 5.90938 8.4494 6.68638 8.22401C6.59712 7.99511 6.47505 7.68212 5.53492 5.271H5.48672C4.42413 5.271 3.65177 5.95063 3.19113 7.29101C2.47731 9.36834 0.856176 13.8037 0.839916 13.8482C0.683716 14.2755 0.840014 14.7399 1.19162 14.9935C1.19162 15.8268 1.19162 15.6969 1.19162 16.5895H1.02385C0.797973 16.5895 0.614868 16.7726 0.614868 16.9985V20.9477C0.614868 21.1736 0.797973 21.3567 1.02385 21.3567H2.52087C2.74674 21.3567 2.92985 21.1736 2.92985 20.9477V16.9985C2.92985 16.7726 2.74674 16.5895 2.52087 16.5895H2.34777C2.34777 16.016 2.34777 15.5688 2.34777 14.9977C2.50588 14.8853 2.63312 14.7259 2.70475 14.53C2.71471 14.5028 3.32164 12.8423 3.95758 11.0741L3.69156 10.1571C3.53453 9.61575 3.84728 9.0475 4.38868 8.89046Z" fill="black"/>
<path d="M7.87666 6.88925L7.47832 6.16479L7.83242 5.52075C7.88515 5.42485 7.81567 5.30713 7.70605 5.30713H6.73413C6.62476 5.30713 6.55498 5.42476 6.60777 5.52075L6.96187 6.16479L6.56206 6.89199C6.51568 6.97631 6.50059 7.07426 6.51929 7.16869L6.72652 8.21239C7.03174 8.12387 7.12373 8.08759 7.30186 8.08759C7.44365 8.08759 7.58061 8.11752 7.70581 8.17191L7.91821 7.17133C7.93877 7.07533 7.92392 6.97524 7.87666 6.88925Z" fill="black"/>
<path d="M7.50107 9.05223C7.47017 8.94559 7.35708 8.87776 7.24385 8.91072L4.61573 9.67297C4.50577 9.70486 4.4423 9.82029 4.47418 9.93015L5.52213 13.543C5.55313 13.6499 5.66973 13.7164 5.77935 13.6845L6.48038 13.4812C6.43863 13.4296 6.39883 13.3758 6.36236 13.3185C5.83775 12.4967 6.07872 11.4052 6.90049 10.8806L7.85478 10.2715L7.50107 9.05223Z" fill="black"/>
<path d="M12.1406 9.8907C11.9378 9.32723 11.7849 8.90003 11.6499 8.51849C11.4998 8.09428 11.3719 7.72655 11.2224 7.2915C10.7617 5.95107 9.98935 5.27148 8.92676 5.27148H8.87866C8.66099 5.84013 7.96426 7.66034 7.7586 8.1976C8.00738 8.32289 8.20279 8.54715 8.28355 8.82577L8.57051 9.81507L9.7373 9.0703L9.73857 9.06947C9.81923 9.29808 9.90537 9.54032 10.0042 9.81649L7.31617 11.5324C6.85396 11.8275 6.71851 12.4413 7.01348 12.9034C7.3085 13.3656 7.92237 13.5012 8.38457 13.2061L11.7406 11.0638C12.1316 10.8142 12.2976 10.3271 12.1406 9.8907Z" fill="black"/>
</g>
<defs>
<clipPath id="clip0_1133_481">
<rect width="25" height="25" fill="white" transform="translate(0 0.5)"/>
</clipPath>
</defs>
</svg>
