<svg width="24" height="24" viewBox="0 0 24 24" fill="none" xmlns="http://www.w3.org/2000/svg">
<g clip-path="url(#clip0_1133_585)">
<path d="M17.5459 0.387207V12.5195C20.896 12.5195 23.612 9.80393 23.612 6.45335C23.612 3.10328 20.896 0.387207 17.5459 0.387207Z" fill="#ABECEC"/>
<path d="M17.5459 0.387207C20.0405 0.387207 22.0633 3.10328 22.0633 6.45335C22.0633 9.80393 20.0405 12.5195 17.5459 12.5195C16.3348 12.5195 15.2073 12.1648 14.2604 11.5535L11.1757 12.8236L12.4458 9.73886C11.8345 8.79204 11.4798 7.6645 11.4798 6.45335C11.4798 3.10328 14.1954 0.387207 17.5459 0.387207Z" fill="#D5F6F5"/>
<path d="M20.946 19.4508L19.98 18.4849L17.4246 21.0403L20.5696 21.9949C20.6963 21.8835 20.8215 21.7656 20.9459 21.6411C21.5483 21.0388 21.5483 20.0532 20.946 19.4508Z" fill="#FE834D"/>
<path d="M19.8507 20.5458C19.7263 20.6703 19.6014 20.7886 19.4758 20.901L15.7093 20.055L14.8633 16.2885L15.2284 15.9234C15.8307 15.3211 16.8164 15.3211 17.4187 15.9234L19.98 18.4847C20.5112 19.0159 20.4531 19.9435 19.8507 20.5458Z" fill="#FEA680"/>
<path d="M19.4758 20.901L6.56635 17.7998C10.8485 22.0418 16.164 25.8971 20.5695 21.9947L19.4758 20.901Z" fill="#FE5F1A"/>
<path d="M8.07549 6.58049L6.98035 5.48535L4.26727 8.19843L7.71048 9.13588L8.07554 8.77082C8.67784 8.16848 8.67783 7.18279 8.07549 6.58049Z" fill="#FEA680"/>
<path d="M6.98032 7.67566L6.61526 8.04073L2.84951 7.19543L2.00421 3.42968C2.11559 3.30298 2.23348 3.17777 2.35798 3.05332C2.96032 2.45098 3.94596 2.45098 4.5483 3.05332L6.98027 5.48529C7.58262 6.08768 7.58262 7.07332 6.98032 7.67566Z" fill="#FFC1A6"/>
<path d="M14.8633 16.2888L19.4758 20.9013C15.1083 24.8257 10.3428 21.5314 6.56634 17.8002C6.50465 17.7392 6.4433 17.6779 6.38236 17.6169C2.06925 13.3037 -1.95408 7.89833 2.00423 3.42969L7.71042 9.13587L6.16003 10.6863L13.313 17.8392L14.8633 16.2888Z" fill="#FE834D"/>
<path d="M17.6924 15.6499C17.3279 15.2854 16.8418 15.0848 16.3234 15.0848C15.8051 15.0848 15.319 15.2855 14.9544 15.6499L13.313 17.2914L6.70784 10.6861L7.98392 9.41C7.98453 9.40939 8.34926 9.04465 8.34926 9.04465C8.71376 8.68015 8.91443 8.19401 8.91443 7.67567C8.91443 7.15732 8.71371 6.67118 8.34926 6.30664L4.82201 2.77948C4.45756 2.41503 3.97142 2.21436 3.45307 2.21436C2.93468 2.21436 2.44854 2.41507 2.08409 2.77948C-0.0745518 4.93817 -0.558396 7.54217 0.646011 10.5194C1.53078 12.7064 3.26646 15.0487 6.10849 17.8907C8.73106 20.5133 12.6643 23.9999 16.5259 24.0001C18.257 24.0001 19.8362 23.2986 21.2197 21.9151C21.9745 21.1602 21.9745 19.932 21.2197 19.1772L17.6924 15.6499ZM20.6721 21.3675C19.4217 22.6179 18.0655 23.2257 16.5259 23.2257C12.9519 23.2256 9.18129 19.8684 6.65604 17.3431C3.88999 14.577 2.2084 12.3165 1.36395 10.2289C0.271995 7.52975 0.686698 5.27211 2.63168 3.32712C2.84984 3.10892 3.14154 2.98878 3.45307 2.98878C3.76456 2.98878 4.05626 3.10892 4.27446 3.32712L7.80171 6.85432C8.01987 7.07257 8.14006 7.36423 8.14006 7.67571C8.14006 7.9872 8.01992 8.2789 7.80171 8.49706L7.71045 8.58832L3.37498 4.253C3.22376 4.10182 2.9786 4.10182 2.82743 4.253C2.67621 4.40426 2.67621 4.64937 2.82743 4.80059L7.16281 9.13592L5.88645 10.4123C5.73523 10.5635 5.73523 10.8087 5.88645 10.9599L13.0392 18.1127C13.1119 18.1853 13.2103 18.2261 13.3131 18.2261C13.4158 18.2261 13.5142 18.1853 13.5869 18.1127L14.8633 16.8364L19.1993 21.1724C19.2749 21.2479 19.3741 21.2858 19.4732 21.2858C19.5723 21.2858 19.6714 21.248 19.747 21.1724C19.8982 21.0211 19.8982 20.776 19.747 20.6248L15.411 16.2888L15.5022 16.1975C15.7204 15.9793 16.0122 15.8592 16.3236 15.8592C16.6351 15.8592 16.9268 15.9793 17.145 16.1975L20.6722 19.7248C21.1249 20.1777 21.1249 20.9146 20.6721 21.3675Z" fill="black"/>
<path d="M17.5457 0C13.9873 0 11.0924 2.89495 11.0924 6.45333C11.0924 7.62966 11.4097 8.77359 12.0121 9.77498L10.8175 12.6762C10.7579 12.8207 10.7912 12.9869 10.9017 13.0974C10.9758 13.1715 11.0748 13.2108 11.1756 13.2108C11.2252 13.2108 11.2753 13.2012 11.3229 13.1817L14.224 11.987C15.2254 12.5894 16.3693 12.9067 17.5457 12.9067C21.104 12.9067 23.999 10.0118 23.999 6.45337C23.999 2.895 21.1041 0 17.5457 0ZM17.5457 12.1323C16.45 12.1323 15.3866 11.8196 14.4702 11.2281C14.4068 11.1871 14.3337 11.1662 14.2602 11.1662C14.2104 11.1662 14.1603 11.1758 14.1129 11.1953L11.8874 12.1117L12.8038 9.88617C12.8521 9.76889 12.8398 9.63539 12.771 9.52875C12.1795 8.61239 11.8668 7.54894 11.8668 6.45328C11.8668 3.32189 14.4144 0.774328 17.5458 0.774328C20.6772 0.774328 23.2247 3.32198 23.2247 6.45333C23.2247 9.58467 20.6771 12.1323 17.5457 12.1323Z" fill="black"/>
</g>
<defs>
<clipPath id="clip0_1133_585">
<rect width="24" height="24" fill="white"/>
</clipPath>
</defs>
</svg>
