<svg width="54" height="55" viewBox="0 0 54 55" fill="none" xmlns="http://www.w3.org/2000/svg">
<path d="M16.9975 0.19698C12.5833 0.746113 8.83443 2.49912 5.76139 5.46656C0.977578 10.1025 -0.997195 16.7344 0.481245 23.2184C1.73792 28.7731 5.39178 33.4724 10.4079 35.9752C13.0585 37.2953 15.2868 37.855 18.2648 37.9711C22.2777 38.1084 26.0477 37.0313 29.4164 34.7714C30.0606 34.3489 30.6203 33.9899 30.652 33.9899C30.6837 33.9899 32.1093 35.5634 33.8095 37.4853L36.9037 40.9808L36.967 41.8045C37.0093 42.3748 37.1043 42.7338 37.2522 42.9767C37.3789 43.1773 39.7655 45.6168 42.5745 48.4047C48.0025 53.8115 48.0448 53.8432 49.312 54.0756C50.9805 54.3924 52.7758 53.4525 53.5572 51.8579C53.8846 51.2032 53.9057 51.087 53.9057 50.0415C53.9057 48.8377 53.7579 48.3624 53.1348 47.5915C52.9764 47.4015 50.6426 45.0465 47.9392 42.3748C42.5957 37.0735 42.6907 37.158 41.4868 37.158H40.9799L38.0547 33.8526C36.4496 32.0468 34.9923 30.41 34.8127 30.2199L34.4959 29.8819L34.9711 29.111C37.1043 25.6789 38.0759 21.7716 37.8013 17.801C37.6112 15.1926 37.0621 13.1122 35.9532 10.8101C33.2709 5.23423 28.0964 1.36917 21.9609 0.344822C20.8204 0.154736 18.0324 0.0702553 16.9975 0.19698ZM21.3272 2.3196C24.8649 2.76313 28.3604 4.49501 30.9899 7.12453C34.2319 10.356 36.006 14.6434 36.006 19.1949C36.006 21.9723 35.3513 24.6018 34.0524 27.1046C31.613 31.7828 26.9876 35.1093 21.7074 36.0069C20.6303 36.197 20.1339 36.2181 18.5288 36.1759C16.3956 36.1125 15.2551 35.9224 13.407 35.2888C6.131 32.8177 1.35775 25.5417 2.00193 17.8643C2.25537 14.8019 3.13188 12.2674 4.82152 9.73291C7.15534 6.2269 10.7247 3.70299 14.7799 2.67865C16.9764 2.12951 18.8984 2.02391 21.3272 2.3196ZM36.1116 34.5179C37.5795 36.1759 38.8996 37.6437 39.0263 37.7916L39.2692 38.0556L38.5405 38.7103L37.8224 39.3756L35.2563 36.4927C33.8517 34.9192 32.5423 33.4513 32.3522 33.2507L31.9931 32.8705L32.6373 32.163C32.9964 31.7722 33.3237 31.4554 33.3554 31.4765C33.3977 31.4977 34.6438 32.8599 36.1116 34.5179ZM46.8092 43.7793C49.4704 46.4405 51.7726 48.8271 51.9204 49.0805C52.4062 49.8831 52.2266 51.1504 51.5613 51.7523C50.9488 52.312 49.7767 52.5126 49.0163 52.2064C48.7523 52.0902 47.0732 50.4851 43.6939 47.1058L38.7517 42.1741V41.6461V41.1181L39.8289 40.0409L40.9166 38.9532H41.4446H41.962L46.8092 43.7793Z" fill="#4682B4"/>
<path d="M17.5785 4.009C16.9977 4.06181 15.9628 4.24133 15.2869 4.4103C6.8704 6.53291 1.95987 15.0445 4.33593 23.3977C5.87773 28.8362 10.2708 32.9125 15.9417 34.1481C17.0188 34.3804 19.849 34.4754 21.0001 34.317C24.2738 33.8524 27.1884 32.4267 29.5328 30.1457C33.5774 26.2278 35.1086 20.7471 33.6935 15.2451C32.9754 12.4467 31.2858 9.72212 29.0364 7.73678C25.9106 4.98055 21.8238 3.64996 17.5785 4.009ZM21.3802 5.96266C23.6507 6.33227 25.9423 7.4411 27.8009 9.04626C30.2509 11.1689 31.7821 14.0202 32.3207 17.4417C32.4791 18.466 32.3841 20.8527 32.1517 21.9509C31.2647 26.0061 28.614 29.4276 24.9179 31.2545C23.7457 31.8248 22.3518 32.2683 21.074 32.4795C19.7856 32.6802 17.3462 32.6168 16.1529 32.3528C11.9288 31.4129 8.45444 28.6039 6.73312 24.7494C5.87773 22.8486 5.56092 21.3068 5.56092 19.0997C5.57148 15.4986 6.8176 12.4256 9.33095 9.82772C12.4674 6.58571 16.7548 5.21288 21.3802 5.96266Z" fill="#4682B4"/>
<path d="M12.668 11.1265V12.0242H18.9513H25.2347V11.1265V10.2289H18.9513H12.668V11.1265Z" fill="#4682B4"/>
<path d="M12.5122 16.181V17.0786H18.7956H25.0789V16.181V15.2834H18.7956H12.5122V16.181Z" fill="#4682B4"/>
<path d="M12.5122 21.4493V22.3469H18.7956H25.0789V21.4493V20.5517H18.7956H12.5122V21.4493Z" fill="#4682B4"/>
<path d="M12.668 27.2845V28.1821H18.9513H25.2347V27.2845V26.3869H18.9513H12.668V27.2845Z" fill="#4682B4"/>
<path d="M35.1611 5.74127V6.6389H40.3251C45.9115 6.6389 45.9537 6.6389 46.7246 7.23027C46.9253 7.37812 47.221 7.76885 47.3794 8.09622L47.6751 8.69815L47.7068 23.8205L47.7279 38.9534H48.6255H49.5231V24.1373C49.5231 15.7947 49.4809 9.03608 49.4175 8.66647C49.2274 7.32532 48.3826 6.06864 47.2315 5.42447C46.2178 4.86477 46.0065 4.84365 40.3674 4.84365H35.1611V5.74127Z" fill="#4682B4"/>
<path d="M37.8752 9.35265C37.833 9.38433 37.8013 9.79618 37.8013 10.2503V11.074H41.867H45.9432L45.9116 10.1975L45.8799 9.33153L41.9092 9.29985C39.7338 9.28929 37.9174 9.31041 37.8752 9.35265Z" fill="#4682B4"/>
<path d="M39.5967 14.7171V15.6147H42.7648H45.9329V14.7171V13.8195H42.7648H39.5967V14.7171Z" fill="#4682B4"/>
<path d="M39.6706 18.3287C39.6284 18.3604 39.5967 18.7723 39.5967 19.2263V20.05H42.7648H45.9434L45.9117 19.1735L45.88 18.3076L42.807 18.2759C41.1174 18.2654 39.7128 18.2865 39.6706 18.3287Z" fill="#4682B4"/>
<path d="M39.5967 23.6932V24.5908H42.7648H45.9329V23.6932V22.7956H42.7648H39.5967V23.6932Z" fill="#4682B4"/>
<path d="M39.6706 27.305C39.6284 27.3367 39.5967 27.7486 39.5967 28.2027V29.0264H42.7648H45.9434L45.9117 28.1499L45.88 27.2839L42.807 27.2522C41.1174 27.2417 39.7128 27.2628 39.6706 27.305Z" fill="#4682B4"/>
<path d="M40.5469 32.6695V33.5671H43.2397H45.9326V32.6695V31.7719H43.2397H40.5469V32.6695Z" fill="#4682B4"/>
<path d="M4.64209 41.0865C4.64209 46.2822 4.65265 46.3878 5.1701 47.4016C5.45523 47.9718 6.22613 48.7427 6.89143 49.1229C7.9369 49.7354 7.38776 49.7248 24.6855 49.7248H40.5471V48.8272V47.9296H24.675C7.22936 47.9296 8.17979 47.9613 7.35608 47.2854C7.13432 47.1059 6.84919 46.7574 6.72247 46.5251C6.49014 46.0921 6.49014 45.9865 6.43734 41.171L6.38454 36.2605L5.51859 36.2288L4.64209 36.1971V41.0865Z" fill="#4682B4"/>
<path d="M8.23242 40.6954V41.593H20.3239H32.4155V40.6954V39.7978H20.3239H8.23242V40.6954Z" fill="#4682B4"/>
<path d="M8.23242 44.286V45.1836H22.1192H36.006V44.286V43.3883H22.1192H8.23242V44.286Z" fill="#4682B4"/>
</svg>
