<svg width="78" height="79" viewBox="0 0 78 79" fill="none" xmlns="http://www.w3.org/2000/svg">
<path d="M24.5949 0.0870132C18.2077 0.881599 12.7832 3.41814 8.33656 7.71194C1.41453 14.4201 -1.44291 24.0162 0.696347 33.3983C2.51472 41.4358 7.80174 48.2356 15.0599 51.8571C18.8953 53.7671 22.1195 54.577 26.4286 54.7451C32.2351 54.9437 37.6902 53.3851 42.5647 50.1151C43.4968 49.5039 44.3067 48.9844 44.3525 48.9844C44.3984 48.9844 46.4612 51.2611 48.9214 54.0422L53.3985 59.1L53.4902 60.2919C53.5513 61.117 53.6888 61.6366 53.9028 61.988C54.0861 62.2783 57.5395 65.8081 61.6041 69.8421C69.4582 77.6657 69.5194 77.7116 71.353 78.0477C73.7673 78.5061 76.365 77.1462 77.4957 74.8388C77.9694 73.8915 78 73.7234 78 72.2106C78 70.4686 77.7861 69.781 76.8845 68.6655C76.6553 68.3905 73.2784 64.983 69.3666 61.117C61.6347 53.4462 61.7722 53.5685 60.0302 53.5685H59.2968L55.0641 48.7857C52.7415 46.1728 50.6328 43.8043 50.373 43.5293L49.9146 43.0403L50.6022 41.9248C53.6888 36.9587 55.0946 31.3049 54.6974 25.5595C54.4223 21.7852 53.6277 18.775 52.0233 15.4438C48.1421 7.37578 40.6546 1.78314 31.7767 0.300941C30.1264 0.0258942 26.0924 -0.0963516 24.5949 0.0870132ZM30.8599 3.15838C35.9788 3.80016 41.0367 6.30614 44.8415 10.111C49.5326 14.7868 52.0997 20.9906 52.0997 27.5765C52.0997 31.5952 51.1523 35.4001 49.2728 39.0215C45.743 45.7908 39.0502 50.6041 31.41 51.9029C29.8514 52.178 29.1332 52.2085 26.8106 52.1474C23.7239 52.0557 22.0737 51.7807 19.3996 50.8639C8.87137 47.2882 1.96462 36.76 2.89673 25.6512C3.26346 21.2198 4.53173 17.5525 6.9766 13.8852C10.3536 8.81213 15.5184 5.16011 21.386 3.67791C24.5644 2.88333 27.3454 2.73053 30.8599 3.15838ZM52.2525 49.7484C54.3765 52.1474 56.2865 54.2714 56.4699 54.4853L56.8213 54.8673L55.767 55.8147L54.7279 56.7774L51.0148 52.6058C48.9825 50.329 47.0877 48.2051 46.8127 47.9147L46.2931 47.3646L47.2252 46.3409C47.7448 45.7755 48.2185 45.3171 48.2643 45.3476C48.3254 45.3782 50.1285 47.3494 52.2525 49.7484ZM67.7316 63.1493C71.5822 67 74.9134 70.4534 75.1273 70.8201C75.8302 71.9814 75.5704 73.8151 74.6077 74.686C73.7215 75.4959 72.0254 75.7862 70.9252 75.3431C70.5432 75.175 68.1136 72.8524 63.2238 67.9626L56.0726 60.8267V60.0627V59.2986L57.6312 57.74L59.2051 56.1662H59.9691H60.7178L67.7316 63.1493Z" fill="#002147"/>
<path d="M25.4353 5.60302C24.5949 5.67942 23.0974 5.93919 22.1195 6.18368C9.94097 9.25504 2.83557 21.5711 6.27366 33.6579C8.50461 41.5273 14.8613 47.4255 23.0669 49.2133C24.6255 49.5495 28.7206 49.687 30.3862 49.4578C35.1231 48.7855 39.3405 46.7226 42.7328 43.4221C48.5852 37.753 50.8008 29.8225 48.7532 21.8614C47.7142 17.8121 45.2693 13.8697 42.0146 10.997C37.4916 7.00882 31.578 5.08349 25.4353 5.60302ZM30.9363 8.4299C34.2216 8.96471 37.5374 10.5692 40.2268 12.8918C43.7718 15.9631 45.9875 20.0889 46.7668 25.0397C46.996 26.5219 46.8585 29.9753 46.5223 31.5645C45.2387 37.4321 41.4034 42.383 36.0552 45.0265C34.3591 45.8516 32.3421 46.4934 30.4931 46.799C28.6289 47.0894 25.0991 46.9977 23.3725 46.6157C17.2603 45.2557 12.233 41.1911 9.74232 35.6138C8.50461 32.8633 8.04619 30.6324 8.04619 27.4387C8.06147 22.2281 9.86456 17.7815 13.5013 14.0225C18.0396 9.33144 24.2434 7.34499 30.9363 8.4299Z" fill="#002147"/>
<path d="M18.3301 15.9021V17.2009H27.4219H36.5138V15.9021V14.6033H27.4219H18.3301V15.9021Z" fill="#002147"/>
<path d="M18.1047 23.2148V24.5137H27.1966H36.2884V23.2148V21.916H27.1966H18.1047V23.2148Z" fill="#002147"/>
<path d="M18.1047 30.8379V32.1367H27.1966H36.2884V30.8379V29.539H27.1966H18.1047V30.8379Z" fill="#002147"/>
<path d="M18.3301 39.2812V40.5801H27.4219H36.5138V39.2812V37.9824H27.4219H18.3301V39.2812Z" fill="#002147"/>
<path d="M50.8772 8.10909V9.40792H58.3493C66.4327 9.40792 66.4938 9.40792 67.6093 10.2636C67.8996 10.4776 68.3274 11.0429 68.5566 11.5166L68.9845 12.3876L69.0303 34.2692L69.0609 56.166H70.3597H71.6586V34.7276C71.6586 22.6561 71.5974 12.8766 71.5058 12.3418C71.2307 10.4012 70.0083 8.58278 68.3427 7.65068C66.8758 6.84081 66.5702 6.81025 58.4104 6.81025H50.8772V8.10909Z" fill="#002147"/>
<path d="M54.8045 13.335C54.7434 13.3808 54.6975 13.9768 54.6975 14.6338V15.8257H60.5805H66.4787L66.4329 14.5574L66.387 13.3044L60.6416 13.2586C57.4938 13.2433 54.8656 13.2739 54.8045 13.335Z" fill="#002147"/>
<path d="M57.2952 21.0974V22.3962H61.8793H66.4634V21.0974V19.7986H61.8793H57.2952V21.0974Z" fill="#002147"/>
<path d="M57.4021 26.3233C57.341 26.3691 57.2952 26.965 57.2952 27.6221V28.814H61.8793H66.4787L66.4329 27.5457L66.387 26.2927L61.9404 26.2469C59.4955 26.2316 57.4633 26.2621 57.4021 26.3233Z" fill="#002147"/>
<path d="M57.2952 34.0859V35.3848H61.8793H66.4634V34.0859V32.7871H61.8793H57.2952V34.0859Z" fill="#002147"/>
<path d="M57.4021 39.3118C57.341 39.3576 57.2952 39.9536 57.2952 40.6106V41.8025H61.8793H66.4787L66.4329 40.5342L66.387 39.2812L61.9404 39.2354C59.4955 39.2201 57.4633 39.2507 57.4021 39.3118Z" fill="#002147"/>
<path d="M58.6702 47.0742V48.373H62.5667H66.4632V47.0742V45.7754H62.5667H58.6702V47.0742Z" fill="#002147"/>
<path d="M6.7168 59.2528C6.7168 66.7708 6.73208 66.9236 7.48082 68.3905C7.89339 69.2156 9.00886 70.3311 9.97153 70.8812C11.4843 71.7675 10.6897 71.7522 35.719 71.7522H58.6702V70.4533V69.1545H35.7038C10.4605 69.1545 11.8357 69.2004 10.6439 68.2224C10.323 67.9626 9.9104 67.4584 9.72704 67.1222C9.39087 66.4957 9.39087 66.3429 9.31447 59.375L9.23807 52.2696L7.98507 52.2238L6.7168 52.178V59.2528Z" fill="#002147"/>
<path d="M11.9121 58.6875V59.9863H29.4082H46.9043V58.6875V57.3887H29.4082H11.9121V58.6875Z" fill="#002147"/>
<path d="M11.9121 63.8828V65.1816H32.0059H52.0996V63.8828V62.584H32.0059H11.9121V63.8828Z" fill="#002147"/>
</svg>
