<svg width="25" height="20" viewBox="0 0 25 20" fill="none" xmlns="http://www.w3.org/2000/svg">
<path d="M7.94917 19.5C17.0056 19.5 21.9612 11.9956 21.9612 5.49877C21.9612 5.28765 21.9612 5.07653 21.9516 4.8654C22.912 4.17446 23.7475 3.30118 24.4102 2.31275C23.5266 2.7062 22.5758 2.96531 21.577 3.09006C22.595 2.48548 23.3729 1.51624 23.7475 0.364665C22.7967 0.930856 21.7403 1.33391 20.6166 1.55463C19.7139 0.59498 18.4366 0 17.0248 0C14.3069 0 12.098 2.20718 12.098 4.92298C12.098 5.30684 12.1461 5.6811 12.2229 6.04577C8.13165 5.84424 4.50139 3.87697 2.07162 0.902067C1.64905 1.6314 1.40896 2.47589 1.40896 3.37795C1.40896 5.08612 2.28291 6.59277 3.59863 7.47564C2.79191 7.44685 2.03321 7.22613 1.37054 6.86146C1.37054 6.88066 1.37054 6.89985 1.37054 6.92864C1.37054 9.30856 3.07042 11.3046 5.31772 11.7557C4.90475 11.8708 4.47258 11.9284 4.0212 11.9284C3.70427 11.9284 3.39695 11.8996 3.09923 11.842C3.72348 13.7997 5.54821 15.22 7.69947 15.2584C6.0092 16.5827 3.88675 17.3696 1.58183 17.3696C1.18807 17.3696 0.79431 17.3504 0.410156 17.3024C2.58062 18.6843 5.17366 19.5 7.94917 19.5Z" fill="white"/>
</svg>
