<svg width="37" height="17" viewBox="0 0 37 17" fill="none" xmlns="http://www.w3.org/2000/svg">
<path d="M28.0054 1.84817C28.4871 1.45487 28.4871 0.817191 28.0054 0.423886C27.5238 0.0305798 26.7429 0.0305798 26.2612 0.423886L9.86667 13.8115L2.10543 7.47374C1.62379 7.08044 0.842882 7.08044 0.361235 7.47374C-0.120412 7.86705 -0.120412 8.50472 0.361235 8.89803L8.99457 15.9479C9.22586 16.1368 9.53957 16.2429 9.86667 16.2429C10.1938 16.2429 10.5075 16.1368 10.7388 15.9479L28.0054 1.84817Z" fill="#30A1DB"/>
<path d="M17.6279 15.9479L15.4167 14.1422L17.1609 12.7179L18.5 13.8115L34.8946 0.423886C35.3762 0.0305798 36.1571 0.0305798 36.6388 0.423886C37.1204 0.817191 37.1204 1.45487 36.6388 1.84817L19.3721 15.9479C19.1408 16.1368 18.8271 16.2429 18.5 16.2429C18.1729 16.2429 17.8592 16.1368 17.6279 15.9479Z" fill="#30A1DB"/>
<path d="M10.7388 7.47374L12.95 9.2794L11.2058 10.7037L8.99457 8.89803C8.51292 8.50472 8.51292 7.86705 8.99457 7.47374C9.47621 7.08044 10.2571 7.08044 10.7388 7.47374Z" fill="#30A1DB"/>
</svg>
