<svg width="37" height="17" viewBox="0 0 37 17" fill="none" xmlns="http://www.w3.org/2000/svg">
<path d="M28.0054 1.84866C28.4871 1.45535 28.4871 0.81768 28.0054 0.424374C27.5238 0.0310681 26.7429 0.0310681 26.2612 0.424374L9.86667 13.8119L2.10543 7.47423C1.62379 7.08092 0.842882 7.08092 0.361235 7.47423C-0.120412 7.86754 -0.120412 8.50521 0.361235 8.89852L8.99457 15.9484C9.22586 16.1372 9.53957 16.2434 9.86667 16.2434C10.1938 16.2434 10.5075 16.1372 10.7388 15.9484L28.0054 1.84866Z" fill="#4682B4"/>
<path d="M17.6279 15.9484L15.4167 14.1427L17.1609 12.7184L18.5 13.8119L34.8946 0.424374C35.3762 0.0310681 36.1571 0.0310681 36.6388 0.424374C37.1204 0.81768 37.1204 1.45535 36.6388 1.84866L19.3721 15.9484C19.1408 16.1372 18.8271 16.2434 18.5 16.2434C18.1729 16.2434 17.8592 16.1372 17.6279 15.9484Z" fill="#4682B4"/>
<path d="M10.7388 7.47423L12.95 9.27989L11.2058 10.7042L8.99457 8.89852C8.51292 8.50521 8.51292 7.86754 8.99457 7.47423C9.47621 7.08092 10.2571 7.08092 10.7388 7.47423Z" fill="#4682B4"/>
</svg>
