<svg width="383" height="192" viewBox="0 0 383 192" fill="none" xmlns="http://www.w3.org/2000/svg">
<path d="M273.558 134.983V94.3962C273.558 86.3749 280.105 79.8078 288.109 79.8078H329.873V36.5615C329.873 35.6904 329.93 34.8335 330.022 33.9873H289.821C256.117 33.9873 228.545 61.6353 228.545 95.4237V134.983H273.562H273.558Z" fill="white"/>
<path d="M329.876 79.8115V120.398C329.876 128.42 323.33 134.987 315.326 134.987H273.561V178.233C273.561 179.104 273.504 179.961 273.412 180.807H313.613C347.317 180.807 374.889 153.159 374.889 119.371V79.8115H329.873H329.876Z" fill="white"/>
<path d="M98.6093 34.8623V80.2916C98.6093 83.6374 95.7474 85.6712 93.3643 85.6712H88.3569V45.5041C42.9289 45.5041 83.1119 102.887 39.7088 102.887C16.5763 102.887 8.11133 90.0943 8.11133 72.5228C8.11133 61.2836 12.4023 53.1556 22.7788 53.1556L27.0698 53.6356V53.9947C21.7043 56.505 17.5303 65.113 17.5303 71.5699C17.5303 83.1645 19.4382 92.9672 40.4252 93.209C68.3274 93.209 32.5559 34.8694 88.3569 34.8694H98.6128L98.6093 34.8623Z" fill="white"/>
<path d="M155.959 67.7409C155.959 76.5871 154.53 84.2387 153.814 86.628C150.356 97.9845 139.983 106.592 125.316 106.592C119.95 106.592 115.539 105.277 115.539 101.092V97.1454C117.447 97.6218 119.713 97.8636 122.096 97.8636C133.901 97.8636 141.175 92.7223 144.037 85.668C129.49 85.3089 109.936 81.7214 109.936 61.0422C109.936 44.7827 118.759 34.8627 132.589 34.8627C151.785 34.8627 155.959 52.7934 155.959 67.7374V67.7409ZM145.228 75.6307C145.228 58.1765 146.182 44.0716 131.515 44.0716C124.241 44.0716 119.472 50.0485 119.472 59.3747C119.472 74.1978 130.681 75.6343 145.228 75.6343V75.6307ZM125.795 28.0502C124.362 28.0502 123.411 26.8556 123.411 25.7782V23.8654H127.702L127.344 23.1471C126.866 22.1907 126.866 21.1134 126.866 19.8014C126.866 14.7809 129.965 11.1934 134.735 11.1934C137.955 11.1934 140.696 12.9854 141.412 15.9756C141.412 17.412 141.175 18.6067 140.221 19.8014C138.313 15.0191 135.093 14.7809 134.377 14.7809C133.185 14.7809 131.157 15.3782 131.157 19.4422C131.157 21.2342 131.277 22.9089 132.589 23.8654H142.725V25.7782C142.725 26.8556 141.771 28.0502 140.221 28.0502H125.795Z" fill="white"/>
<path d="M183.025 86.2688C183.025 87.8226 183.025 83.1612 183.025 91.4101C183.025 99.659 176.109 106.592 166.69 106.592C161.8 106.592 158.463 104.559 158.463 101.092V98.3435C159.417 98.4644 160.371 98.5817 161.325 98.5817C174.797 98.5817 172.772 90.8128 172.772 75.1506V44.7861H175.992C181.358 44.7861 183.028 47.0581 183.028 52.7968V86.2688H183.025Z" fill="white"/>
<path d="M36.1263 135.897C34.456 134.46 31.4771 133.148 27.7783 133.148C20.6254 133.148 17.8806 136.736 17.8806 148.331V178.816H13.9442C10.6071 178.816 8.69922 176.185 8.69922 172.601V147.616C8.69922 132.551 15.9727 124.544 26.4662 124.544C33.8602 124.544 36.6015 127.772 36.6015 131.477V135.9H36.1263V135.897Z" fill="white"/>
<path d="M61.05 179.89C46.6237 179.89 35.8926 168.772 35.8926 152.633C35.8926 134.581 45.6697 123.584 61.05 123.584C75.3593 123.584 85.3741 134.464 85.3741 150.603C85.3741 168.892 75.7175 179.893 61.05 179.893V179.89ZM59.6173 132.309C50.9147 132.309 45.191 139.364 45.191 150.72C45.191 163.154 51.2729 171.044 61.8834 171.044C71.0647 171.044 75.9551 163.392 75.9551 152.754C75.9551 139.246 70.3519 132.313 59.6208 132.313L59.6173 132.309Z" fill="white"/>
<path d="M112.201 179.89C101.112 179.89 91.4551 173.433 91.4551 163.751C91.4551 152.035 100.516 145.699 116.733 145.699H124.007V143.189C124.007 135.178 120.07 131.95 111.247 131.95C103.14 131.95 97.1752 135.058 94.0758 139.363H93.48V134.94C93.48 129.92 100.037 123.463 112.201 123.463C125.914 123.463 133.305 130.634 133.305 143.904V160.878C133.305 171.875 127.344 179.886 112.201 179.886V179.89ZM124.124 153.468H116.73C105.878 153.468 100.87 156.814 100.87 162.791C100.87 167.573 105.64 171.278 112.556 171.278C120.783 171.278 124.12 168.05 124.12 160.16V153.465L124.124 153.468Z" fill="white"/>
<path d="M161.445 179.89C150.356 179.89 140.699 173.433 140.699 163.751C140.699 152.035 149.76 145.699 165.977 145.699H173.251V143.189C173.251 135.178 169.314 131.95 160.491 131.95C152.384 131.95 146.419 135.058 143.32 139.363H142.724V134.94C142.724 129.92 149.281 123.463 161.445 123.463C175.159 123.463 182.549 130.634 182.549 143.904V160.878C182.549 171.875 176.588 179.886 161.445 179.886V179.89ZM173.368 153.468H165.974C155.122 153.468 150.115 156.814 150.115 162.791C150.115 167.573 154.884 171.278 161.8 171.278C170.027 171.278 173.364 168.05 173.364 160.16V153.465L173.368 153.468Z" fill="white"/>
</svg>
