<?xml version="1.0" encoding="iso-8859-1"?>
<!-- Uploaded to: SVG Repo, www.svgrepo.com, Generator: SVG Repo Mixer Tools -->
<svg version="1.1" id="Layer_1" xmlns="http://www.w3.org/2000/svg" xmlns:xlink="http://www.w3.org/1999/xlink" 
	 viewBox="0 0 512 512" xml:space="preserve">
<circle style="fill:#E6E5E5;" cx="256" cy="256" r="256"/>
<rect x="74.872" y="146.368" style="fill:#FFFFFF;" width="362.24" height="257.68"/>
<g>
	<polygon style="fill:#E6E5E5;" points="337.912,377.32 174.088,377.32 147.224,397.744 364.776,397.744 	"/>
	<polygon style="fill:#E6E5E5;" points="153.448,377.32 106.232,377.32 79.368,397.744 126.68,397.744 	"/>
	<polygon style="fill:#E6E5E5;" points="405.768,377.32 358.552,377.32 385.32,397.744 432.632,397.744 	"/>
	<polygon style="fill:#E6E5E5;" points="337.912,173.64 174.088,173.64 147.224,153.216 364.776,153.216 	"/>
	<polygon style="fill:#E6E5E5;" points="153.448,173.64 106.232,173.64 79.368,153.216 126.68,153.216 	"/>
	<polygon style="fill:#E6E5E5;" points="405.768,173.64 358.552,173.64 385.32,153.216 432.632,153.216 	"/>
</g>
<path style="fill:#FFFFFF;" d="M434.248,149.248v251.92H77.752v-251.92H434.248 M440,143.496H72v263.416h368V143.496L440,143.496z"
	/>
<path style="fill:#232323;" d="M72,153.216v-45.808c0-6.328,5.176-11.504,11.504-11.504h344.968c6.328,0,11.504,5.176,11.504,11.504
	v45.808H72L72,153.216z"/>
<polygon style="fill:#FFFFFF;" points="410.976,140.376 195.288,140.376 215.92,108.752 410.976,108.752 "/>
<circle style="fill:#DB2B42;" cx="110.744" cy="124.128" r="9.784"/>
<circle style="fill:#8AD5DD;" cx="136.64" cy="124.128" r="9.784"/>
<circle style="fill:#CCCBCA;" cx="162.6" cy="124.128" r="9.784"/>
<g>
	<path style="fill:#232323;" d="M226.976,118.624l1.376,5.976c0.296,1.4,0.6,2.832,0.84,4.264h0.056
		c0.272-1.432,0.704-2.896,1.08-4.24l1.704-6h2.704l1.648,5.84c0.4,1.544,0.752,2.976,1.056,4.408h0.056
		c0.216-1.432,0.512-2.864,0.864-4.408l1.464-5.84h3.264l-4.136,13.16h-3.08l-1.56-5.352c-0.4-1.376-0.704-2.624-1-4.216h-0.056
		c-0.272,1.624-0.616,2.92-1,4.216l-1.672,5.352h-3.112l-3.888-13.16C223.584,118.624,226.976,118.624,226.976,118.624z"/>
	<path style="fill:#232323;" d="M247.648,118.624l1.376,5.976c0.296,1.4,0.6,2.832,0.84,4.264h0.056
		c0.272-1.432,0.704-2.896,1.08-4.24l1.704-6h2.704l1.648,5.84c0.4,1.544,0.752,2.976,1.056,4.408h0.056
		c0.216-1.432,0.512-2.864,0.864-4.408l1.464-5.84h3.264l-4.136,13.16h-3.08l-1.568-5.352c-0.4-1.376-0.704-2.624-1-4.216h-0.056
		c-0.272,1.624-0.616,2.92-1,4.216l-1.672,5.352h-3.112l-3.896-13.16C244.24,118.624,247.648,118.624,247.648,118.624z"/>
	<path style="fill:#232323;" d="M268.328,118.624l1.376,5.976c0.296,1.4,0.6,2.832,0.84,4.264h0.056
		c0.272-1.432,0.704-2.896,1.08-4.24l1.704-6h2.704l1.648,5.84c0.4,1.544,0.752,2.976,1.056,4.408h0.056
		c0.216-1.432,0.512-2.864,0.864-4.408l1.464-5.84h3.264l-4.136,13.16h-3.08l-1.56-5.352c-0.4-1.376-0.704-2.624-1-4.216h-0.056
		c-0.272,1.624-0.616,2.92-1,4.216l-1.672,5.352h-3.112l-3.896-13.16C264.928,118.624,268.328,118.624,268.328,118.624z"/>
	<path style="fill:#232323;" d="M284.968,129.944c0-1.248,0.864-2.136,2.056-2.136c1.216,0,2.056,0.864,2.056,2.136
		c0,1.216-0.808,2.136-2.056,2.136C285.816,132.072,284.968,131.152,284.968,129.944z"/>
	<polygon style="fill:#232323;" points="318.304,401.064 193.696,401.064 210.944,387.952 301.056,387.952 	"/>
	<rect x="72" y="397.744" style="fill:#232323;" width="368" height="9.176"/>
	<polygon style="fill:#232323;" points="432.632,397.744 385.32,397.744 364.776,397.744 147.224,397.744 126.68,397.744 
		79.368,397.744 72,397.744 72,406.92 440,406.92 440,397.744 	"/>
	<polygon style="fill:#232323;" points="388.504,133.904 386.448,131.888 393.56,124.592 386.024,117.24 388.032,115.192 
		397.624,124.528 	"/>
	<rect x="375.04" y="123.12" style="fill:#232323;" width="18.984" height="2.872"/>
	<path style="fill:#232323;" d="M285.696,196.92c-9.248-3.488-19.232-5.48-29.696-5.48c-46.64,0-84.448,37.808-84.448,84.448
		c0,17.056,5.096,32.904,13.8,46.184l70.576-46.216L285.696,196.92z"/>
</g>
<path style="fill:#8AD5DD;" d="M256,360.344c46.64,0,84.448-37.808,84.448-84.448c0-0.008,0-0.024,0-0.032H255.92l-70.576,46.216
	C200.432,345.104,226.416,360.344,256,360.344z"/>
<path style="fill:#DB2B42;" d="M340.448,275.864c-0.016-36.16-22.792-66.92-54.752-78.944l-29.776,78.944H340.448z"/>
</svg>