<svg width="44" height="44" viewBox="0 0 44 44" fill="none" xmlns="http://www.w3.org/2000/svg">
<path d="M25.0354 31.4639H18.9648V38.4304H25.0354V31.4639Z" fill="black"/>
<path d="M29.7485 36.7266H14.2525L11.6387 40.138H32.3622L29.7485 36.7266Z" fill="black"/>
<path d="M41.2835 31.4976H2.71875V6.58008H41.2835V31.4976ZM4.28874 29.9276H39.7136V8.14998H4.28874V29.9276Z" fill="black"/>
<path d="M9.21452 10.1943H7.64453V27.778H9.21452V10.1943Z" fill="white"/>
<path d="M13.1403 15.0088H11.5703V27.7779H13.1403V15.0088Z" fill="white"/>
<path d="M17.0641 18.8818H15.4941V27.7783H17.0641V18.8818Z" fill="white"/>
<path d="M20.9899 16.0557H19.4199V27.7781H20.9899V16.0557Z" fill="white"/>
<path d="M24.9137 14.2764H23.3438V27.7781H24.9137V14.2764Z" fill="white"/>
<path d="M28.8395 19.7188H27.2695V27.778H28.8395V19.7188Z" fill="white"/>
<path d="M32.7633 22.8584H31.1934V27.7776H32.7633V22.8584Z" fill="white"/>
<path d="M36.6891 14.2764H35.1191V27.7781H36.6891V14.2764Z" fill="white"/>
<path d="M23.3438 27.7182L24.9137 23.3652V27.7779H23.3438V27.7182Z" fill="white"/>
<path d="M28.8395 19.7188H27.2695V27.778H28.8395V19.7188Z" fill="white"/>
<path d="M32.7633 22.8584H31.1934V27.7776H32.7633V22.8584Z" fill="white"/>
<path d="M36.6891 14.2764H35.1191V27.7781H36.6891V14.2764Z" fill="white"/>
</svg>
