<svg width="58" height="55" viewBox="0 0 58 55" fill="none" xmlns="http://www.w3.org/2000/svg">
<path d="M52.2885 1.27085C50.717 1.86452 49.6229 2.36506 49.5181 2.4931C49.425 2.62115 49.3551 2.87724 49.3551 3.06348C49.3551 3.4127 49.4715 3.54074 50.5657 4.4487L50.8917 4.72807L46.154 9.95464L41.4048 15.1928L40.7878 15.1579C40.0312 15.1114 39.4259 15.286 38.8672 15.7167L38.4481 16.0542L35.3285 15.0415C32.8607 14.2383 32.1972 13.9822 32.1274 13.796C32.0692 13.6679 31.9644 13.3769 31.883 13.1674C31.6618 12.5621 31.0914 11.9917 30.4396 11.6891C29.3454 11.1769 28.3094 11.3748 27.4014 12.2827C26.5866 13.0976 26.412 13.7727 26.6797 15.1346C26.703 15.2743 24.1421 17.8119 20.1495 21.6067L19.8701 21.8745L20.4754 22.5729L21.0924 23.283L22.5241 21.9094C23.3157 21.1644 24.8755 19.6744 25.9813 18.6035L28.0067 16.6595L28.4723 16.8225C29.4268 17.1601 30.3464 16.9738 31.1613 16.2521L31.6851 15.7865L34.6766 16.7759L37.6566 17.7654L37.7381 18.231C37.8545 18.9527 38.0291 19.2903 38.5296 19.8374C39.6354 21.0364 41.428 21.0131 42.5222 19.7908C43.3254 18.9061 43.5117 17.7421 43.0228 16.7643L42.8365 16.3802L43.8027 15.3209C44.3381 14.7389 46.3286 12.5272 48.2377 10.4203C50.1583 8.30169 51.8578 6.42758 52.044 6.24133L52.3583 5.90376L53.1033 6.48578C53.5107 6.80007 53.9298 7.09108 54.0345 7.13764C54.3139 7.24241 54.9192 7.0096 55.0705 6.74187C55.2102 6.47414 56.2229 1.48038 56.2229 1.04968C56.2229 0.607347 55.7806 0.234854 55.2801 0.246494C55.0589 0.258135 53.7086 0.712112 52.2885 1.27085ZM54.0113 2.81903C54.0113 2.95872 53.9065 3.42434 53.7203 4.28573C53.6621 4.53018 53.6155 4.51854 52.8938 3.93652L52.1372 3.33121L52.9287 3.01692C53.8367 2.65607 54.0113 2.62115 54.0113 2.81903ZM29.9739 13.5632C30.1602 13.7378 30.265 13.9822 30.265 14.2034C30.265 14.4246 30.1602 14.669 29.9739 14.8436C29.7993 15.0299 29.5549 15.1346 29.3337 15.1346C29.1126 15.1346 28.8681 15.0299 28.6935 14.8436C28.1115 14.2732 28.5189 13.2722 29.3337 13.2722C29.5549 13.2722 29.7993 13.3769 29.9739 13.5632ZM41.1487 17.2881C41.3349 17.4627 41.4397 17.7072 41.4397 17.9283C41.4397 18.1495 41.3349 18.394 41.1487 18.5686C40.9741 18.7548 40.7296 18.8596 40.5085 18.8596C40.2873 18.8596 40.0428 18.7548 39.8682 18.5686C39.682 18.394 39.5772 18.1495 39.5772 17.9283C39.5772 17.7072 39.682 17.4627 39.8682 17.2881C40.0428 17.1019 40.2873 16.9971 40.5085 16.9971C40.7296 16.9971 40.9741 17.1019 41.1487 17.2881Z" fill="#4682B4"/>
<path d="M47.7837 13.5631L47.4927 13.8425V30.0344V46.2262L47.7837 46.5056L48.0631 46.7966H51.6832H55.3034L55.5827 46.5056L55.8737 46.2262V30.0344V13.8425L55.5827 13.5631L55.3034 13.2721H51.6832H48.0631L47.7837 13.5631ZM54.0113 30.0344V44.9342H51.6832H49.3551V30.0344V15.1346H51.6832H54.0113V30.0344Z" fill="#4682B4"/>
<path d="M25.4341 21.9443L25.1431 22.2236V34.2249V46.2262L25.4341 46.5056L25.7134 46.7966H29.3336H32.9537L33.2331 46.5056L33.5241 46.2262V34.2249V22.2236L33.2331 21.9443L32.9537 21.6532H29.3336H25.7134L25.4341 21.9443ZM31.6617 34.2249V44.9342H29.3336H27.0055V34.2249V23.5157H29.3336H31.6617V34.2249Z" fill="#4682B4"/>
<path d="M36.6089 23.8067L36.3179 24.0861V35.1562V46.2262L36.6089 46.5056L36.8882 46.7966H40.5084H44.1285L44.4079 46.5056L44.6989 46.2262V35.1562V24.0861L44.4079 23.8067L44.1285 23.5157H40.5084H36.8882L36.6089 23.8067ZM42.8365 35.1562V44.9342H40.5084H38.1803V35.1562V25.3782H40.5084H42.8365V35.1562Z" fill="#4682B4"/>
<path d="M9.82431 26.5888C9.54494 26.8216 9.49838 26.9613 9.45181 27.6481L9.40525 28.428L8.88144 28.6492C8.59043 28.7656 8.31106 28.8703 8.24122 28.8703C8.17138 28.8703 7.85709 28.6375 7.55444 28.3465C6.69305 27.5317 6.61157 27.5666 4.86552 29.3127C3.11946 31.0587 3.08454 31.1402 3.89937 32.0016C4.19038 32.3043 4.42318 32.6186 4.42318 32.6884C4.42318 32.7582 4.31842 33.0376 4.20202 33.3286L3.98085 33.8408L3.1893 33.9106C2.51416 33.9572 2.3512 34.0154 2.13003 34.2831C1.87395 34.5742 1.8623 34.6789 1.8623 36.553C1.8623 38.4271 1.87395 38.5319 2.13003 38.8229C2.3512 39.0906 2.51416 39.1489 3.1893 39.1954L3.98085 39.2653L4.20202 39.7774C4.31842 40.0684 4.42318 40.3478 4.42318 40.4177C4.42318 40.4875 4.19038 40.8018 3.89937 41.1044C3.08454 41.9658 3.11946 42.0473 4.86552 43.7934C6.61157 45.5395 6.69305 45.5744 7.55444 44.7596C7.85709 44.4685 8.17138 44.2357 8.24122 44.2357C8.31106 44.2357 8.59043 44.3405 8.88144 44.4569L9.39361 44.6781L9.46345 45.4696C9.51002 46.1448 9.56822 46.3077 9.83595 46.5289C10.127 46.785 10.2317 46.7966 12.1058 46.7966C13.9799 46.7966 14.0847 46.785 14.3757 46.5289C14.6434 46.3077 14.7016 46.1448 14.7482 45.4696L14.818 44.6781L15.3302 44.4569C15.6212 44.3405 15.9006 44.2357 15.9704 44.2357C16.0403 44.2357 16.3545 44.4685 16.6572 44.7596C17.5186 45.5627 17.6001 45.5278 19.2879 43.8516C21.0572 42.0939 21.1038 41.9542 20.3239 41.1161C20.0329 40.8018 19.7884 40.4875 19.7884 40.4177C19.7884 40.3478 19.8932 40.0684 20.0096 39.7774L20.2308 39.2653L21.0223 39.1954C21.6975 39.1489 21.8604 39.0906 22.0816 38.8229C22.3377 38.5319 22.3493 38.4271 22.3493 36.553C22.3493 34.6789 22.3377 34.5742 22.0816 34.2831C21.8604 34.0154 21.6975 33.9572 21.0223 33.9106L20.2308 33.8408L20.0096 33.3286C19.8932 33.0376 19.7884 32.7582 19.7884 32.6884C19.7884 32.6186 20.0213 32.3043 20.3123 32.0016C21.1271 31.1402 21.0922 31.0587 19.3461 29.3127C17.6001 27.5666 17.5186 27.5317 16.6572 28.3465C16.3545 28.6375 16.0403 28.8703 15.9704 28.8703C15.9006 28.8703 15.6212 28.7656 15.3302 28.6492L14.818 28.428L14.7482 27.6364C14.7016 26.9613 14.6434 26.7983 14.3757 26.5772C14.0847 26.3211 13.9799 26.3094 12.1058 26.3094C10.2084 26.3094 10.127 26.3211 9.82431 26.5888ZM12.9206 28.6026C12.9206 29.1148 13.2466 29.7201 13.6423 29.9412C14.0381 30.1624 15.1323 30.6164 15.5863 30.7561C16.1101 30.9074 16.6805 30.791 17.1228 30.4185L17.4837 30.1159L18.0075 30.6513L18.5429 31.1751L18.2403 31.536C17.8678 31.9783 17.7514 32.5487 17.9027 33.0725C18.0424 33.5265 18.4964 34.6207 18.7175 35.0165C18.9387 35.4123 19.544 35.7382 20.0562 35.7382H20.4869V36.553V37.3679H20.0562C19.544 37.3679 18.9387 37.6938 18.7175 38.0896C18.4964 38.4853 18.0424 39.5795 17.9027 40.0335C17.7514 40.5573 17.8678 41.1277 18.2403 41.5701L18.5429 41.9309L18.0075 42.4547L17.4837 42.9902L17.1228 42.6875C16.6805 42.3151 16.1101 42.1987 15.5863 42.35C15.1323 42.4897 14.0381 42.9436 13.6423 43.1648C13.2466 43.386 12.9206 43.9913 12.9206 44.4918V44.9342H12.1058H11.291V44.4918C11.291 43.9913 10.9651 43.386 10.5693 43.1648C10.1735 42.9436 9.07932 42.4897 8.62535 42.35C8.10153 42.1987 7.53116 42.3151 7.08882 42.6875L6.72797 42.9902L6.20416 42.4547L5.6687 41.9309L5.95971 41.5701C6.30892 41.1626 6.46024 40.4875 6.29728 39.987C6.15759 39.5563 5.69198 38.4504 5.49409 38.0896C5.27293 37.6938 4.66763 37.3679 4.16709 37.3679H3.72476V36.553V35.7382H4.13217C4.65599 35.7382 5.15652 35.4821 5.43589 35.0747C5.71526 34.6673 6.40204 32.9212 6.40204 32.6069C6.40204 32.2577 6.18088 31.7572 5.90151 31.4545L5.65706 31.1868L6.19252 30.6513L6.72797 30.1159L7.08882 30.4185C7.53116 30.791 8.10153 30.9074 8.62535 30.7561C9.07932 30.6164 10.1735 30.1624 10.5693 29.9412C10.9651 29.7201 11.291 29.1148 11.291 28.6026V28.1719H12.1058H12.9206V28.6026Z" fill="#4682B4"/>
<path d="M10.8255 31.5937C8.14826 32.3503 6.54189 34.9461 7.11227 37.6235C7.54296 39.6489 9.20754 41.2204 11.2679 41.5812C14.8531 42.1982 17.9611 38.8457 17.0531 35.3536C16.797 34.3758 16.378 33.6191 15.7029 32.944C14.4457 31.6868 12.4668 31.1397 10.8255 31.5937ZM13.1536 33.4794C14.0266 33.7355 14.888 34.6202 15.179 35.5514C16.2034 38.8108 12.234 41.2204 9.81283 38.8108C8.52075 37.5187 8.52075 35.5864 9.83611 34.2826C10.7441 33.363 11.8615 33.0953 13.1536 33.4794Z" fill="#4682B4"/>
<path d="M0 49.5898V50.521H28.8681H57.7362V49.5898V48.6585H28.8681H0V49.5898Z" fill="#4682B4"/>
<path d="M0 53.3149V54.2461H1.86246H3.72491V53.3149V52.3836H1.86246H0V53.3149Z" fill="#4682B4"/>
<path d="M5.5874 53.3149V54.2461H6.51863H7.44986V53.3149V52.3836H6.51863H5.5874V53.3149Z" fill="#4682B4"/>
<path d="M9.3125 53.3149V54.2461H33.5244H57.7364V53.3149V52.3836H33.5244H9.3125V53.3149Z" fill="#4682B4"/>
</svg>
