<?xml version="1.0" encoding="iso-8859-1"?>
<!-- Uploaded to: SVG Repo, www.svgrepo.com, Generator: SVG Repo Mixer Tools -->
<svg version="1.1" id="Layer_1" xmlns="http://www.w3.org/2000/svg" xmlns:xlink="http://www.w3.org/1999/xlink" 
	 viewBox="0 0 482.2 482.2" xml:space="preserve">
<circle style="fill:#FD8469;" cx="241.1" cy="241.1" r="241.1"/>
<rect x="98" y="94.6" style="fill:#E6E9EE;" width="179.9" height="223.9"/>
<g>
	<rect x="122.7" y="150.2" style="fill:#FF7058;" width="14.1" height="29"/>
	<rect x="148.3" y="121.2" style="fill:#FF7058;" width="14.1" height="57.9"/>
	<rect x="173.8" y="134.9" style="fill:#FF7058;" width="14.1" height="44.2"/>
</g>
<g>
	<rect x="117.8" y="199.5" style="fill:#CED5E0;" width="140.4" height="9.2"/>
	<rect x="117.8" y="220.1" style="fill:#CED5E0;" width="140.4" height="9.2"/>
	<rect x="117.8" y="240.7" style="fill:#CED5E0;" width="140.4" height="9.2"/>
	<rect x="117.8" y="261.2" style="fill:#CED5E0;" width="140.4" height="9.2"/>
	<rect x="117.8" y="281.8" style="fill:#CED5E0;" width="72.1" height="9.2"/>
</g>
<rect x="204.3" y="163.7" style="fill:#FFFFFF;" width="179.9" height="223.9"/>
<g>
	<rect x="229" y="219.3" style="fill:#4CDBC4;" width="14.1" height="29"/>
	<rect x="254.5" y="190.4" style="fill:#4CDBC4;" width="14.1" height="57.9"/>
	<rect x="280.1" y="204.1" style="fill:#4CDBC4;" width="14.1" height="44.2"/>
</g>
<g>
	<rect x="224" y="268.7" style="fill:#CED5E0;" width="140.4" height="9.2"/>
	<rect x="224" y="289.3" style="fill:#CED5E0;" width="140.4" height="9.2"/>
	<rect x="224" y="309.8" style="fill:#CED5E0;" width="140.4" height="9.2"/>
	<rect x="224" y="330.4" style="fill:#CED5E0;" width="140.4" height="9.2"/>
	<rect x="224" y="350.9" style="fill:#CED5E0;" width="72.1" height="9.2"/>
</g>
</svg>