<svg width="80" height="81" viewBox="0 0 80 81" fill="none" xmlns="http://www.w3.org/2000/svg">
<path d="M32.6147 1.39217C26.1857 2.67485 25.5443 2.81563 25.0438 3.22234C23.9018 4.16089 23.9175 3.98882 23.9175 11.2156C23.9175 17.1285 23.9488 17.8324 24.246 19.2715C25.341 24.7151 28.97 29.4704 33.9287 31.9732C35.5399 32.7866 39.2471 34.085 39.9667 34.085C40.7488 34.085 44.2684 32.8336 46.1298 31.895C50.322 29.7676 53.5756 25.9822 55.1242 21.4145C55.703 19.7252 55.7812 18.771 55.4058 18.3017C55.0147 17.8324 54.217 17.7855 53.7946 18.2235C53.6382 18.3799 53.3566 19.0838 53.1689 19.7721C52.7309 21.3989 51.5265 23.8861 50.541 25.1687C49.446 26.6079 47.4751 28.4067 46.036 29.2671C44.8784 29.971 40.5142 31.7386 39.9667 31.7386C39.56 31.7386 35.4773 30.1743 34.5544 29.6738C30.7845 27.5933 28.094 24.2146 26.7801 19.9285L26.3577 18.5207L26.3421 11.7944V5.06815L27.2024 4.88044C27.6717 4.77094 30.7533 4.16089 34.0382 3.51955L40.0292 2.34636L46.7086 3.66033C50.3689 4.37988 53.4349 5.03687 53.4974 5.09944C53.56 5.16201 53.6382 7.30503 53.6695 9.85475C53.7164 14.1721 53.7321 14.5162 54.0136 14.8291C54.4047 15.2514 55.3589 15.2827 55.7187 14.876C55.9533 14.6257 55.9846 14.0313 55.9846 9.69833C55.9846 5.91285 55.9377 4.70837 55.7656 4.31731C55.5153 3.7229 54.8114 3.03463 54.2326 2.81563C53.7164 2.62792 40.2952 -0.0156555 39.9041 -1.14441e-05C39.7633 -1.14441e-05 36.4784 0.641327 32.6147 1.39217Z" fill="white"/>
<path d="M34.1788 5.86595C30.8313 6.52294 29.095 6.94528 28.9073 7.11735C28.6257 7.36763 28.6101 7.69612 28.6101 12.4202C28.6101 17.238 28.6257 17.5352 28.9855 18.9587C29.8302 22.2749 31.8168 25.0906 34.6481 26.9677C35.6336 27.6246 37.6671 28.5476 39.1375 29.0168C40.0291 29.2984 40.0448 29.2984 41.0928 28.923C42.7509 28.3598 44.6749 27.4213 45.723 26.6705C47.8973 25.1218 49.7587 22.5721 50.6817 19.8816L51.2135 18.3643L51.2604 12.8894C51.3074 7.55534 51.3074 7.39891 50.9945 7.11735C50.6191 6.77321 41.0302 4.81791 39.8727 4.84919C39.4816 4.86483 36.9319 5.31846 34.1788 5.86595ZM44.3152 7.96204C46.5677 8.40003 48.523 8.7911 48.6794 8.83802C48.9297 8.91623 48.9453 9.26037 48.9453 13.1084C48.9453 17.7073 48.8046 18.7397 47.9129 20.5073C46.5208 23.2917 44.5185 25.0749 41.4526 26.2637L39.9822 26.8425L38.6369 26.342C35.4459 25.1375 33.3967 23.3386 32.0515 20.5542C31.0503 18.4738 30.9565 17.8012 30.9565 13.0928V8.91623L31.8637 8.72853C35.0235 8.07154 39.5442 7.2112 39.8571 7.19556C40.0604 7.17992 42.0783 7.5397 44.3152 7.96204Z" fill="white"/>
<path d="M43.3297 12.2949C43.1107 12.5451 41.7967 14.0937 40.4358 15.7362L37.9643 18.7552L37.276 18.1764C36.4313 17.5038 35.7587 17.4256 35.3051 17.9574C34.7263 18.6926 34.914 19.1776 36.2436 20.429C37.5576 21.6804 37.933 21.8524 38.5118 21.5396C38.8403 21.3675 44.2213 14.9697 45.0816 13.7496C45.457 13.2178 45.4101 12.7016 44.9565 12.2636C44.4559 11.7474 43.8615 11.763 43.3297 12.2949Z" fill="white"/>
<path d="M0.328492 27.7496C-0.109497 28.2971 -0.109497 28.6569 0.328492 29.1418C0.813409 29.6737 21.9151 39.5597 22.5721 39.5597C22.838 39.5597 24.9967 39.2469 27.3587 38.8558C29.7207 38.4647 32.1297 38.1519 32.6928 38.1519C34.1475 38.1519 36.2593 38.543 37.6202 39.0748C40.0448 40.0134 40.7643 40.5765 45.1755 44.9407C47.5688 47.3184 49.3833 49.2424 49.5241 49.5553C50.1029 50.9162 48.8202 52.4648 47.3498 52.1676C47.0839 52.1206 45.3163 50.9631 43.4235 49.6178C41.4839 48.2569 39.7006 47.0994 39.3721 47.0055C38.4023 46.7396 37.6671 47.1933 34.8827 49.7743C32.6146 51.8547 32.3643 52.1363 32.3643 52.6056C32.3643 52.934 32.4894 53.2312 32.7241 53.4502C33.4436 54.1229 33.7408 53.9664 36.4001 51.5419L38.8872 49.2893L42.0783 51.5575C46.1766 54.467 46.2235 54.4983 47.6939 54.4983C48.6638 54.4826 49.0079 54.4201 49.6649 54.0759C51.1196 53.3095 51.9643 51.9016 51.9643 50.2748C51.9643 48.6793 51.6202 48.1162 48.5543 45.0189C47.0526 43.486 45.8168 42.172 45.8168 42.0782C45.8168 41.8279 47.1777 41.6715 49.4146 41.6871C51.6984 41.6871 52.0738 41.7653 55.3118 42.8446C57.3766 43.5329 57.7677 43.5798 58.5498 43.2513C59.0191 43.0636 77.2269 32.5206 78.932 31.4413C79.7923 30.9251 80.027 30.3776 79.6985 29.7362C79.4482 29.2513 79.1666 29.0793 78.6504 29.0793C78.4783 29.0793 73.7074 31.7854 68.0135 35.1016L57.6895 41.1396L55.5308 40.4357C54.342 40.0446 52.6995 39.6066 51.9018 39.4659C49.9777 39.1374 47.2403 39.2312 45.1599 39.7161L43.6425 40.0759L43.1107 39.6066C41.7811 38.4335 39.5442 37.2133 37.6827 36.6189C34.6012 35.6335 32.3174 35.6335 26.7017 36.5564L22.6816 37.229L12.3106 32.3642C6.00671 29.3921 1.68939 27.4524 1.29833 27.4055C0.735197 27.3273 0.625699 27.3742 0.328492 27.7496Z" fill="white"/>
<path d="M0.500623 49.3362C0.0626337 49.6491 -0.0781486 50.2592 0.203416 50.791C0.391126 51.1351 1.70509 51.839 7.47717 54.6547L14.5319 58.0804L15.5956 59.3318C16.9409 60.9273 19.0526 62.6793 21.1487 63.9307C22.3062 64.619 22.9163 65.0882 23.1509 65.4793C23.542 66.105 24.6526 66.8715 25.513 67.1061C26.0917 67.2625 26.1074 67.2782 26.1074 67.9977C26.123 69.9218 27.7498 71.5955 29.9085 71.8771C30.5968 71.9709 30.6437 72.0178 30.6437 72.4402C30.6437 73.019 30.9878 73.8167 31.504 74.5206C32.0515 75.2246 33.6158 76.0067 34.4917 76.0067C35.1487 76.0067 35.1487 76.0067 35.3051 76.6949C35.7431 78.8067 37.6672 80.2145 39.7945 80.0424C40.6236 79.9642 41.7186 79.5106 42.3912 78.9631L42.7979 78.6346L43.4862 78.9944C44.0337 79.2916 44.4247 79.3698 45.4258 79.3698C46.5052 79.3698 46.7711 79.3072 47.4124 78.9475C48.4448 78.3218 49.227 77.3519 49.5242 76.2726L49.7744 75.381H50.4314C51.2605 75.381 52.5432 74.7396 53.1845 74.0044C53.7476 73.3787 54.2482 72.3463 54.2638 71.8458C54.2638 71.5642 54.389 71.5016 55.0147 71.4078C56.7979 71.1732 58.2996 69.9218 58.7532 68.3262L59.0035 67.4346L59.7543 67.3564C60.5834 67.2469 61.4907 66.8402 62.2102 66.2301C62.7733 65.7609 63.4929 64.3843 63.4929 63.7899C63.4929 63.4458 63.6337 63.2737 64.2437 62.9296C65.9644 61.9284 67.2627 60.7396 68.6549 58.8938L69.3588 57.9709L74.5678 55.4212C79.0102 53.2469 79.7924 52.8089 79.9175 52.4491C80.1521 51.8547 79.8706 51.2133 79.2762 50.9787C78.7287 50.7441 78.7756 50.7284 72.0963 53.9977L67.7946 56.1094L66.7465 57.5173C65.7298 58.8782 64.8538 59.7229 63.6024 60.5676L63.008 60.9743L61.8504 59.5977C59.8169 57.1888 59.0974 56.7195 57.3923 56.7195C56.1879 56.7195 55.484 56.9854 54.5767 57.8145C53.8884 58.4245 53.1689 59.7072 53.1689 60.3173C53.1689 60.6145 53.0907 60.677 52.6527 60.677C50.9789 60.677 49.1644 62.1005 48.6951 63.7899C48.4292 64.7285 48.4136 64.7441 47.8661 64.7441C46.1454 64.7754 44.2683 66.3866 44.0024 68.0603C43.9085 68.6078 43.8616 68.6391 43.1733 68.7486C40.7487 69.0927 39.075 71.048 39.294 73.3475C39.3878 74.3799 39.685 75.0212 40.561 76.0536L41.2024 76.8201L40.7644 77.1955C39.951 77.8994 38.8247 77.8838 38.0895 77.1642C37.4638 76.5385 37.4169 75.8346 37.9018 74.8804C38.3711 73.9732 38.3398 73.3475 37.7923 72.9564C37.3074 72.6123 36.9007 72.6748 36.1342 73.191C35.1331 73.8637 34.2415 73.848 33.5219 73.1285C33.0839 72.6905 32.9901 72.4871 32.9901 71.9083C32.9901 71.5016 33.1152 71.048 33.3029 70.7664C33.7565 70.0938 33.7096 69.3743 33.2091 68.9832C32.6616 68.5609 32.5208 68.5609 31.4727 69.124C30.4873 69.6558 30.4716 69.6558 29.6582 69.4212C28.5632 69.124 28.1096 67.7318 28.7666 66.6525C29.1889 65.9798 29.1733 65.3072 28.7353 64.9005C28.4381 64.619 28.266 64.5877 27.7498 64.6815C26.4202 64.9162 25.8414 64.8379 25.3409 64.353C25.075 64.1184 24.809 63.6804 24.7621 63.3988C24.5744 62.3977 24.8873 61.9597 27.4526 59.6603C30.6437 56.7977 31.0191 56.391 30.8783 55.8592C30.7219 55.2178 30.3465 54.8893 29.7677 54.8893C29.3141 54.8893 28.8604 55.2491 26.2169 57.6111C23.761 59.8324 23.1353 60.4893 22.8224 61.1463C22.4001 62.0379 22.4157 62.0379 21.1331 61.162C19.7878 60.2391 18.2861 58.8782 17.0191 57.4078C16.0962 56.3597 15.6895 56.0156 14.923 55.6715C14.4068 55.4368 11.1844 53.8569 7.74309 52.1675C4.31739 50.4781 1.36096 49.1016 1.17325 49.1016C0.98554 49.1016 0.688333 49.2111 0.500623 49.3362ZM58.065 59.1597C58.5968 59.3944 60.7711 61.8033 61.0996 62.5229C61.3655 63.1173 61.1935 63.7899 60.6303 64.3843C60.0672 64.9787 59.3007 65.1821 58.6437 64.9005C58.2527 64.7284 57.2516 63.7117 55.9376 62.1162C55.1242 61.115 55.484 59.6916 56.6728 59.1754C57.2828 58.9094 57.4549 58.9094 58.065 59.1597ZM53.5443 63.1955C53.9197 63.3676 56.0158 65.6983 56.4069 66.3709C57.1108 67.591 55.7812 69.3273 54.3421 69.0614C53.5286 68.905 51.0258 66.105 50.8694 65.1664C50.6504 63.7899 52.246 62.6011 53.5443 63.1955ZM49.9309 68.2011C50.5253 68.8111 51.2136 69.6089 51.4638 69.953C52.4962 71.3765 51.6672 73.0346 49.9309 73.0346C49.1957 73.0346 48.961 72.8469 47.475 71.0949C46.3957 69.8123 46.2862 69.6402 46.2862 69.0145C46.2862 67.8413 47.037 67.1061 48.2415 67.0905C48.8046 67.0905 48.9454 67.1843 49.9309 68.2011ZM44.2057 71.2357C44.6281 71.3452 46.8337 73.8324 47.1934 74.5676C47.4124 75.0212 47.4124 75.1463 47.2247 75.7408C46.818 76.867 45.5979 77.3989 44.5968 76.8827C44.1744 76.6637 42.1722 74.4268 41.7968 73.7698C41.5309 73.2849 41.5465 72.6123 41.8593 72.0804C42.1566 71.5955 43.2359 70.9698 43.6269 71.0637C43.7521 71.1106 44.018 71.1732 44.2057 71.2357Z" fill="white"/>
</svg>
